<svg width="46" height="20" viewBox="0 0 46 20" fill="none" xmlns="http://www.w3.org/2000/svg">
<path fill-rule="evenodd" clip-rule="evenodd" d="M30.5861 15.504C31.4711 15.504 32.081 15.363 33.3968 14.5877L32.5049 12.5141C32.1428 12.6728 31.8341 12.72 31.3349 12.72C30.4953 12.72 30.0188 12.24 30.0188 11.232V5.18401H32.4093V2.71201H30.0188V0H26.7513V11.544C26.7513 14.16 28.0901 15.504 30.5861 15.504ZM11.9945 11.3034C11.6088 14.0154 9.56662 15.5275 6.32182 15.5275C2.73665 15.5275 0.127197 13.1514 0.127197 9.14345V8.95144C0.127197 4.99146 2.78203 2.42344 6.23106 2.42344C9.29434 2.42344 12.0172 4.31942 12.0172 8.80745V9.76743H3.46278C3.55353 11.8554 4.62 13.0554 6.41259 13.0554C7.93287 13.0554 8.68168 12.3594 8.88591 11.3034H11.9945ZM6.23106 4.82344C4.75616 4.82344 3.75776 5.85542 3.50815 7.63143H8.81782C8.70437 5.73545 7.79673 4.82344 6.23106 4.82344ZM16.9621 15.2635H13.6719V2.71143H16.9621V4.70343C17.5521 3.45542 18.8455 2.42344 20.8196 2.42344C23.1567 2.42344 24.8132 3.91143 24.8132 7.27145V15.2635H21.523V7.77543C21.523 6.07145 20.8876 5.25542 19.4354 5.25542C18.0286 5.25542 16.9621 6.16743 16.9621 8.01544V15.2635ZM39.378 19.5357H36.2013L38.2889 13.9917L33.5691 2.71172H37.1089L39.9907 10.2477L42.6455 2.71172H45.7995L39.378 19.5357Z" fill="white"/>
</svg>
