<svg width="918" height="656" viewBox="0 0 918 656" fill="none" xmlns="http://www.w3.org/2000/svg">
<path d="M134.129 557.596C134.093 557.593 134.056 557.591 134.019 557.59C133.453 557.579 132.927 557.889 132.661 558.391L132.657 558.398C132.411 558.863 132.424 559.422 132.692 559.872L136.494 567.912L136.495 567.913C137.717 570.492 140.3 572.153 143.157 572.157C143.157 572.157 143.158 572.157 143.158 572.157L390.586 572.737L390.587 572.737C394.231 572.743 397.807 571.711 400.891 569.748L669.348 399.117L669.349 399.116C672.114 397.357 673.407 393.983 672.54 390.818L672.54 390.817L670.954 385.029C670.829 384.573 670.497 384.204 670.058 384.032C669.619 383.861 669.124 383.907 668.723 384.157C622.641 412.838 576.559 441.519 530.477 470.199L530.435 470.225C484.459 498.84 438.482 527.454 392.507 556.07L134.129 557.596Z" fill="#7148E5" stroke="#7F57F4" stroke-width="3" stroke-linecap="round" stroke-linejoin="round"/>
<path d="M418.833 405.305C419.515 404.933 419.803 404.101 419.497 403.388L319.479 170.476C319.167 169.749 318.344 169.392 317.6 169.662L4.32036 282.96C3.92239 283.104 3.60291 283.41 3.44065 283.802C3.27838 284.193 3.28844 284.635 3.46832 285.018L132.641 559.776C132.817 560.149 133.138 560.433 133.529 560.56C133.92 560.688 134.347 560.648 134.709 560.45L418.833 405.305Z" fill="url(#paint0_linear_2034_3457)" stroke="#967DDE" stroke-width="3" stroke-linecap="round" stroke-linejoin="round"/>
<path d="M19.3582 290.93L314.171 183.124L405.01 395.817L137.215 540.527L19.3582 290.93Z" fill="url(#paint1_linear_2034_3457)"/>
<path d="M19.3582 290.93L314.171 183.124L405.01 395.817L137.215 540.527L19.3582 290.93Z" fill="url(#paint2_linear_2034_3457)"/>
<path d="M670.303 386.705C670.889 386.339 671.152 385.621 670.94 384.964C670.729 384.308 670.097 383.882 669.41 383.933L418.009 402.491C417.796 402.507 417.589 402.568 417.401 402.67L133.271 557.774C132.668 558.103 132.363 558.799 132.53 559.465C132.698 560.131 133.296 560.596 133.981 560.594L387.471 559.95L387.471 559.95C391.038 559.94 394.528 558.934 397.558 557.042L670.303 386.705Z" fill="url(#paint3_linear_2034_3457)" stroke="#7F57F4" stroke-width="3" stroke-linecap="round" stroke-linejoin="round"/>
<path opacity="0.8" d="M473.227 504.777L358.621 508.588L467.063 445.385L582.513 436.602L473.227 504.777Z" fill="url(#paint4_linear_2034_3457)" fill-opacity="0.7"/>
<g filter="url(#filter0_d_2034_3457)">
<path d="M345.009 46C372.035 64.2337 401.01 85.6594 430.858 110.736C463.259 137.952 491.293 164.933 515.295 190.257C505.528 218.324 487.855 258.599 455.487 300.028C418.672 347.147 378.307 375.965 351.337 392.205C307.355 351.403 263.361 310.59 219.367 269.777C240.815 247.612 265.691 217.854 288.718 179.695C319.272 129.082 335.747 81.5826 345.009 46Z" fill="#F7FBFD"/>
</g>
<g filter="url(#filter1_d_2034_3457)">
<path d="M423.011 156.673C445.747 135.091 480.557 106.822 528.482 83.4361C571.524 62.4248 610.87 52.3224 639.99 47.1592C659.724 76.9625 680.209 113.06 698.163 155.531C706.619 175.523 713.596 194.765 719.376 212.976C686.313 217.445 643.831 226.315 596.78 244.526C550.289 262.525 513.272 284.264 485.978 303.013C464.989 254.226 443.989 205.45 423 156.662L423.011 156.673Z" fill="#F7FBFD"/>
</g>
<g filter="url(#filter2_d_2034_3457)">
<path d="M569.371 275.562C593.585 286.478 621.459 301.255 650.695 321.307C688.93 347.541 731.368 381.457 753.112 405.055C774.676 382.455 798.161 354.78 821.16 321.616C839.804 294.737 854.865 268.949 867.047 245.448C849.253 226.866 811.704 198.696 779.443 178.72C727.75 146.713 678.56 133.47 645.644 127.52C620.211 176.861 594.791 226.211 569.358 275.552L569.371 275.562Z" fill="#F7FBFD"/>
</g>
<path d="M97.2609 471.861C96.457 470.139 95.0715 468.734 93.1093 467.648C92.7929 467.475 92.4711 467.315 92.143 467.165C92.0827 467.136 92.0272 467.111 91.9669 467.082C91.6494 466.942 91.3304 466.815 91.0013 466.698C90.9378 466.674 90.8752 466.655 90.8118 466.631C90.4747 466.516 90.1304 466.407 89.7777 466.316C89.7649 466.315 89.7512 466.309 89.7424 466.307C89.3985 466.219 89.0492 466.144 88.6936 466.079C88.6287 466.068 88.5679 466.056 88.503 466.045C88.1523 465.983 87.7922 465.935 87.4307 465.901C87.3587 465.895 87.2859 465.886 87.2139 465.881C86.8405 465.849 86.4639 465.821 86.0788 465.813C86.0541 465.814 86.0285 465.811 85.9998 465.813C85.6275 465.806 85.2498 465.812 84.8659 465.828C84.7996 465.83 84.7333 465.832 84.6679 465.837C84.2809 465.858 83.8876 465.889 83.4889 465.933C83.453 465.941 83.4186 465.935 83.3828 465.943C83.3222 465.952 83.2617 465.961 83.2051 465.969C82.9739 465.998 82.7435 466.031 82.5092 466.065C82.4088 466.082 82.3116 466.095 82.2112 466.112C81.8814 466.166 81.5524 466.225 81.218 466.297C81.0746 466.328 80.9313 466.358 80.788 466.389C80.7283 466.402 80.6655 466.42 80.6058 466.433C80.3789 466.482 80.1585 466.541 79.9333 466.598C79.8227 466.626 79.7161 466.653 79.6063 466.685C79.3311 466.761 79.0567 466.841 78.7872 466.924C78.7434 466.934 78.7044 466.946 78.6615 466.959L78.6416 466.964C78.3809 467.049 78.1202 467.134 77.8651 467.227C77.8413 467.232 77.8142 467.242 77.7912 467.251C77.5083 467.349 77.2311 467.455 76.9588 467.563L76.9428 467.567C76.7245 467.656 76.507 467.748 76.2944 467.844C76.2563 467.86 76.2182 467.877 76.1801 467.893C75.9254 468.007 75.6715 468.124 75.4225 468.244L75.4105 468.247C75.3472 468.281 75.2877 468.315 75.2235 468.345C75.0356 468.44 74.8508 468.53 74.6678 468.627C74.5782 468.676 74.4855 468.729 74.396 468.777C74.2581 468.853 74.1203 468.928 73.9824 469.004C73.9673 469.011 73.9531 469.023 73.9381 469.03C73.8161 469.102 73.6942 469.174 73.5731 469.25C73.4512 469.322 73.3292 469.394 73.2081 469.47C73.087 469.546 72.9708 469.626 72.8537 469.701C72.7477 469.769 72.6416 469.838 72.5396 469.906C72.5245 469.913 72.5143 469.924 72.5001 469.935C72.2494 470.106 72.0004 470.284 71.7563 470.466C71.727 470.485 71.7026 470.507 71.6782 470.529C71.4593 470.692 71.2453 470.859 71.0322 471.03C71.018 471.042 70.9998 471.054 70.9824 471.07C70.9438 471.103 70.9051 471.137 70.8665 471.17C70.6329 471.362 70.4081 471.556 70.1811 471.759C70.1078 471.825 70.0305 471.891 69.958 471.961C69.69 472.206 69.4238 472.459 69.1632 472.72C69.1388 472.741 69.1192 472.766 69.0947 472.788C69.0601 472.821 69.0342 472.856 68.9996 472.888C68.7839 473.105 68.5771 473.325 68.379 473.546C68.3114 473.619 68.2447 473.696 68.181 473.768C67.9799 473.995 67.7867 474.22 67.6023 474.447C67.5725 474.482 67.5395 474.523 67.5097 474.558C67.2995 474.82 67.1061 475.083 66.9166 475.344C66.8649 475.414 66.818 475.486 66.7703 475.555C66.6272 475.76 66.4889 475.969 66.3554 476.181C66.3273 476.225 66.2952 476.269 66.2679 476.317C66.2492 476.346 66.2344 476.374 66.2197 476.402C66.1152 476.575 66.0186 476.745 65.9221 476.916C65.8863 476.982 65.8466 477.049 65.8099 477.111C65.6816 477.347 65.5621 477.585 65.4474 477.826C65.4443 477.831 65.442 477.84 65.4389 477.845C65.4281 477.872 65.4173 477.899 65.4057 477.923C65.2981 478.158 65.1985 478.392 65.1037 478.629C65.0714 478.711 65.0422 478.788 65.0098 478.87C64.9329 479.074 64.8609 479.281 64.7968 479.487C64.7747 479.558 64.7517 479.626 64.7296 479.697C64.6497 479.964 64.5745 480.234 64.5162 480.505C64.5066 480.557 64.4961 480.605 64.4865 480.657C64.4395 480.884 64.3965 481.11 64.3614 481.334C64.3532 481.373 64.345 481.413 64.3408 481.451C64.3343 481.498 64.3317 481.545 64.3252 481.592C64.2984 481.777 64.2795 481.96 64.2615 482.147C64.2539 482.228 64.2471 482.312 64.2395 482.393C64.221 482.655 64.2073 482.921 64.2064 483.188L81.2571 519.692C81.258 519.425 81.2717 519.16 81.2902 518.897C81.2978 518.817 81.3046 518.732 81.3122 518.651C81.3302 518.464 81.3491 518.281 81.3759 518.096C81.3866 518.01 81.4005 517.92 81.4152 517.833C81.4494 517.605 81.4924 517.379 81.5403 517.157C81.5499 517.105 81.5604 517.056 81.57 517.004C81.6323 516.733 81.7035 516.463 81.7834 516.196C81.8055 516.125 81.8285 516.057 81.8506 515.986C81.9147 515.781 81.9867 515.573 82.0636 515.37C82.092 515.288 82.1243 515.206 82.1575 515.129C82.2523 514.892 82.3519 514.658 82.4595 514.422C82.4734 514.39 82.4873 514.358 82.5012 514.326C82.6119 514.085 82.7354 513.846 82.8637 513.61C82.8995 513.544 82.9393 513.477 82.9759 513.415C83.0724 513.245 83.169 513.074 83.2735 512.901C83.3163 512.83 83.3672 512.756 83.4101 512.685C83.5444 512.477 83.6827 512.268 83.825 512.058C83.8727 511.989 83.9235 511.916 83.9713 511.847C84.1607 511.586 84.3581 511.323 84.5644 511.062C84.5933 511.022 84.6271 510.986 84.657 510.95C84.8413 510.723 85.0345 510.498 85.2317 510.272C85.2985 510.195 85.3661 510.123 85.4337 510.05C85.6326 509.832 85.8394 509.612 86.0542 509.391C86.1085 509.334 86.1596 509.281 86.2139 509.224C86.4745 508.963 86.7416 508.714 87.0087 508.465C87.082 508.399 87.1584 508.329 87.2317 508.263C87.4557 508.065 87.6836 507.866 87.918 507.678C87.9749 507.632 88.0269 507.584 88.0837 507.538C88.2969 507.367 88.5109 507.201 88.7257 507.038C88.755 507.019 88.7794 506.997 88.8079 506.974C89.052 506.792 89.3018 506.618 89.5516 506.443C89.6679 506.364 89.789 506.288 89.9052 506.209C90.0215 506.13 90.1426 506.054 90.2597 505.979C90.3807 505.902 90.5027 505.83 90.6246 505.758C90.7466 505.686 90.8677 505.61 90.9896 505.538C91.1417 505.451 91.2906 505.369 91.4436 505.286C91.5331 505.238 91.6258 505.185 91.7153 505.136C91.8984 505.038 92.0863 504.944 92.2711 504.854C92.3353 504.824 92.3947 504.79 92.459 504.76C92.712 504.638 92.969 504.516 93.2277 504.402C93.2657 504.386 93.3038 504.369 93.3419 504.353C93.5625 504.255 93.784 504.162 94.0063 504.072C94.2827 503.963 94.5599 503.857 94.8388 503.76C94.8627 503.755 94.8857 503.746 94.9127 503.736C95.1686 503.647 95.4284 503.558 95.69 503.477C95.7369 503.462 95.7878 503.447 95.8387 503.432C96.1082 503.349 96.3826 503.269 96.6579 503.193C96.7645 503.166 96.8751 503.138 96.9848 503.106C97.206 503.05 97.4313 502.994 97.6573 502.941C97.8603 502.897 98.0616 502.845 98.2695 502.805C98.6039 502.733 98.9369 502.674 99.2627 502.62C99.3631 502.603 99.4644 502.589 99.5608 502.573C99.7951 502.539 100.025 502.506 100.257 502.477C100.354 502.464 100.447 502.453 100.545 502.444C100.944 502.4 101.337 502.369 101.724 502.349C101.791 502.347 101.857 502.345 101.922 502.339C102.306 502.323 102.684 502.317 103.056 502.324C103.081 502.323 103.106 502.326 103.135 502.324C103.52 502.333 103.896 502.356 104.27 502.392C104.342 502.397 104.414 502.403 104.487 502.412C104.849 502.451 105.206 502.499 105.559 502.556C105.624 502.567 105.685 502.579 105.75 502.59C106.106 502.655 106.455 502.73 106.799 502.818C106.812 502.82 106.825 502.825 106.838 502.826C107.187 502.918 107.531 503.027 107.872 503.141C107.936 503.165 107.998 503.185 108.062 503.209C108.387 503.326 108.71 503.452 109.027 503.592C109.087 503.617 109.147 503.646 109.203 503.675C109.531 503.825 109.853 503.985 110.17 504.159C112.133 505.248 113.517 506.649 114.321 508.372L97.2706 471.867L97.2609 471.861Z" fill="url(#paint5_linear_2034_3457)"/>
<path d="M64.2035 483.183L81.2542 519.687C81.252 519.812 81.2547 519.941 81.2605 520.065L64.2098 483.56C64.208 483.436 64.2053 483.307 64.2035 483.183Z" fill="url(#paint6_linear_2034_3457)"/>
<path d="M64.2067 483.561L81.2573 520.065C81.2706 520.591 81.3251 521.096 81.4138 521.585L64.3631 485.081C64.2745 484.591 64.22 484.087 64.2067 483.561Z" fill="url(#paint7_linear_2034_3457)"/>
<path d="M64.3695 485.085L81.4202 521.589C81.4982 522.009 81.6033 522.42 81.7385 522.816L64.6878 486.312C64.5526 485.916 64.4484 485.509 64.3695 485.085Z" fill="url(#paint8_linear_2034_3457)"/>
<path d="M64.6836 486.307L81.7343 522.811C81.8327 523.094 81.943 523.374 82.0675 523.643L65.0168 487.139C64.8923 486.87 64.778 486.591 64.6836 486.307Z" fill="url(#paint9_linear_2034_3457)"/>
<path d="M141.575 500.01C141.564 499.962 141.546 499.916 141.536 499.868C141.439 499.514 141.335 499.166 141.227 498.823C141.202 498.745 141.178 498.671 141.153 498.593C141.138 498.542 141.122 498.487 141.103 498.437C141.024 498.208 140.939 497.985 140.853 497.762C140.804 497.631 140.758 497.495 140.705 497.365C140.549 496.969 140.383 496.584 140.205 496.202L123.154 459.698C123.332 460.08 123.5 460.469 123.655 460.86C123.708 460.991 123.753 461.123 123.803 461.258C123.907 461.531 124.009 461.809 124.102 462.089C124.127 462.167 124.152 462.241 124.177 462.318C124.288 462.661 124.392 463.009 124.484 463.36C124.495 463.408 124.513 463.454 124.523 463.502C124.622 463.884 124.715 464.277 124.795 464.668C124.814 464.755 124.833 464.847 124.853 464.939C124.924 465.286 124.983 465.639 125.04 465.998C125.051 466.071 125.066 466.138 125.073 466.212C125.133 466.624 125.182 467.046 125.223 467.471C125.235 467.585 125.243 467.695 125.251 467.81C125.279 468.137 125.3 468.466 125.318 468.8C125.325 468.931 125.332 469.059 125.335 469.192C125.35 469.626 125.361 470.065 125.36 470.507C125.356 470.837 125.348 471.167 125.337 471.499C125.334 471.604 125.327 471.705 125.32 471.811C125.311 472.038 125.297 472.266 125.28 472.494C125.272 472.613 125.26 472.732 125.252 472.85C125.233 473.071 125.213 473.287 125.193 473.504C125.181 473.619 125.168 473.735 125.155 473.85C125.124 474.094 125.095 474.342 125.06 474.587C125.048 474.668 125.037 474.75 125.025 474.832C124.975 475.18 124.916 475.526 124.853 475.868C124.838 475.955 124.819 476.042 124.801 476.134C124.75 476.399 124.694 476.661 124.639 476.927C124.616 477.036 124.589 477.141 124.567 477.25C124.501 477.527 124.435 477.799 124.362 478.078C124.344 478.148 124.326 478.223 124.304 478.294C124.211 478.635 124.114 478.977 124.009 479.32C123.981 479.405 123.953 479.49 123.93 479.574C123.849 479.837 123.764 480.097 123.675 480.362C123.64 480.47 123.6 480.578 123.564 480.682C123.469 480.952 123.368 481.22 123.268 481.491C123.238 481.564 123.213 481.641 123.183 481.714C123.051 482.05 122.911 482.389 122.768 482.728C122.731 482.81 122.694 482.889 122.658 482.972C122.543 483.234 122.424 483.493 122.306 483.756C122.252 483.872 122.197 483.988 122.142 484.099C122.056 484.276 121.969 484.453 121.882 484.63C121.821 484.752 121.76 484.877 121.695 485C121.601 485.182 121.503 485.366 121.405 485.549C121.343 485.667 121.284 485.78 121.218 485.898C121.106 486.097 120.996 486.3 120.88 486.499C120.826 486.595 120.772 486.694 120.714 486.789C120.54 487.085 120.366 487.381 120.184 487.674C119.972 488.024 119.746 488.368 119.521 488.717C119.458 488.813 119.392 488.911 119.329 489.008C119.143 489.285 118.957 489.559 118.762 489.834C118.708 489.912 118.657 489.986 118.599 490.065C118.355 490.404 118.108 490.745 117.853 491.087C117.794 491.163 117.735 491.238 117.681 491.316C117.474 491.59 117.258 491.865 117.041 492.137C116.966 492.232 116.891 492.328 116.816 492.423C116.543 492.761 116.266 493.099 115.98 493.436L115.972 493.438C115.684 493.783 115.39 494.121 115.087 494.457C115.003 494.55 114.916 494.648 114.832 494.741C114.59 495.01 114.34 495.28 114.09 495.55C114.018 495.624 113.952 495.701 113.881 495.779C113.565 496.113 113.241 496.445 112.913 496.778C112.681 497.016 112.444 497.25 112.203 497.485C111.718 497.96 111.226 498.424 110.733 498.88C110.608 498.995 110.482 499.109 110.357 499.224C109.869 499.666 109.38 500.105 108.88 500.529C108.87 500.539 108.86 500.55 108.845 500.557C108.327 500.998 107.803 501.427 107.274 501.849C107.174 501.929 107.075 502.009 106.975 502.089C106.466 502.49 105.955 502.883 105.433 503.266C105.347 503.33 105.264 503.39 105.178 503.454C104.653 503.838 104.121 504.215 103.588 504.58C103.562 504.598 103.537 504.616 103.512 504.634C103.305 504.774 103.092 504.907 102.884 505.044C102.468 505.321 102.049 505.598 101.627 505.864C101.374 506.023 101.118 506.169 100.864 506.324C100.481 506.556 100.099 506.793 99.7058 507.019C99.317 507.244 98.9176 507.459 98.5222 507.674C98.2797 507.805 98.0429 507.943 97.7996 508.071C97.3138 508.329 96.8206 508.573 96.3273 508.817C96.1696 508.897 96.0166 508.979 95.854 509.056C95.1974 509.372 94.531 509.682 93.8612 509.977C93.7319 510.034 93.5968 510.083 93.4675 510.14C92.9262 510.374 92.3809 510.608 91.8322 510.826C91.1223 511.108 90.4099 511.378 89.686 511.633C89.5231 511.689 89.3593 511.741 89.2004 511.796C88.6346 511.993 88.072 512.185 87.4988 512.367C86.8747 512.563 86.2441 512.749 85.6126 512.931C85.475 512.969 85.3373 513.007 85.2037 513.044C84.5625 513.219 83.9165 513.392 83.2671 513.548C83.1795 513.567 83.0919 513.586 83.0052 513.609C82.32 513.773 81.633 513.929 80.9395 514.074C80.2658 514.215 79.5967 514.338 78.9348 514.456C78.7826 514.484 78.6296 514.509 78.4767 514.534C77.8258 514.645 77.1763 514.743 76.537 514.83C76.4557 514.84 76.3792 514.852 76.3018 514.86C75.763 514.93 75.2264 514.992 74.6929 515.048C74.4401 515.074 74.1872 515.099 73.9384 515.123C73.5053 515.162 73.0793 515.196 72.6516 515.221C72.4178 515.238 72.1801 515.256 71.9446 515.265C71.4586 515.29 70.9788 515.306 70.4982 515.318C70.3321 515.32 70.1677 515.331 70.0016 515.333C69.362 515.342 68.7286 515.341 68.1006 515.326C67.9584 515.323 67.8145 515.313 67.6723 515.31C67.1897 515.293 66.7101 515.271 66.2329 515.241C66.013 515.226 65.8003 515.205 65.5844 515.189C65.1814 515.155 64.7823 515.12 64.3895 515.075C64.1591 515.05 63.9327 515.024 63.7054 514.993C63.3198 514.943 62.9332 514.889 62.5498 514.83C62.3344 514.797 62.1151 514.765 61.8981 514.724C61.4825 514.651 61.0692 514.569 60.6559 514.488C60.4861 514.453 60.3123 514.42 60.1424 514.386C59.5656 514.26 58.9941 514.121 58.4328 513.971C58.3486 513.947 58.2635 513.92 58.1802 513.9C57.7023 513.77 57.2257 513.627 56.7563 513.478C56.5686 513.418 56.3839 513.354 56.1953 513.29C55.8309 513.165 55.4664 513.039 55.1043 512.904C54.9003 512.828 54.6963 512.751 54.4954 512.669C54.15 512.535 53.8069 512.392 53.4669 512.245C53.2692 512.158 53.0723 512.076 52.8785 511.988C52.5192 511.828 52.1652 511.654 51.8113 511.481C51.644 511.4 51.4767 511.319 51.3125 511.234C50.7983 510.974 50.2895 510.7 49.7902 510.412C44.712 507.506 41.1327 503.824 39.0542 499.373L56.1048 535.877C58.1834 540.328 61.7618 544.007 66.8408 546.916C67.3442 547.204 67.8521 547.473 68.3632 547.738C68.5273 547.824 68.6978 547.899 68.8619 547.985C69.2159 548.158 69.569 548.328 69.9292 548.492C70.123 548.58 70.3207 548.666 70.5176 548.749C70.8576 548.896 71.1999 549.035 71.5461 549.173C71.747 549.255 71.951 549.332 72.155 549.409C72.5171 549.543 72.8776 549.67 73.246 549.794C73.4346 549.858 73.6193 549.922 73.807 549.982C74.2764 550.131 74.7529 550.274 75.2309 550.404C75.3151 550.428 75.3961 550.456 75.4835 550.475C76.0496 550.628 76.6202 550.763 77.1931 550.89C77.3638 550.928 77.5367 550.958 77.7066 550.992C78.1168 551.078 78.5292 551.156 78.9488 551.228C79.165 551.265 79.3843 551.297 79.6004 551.334C79.9839 551.393 80.3664 551.448 80.7521 551.498C80.9794 551.529 81.2058 551.555 81.4362 551.58C81.833 551.624 82.2281 551.66 82.6311 551.694C82.847 551.71 83.0637 551.73 83.2836 551.745C83.7608 551.775 84.2404 551.797 84.723 551.814C84.8661 551.821 85.0091 551.827 85.1522 551.834C85.7802 551.849 86.4144 551.854 87.0531 551.841C87.2192 551.839 87.3845 551.833 87.5497 551.826C88.0303 551.814 88.5101 551.799 88.9961 551.773C89.2307 551.76 89.4685 551.742 89.7031 551.729C90.13 551.7 90.5568 551.67 90.9899 551.631C91.2436 551.61 91.4964 551.585 91.7484 551.556C91.9278 551.538 92.1041 551.525 92.2827 551.503C92.6368 551.464 92.9971 551.416 93.3534 551.368C93.4307 551.36 93.5121 551.351 93.5886 551.339C94.2278 551.251 94.8764 551.149 95.5282 551.042C95.6812 551.017 95.8333 550.989 95.9863 550.964C96.6483 550.846 97.3174 550.723 97.991 550.582C98.3532 550.504 98.7115 550.427 99.0738 550.349C99.4042 550.278 99.7281 550.196 100.057 550.117C100.144 550.098 100.232 550.079 100.319 550.056C100.968 549.9 101.614 549.728 102.255 549.552C102.393 549.514 102.53 549.476 102.668 549.438C103.277 549.266 103.884 549.089 104.481 548.902C104.505 548.897 104.527 548.884 104.555 548.878C105.132 548.695 105.703 548.502 106.273 548.304C106.428 548.25 106.587 548.199 106.746 548.144C107.47 547.888 108.187 547.617 108.892 547.332C108.904 547.33 108.912 547.328 108.923 547.321C109.452 547.111 109.975 546.887 110.497 546.662C110.638 546.602 110.78 546.547 110.921 546.483C111.587 546.19 112.246 545.885 112.894 545.571L112.91 545.567C113.071 545.483 113.232 545.398 113.398 545.317C113.887 545.074 114.372 544.832 114.855 544.578C115.098 544.451 115.335 544.312 115.578 544.181C115.95 543.976 116.324 543.779 116.691 543.566C116.713 543.553 116.739 543.539 116.76 543.522C117.149 543.297 117.532 543.061 117.919 542.827C118.173 542.673 118.429 542.526 118.682 542.367C119.104 542.102 119.519 541.825 119.938 541.547C120.139 541.416 120.341 541.29 120.537 541.156C120.548 541.149 120.555 541.143 120.566 541.137C120.592 541.119 120.617 541.101 120.642 541.083C121.176 540.718 121.707 540.341 122.233 539.958C122.319 539.893 122.406 539.833 122.492 539.769C123.01 539.386 123.524 538.992 124.034 538.591C124.133 538.511 124.233 538.432 124.336 538.351C124.471 538.243 124.607 538.139 124.742 538.03C125.132 537.713 125.52 537.388 125.907 537.059C125.918 537.048 125.928 537.038 125.943 537.03C126.439 536.607 126.932 536.168 127.42 535.725C127.545 535.611 127.67 535.497 127.796 535.382C128.289 534.926 128.781 534.462 129.266 533.987C129.482 533.774 129.698 533.556 129.914 533.343C129.935 533.322 129.955 533.301 129.976 533.28C130.304 532.947 130.628 532.615 130.943 532.28C131.015 532.207 131.086 532.129 131.153 532.052C131.403 531.782 131.653 531.515 131.895 531.242C131.979 531.149 132.066 531.051 132.15 530.958C132.452 530.619 132.746 530.284 133.035 529.943L133.043 529.941C133.327 529.597 133.605 529.262 133.877 528.92C133.953 528.825 134.032 528.729 134.107 528.634C134.324 528.362 134.535 528.087 134.743 527.814C134.802 527.738 134.86 527.659 134.918 527.584C135.175 527.246 135.422 526.905 135.665 526.561C135.719 526.483 135.773 526.405 135.827 526.331C136.018 526.056 136.209 525.782 136.391 525.505C136.458 525.408 136.52 525.311 136.583 525.214C136.808 524.87 137.033 524.521 137.246 524.176C137.428 523.878 137.602 523.583 137.776 523.287C137.834 523.191 137.884 523.093 137.942 522.997C138.058 522.797 138.169 522.598 138.279 522.396C138.341 522.278 138.404 522.164 138.467 522.047C138.565 521.863 138.663 521.68 138.757 521.497C138.818 521.376 138.879 521.254 138.94 521.129C139.03 520.951 139.117 520.774 139.203 520.593C139.232 520.533 139.265 520.471 139.293 520.411C139.319 520.356 139.341 520.305 139.367 520.25C139.49 519.99 139.604 519.728 139.719 519.466C139.755 519.383 139.792 519.304 139.829 519.221C139.973 518.886 140.113 518.548 140.243 518.207C140.274 518.134 140.299 518.058 140.329 517.985C140.434 517.717 140.529 517.446 140.626 517.179C140.665 517.071 140.7 516.963 140.736 516.856C140.825 516.595 140.91 516.331 140.992 516.072C141.019 515.987 141.047 515.902 141.074 515.817C141.179 515.473 141.278 515.136 141.37 514.791C141.388 514.72 141.405 514.646 141.427 514.57C141.497 514.297 141.567 514.024 141.629 513.748C141.655 513.638 141.677 513.529 141.701 513.424C141.761 513.161 141.812 512.896 141.864 512.635C141.883 512.548 141.901 512.461 141.915 512.37C141.978 512.023 142.037 511.677 142.088 511.333C142.088 511.316 142.094 511.303 142.094 511.286C142.104 511.217 142.111 511.149 142.121 511.08C142.155 510.835 142.186 510.591 142.213 510.348C142.226 510.233 142.238 510.118 142.25 509.999C142.274 509.781 142.294 509.564 142.31 509.348C142.322 509.229 142.33 509.111 142.337 508.989C142.354 508.76 142.365 508.537 142.378 508.309C142.385 508.204 142.391 508.098 142.393 507.993C142.405 507.662 142.414 507.335 142.417 507.001C142.42 506.647 142.415 506.294 142.407 505.945C142.405 505.858 142.398 505.772 142.396 505.685C142.393 505.553 142.386 505.425 142.379 505.293C142.361 504.96 142.34 504.631 142.312 504.308C142.304 504.193 142.292 504.079 142.285 503.968C142.244 503.544 142.195 503.125 142.135 502.709C142.123 502.637 142.113 502.568 142.101 502.496C142.064 502.245 142.023 501.996 141.979 501.751C141.956 501.644 141.933 501.541 141.911 501.437C141.891 501.345 141.872 501.258 141.853 501.166C141.768 500.772 141.684 500.382 141.58 499.996L141.575 500.01Z" fill="url(#paint10_linear_2034_3457)"/>
<path d="M112.218 497.477C103.5 506.031 93.0856 511.559 80.9672 514.068C68.8418 516.582 58.4619 515.363 49.8179 510.405C41.1678 505.457 36.8703 498.264 36.9192 488.836C36.9703 479.282 41.313 470.237 49.9473 461.702C58.5784 453.171 69.0359 447.629 81.3206 445.081C93.6053 442.532 104.027 443.75 112.59 448.721C121.154 453.692 125.415 460.952 125.364 470.505C125.315 479.934 120.932 488.925 112.217 497.473L112.218 497.477ZM64.1937 483.185C64.1748 486.755 65.8354 489.497 69.1804 491.413C72.5214 493.331 76.4858 493.81 81.0755 492.86C85.6652 491.909 89.6386 489.779 93.0094 486.475C96.3794 483.167 98.0748 479.666 98.0919 475.972C98.1089 472.278 96.4503 469.507 93.1062 467.652C89.7622 465.798 85.7958 465.348 81.2101 466.298C76.6244 467.247 72.44 469.423 69.1536 472.713C65.8593 476.004 64.2116 479.495 64.1906 483.19" fill="url(#paint11_linear_2034_3457)"/>
<path d="M201.494 528.202C200.704 526.506 199.369 525.106 197.492 523.99C197.182 523.807 196.867 523.641 196.546 523.485C196.49 523.456 196.43 523.427 196.37 523.403C196.06 523.257 195.739 523.122 195.417 523C195.354 522.976 195.291 522.956 195.228 522.932C194.89 522.813 194.549 522.699 194.199 522.604C194.186 522.602 194.176 522.596 194.164 522.595C193.819 522.502 193.469 522.424 193.112 522.354C193.047 522.343 192.986 522.328 192.921 522.317C192.566 522.255 192.205 522.204 191.839 522.166C191.766 522.157 191.694 522.152 191.622 522.146C191.244 522.111 190.859 522.086 190.47 522.078C190.445 522.079 190.421 522.08 190.399 522.076C190.018 522.067 189.632 522.075 189.24 522.092C189.17 522.095 189.104 522.097 189.038 522.099C188.642 522.117 188.237 522.154 187.83 522.196C187.794 522.204 187.756 522.2 187.719 522.203C187.658 522.212 187.594 522.222 187.533 522.231C187.294 522.261 187.055 522.292 186.814 522.332C186.712 522.345 186.608 522.363 186.507 522.377C186.165 522.434 185.824 522.495 185.477 522.565C185.333 522.596 185.19 522.627 185.047 522.658C184.987 522.671 184.928 522.687 184.865 522.701C184.638 522.75 184.409 522.812 184.184 522.868C184.078 522.896 183.967 522.924 183.86 522.951C183.577 523.028 183.295 523.11 183.013 523.195C182.977 523.203 182.942 523.215 182.908 523.227L182.892 523.23C182.603 523.321 182.316 523.421 182.033 523.519C181.987 523.537 181.941 523.555 181.898 523.569C181.662 523.653 181.427 523.741 181.193 523.833C181.185 523.835 181.173 523.837 181.166 523.843C181.02 523.9 180.879 523.963 180.734 524.024C180.623 524.068 180.512 524.113 180.401 524.162C180.238 524.234 180.079 524.31 179.92 524.382C179.821 524.428 179.722 524.47 179.625 524.521L179.613 524.523C179.376 524.641 179.139 524.762 178.903 524.884C178.891 524.887 178.881 524.897 178.866 524.905C178.62 525.037 178.377 525.168 178.136 525.307L178.124 525.31C177.922 525.433 177.722 525.551 177.524 525.677C177.477 525.708 177.429 525.735 177.38 525.762C177.134 525.915 176.894 526.075 176.654 526.239L176.646 526.241C176.629 526.257 176.611 526.269 176.588 526.282C176.349 526.446 176.114 526.613 175.884 526.784C175.802 526.847 175.716 526.911 175.634 526.975C175.465 527.103 175.297 527.231 175.134 527.362C175.098 527.39 175.062 527.415 175.026 527.443C174.977 527.483 174.928 527.527 174.879 527.571C174.685 527.733 174.487 527.897 174.298 528.066C174.221 528.133 174.141 528.204 174.064 528.275C173.806 528.51 173.55 528.748 173.298 528.994C173.216 529.074 173.134 529.158 173.051 529.239C173.01 529.281 172.973 529.322 172.932 529.364C172.735 529.569 172.541 529.773 172.356 529.976C172.298 530.038 172.241 530.1 172.188 530.162C171.96 530.419 171.737 530.68 171.531 530.941C171.484 530.996 171.443 531.055 171.4 531.11C171.233 531.321 171.075 531.534 170.921 531.747C170.866 531.821 170.812 531.899 170.757 531.973C170.589 532.218 170.425 532.461 170.274 532.706C170.261 532.726 170.245 532.746 170.236 532.764C170.236 532.764 170.23 532.774 170.227 532.779C170.085 533.009 169.951 533.238 169.827 533.473C169.794 533.534 169.762 533.6 169.73 533.665C169.642 533.834 169.553 534.003 169.473 534.174C169.465 534.193 169.453 534.216 169.445 534.234C169.421 534.281 169.403 534.331 169.384 534.377C169.29 534.58 169.204 534.782 169.123 534.983C169.09 535.065 169.058 535.147 169.026 535.229C168.946 535.441 168.872 535.657 168.802 535.872C168.784 535.926 168.763 535.981 168.75 536.038C168.67 536.305 168.599 536.574 168.536 536.842C168.521 536.908 168.506 536.977 168.492 537.047C168.449 537.252 168.41 537.46 168.377 537.672C168.369 537.715 168.358 537.759 168.352 537.806C168.344 537.849 168.342 537.896 168.338 537.938C168.315 538.118 168.295 538.297 168.279 538.476C168.272 538.556 168.264 538.637 168.257 538.722C168.238 538.98 168.227 539.241 168.226 539.504C168.223 539.629 168.224 539.75 168.23 539.873C168.234 539.893 168.235 539.914 168.235 539.935C168.242 540.162 168.257 540.384 168.279 540.604C168.284 540.645 168.287 540.682 168.292 540.722C168.312 540.91 168.338 541.091 168.373 541.271C168.38 541.303 168.383 541.336 168.385 541.369C168.391 541.396 168.397 541.42 168.402 541.444C168.433 541.591 168.465 541.739 168.497 541.886C168.505 541.926 168.514 541.966 168.523 542.009C168.572 542.195 168.627 542.375 168.686 542.553C168.689 542.565 168.691 542.573 168.693 542.585C168.724 542.67 168.755 542.755 168.79 542.843C168.809 542.893 168.824 542.94 168.843 542.99C168.899 543.136 168.963 543.277 169.027 543.421L186.078 579.925C186.01 579.786 185.95 579.641 185.893 579.494C185.875 579.448 185.856 579.398 185.842 579.351C185.805 579.255 185.771 579.158 185.738 579.061C185.678 578.883 185.623 578.703 185.575 578.518C185.566 578.478 185.558 578.438 185.548 578.394C185.513 578.248 185.481 578.1 185.453 577.952C185.441 577.897 185.428 577.837 185.424 577.779C185.394 577.599 185.366 577.413 185.343 577.226C185.335 577.19 185.33 577.15 185.331 577.112C185.308 576.892 185.294 576.67 185.287 576.443C185.281 576.302 185.275 576.158 185.278 576.016C185.28 575.753 185.291 575.496 185.31 575.234C185.317 575.153 185.325 575.073 185.332 574.988C185.347 574.809 185.367 574.63 185.391 574.45C185.401 574.361 185.415 574.274 185.43 574.188C185.465 573.98 185.503 573.772 185.546 573.563C185.56 573.493 185.571 573.428 185.589 573.358C185.652 573.09 185.723 572.821 185.803 572.554C185.821 572.5 185.838 572.446 185.855 572.388C185.925 572.173 185.996 571.958 186.079 571.745C186.111 571.663 186.143 571.581 186.176 571.499C186.257 571.294 186.342 571.092 186.437 570.893C186.468 570.824 186.495 570.755 186.531 570.689C186.61 570.518 186.699 570.349 186.788 570.18C186.82 570.119 186.852 570.054 186.884 569.989C187.009 569.757 187.142 569.525 187.284 569.294C187.3 569.27 187.315 569.246 187.331 569.222C187.482 568.977 187.646 568.733 187.815 568.489C187.869 568.41 187.923 568.336 187.978 568.262C188.132 568.049 188.291 567.836 188.458 567.625C188.504 567.57 188.545 567.511 188.588 567.456C188.798 567.194 189.017 566.934 189.245 566.677C189.298 566.616 189.356 566.553 189.413 566.491C189.598 566.284 189.791 566.08 189.99 565.879C190.112 565.753 190.232 565.631 190.355 565.505C190.606 565.259 190.863 565.021 191.12 564.786C191.197 564.716 191.278 564.648 191.355 564.578C191.547 564.407 191.741 564.244 191.935 564.082C192.02 564.014 192.105 563.941 192.19 563.873C192.354 563.742 192.522 563.614 192.69 563.486C192.776 563.422 192.858 563.358 192.944 563.294C193.178 563.123 193.412 562.952 193.652 562.788C193.67 562.775 193.691 562.758 193.71 562.746C193.949 562.582 194.194 562.425 194.44 562.268C194.491 562.236 194.543 562.208 194.591 562.177C194.786 562.056 194.984 561.934 195.185 561.82C195.429 561.68 195.675 561.544 195.925 561.411C195.933 561.409 195.945 561.403 195.952 561.397C196.191 561.271 196.435 561.147 196.684 561.027C196.783 560.981 196.881 560.935 196.979 560.888C197.138 560.813 197.297 560.737 197.461 560.668C197.567 560.62 197.678 560.576 197.789 560.531C197.942 560.465 198.098 560.398 198.255 560.335C198.486 560.243 198.721 560.155 198.957 560.071C199.003 560.053 199.049 560.035 199.096 560.02C199.378 559.918 199.666 559.823 199.954 559.732C199.998 559.722 200.036 559.706 200.08 559.696C200.357 559.611 200.64 559.53 200.927 559.451C201.034 559.424 201.144 559.396 201.251 559.369C201.476 559.312 201.701 559.256 201.927 559.203C202.13 559.159 202.332 559.107 202.539 559.067C202.886 558.992 203.232 558.934 203.569 558.878C203.674 558.86 203.775 558.847 203.88 558.832C204.122 558.797 204.361 558.762 204.6 558.732C204.697 558.719 204.798 558.705 204.896 558.697C205.303 558.651 205.708 558.618 206.104 558.599C206.174 558.597 206.241 558.595 206.307 558.593C206.699 558.575 207.085 558.571 207.466 558.577C207.49 558.576 207.515 558.575 207.541 558.578C207.931 558.589 208.314 558.611 208.693 558.646C208.765 558.651 208.837 558.661 208.909 558.666C209.276 558.704 209.637 558.755 209.991 558.816C210.056 558.827 210.118 558.843 210.183 558.854C210.539 558.923 210.889 559.002 211.234 559.095C211.247 559.096 211.257 559.102 211.269 559.104C211.619 559.199 211.96 559.313 212.298 559.432C212.362 559.456 212.424 559.476 212.488 559.5C212.81 559.622 213.13 559.753 213.441 559.902C213.501 559.931 213.557 559.961 213.617 559.985C213.938 560.141 214.257 560.306 214.563 560.49C216.439 561.602 217.77 563.007 218.564 564.702L201.514 528.198L201.494 528.202Z" fill="url(#paint12_linear_2034_3457)"/>
<path d="M108.834 583.502L125.88 620.007L97.6297 625.864L80.5781 589.355L108.834 583.502Z" fill="url(#paint13_linear_2034_3457)"/>
<path d="M156.488 432.371L184.987 426.465L108.838 583.503L80.583 589.356L156.488 432.371Z" fill="url(#paint14_linear_2034_3457)"/>
<path d="M184.984 426.465L202.034 462.969L125.882 620.007L108.835 583.502L184.984 426.465Z" fill="url(#paint15_linear_2034_3457)"/>
<path d="M245.832 556.282C245.822 556.235 245.804 556.188 245.794 556.141C245.697 555.787 245.592 555.438 245.485 555.095C245.46 555.017 245.436 554.943 245.411 554.865C245.391 554.811 245.38 554.759 245.36 554.705C245.281 554.477 245.192 554.254 245.11 554.03C245.061 553.899 245.016 553.767 244.963 553.637C244.807 553.242 244.64 552.853 244.462 552.47L227.411 515.966C227.589 516.348 227.756 516.737 227.912 517.133C227.965 517.263 228.01 517.395 228.06 517.526C228.165 517.803 228.266 518.077 228.36 518.361C228.385 518.439 228.409 518.513 228.434 518.591C228.547 518.937 228.651 519.286 228.743 519.637C228.753 519.684 228.771 519.73 228.782 519.778C228.881 520.161 228.974 520.553 229.054 520.948C229.074 521.04 229.093 521.127 229.113 521.219C229.184 521.57 229.244 521.924 229.299 522.278C229.311 522.351 229.325 522.419 229.333 522.492C229.393 522.908 229.441 523.327 229.483 523.751C229.495 523.865 229.503 523.98 229.51 524.091C229.539 524.418 229.56 524.747 229.577 525.08C229.585 525.212 229.591 525.339 229.595 525.472C229.609 525.906 229.621 526.345 229.62 526.787C229.616 527.117 229.608 527.448 229.596 527.779C229.594 527.884 229.587 527.99 229.58 528.091C229.57 528.318 229.557 528.546 229.539 528.775C229.532 528.893 229.52 529.012 229.512 529.13C229.493 529.351 229.473 529.568 229.45 529.789C229.437 529.905 229.428 530.019 229.411 530.131C229.381 530.379 229.347 530.628 229.313 530.877C229.301 530.954 229.293 531.035 229.281 531.113C229.231 531.461 229.172 531.807 229.105 532.155C229.087 532.246 229.068 532.333 229.054 532.42C229.002 532.685 228.947 532.951 228.887 533.214C228.864 533.319 228.842 533.427 228.814 533.533C228.747 533.819 228.679 534.104 228.602 534.387C228.587 534.453 228.572 534.514 228.553 534.581C228.46 534.926 228.363 535.267 228.258 535.611C228.231 535.7 228.2 535.79 228.174 535.879C228.093 536.142 228.007 536.402 227.918 536.663C227.883 536.77 227.847 536.874 227.807 536.982C227.706 537.267 227.604 537.547 227.494 537.829C227.47 537.892 227.446 537.956 227.422 538.015C227.287 538.357 227.147 538.695 227.004 539.034C226.964 539.122 226.925 539.209 226.889 539.296C226.774 539.554 226.659 539.812 226.54 540.071C226.488 540.182 226.433 540.294 226.382 540.405C226.293 540.591 226.203 540.772 226.11 540.959C226.052 541.076 225.991 541.197 225.932 541.314C225.833 541.51 225.729 541.703 225.625 541.901C225.57 542.008 225.513 542.112 225.457 542.22C225.325 542.461 225.186 542.703 225.051 542.945C225.017 543.002 224.984 543.063 224.951 543.12C224.778 543.42 224.596 543.717 224.415 544.019C224.384 544.067 224.354 544.12 224.322 544.168C224.134 544.475 223.938 544.78 223.737 545.085C223.674 545.182 223.608 545.28 223.541 545.377C223.337 545.684 223.128 545.991 222.911 546.3C222.879 546.345 222.851 546.388 222.819 546.433C222.573 546.781 222.318 547.124 222.059 547.471C221.991 547.56 221.92 547.655 221.852 547.745C221.64 548.019 221.429 548.298 221.21 548.574C221.144 548.655 221.079 548.74 221.014 548.825C220.738 549.167 220.458 549.511 220.169 549.852C220.112 549.919 220.052 549.99 219.992 550.057C219.748 550.338 219.506 550.624 219.254 550.903C219.169 550.996 219.086 551.093 218.998 551.187C218.696 551.523 218.392 551.855 218.077 552.189C218.067 552.2 218.06 552.21 218.049 552.216C217.727 552.556 217.396 552.898 217.065 553.236C216.867 553.437 216.668 553.638 216.466 553.84C215.982 554.319 215.487 554.788 214.995 555.248C214.863 555.372 214.727 555.493 214.595 555.617C214.167 556.009 213.734 556.394 213.295 556.776C213.218 556.842 213.141 556.913 213.064 556.98C212.551 557.419 212.034 557.847 211.509 558.268C211.413 558.347 211.317 558.422 211.217 558.498C210.697 558.91 210.176 559.313 209.644 559.707C209.597 559.742 209.551 559.777 209.5 559.813C208.983 560.195 208.463 560.565 207.937 560.928C207.864 560.977 207.792 561.03 207.719 561.079C207.425 561.28 207.124 561.47 206.829 561.666C206.49 561.889 206.156 562.116 205.814 562.331C205.521 562.515 205.222 562.692 204.927 562.872C204.584 563.079 204.246 563.289 203.902 563.488C203.542 563.695 203.177 563.894 202.816 564.092C202.548 564.242 202.281 564.395 202.007 564.537C201.622 564.741 201.227 564.938 200.837 565.135C200.581 565.265 200.327 565.399 200.067 565.526C199.656 565.726 199.238 565.912 198.821 566.106C198.575 566.218 198.33 566.337 198.083 566.448C197.569 566.675 197.049 566.892 196.525 567.104C196.367 567.167 196.216 567.238 196.059 567.301C195.924 567.354 195.789 567.4 195.654 567.454C195.078 567.678 194.505 567.902 193.92 568.107C193.661 568.2 193.396 568.282 193.136 568.371C192.67 568.53 192.209 568.691 191.737 568.839C191.121 569.034 190.498 569.218 189.871 569.399C189.737 569.436 189.6 569.474 189.466 569.511C188.825 569.687 188.179 569.859 187.525 570.016C187.446 570.033 187.366 570.051 187.287 570.072C186.598 570.237 185.907 570.394 185.21 570.54C184.528 570.682 183.851 570.807 183.181 570.926C183.021 570.957 182.864 570.982 182.703 571.009C182.04 571.122 181.383 571.222 180.732 571.312C180.667 571.322 180.606 571.327 180.541 571.337C179.974 571.413 179.413 571.475 178.855 571.533C178.667 571.552 178.484 571.571 178.3 571.586C177.863 571.626 177.429 571.665 176.999 571.695C176.809 571.707 176.621 571.722 176.432 571.734C176.012 571.757 175.593 571.781 175.175 571.796C174.985 571.804 174.79 571.808 174.6 571.816C174.194 571.824 173.787 571.832 173.387 571.831C173.192 571.831 172.996 571.832 172.803 571.827C172.411 571.824 172.017 571.813 171.627 571.802C171.43 571.794 171.233 571.787 171.039 571.778C170.66 571.76 170.281 571.737 169.903 571.706C169.704 571.691 169.505 571.675 169.306 571.66C168.937 571.627 168.574 571.588 168.211 571.546C168.01 571.522 167.809 571.499 167.608 571.475C167.253 571.431 166.9 571.378 166.551 571.324C166.349 571.293 166.146 571.261 165.948 571.229C165.602 571.17 165.263 571.106 164.923 571.037C164.719 570.998 164.515 570.958 164.314 570.914C163.982 570.844 163.653 570.765 163.323 570.686C163.121 570.638 162.915 570.59 162.716 570.537C162.394 570.453 162.075 570.363 161.755 570.27C161.555 570.213 161.352 570.156 161.151 570.095C160.834 569.997 160.524 569.893 160.21 569.79C160.013 569.724 159.812 569.659 159.617 569.588C159.306 569.476 159.001 569.359 158.693 569.242C158.502 569.166 158.308 569.1 158.116 569.02C157.806 568.895 157.497 568.758 157.194 568.623C157.014 568.545 156.831 568.468 156.651 568.386C156.318 568.233 155.991 568.07 155.669 567.906C155.519 567.83 155.367 567.762 155.217 567.686C154.744 567.443 154.277 567.189 153.817 566.926C151.607 565.66 149.683 564.246 148.042 562.679C147.57 562.231 147.126 561.772 146.704 561.301C145.223 559.649 144.028 557.849 143.116 555.896L160.167 592.4C161.859 596.026 164.532 599.133 168.184 601.721C168.464 601.919 168.752 602.115 169.044 602.311C169.627 602.697 170.236 603.07 170.867 603.43C178.108 607.578 186.624 609.098 196.415 607.986C196.806 607.943 197.199 607.892 197.595 607.836C197.655 607.827 197.721 607.821 197.781 607.812C198.433 607.722 199.093 607.617 199.753 607.509C199.91 607.483 200.07 607.453 200.227 607.427C200.897 607.308 201.574 607.183 202.255 607.041C202.614 606.964 202.972 606.887 203.326 606.81C203.665 606.737 204.001 606.653 204.337 606.572C204.417 606.555 204.496 606.538 204.571 606.517C205.224 606.356 205.871 606.188 206.512 606.012C206.645 605.975 206.779 605.938 206.913 605.901C207.505 605.732 208.097 605.558 208.682 605.374C208.718 605.366 208.748 605.352 208.783 605.34C209.251 605.193 209.712 605.032 210.178 604.873C210.442 604.783 210.707 604.701 210.966 604.608C211.546 604.399 212.116 604.181 212.684 603.959C212.818 603.905 212.958 603.858 213.093 603.804L213.108 603.801C213.258 603.739 213.402 603.675 213.547 603.615C214.075 603.397 214.607 603.178 215.129 602.949C215.376 602.842 215.617 602.723 215.86 602.613C216.254 602.432 216.65 602.255 217.038 602.068C217.064 602.054 217.086 602.041 217.113 602.031C217.374 601.904 217.628 601.77 217.883 601.64C218.274 601.443 218.666 601.251 219.05 601.043C219.323 600.897 219.59 600.744 219.861 600.594C220.178 600.421 220.496 600.253 220.807 600.073C220.856 600.046 220.899 600.016 220.948 599.989C221.296 599.789 221.634 599.579 221.981 599.371C222.275 599.191 222.572 599.019 222.865 598.835C223.21 598.619 223.545 598.393 223.884 598.17C224.136 598.003 224.393 597.844 224.64 597.674C224.683 597.644 224.727 597.614 224.77 597.583C224.843 597.534 224.915 597.481 224.987 597.432C225.513 597.069 226.033 596.699 226.547 596.318C226.594 596.283 226.64 596.248 226.691 596.212C227.219 595.819 227.744 595.415 228.263 595.003C228.36 594.928 228.459 594.848 228.555 594.773C228.648 594.699 228.737 594.63 228.829 594.556C229.258 594.206 229.685 593.847 230.111 593.485C230.188 593.418 230.264 593.347 230.342 593.281C230.781 592.903 231.21 592.515 231.642 592.122C231.774 592.002 231.91 591.877 232.041 591.753C232.538 591.292 233.029 590.828 233.514 590.349C233.675 590.189 233.836 590.029 233.997 589.866C234.038 589.824 234.076 589.786 234.113 589.745C234.448 589.406 234.778 589.064 235.101 588.724C235.107 588.715 235.114 588.709 235.12 588.699C235.436 588.365 235.742 588.028 236.046 587.696C236.13 587.603 236.217 587.505 236.301 587.412C236.553 587.129 236.8 586.846 237.039 586.566C237.096 586.499 237.156 586.428 237.212 586.362C237.501 586.021 237.781 585.677 238.057 585.335C238.123 585.254 238.188 585.169 238.253 585.084C238.473 584.808 238.689 584.532 238.895 584.254C238.964 584.165 239.035 584.07 239.103 583.981C239.361 583.633 239.617 583.291 239.863 582.942C239.895 582.898 239.923 582.855 239.955 582.81C240.172 582.501 240.38 582.194 240.585 581.887C240.652 581.79 240.714 581.693 240.78 581.595C240.981 581.29 241.178 580.985 241.366 580.678C241.391 580.639 241.416 580.6 241.437 580.563C241.443 580.553 241.449 580.539 241.459 580.529C241.641 580.231 241.822 579.93 241.994 579.63C242.028 579.573 242.061 579.516 242.094 579.455C242.234 579.212 242.369 578.971 242.5 578.73C242.557 578.626 242.613 578.518 242.669 578.41C242.772 578.213 242.877 578.02 242.976 577.824C243.038 577.706 243.095 577.586 243.157 577.464C243.247 577.282 243.34 577.096 243.426 576.915C243.451 576.859 243.481 576.803 243.507 576.747C243.532 576.692 243.557 576.632 243.582 576.577C243.702 576.318 243.818 576.064 243.929 575.807C243.968 575.719 244.007 575.627 244.046 575.54C244.19 575.201 244.33 574.862 244.464 574.521C244.488 574.458 244.512 574.394 244.536 574.331C244.642 574.05 244.748 573.768 244.846 573.489C244.881 573.382 244.921 573.277 244.956 573.17C245.046 572.909 245.132 572.649 245.213 572.389C245.24 572.3 245.271 572.211 245.297 572.122C245.403 571.778 245.5 571.436 245.592 571.092C245.611 571.025 245.626 570.959 245.641 570.894C245.714 570.612 245.786 570.329 245.85 570.045C245.876 569.935 245.9 569.83 245.922 569.721C245.982 569.458 246.033 569.193 246.084 568.928C246.102 568.837 246.121 568.749 246.139 568.658C246.202 568.311 246.26 567.965 246.314 567.616C246.316 567.604 246.32 567.586 246.322 567.573C246.333 567.508 246.339 567.44 246.346 567.376C246.38 567.128 246.415 566.883 246.441 566.635C246.453 566.52 246.466 566.405 246.479 566.29C246.503 566.072 246.522 565.852 246.541 565.631C246.553 565.512 246.561 565.393 246.568 565.271C246.585 565.042 246.595 564.815 246.608 564.588C246.614 564.482 246.621 564.377 246.623 564.272C246.635 563.94 246.643 563.609 246.647 563.28C246.65 562.925 246.645 562.572 246.637 562.224C246.634 562.137 246.628 562.051 246.622 561.965C246.619 561.832 246.612 561.704 246.605 561.573C246.587 561.239 246.566 560.91 246.537 560.583C246.529 560.468 246.521 560.353 246.51 560.243C246.469 559.819 246.42 559.401 246.36 558.984C246.348 558.912 246.338 558.843 246.326 558.771C246.289 558.521 246.248 558.271 246.203 558.023C246.181 557.919 246.158 557.816 246.135 557.708C246.115 557.617 246.097 557.529 246.077 557.438C245.992 557.043 245.908 556.653 245.804 556.268L245.832 556.282Z" fill="url(#paint16_linear_2034_3457)"/>
<path d="M216.858 504.997C225.422 509.973 229.679 517.229 229.629 526.786C229.58 536.215 225.198 545.234 216.485 553.845C207.765 562.466 197.348 568.024 185.227 570.537C172.945 573.081 162.478 571.881 153.834 566.927C145.187 561.974 140.889 554.719 140.936 545.166C140.986 535.608 145.367 526.564 154.084 518.006C162.798 509.457 173.3 503.906 185.581 501.363C197.863 498.819 208.29 500.027 216.858 504.997ZM197.276 542.939C200.642 539.632 202.341 536.13 202.362 532.435C202.383 528.74 200.758 525.928 197.496 523.994C194.228 522.065 190.227 521.589 185.477 522.57C180.727 523.551 176.667 525.703 173.296 529.007C169.922 532.316 168.227 535.817 168.21 539.512C168.193 543.206 169.897 545.842 173.323 547.804C176.748 549.766 180.752 550.274 185.338 549.324C189.924 548.375 193.901 546.244 197.276 542.939Z" fill="url(#paint17_linear_2034_3457)"/>
<mask id="mask0_2034_3457" style="mask-type:alpha" maskUnits="userSpaceOnUse" x="36" y="426" width="211" height="200">
<path d="M97.2609 471.861C96.457 470.139 95.0715 468.734 93.1093 467.648C92.7929 467.475 92.4711 467.315 92.143 467.165C92.0827 467.136 92.0272 467.111 91.9669 467.082C91.6494 466.942 91.3304 466.815 91.0013 466.698C90.9378 466.674 90.8752 466.655 90.8118 466.631C90.4747 466.516 90.1304 466.407 89.7777 466.316C89.7649 466.315 89.7512 466.309 89.7424 466.307C89.3985 466.219 89.0492 466.144 88.6936 466.079C88.6287 466.068 88.5679 466.056 88.503 466.045C88.1523 465.983 87.7922 465.935 87.4307 465.901C87.3587 465.895 87.2859 465.886 87.2139 465.881C86.8405 465.849 86.4639 465.821 86.0788 465.813C86.0541 465.814 86.0285 465.811 85.9998 465.813C85.6275 465.806 85.2498 465.812 84.8659 465.828C84.7996 465.83 84.7333 465.832 84.6679 465.837C84.2809 465.858 83.8876 465.889 83.4889 465.933C83.453 465.941 83.4186 465.935 83.3828 465.943C83.3222 465.952 83.2617 465.961 83.2051 465.969C82.9739 465.998 82.7435 466.031 82.5092 466.065C82.4088 466.082 82.3116 466.095 82.2112 466.112C81.8814 466.166 81.5524 466.225 81.218 466.297C81.0746 466.328 80.9313 466.358 80.788 466.389C80.7283 466.402 80.6655 466.42 80.6058 466.433C80.3789 466.482 80.1585 466.541 79.9333 466.598C79.8227 466.626 79.7161 466.653 79.6063 466.685C79.3311 466.761 79.0567 466.841 78.7872 466.924C78.7434 466.934 78.7044 466.946 78.6615 466.959L78.6416 466.964C78.3809 467.049 78.1202 467.134 77.8651 467.227C77.8413 467.232 77.8142 467.242 77.7912 467.251C77.5083 467.349 77.2311 467.455 76.9588 467.563L76.9428 467.567C76.7245 467.656 76.507 467.748 76.2944 467.844C76.2563 467.86 76.2182 467.877 76.1801 467.893C75.9254 468.007 75.6715 468.124 75.4225 468.244L75.4105 468.247C75.3472 468.281 75.2877 468.315 75.2235 468.345C75.0356 468.44 74.8508 468.53 74.6678 468.627C74.5782 468.676 74.4855 468.729 74.396 468.777C74.2581 468.853 74.1203 468.928 73.9824 469.004C73.9673 469.011 73.9531 469.023 73.9381 469.03C73.8161 469.102 73.6942 469.174 73.5731 469.25C73.4512 469.322 73.3292 469.394 73.2081 469.47C73.087 469.546 72.9708 469.626 72.8537 469.701C72.7477 469.769 72.6416 469.838 72.5396 469.906C72.5245 469.913 72.5143 469.924 72.5001 469.935C72.2494 470.106 72.0004 470.284 71.7563 470.466C71.727 470.485 71.7026 470.507 71.6782 470.529C71.4593 470.692 71.2453 470.859 71.0322 471.03C71.018 471.042 70.9998 471.054 70.9824 471.07C70.9438 471.103 70.9051 471.137 70.8665 471.17C70.6329 471.362 70.4081 471.556 70.1811 471.759C70.1078 471.825 70.0305 471.891 69.958 471.961C69.69 472.206 69.4238 472.459 69.1632 472.72C69.1388 472.741 69.1192 472.766 69.0947 472.788C69.0601 472.821 69.0342 472.856 68.9996 472.888C68.7839 473.105 68.5771 473.325 68.379 473.546C68.3114 473.619 68.2447 473.696 68.181 473.768C67.9799 473.995 67.7867 474.22 67.6023 474.447C67.5725 474.482 67.5395 474.523 67.5097 474.558C67.2995 474.82 67.1061 475.083 66.9166 475.344C66.8649 475.414 66.818 475.486 66.7703 475.555C66.6272 475.76 66.4889 475.969 66.3554 476.181C66.3273 476.225 66.2952 476.269 66.2679 476.317C66.2492 476.346 66.2344 476.374 66.2197 476.402C66.1152 476.575 66.0186 476.745 65.9221 476.916C65.8863 476.982 65.8466 477.049 65.8099 477.111C65.6816 477.347 65.5621 477.585 65.4474 477.826C65.4443 477.831 65.442 477.84 65.4389 477.845C65.4281 477.872 65.4173 477.899 65.4057 477.923C65.2981 478.158 65.1985 478.392 65.1037 478.629C65.0714 478.711 65.0422 478.788 65.0098 478.87C64.9329 479.074 64.8609 479.281 64.7968 479.487C64.7747 479.558 64.7517 479.626 64.7296 479.697C64.6497 479.964 64.5745 480.234 64.5162 480.505C64.5066 480.557 64.4961 480.605 64.4865 480.657C64.4395 480.884 64.3965 481.11 64.3614 481.334C64.3532 481.373 64.345 481.413 64.3408 481.451C64.3343 481.498 64.3317 481.545 64.3252 481.592C64.2984 481.777 64.2795 481.96 64.2615 482.147C64.2539 482.228 64.2471 482.312 64.2395 482.393C64.221 482.655 64.2073 482.921 64.2064 483.188L81.2571 519.692C81.258 519.425 81.2717 519.16 81.2902 518.897C81.2978 518.817 81.3046 518.732 81.3122 518.651C81.3302 518.464 81.3491 518.281 81.3759 518.096C81.3866 518.01 81.4005 517.92 81.4152 517.833C81.4494 517.605 81.4924 517.379 81.5403 517.157C81.5499 517.105 81.5604 517.056 81.57 517.004C81.6323 516.733 81.7035 516.463 81.7834 516.196C81.8055 516.125 81.8285 516.057 81.8506 515.986C81.9147 515.781 81.9867 515.573 82.0636 515.37C82.092 515.288 82.1243 515.206 82.1575 515.129C82.2523 514.892 82.3519 514.658 82.4595 514.422C82.4734 514.39 82.4873 514.358 82.5012 514.326C82.6119 514.085 82.7354 513.846 82.8637 513.61C82.8995 513.544 82.9393 513.477 82.9759 513.415C83.0724 513.245 83.169 513.074 83.2735 512.901C83.3163 512.83 83.3672 512.756 83.4101 512.685C83.5444 512.477 83.6827 512.268 83.825 512.058C83.8727 511.989 83.9235 511.916 83.9713 511.847C84.1607 511.586 84.3581 511.323 84.5644 511.062C84.5933 511.022 84.6271 510.986 84.657 510.95C84.8413 510.723 85.0345 510.498 85.2317 510.272C85.2985 510.195 85.3661 510.123 85.4337 510.05C85.6326 509.832 85.8394 509.612 86.0542 509.391C86.1085 509.334 86.1596 509.281 86.2139 509.224C86.4745 508.963 86.7416 508.714 87.0087 508.465C87.082 508.399 87.1584 508.329 87.2317 508.263C87.4557 508.065 87.6836 507.866 87.918 507.678C87.9749 507.632 88.0269 507.584 88.0837 507.538C88.2969 507.367 88.5109 507.201 88.7257 507.038C88.755 507.019 88.7794 506.997 88.8079 506.974C89.052 506.792 89.3018 506.618 89.5516 506.443C89.6679 506.364 89.789 506.288 89.9052 506.209C90.0215 506.13 90.1426 506.054 90.2597 505.979C90.3807 505.902 90.5027 505.83 90.6246 505.758C90.7466 505.686 90.8677 505.61 90.9896 505.538C91.1417 505.451 91.2906 505.369 91.4436 505.286C91.5331 505.238 91.6258 505.185 91.7153 505.136C91.8984 505.038 92.0863 504.944 92.2711 504.854C92.3353 504.824 92.3947 504.79 92.459 504.76C92.712 504.638 92.969 504.516 93.2277 504.402C93.2657 504.386 93.3038 504.369 93.3419 504.353C93.5625 504.255 93.784 504.162 94.0063 504.072C94.2827 503.963 94.5599 503.857 94.8388 503.76C94.8627 503.755 94.8857 503.746 94.9127 503.736C95.1686 503.647 95.4284 503.558 95.69 503.477C95.7369 503.462 95.7878 503.447 95.8387 503.432C96.1082 503.349 96.3826 503.269 96.6579 503.193C96.7645 503.166 96.8751 503.138 96.9848 503.106C97.206 503.05 97.4313 502.994 97.6573 502.941C97.8603 502.897 98.0616 502.845 98.2695 502.805C98.6039 502.733 98.9369 502.674 99.2627 502.62C99.3631 502.603 99.4644 502.589 99.5608 502.573C99.7951 502.539 100.025 502.506 100.257 502.477C100.354 502.464 100.447 502.453 100.545 502.444C100.944 502.4 101.337 502.369 101.724 502.349C101.791 502.347 101.857 502.345 101.922 502.339C102.306 502.323 102.684 502.317 103.056 502.324C103.081 502.323 103.106 502.326 103.135 502.324C103.52 502.333 103.896 502.356 104.27 502.392C104.342 502.397 104.414 502.403 104.487 502.412C104.849 502.451 105.206 502.499 105.559 502.556C105.624 502.567 105.685 502.579 105.75 502.59C106.106 502.655 106.455 502.73 106.799 502.818C106.812 502.82 106.825 502.825 106.838 502.826C107.187 502.918 107.531 503.027 107.872 503.141C107.936 503.165 107.998 503.185 108.062 503.209C108.387 503.326 108.71 503.452 109.027 503.592C109.087 503.617 109.147 503.646 109.203 503.675C109.531 503.825 109.853 503.985 110.17 504.159C112.133 505.248 113.517 506.649 114.321 508.372L97.2706 471.867L97.2609 471.861Z" fill="url(#paint18_linear_2034_3457)"/>
<path d="M64.2035 483.183L81.2542 519.687C81.252 519.812 81.2547 519.941 81.2605 520.065L64.2098 483.56C64.208 483.436 64.2053 483.307 64.2035 483.183Z" fill="url(#paint19_linear_2034_3457)"/>
<path d="M64.2067 483.561L81.2573 520.065C81.2706 520.591 81.3251 521.096 81.4138 521.585L64.3631 485.081C64.2745 484.591 64.22 484.087 64.2067 483.561Z" fill="url(#paint20_linear_2034_3457)"/>
<path d="M64.3695 485.085L81.4202 521.589C81.4982 522.009 81.6033 522.42 81.7385 522.816L64.6878 486.312C64.5526 485.916 64.4484 485.509 64.3695 485.085Z" fill="url(#paint21_linear_2034_3457)"/>
<path d="M64.6836 486.307L81.7343 522.811C81.8327 523.094 81.943 523.374 82.0675 523.643L65.0168 487.139C64.8923 486.87 64.778 486.591 64.6836 486.307Z" fill="url(#paint22_linear_2034_3457)"/>
<path d="M141.575 500.01C141.564 499.962 141.546 499.916 141.536 499.868C141.439 499.514 141.335 499.166 141.227 498.823C141.202 498.745 141.178 498.671 141.153 498.593C141.138 498.542 141.122 498.487 141.103 498.437C141.024 498.208 140.939 497.985 140.853 497.762C140.804 497.631 140.758 497.495 140.705 497.365C140.549 496.969 140.383 496.584 140.205 496.202L123.154 459.698C123.332 460.08 123.5 460.469 123.655 460.86C123.708 460.991 123.753 461.123 123.803 461.258C123.907 461.531 124.009 461.809 124.102 462.089C124.127 462.167 124.152 462.241 124.177 462.318C124.288 462.661 124.392 463.009 124.484 463.36C124.495 463.408 124.513 463.454 124.523 463.502C124.622 463.884 124.715 464.277 124.795 464.668C124.814 464.755 124.833 464.847 124.853 464.939C124.924 465.286 124.983 465.639 125.04 465.998C125.051 466.071 125.066 466.138 125.073 466.212C125.133 466.624 125.182 467.046 125.223 467.471C125.235 467.585 125.243 467.695 125.251 467.81C125.279 468.137 125.3 468.466 125.318 468.8C125.325 468.931 125.332 469.059 125.335 469.192C125.35 469.626 125.361 470.065 125.36 470.507C125.356 470.837 125.348 471.167 125.337 471.499C125.334 471.604 125.327 471.705 125.32 471.811C125.311 472.038 125.297 472.266 125.28 472.494C125.272 472.613 125.26 472.732 125.252 472.85C125.233 473.071 125.213 473.287 125.193 473.504C125.181 473.619 125.168 473.735 125.155 473.85C125.124 474.094 125.095 474.342 125.06 474.587C125.048 474.668 125.037 474.75 125.025 474.832C124.975 475.18 124.916 475.526 124.853 475.868C124.838 475.955 124.819 476.042 124.801 476.134C124.75 476.399 124.694 476.661 124.639 476.927C124.616 477.036 124.589 477.141 124.567 477.25C124.501 477.527 124.435 477.799 124.362 478.078C124.344 478.148 124.326 478.223 124.304 478.294C124.211 478.635 124.114 478.977 124.009 479.32C123.981 479.405 123.953 479.49 123.93 479.574C123.849 479.837 123.764 480.097 123.675 480.362C123.64 480.47 123.6 480.578 123.564 480.682C123.469 480.952 123.368 481.22 123.268 481.491C123.238 481.564 123.213 481.641 123.183 481.714C123.051 482.05 122.911 482.389 122.768 482.728C122.731 482.81 122.694 482.889 122.658 482.972C122.543 483.234 122.424 483.493 122.306 483.756C122.252 483.872 122.197 483.988 122.142 484.099C122.056 484.276 121.969 484.453 121.882 484.63C121.821 484.752 121.76 484.877 121.695 485C121.601 485.182 121.503 485.366 121.405 485.549C121.343 485.667 121.284 485.78 121.218 485.898C121.106 486.097 120.996 486.3 120.88 486.499C120.826 486.595 120.772 486.694 120.714 486.789C120.54 487.085 120.366 487.381 120.184 487.674C119.972 488.024 119.746 488.368 119.521 488.717C119.458 488.813 119.392 488.911 119.329 489.008C119.143 489.285 118.957 489.559 118.762 489.834C118.708 489.912 118.657 489.986 118.599 490.065C118.355 490.404 118.108 490.745 117.853 491.087C117.794 491.163 117.735 491.238 117.681 491.316C117.474 491.59 117.258 491.865 117.041 492.137C116.966 492.232 116.891 492.328 116.816 492.423C116.543 492.761 116.266 493.099 115.98 493.436L115.972 493.438C115.684 493.783 115.39 494.121 115.087 494.457C115.003 494.55 114.916 494.648 114.832 494.741C114.59 495.01 114.34 495.28 114.09 495.55C114.018 495.624 113.952 495.701 113.881 495.779C113.565 496.113 113.241 496.445 112.913 496.778C112.681 497.016 112.444 497.25 112.203 497.485C111.718 497.96 111.226 498.424 110.733 498.88C110.608 498.995 110.482 499.109 110.357 499.224C109.869 499.666 109.38 500.105 108.88 500.529C108.87 500.539 108.86 500.55 108.845 500.557C108.327 500.998 107.803 501.427 107.274 501.849C107.174 501.929 107.075 502.009 106.975 502.089C106.466 502.49 105.955 502.883 105.433 503.266C105.347 503.33 105.264 503.39 105.178 503.454C104.653 503.838 104.121 504.215 103.588 504.58C103.562 504.598 103.537 504.616 103.512 504.634C103.305 504.774 103.092 504.907 102.884 505.044C102.468 505.321 102.049 505.598 101.627 505.864C101.374 506.023 101.118 506.169 100.864 506.324C100.481 506.556 100.099 506.793 99.7058 507.019C99.317 507.244 98.9176 507.459 98.5222 507.674C98.2797 507.805 98.0429 507.943 97.7996 508.071C97.3138 508.329 96.8206 508.573 96.3273 508.817C96.1696 508.897 96.0166 508.979 95.854 509.056C95.1974 509.372 94.531 509.682 93.8612 509.977C93.7319 510.034 93.5968 510.083 93.4675 510.14C92.9262 510.374 92.3809 510.608 91.8322 510.826C91.1223 511.108 90.4099 511.378 89.686 511.633C89.5231 511.689 89.3593 511.741 89.2004 511.796C88.6346 511.993 88.072 512.185 87.4988 512.367C86.8747 512.563 86.2441 512.749 85.6126 512.931C85.475 512.969 85.3373 513.007 85.2037 513.044C84.5625 513.219 83.9165 513.392 83.2671 513.548C83.1795 513.567 83.0919 513.586 83.0052 513.609C82.32 513.773 81.633 513.929 80.9395 514.074C80.2658 514.215 79.5967 514.338 78.9348 514.456C78.7826 514.484 78.6296 514.509 78.4767 514.534C77.8258 514.645 77.1763 514.743 76.537 514.83C76.4557 514.84 76.3792 514.852 76.3018 514.86C75.763 514.93 75.2264 514.992 74.6929 515.048C74.4401 515.074 74.1872 515.099 73.9384 515.123C73.5053 515.162 73.0793 515.196 72.6516 515.221C72.4178 515.238 72.1801 515.256 71.9446 515.265C71.4586 515.29 70.9788 515.306 70.4982 515.318C70.3321 515.32 70.1677 515.331 70.0016 515.333C69.362 515.342 68.7286 515.341 68.1006 515.326C67.9584 515.323 67.8145 515.313 67.6723 515.31C67.1897 515.293 66.7101 515.271 66.2329 515.241C66.013 515.226 65.8003 515.205 65.5844 515.189C65.1814 515.155 64.7823 515.12 64.3895 515.075C64.1591 515.05 63.9327 515.024 63.7054 514.993C63.3198 514.943 62.9332 514.889 62.5498 514.83C62.3344 514.797 62.1151 514.765 61.8981 514.724C61.4825 514.651 61.0692 514.569 60.6559 514.488C60.4861 514.453 60.3123 514.42 60.1424 514.386C59.5656 514.26 58.9941 514.121 58.4328 513.971C58.3486 513.947 58.2635 513.92 58.1802 513.9C57.7023 513.77 57.2257 513.627 56.7563 513.478C56.5686 513.418 56.3839 513.354 56.1953 513.29C55.8309 513.165 55.4664 513.039 55.1043 512.904C54.9003 512.828 54.6963 512.751 54.4954 512.669C54.15 512.535 53.8069 512.392 53.4669 512.245C53.2692 512.158 53.0723 512.076 52.8785 511.988C52.5192 511.828 52.1652 511.654 51.8113 511.481C51.644 511.4 51.4767 511.319 51.3125 511.234C50.7983 510.974 50.2895 510.7 49.7902 510.412C44.712 507.506 41.1327 503.824 39.0542 499.373L56.1048 535.877C58.1834 540.328 61.7618 544.007 66.8408 546.916C67.3442 547.204 67.8521 547.473 68.3632 547.738C68.5273 547.824 68.6978 547.899 68.8619 547.985C69.2159 548.158 69.569 548.328 69.9292 548.492C70.123 548.58 70.3207 548.666 70.5176 548.749C70.8576 548.896 71.1999 549.035 71.5461 549.173C71.747 549.255 71.951 549.332 72.155 549.409C72.5171 549.543 72.8776 549.67 73.246 549.794C73.4346 549.858 73.6193 549.922 73.807 549.982C74.2764 550.131 74.7529 550.274 75.2309 550.404C75.3151 550.428 75.3961 550.456 75.4835 550.475C76.0496 550.628 76.6202 550.763 77.1931 550.89C77.3638 550.928 77.5367 550.958 77.7066 550.992C78.1168 551.078 78.5292 551.156 78.9488 551.228C79.165 551.265 79.3843 551.297 79.6004 551.334C79.9839 551.393 80.3664 551.448 80.7521 551.498C80.9794 551.529 81.2058 551.555 81.4362 551.58C81.833 551.624 82.2281 551.66 82.6311 551.694C82.847 551.71 83.0637 551.73 83.2836 551.745C83.7608 551.775 84.2404 551.797 84.723 551.814C84.8661 551.821 85.0091 551.827 85.1522 551.834C85.7802 551.849 86.4144 551.854 87.0531 551.841C87.2192 551.839 87.3845 551.833 87.5497 551.826C88.0303 551.814 88.5101 551.799 88.9961 551.773C89.2307 551.76 89.4685 551.742 89.7031 551.729C90.13 551.7 90.5568 551.67 90.9899 551.631C91.2436 551.61 91.4964 551.585 91.7484 551.556C91.9278 551.538 92.1041 551.525 92.2827 551.503C92.6368 551.464 92.9971 551.416 93.3534 551.368C93.4307 551.36 93.5121 551.351 93.5886 551.339C94.2278 551.251 94.8764 551.149 95.5282 551.042C95.6812 551.017 95.8333 550.989 95.9863 550.964C96.6483 550.846 97.3174 550.723 97.991 550.582C98.3532 550.504 98.7115 550.427 99.0738 550.349C99.4042 550.278 99.7281 550.196 100.057 550.117C100.144 550.098 100.232 550.079 100.319 550.056C100.968 549.9 101.614 549.728 102.255 549.552C102.393 549.514 102.53 549.476 102.668 549.438C103.277 549.266 103.884 549.089 104.481 548.902C104.505 548.897 104.527 548.884 104.555 548.878C105.132 548.695 105.703 548.502 106.273 548.304C106.428 548.25 106.587 548.199 106.746 548.144C107.47 547.888 108.187 547.617 108.892 547.332C108.904 547.33 108.912 547.328 108.923 547.321C109.452 547.111 109.975 546.887 110.497 546.662C110.638 546.602 110.78 546.547 110.921 546.483C111.587 546.19 112.246 545.885 112.894 545.571L112.91 545.567C113.071 545.483 113.232 545.398 113.398 545.317C113.887 545.074 114.372 544.832 114.855 544.578C115.098 544.451 115.335 544.312 115.578 544.181C115.95 543.976 116.324 543.779 116.691 543.566C116.713 543.553 116.739 543.539 116.76 543.522C117.149 543.297 117.532 543.061 117.919 542.827C118.173 542.673 118.429 542.526 118.682 542.367C119.104 542.102 119.519 541.825 119.938 541.547C120.139 541.416 120.341 541.29 120.537 541.156C120.548 541.149 120.555 541.143 120.566 541.137C120.592 541.119 120.617 541.101 120.642 541.083C121.176 540.718 121.707 540.341 122.233 539.958C122.319 539.893 122.406 539.833 122.492 539.769C123.01 539.386 123.524 538.992 124.034 538.591C124.133 538.511 124.233 538.432 124.336 538.351C124.471 538.243 124.607 538.139 124.742 538.03C125.132 537.713 125.52 537.388 125.907 537.059C125.918 537.048 125.928 537.038 125.943 537.03C126.439 536.607 126.932 536.168 127.42 535.725C127.545 535.611 127.67 535.497 127.796 535.382C128.289 534.926 128.781 534.462 129.266 533.987C129.482 533.774 129.698 533.556 129.914 533.343C129.935 533.322 129.955 533.301 129.976 533.28C130.304 532.947 130.628 532.615 130.943 532.28C131.015 532.207 131.086 532.129 131.153 532.052C131.403 531.782 131.653 531.515 131.895 531.242C131.979 531.149 132.066 531.051 132.15 530.958C132.452 530.619 132.746 530.284 133.035 529.943L133.043 529.941C133.327 529.597 133.605 529.262 133.877 528.92C133.953 528.825 134.032 528.729 134.107 528.634C134.324 528.362 134.535 528.087 134.743 527.814C134.802 527.738 134.86 527.659 134.918 527.584C135.175 527.246 135.422 526.905 135.665 526.561C135.719 526.483 135.773 526.405 135.827 526.331C136.018 526.056 136.209 525.782 136.391 525.505C136.458 525.408 136.52 525.311 136.583 525.214C136.808 524.87 137.033 524.521 137.246 524.176C137.428 523.878 137.602 523.583 137.776 523.287C137.834 523.191 137.884 523.093 137.942 522.997C138.058 522.797 138.169 522.598 138.279 522.396C138.341 522.278 138.404 522.164 138.467 522.047C138.565 521.863 138.663 521.68 138.757 521.497C138.818 521.376 138.879 521.254 138.94 521.129C139.03 520.951 139.117 520.774 139.203 520.593C139.232 520.533 139.265 520.471 139.293 520.411C139.319 520.356 139.341 520.305 139.367 520.25C139.49 519.99 139.604 519.728 139.719 519.466C139.755 519.383 139.792 519.304 139.829 519.221C139.973 518.886 140.113 518.548 140.243 518.207C140.274 518.134 140.299 518.058 140.329 517.985C140.434 517.717 140.529 517.446 140.626 517.179C140.665 517.071 140.7 516.963 140.736 516.856C140.825 516.595 140.91 516.331 140.992 516.072C141.019 515.987 141.047 515.902 141.074 515.817C141.179 515.473 141.278 515.136 141.37 514.791C141.388 514.72 141.405 514.646 141.427 514.57C141.497 514.297 141.567 514.024 141.629 513.748C141.655 513.638 141.677 513.529 141.701 513.424C141.761 513.161 141.812 512.896 141.864 512.635C141.883 512.548 141.901 512.461 141.915 512.37C141.978 512.023 142.037 511.677 142.088 511.333C142.088 511.316 142.094 511.303 142.094 511.286C142.104 511.217 142.111 511.149 142.121 511.08C142.155 510.835 142.186 510.591 142.213 510.348C142.226 510.233 142.238 510.118 142.25 509.999C142.274 509.781 142.294 509.564 142.31 509.348C142.322 509.229 142.33 509.111 142.337 508.989C142.354 508.76 142.365 508.537 142.378 508.309C142.385 508.204 142.391 508.098 142.393 507.993C142.405 507.662 142.414 507.335 142.417 507.001C142.42 506.647 142.415 506.294 142.407 505.945C142.405 505.858 142.398 505.772 142.396 505.685C142.393 505.553 142.386 505.425 142.379 505.293C142.361 504.96 142.34 504.631 142.312 504.308C142.304 504.193 142.292 504.079 142.285 503.968C142.244 503.544 142.195 503.125 142.135 502.709C142.123 502.637 142.113 502.568 142.101 502.496C142.064 502.245 142.023 501.996 141.979 501.751C141.956 501.644 141.933 501.541 141.911 501.437C141.891 501.345 141.872 501.258 141.853 501.166C141.768 500.772 141.684 500.382 141.58 499.996L141.575 500.01Z" fill="url(#paint23_linear_2034_3457)"/>
<path d="M112.218 497.477C103.5 506.031 93.0856 511.559 80.9672 514.068C68.8418 516.582 58.4619 515.363 49.8179 510.405C41.1678 505.457 36.8703 498.264 36.9192 488.836C36.9703 479.282 41.313 470.237 49.9473 461.702C58.5784 453.171 69.0359 447.629 81.3206 445.081C93.6053 442.532 104.027 443.75 112.59 448.721C121.154 453.692 125.415 460.952 125.364 470.505C125.315 479.934 120.932 488.925 112.217 497.473L112.218 497.477ZM64.1937 483.185C64.1748 486.755 65.8354 489.497 69.1804 491.413C72.5214 493.331 76.4858 493.81 81.0755 492.86C85.6652 491.909 89.6386 489.779 93.0094 486.475C96.3794 483.167 98.0748 479.666 98.0919 475.972C98.1089 472.278 96.4503 469.507 93.1062 467.652C89.7622 465.798 85.7958 465.348 81.2101 466.298C76.6244 467.247 72.44 469.423 69.1536 472.713C65.8593 476.004 64.2116 479.495 64.1906 483.19" fill="url(#paint24_linear_2034_3457)"/>
<path d="M201.494 528.202C200.704 526.506 199.369 525.106 197.492 523.99C197.182 523.807 196.867 523.641 196.546 523.485C196.49 523.456 196.43 523.427 196.37 523.403C196.06 523.257 195.739 523.122 195.417 523C195.354 522.976 195.291 522.956 195.228 522.932C194.89 522.813 194.549 522.699 194.199 522.604C194.186 522.602 194.176 522.596 194.164 522.595C193.819 522.502 193.469 522.424 193.112 522.354C193.047 522.343 192.986 522.328 192.921 522.317C192.566 522.255 192.205 522.204 191.839 522.166C191.766 522.157 191.694 522.152 191.622 522.146C191.244 522.111 190.859 522.086 190.47 522.078C190.445 522.079 190.421 522.08 190.399 522.076C190.018 522.067 189.632 522.075 189.24 522.092C189.17 522.095 189.104 522.097 189.038 522.099C188.642 522.117 188.237 522.154 187.83 522.196C187.794 522.204 187.756 522.2 187.719 522.203C187.658 522.212 187.594 522.222 187.533 522.231C187.294 522.261 187.055 522.292 186.814 522.332C186.712 522.345 186.608 522.363 186.507 522.377C186.165 522.434 185.824 522.495 185.477 522.565C185.333 522.596 185.19 522.627 185.047 522.658C184.987 522.671 184.928 522.687 184.865 522.701C184.638 522.75 184.409 522.812 184.184 522.868C184.078 522.896 183.967 522.924 183.86 522.951C183.577 523.028 183.295 523.11 183.013 523.195C182.977 523.203 182.942 523.215 182.908 523.227L182.892 523.23C182.603 523.321 182.316 523.421 182.033 523.519C181.987 523.537 181.941 523.555 181.898 523.569C181.662 523.653 181.427 523.741 181.193 523.833C181.185 523.835 181.173 523.837 181.166 523.843C181.02 523.9 180.879 523.963 180.734 524.024C180.623 524.068 180.512 524.113 180.401 524.162C180.238 524.234 180.079 524.31 179.92 524.382C179.821 524.428 179.722 524.47 179.625 524.521L179.613 524.523C179.376 524.641 179.139 524.762 178.903 524.884C178.891 524.887 178.881 524.897 178.866 524.905C178.62 525.037 178.377 525.168 178.136 525.307L178.124 525.31C177.922 525.433 177.722 525.551 177.524 525.677C177.477 525.708 177.429 525.735 177.38 525.762C177.134 525.915 176.894 526.075 176.654 526.239L176.646 526.241C176.629 526.257 176.611 526.269 176.588 526.282C176.349 526.446 176.114 526.613 175.884 526.784C175.802 526.847 175.716 526.911 175.634 526.975C175.465 527.103 175.297 527.231 175.134 527.362C175.098 527.39 175.062 527.415 175.026 527.443C174.977 527.483 174.928 527.527 174.879 527.571C174.685 527.733 174.487 527.897 174.298 528.066C174.221 528.133 174.141 528.204 174.064 528.275C173.806 528.51 173.55 528.748 173.298 528.994C173.216 529.074 173.134 529.158 173.051 529.239C173.01 529.281 172.973 529.322 172.932 529.364C172.735 529.569 172.541 529.773 172.356 529.976C172.298 530.038 172.241 530.1 172.188 530.162C171.96 530.419 171.737 530.68 171.531 530.941C171.484 530.996 171.443 531.055 171.4 531.11C171.233 531.321 171.075 531.534 170.921 531.747C170.866 531.821 170.812 531.899 170.757 531.973C170.589 532.218 170.425 532.461 170.274 532.706C170.261 532.726 170.245 532.746 170.236 532.764C170.236 532.764 170.23 532.774 170.227 532.779C170.085 533.009 169.951 533.238 169.827 533.473C169.794 533.534 169.762 533.6 169.73 533.665C169.642 533.834 169.553 534.003 169.473 534.174C169.465 534.193 169.453 534.216 169.445 534.234C169.421 534.281 169.403 534.331 169.384 534.377C169.29 534.58 169.204 534.782 169.123 534.983C169.09 535.065 169.058 535.147 169.026 535.229C168.946 535.441 168.872 535.657 168.802 535.872C168.784 535.926 168.763 535.981 168.75 536.038C168.67 536.305 168.599 536.574 168.536 536.842C168.521 536.908 168.506 536.977 168.492 537.047C168.449 537.252 168.41 537.46 168.377 537.672C168.369 537.715 168.358 537.759 168.352 537.806C168.344 537.849 168.342 537.896 168.338 537.938C168.315 538.118 168.295 538.297 168.279 538.476C168.272 538.556 168.264 538.637 168.257 538.722C168.238 538.98 168.227 539.241 168.226 539.504C168.223 539.629 168.224 539.75 168.23 539.873C168.234 539.893 168.235 539.914 168.235 539.935C168.242 540.162 168.257 540.384 168.279 540.604C168.284 540.645 168.287 540.682 168.292 540.722C168.312 540.91 168.338 541.091 168.373 541.271C168.38 541.303 168.383 541.336 168.385 541.369C168.391 541.396 168.397 541.42 168.402 541.444C168.433 541.591 168.465 541.739 168.497 541.886C168.505 541.926 168.514 541.966 168.523 542.009C168.572 542.195 168.627 542.375 168.686 542.553C168.689 542.565 168.691 542.573 168.693 542.585C168.724 542.67 168.755 542.755 168.79 542.843C168.809 542.893 168.824 542.94 168.843 542.99C168.899 543.136 168.963 543.277 169.027 543.421L186.078 579.925C186.01 579.786 185.95 579.641 185.893 579.494C185.875 579.448 185.856 579.398 185.842 579.351C185.805 579.255 185.771 579.158 185.738 579.061C185.678 578.883 185.623 578.703 185.575 578.518C185.566 578.478 185.558 578.438 185.548 578.394C185.513 578.248 185.481 578.1 185.453 577.952C185.441 577.897 185.428 577.837 185.424 577.779C185.394 577.599 185.366 577.413 185.343 577.226C185.335 577.19 185.33 577.15 185.331 577.112C185.308 576.892 185.294 576.67 185.287 576.443C185.281 576.302 185.275 576.158 185.278 576.016C185.28 575.753 185.291 575.496 185.31 575.234C185.317 575.153 185.325 575.073 185.332 574.988C185.347 574.809 185.367 574.63 185.391 574.45C185.401 574.361 185.415 574.274 185.43 574.188C185.465 573.98 185.503 573.772 185.546 573.563C185.56 573.493 185.571 573.428 185.589 573.358C185.652 573.09 185.723 572.821 185.803 572.554C185.821 572.5 185.838 572.446 185.855 572.388C185.925 572.173 185.996 571.958 186.079 571.745C186.111 571.663 186.143 571.581 186.176 571.499C186.257 571.294 186.342 571.092 186.437 570.893C186.468 570.824 186.495 570.755 186.531 570.689C186.61 570.518 186.699 570.349 186.788 570.18C186.82 570.119 186.852 570.054 186.884 569.989C187.009 569.757 187.142 569.525 187.284 569.294C187.3 569.27 187.315 569.246 187.331 569.222C187.482 568.977 187.646 568.733 187.815 568.489C187.869 568.41 187.923 568.336 187.978 568.262C188.132 568.049 188.291 567.836 188.458 567.625C188.504 567.57 188.545 567.511 188.588 567.456C188.798 567.194 189.017 566.934 189.245 566.677C189.298 566.616 189.356 566.553 189.413 566.491C189.598 566.284 189.791 566.08 189.99 565.879C190.112 565.753 190.232 565.631 190.355 565.505C190.606 565.259 190.863 565.021 191.12 564.786C191.197 564.716 191.278 564.648 191.355 564.578C191.547 564.407 191.741 564.244 191.935 564.082C192.02 564.014 192.105 563.941 192.19 563.873C192.354 563.742 192.522 563.614 192.69 563.486C192.776 563.422 192.858 563.358 192.944 563.294C193.178 563.123 193.412 562.952 193.652 562.788C193.67 562.775 193.691 562.758 193.71 562.746C193.949 562.582 194.194 562.425 194.44 562.268C194.491 562.236 194.543 562.208 194.591 562.177C194.786 562.056 194.984 561.934 195.185 561.82C195.429 561.68 195.675 561.544 195.925 561.411C195.933 561.409 195.945 561.403 195.952 561.397C196.191 561.271 196.435 561.147 196.684 561.027C196.783 560.981 196.881 560.935 196.979 560.888C197.138 560.813 197.297 560.737 197.461 560.668C197.567 560.62 197.678 560.576 197.789 560.531C197.942 560.465 198.098 560.398 198.255 560.335C198.486 560.243 198.721 560.155 198.957 560.071C199.003 560.053 199.049 560.035 199.096 560.02C199.378 559.918 199.666 559.823 199.954 559.732C199.998 559.722 200.036 559.706 200.08 559.696C200.357 559.611 200.64 559.53 200.927 559.451C201.034 559.424 201.144 559.396 201.251 559.369C201.476 559.312 201.701 559.256 201.927 559.203C202.13 559.159 202.332 559.107 202.539 559.067C202.886 558.992 203.232 558.934 203.569 558.878C203.674 558.86 203.775 558.847 203.88 558.832C204.122 558.797 204.361 558.762 204.6 558.732C204.697 558.719 204.798 558.705 204.896 558.697C205.303 558.651 205.708 558.618 206.104 558.599C206.174 558.597 206.241 558.595 206.307 558.593C206.699 558.575 207.085 558.571 207.466 558.577C207.49 558.576 207.515 558.575 207.541 558.578C207.931 558.589 208.314 558.611 208.693 558.646C208.765 558.651 208.837 558.661 208.909 558.666C209.276 558.704 209.637 558.755 209.991 558.816C210.056 558.827 210.118 558.843 210.183 558.854C210.539 558.923 210.889 559.002 211.234 559.095C211.247 559.096 211.257 559.102 211.269 559.104C211.619 559.199 211.96 559.313 212.298 559.432C212.362 559.456 212.424 559.476 212.488 559.5C212.81 559.622 213.13 559.753 213.441 559.902C213.501 559.931 213.557 559.961 213.617 559.985C213.938 560.141 214.257 560.306 214.563 560.49C216.439 561.602 217.77 563.007 218.564 564.702L201.514 528.198L201.494 528.202Z" fill="url(#paint25_linear_2034_3457)"/>
<path d="M108.834 583.502L125.88 620.007L97.6297 625.864L80.5781 589.355L108.834 583.502Z" fill="url(#paint26_linear_2034_3457)"/>
<path d="M156.488 432.371L184.987 426.465L108.838 583.503L80.583 589.356L156.488 432.371Z" fill="url(#paint27_linear_2034_3457)"/>
<path d="M184.984 426.465L202.034 462.969L125.882 620.007L108.835 583.502L184.984 426.465Z" fill="url(#paint28_linear_2034_3457)"/>
<path d="M245.832 556.282C245.822 556.235 245.804 556.188 245.794 556.141C245.697 555.787 245.592 555.438 245.485 555.095C245.46 555.017 245.436 554.943 245.411 554.865C245.391 554.811 245.38 554.759 245.36 554.705C245.281 554.477 245.192 554.254 245.11 554.03C245.061 553.899 245.016 553.767 244.963 553.637C244.807 553.242 244.64 552.853 244.462 552.47L227.411 515.966C227.589 516.348 227.756 516.737 227.912 517.133C227.965 517.263 228.01 517.395 228.06 517.526C228.165 517.803 228.266 518.077 228.36 518.361C228.385 518.439 228.409 518.513 228.434 518.591C228.547 518.937 228.651 519.286 228.743 519.637C228.753 519.684 228.771 519.73 228.782 519.778C228.881 520.161 228.974 520.553 229.054 520.948C229.074 521.04 229.093 521.127 229.113 521.219C229.184 521.57 229.244 521.924 229.299 522.278C229.311 522.351 229.325 522.419 229.333 522.492C229.393 522.908 229.441 523.327 229.483 523.751C229.495 523.865 229.503 523.98 229.51 524.091C229.539 524.418 229.56 524.747 229.577 525.08C229.585 525.212 229.591 525.339 229.595 525.472C229.609 525.906 229.621 526.345 229.62 526.787C229.616 527.117 229.608 527.448 229.596 527.779C229.594 527.884 229.587 527.99 229.58 528.091C229.57 528.318 229.557 528.546 229.539 528.775C229.532 528.893 229.52 529.012 229.512 529.13C229.493 529.351 229.473 529.568 229.45 529.789C229.437 529.905 229.428 530.019 229.411 530.131C229.381 530.379 229.347 530.628 229.313 530.877C229.301 530.954 229.293 531.035 229.281 531.113C229.231 531.461 229.172 531.807 229.105 532.155C229.087 532.246 229.068 532.333 229.054 532.42C229.002 532.685 228.947 532.951 228.887 533.214C228.864 533.319 228.842 533.427 228.814 533.533C228.747 533.819 228.679 534.104 228.602 534.387C228.587 534.453 228.572 534.514 228.553 534.581C228.46 534.926 228.363 535.267 228.258 535.611C228.231 535.7 228.2 535.79 228.174 535.879C228.093 536.142 228.007 536.402 227.918 536.663C227.883 536.77 227.847 536.874 227.807 536.982C227.706 537.267 227.604 537.547 227.494 537.829C227.47 537.892 227.446 537.956 227.422 538.015C227.287 538.357 227.147 538.695 227.004 539.034C226.964 539.122 226.925 539.209 226.889 539.296C226.774 539.554 226.659 539.812 226.54 540.071C226.488 540.182 226.433 540.294 226.382 540.405C226.293 540.591 226.203 540.772 226.11 540.959C226.052 541.076 225.991 541.197 225.932 541.314C225.833 541.51 225.729 541.703 225.625 541.901C225.57 542.008 225.513 542.112 225.457 542.22C225.325 542.461 225.186 542.703 225.051 542.945C225.017 543.002 224.984 543.063 224.951 543.12C224.778 543.42 224.596 543.717 224.415 544.019C224.384 544.067 224.354 544.12 224.322 544.168C224.134 544.475 223.938 544.78 223.737 545.085C223.674 545.182 223.608 545.28 223.541 545.377C223.337 545.684 223.128 545.991 222.911 546.3C222.879 546.345 222.851 546.388 222.819 546.433C222.573 546.781 222.318 547.124 222.059 547.471C221.991 547.56 221.92 547.655 221.852 547.745C221.64 548.019 221.429 548.298 221.21 548.574C221.144 548.655 221.079 548.74 221.014 548.825C220.738 549.167 220.458 549.511 220.169 549.852C220.112 549.919 220.052 549.99 219.992 550.057C219.748 550.338 219.506 550.624 219.254 550.903C219.169 550.996 219.086 551.093 218.998 551.187C218.696 551.523 218.392 551.855 218.077 552.189C218.067 552.2 218.06 552.21 218.049 552.216C217.727 552.556 217.396 552.898 217.065 553.236C216.867 553.437 216.668 553.638 216.466 553.84C215.982 554.319 215.487 554.788 214.995 555.248C214.863 555.372 214.727 555.493 214.595 555.617C214.167 556.009 213.734 556.394 213.295 556.776C213.218 556.842 213.141 556.913 213.064 556.98C212.551 557.419 212.034 557.847 211.509 558.268C211.413 558.347 211.317 558.422 211.217 558.498C210.697 558.91 210.176 559.313 209.644 559.707C209.597 559.742 209.551 559.777 209.5 559.813C208.983 560.195 208.463 560.565 207.937 560.928C207.864 560.977 207.792 561.03 207.719 561.079C207.425 561.28 207.124 561.47 206.829 561.666C206.49 561.889 206.156 562.116 205.814 562.331C205.521 562.515 205.222 562.692 204.927 562.872C204.584 563.079 204.246 563.289 203.902 563.488C203.542 563.695 203.177 563.894 202.816 564.092C202.548 564.242 202.281 564.395 202.007 564.537C201.622 564.741 201.227 564.938 200.837 565.135C200.581 565.265 200.327 565.399 200.067 565.526C199.656 565.726 199.238 565.912 198.821 566.106C198.575 566.218 198.33 566.337 198.083 566.448C197.569 566.675 197.049 566.892 196.525 567.104C196.367 567.167 196.216 567.238 196.059 567.301C195.924 567.354 195.789 567.4 195.654 567.454C195.078 567.678 194.505 567.902 193.92 568.107C193.661 568.2 193.396 568.282 193.136 568.371C192.67 568.53 192.209 568.691 191.737 568.839C191.121 569.034 190.498 569.218 189.871 569.399C189.737 569.436 189.6 569.474 189.466 569.511C188.825 569.687 188.179 569.859 187.525 570.016C187.446 570.033 187.366 570.051 187.287 570.072C186.598 570.237 185.907 570.394 185.21 570.54C184.528 570.682 183.851 570.807 183.181 570.926C183.021 570.957 182.864 570.982 182.703 571.009C182.04 571.122 181.383 571.222 180.732 571.312C180.667 571.322 180.606 571.327 180.541 571.337C179.974 571.413 179.413 571.475 178.855 571.533C178.667 571.552 178.484 571.571 178.3 571.586C177.863 571.626 177.429 571.665 176.999 571.695C176.809 571.707 176.621 571.722 176.432 571.734C176.012 571.757 175.593 571.781 175.175 571.796C174.985 571.804 174.79 571.808 174.6 571.816C174.194 571.824 173.787 571.832 173.387 571.831C173.192 571.831 172.996 571.832 172.803 571.827C172.411 571.824 172.017 571.813 171.627 571.802C171.43 571.794 171.233 571.787 171.039 571.778C170.66 571.76 170.281 571.737 169.903 571.706C169.704 571.691 169.505 571.675 169.306 571.66C168.937 571.627 168.574 571.588 168.211 571.546C168.01 571.522 167.809 571.499 167.608 571.475C167.253 571.431 166.9 571.378 166.551 571.324C166.349 571.293 166.146 571.261 165.948 571.229C165.602 571.17 165.263 571.106 164.923 571.037C164.719 570.998 164.515 570.958 164.314 570.914C163.982 570.844 163.653 570.765 163.323 570.686C163.121 570.638 162.915 570.59 162.716 570.537C162.394 570.453 162.075 570.363 161.755 570.27C161.555 570.213 161.352 570.156 161.151 570.095C160.834 569.997 160.524 569.893 160.21 569.79C160.013 569.724 159.812 569.659 159.617 569.588C159.306 569.476 159.001 569.359 158.693 569.242C158.502 569.166 158.308 569.1 158.116 569.02C157.806 568.895 157.497 568.758 157.194 568.623C157.014 568.545 156.831 568.468 156.651 568.386C156.318 568.233 155.991 568.07 155.669 567.906C155.519 567.83 155.367 567.762 155.217 567.686C154.744 567.443 154.277 567.189 153.817 566.926C151.607 565.66 149.683 564.246 148.042 562.679C147.57 562.231 147.126 561.772 146.704 561.301C145.223 559.649 144.028 557.849 143.116 555.896L160.167 592.4C161.859 596.026 164.532 599.133 168.184 601.721C168.464 601.919 168.752 602.115 169.044 602.311C169.627 602.697 170.236 603.07 170.867 603.43C178.108 607.578 186.624 609.098 196.415 607.986C196.806 607.943 197.199 607.892 197.595 607.836C197.655 607.827 197.721 607.821 197.781 607.812C198.433 607.722 199.093 607.617 199.753 607.509C199.91 607.483 200.07 607.453 200.227 607.427C200.897 607.308 201.574 607.183 202.255 607.041C202.614 606.964 202.972 606.887 203.326 606.81C203.665 606.737 204.001 606.653 204.337 606.572C204.417 606.555 204.496 606.538 204.571 606.517C205.224 606.356 205.871 606.188 206.512 606.012C206.645 605.975 206.779 605.938 206.913 605.901C207.505 605.732 208.097 605.558 208.682 605.374C208.718 605.366 208.748 605.352 208.783 605.34C209.251 605.193 209.712 605.032 210.178 604.873C210.442 604.783 210.707 604.701 210.966 604.608C211.546 604.399 212.116 604.181 212.684 603.959C212.818 603.905 212.958 603.858 213.093 603.804L213.108 603.801C213.258 603.739 213.402 603.675 213.547 603.615C214.075 603.397 214.607 603.178 215.129 602.949C215.376 602.842 215.617 602.723 215.86 602.613C216.254 602.432 216.65 602.255 217.038 602.068C217.064 602.054 217.086 602.041 217.113 602.031C217.374 601.904 217.628 601.77 217.883 601.64C218.274 601.443 218.666 601.251 219.05 601.043C219.323 600.897 219.59 600.744 219.861 600.594C220.178 600.421 220.496 600.253 220.807 600.073C220.856 600.046 220.899 600.016 220.948 599.989C221.296 599.789 221.634 599.579 221.981 599.371C222.275 599.191 222.572 599.019 222.865 598.835C223.21 598.619 223.545 598.393 223.884 598.17C224.136 598.003 224.393 597.844 224.64 597.674C224.683 597.644 224.727 597.614 224.77 597.583C224.843 597.534 224.915 597.481 224.987 597.432C225.513 597.069 226.033 596.699 226.547 596.318C226.594 596.283 226.64 596.248 226.691 596.212C227.219 595.819 227.744 595.415 228.263 595.003C228.36 594.928 228.459 594.848 228.555 594.773C228.648 594.699 228.737 594.63 228.829 594.556C229.258 594.206 229.685 593.847 230.111 593.485C230.188 593.418 230.264 593.347 230.342 593.281C230.781 592.903 231.21 592.515 231.642 592.122C231.774 592.002 231.91 591.877 232.041 591.753C232.538 591.292 233.029 590.828 233.514 590.349C233.675 590.189 233.836 590.029 233.997 589.866C234.038 589.824 234.076 589.786 234.113 589.745C234.448 589.406 234.778 589.064 235.101 588.724C235.107 588.715 235.114 588.709 235.12 588.699C235.436 588.365 235.742 588.028 236.046 587.696C236.13 587.603 236.217 587.505 236.301 587.412C236.553 587.129 236.8 586.846 237.039 586.566C237.096 586.499 237.156 586.428 237.212 586.362C237.501 586.021 237.781 585.677 238.057 585.335C238.123 585.254 238.188 585.169 238.253 585.084C238.473 584.808 238.689 584.532 238.895 584.254C238.964 584.165 239.035 584.07 239.103 583.981C239.361 583.633 239.617 583.291 239.863 582.942C239.895 582.898 239.923 582.855 239.955 582.81C240.172 582.501 240.38 582.194 240.585 581.887C240.652 581.79 240.714 581.693 240.78 581.595C240.981 581.29 241.178 580.985 241.366 580.678C241.391 580.639 241.416 580.6 241.437 580.563C241.443 580.553 241.449 580.539 241.459 580.529C241.641 580.231 241.822 579.93 241.994 579.63C242.028 579.573 242.061 579.516 242.094 579.455C242.234 579.212 242.369 578.971 242.5 578.73C242.557 578.626 242.613 578.518 242.669 578.41C242.772 578.213 242.877 578.02 242.976 577.824C243.038 577.706 243.095 577.586 243.157 577.464C243.247 577.282 243.34 577.096 243.426 576.915C243.451 576.859 243.481 576.803 243.507 576.747C243.532 576.692 243.557 576.632 243.582 576.577C243.702 576.318 243.818 576.064 243.929 575.807C243.968 575.719 244.007 575.627 244.046 575.54C244.19 575.201 244.33 574.862 244.464 574.521C244.488 574.458 244.512 574.394 244.536 574.331C244.642 574.05 244.748 573.768 244.846 573.489C244.881 573.382 244.921 573.277 244.956 573.17C245.046 572.909 245.132 572.649 245.213 572.389C245.24 572.3 245.271 572.211 245.297 572.122C245.403 571.778 245.5 571.436 245.592 571.092C245.611 571.025 245.626 570.959 245.641 570.894C245.714 570.612 245.786 570.329 245.85 570.045C245.876 569.935 245.9 569.83 245.922 569.721C245.982 569.458 246.033 569.193 246.084 568.928C246.102 568.837 246.121 568.749 246.139 568.658C246.202 568.311 246.26 567.965 246.314 567.616C246.316 567.604 246.32 567.586 246.322 567.573C246.333 567.508 246.339 567.44 246.346 567.376C246.38 567.128 246.415 566.883 246.441 566.635C246.453 566.52 246.466 566.405 246.479 566.29C246.503 566.072 246.522 565.852 246.541 565.631C246.553 565.512 246.561 565.393 246.568 565.271C246.585 565.042 246.595 564.815 246.608 564.588C246.614 564.482 246.621 564.377 246.623 564.272C246.635 563.94 246.643 563.609 246.647 563.28C246.65 562.925 246.645 562.572 246.637 562.224C246.634 562.137 246.628 562.051 246.622 561.965C246.619 561.832 246.612 561.704 246.605 561.573C246.587 561.239 246.566 560.91 246.537 560.583C246.529 560.468 246.521 560.353 246.51 560.243C246.469 559.819 246.42 559.401 246.36 558.984C246.348 558.912 246.338 558.843 246.326 558.771C246.289 558.521 246.248 558.271 246.203 558.023C246.181 557.919 246.158 557.816 246.135 557.708C246.115 557.617 246.097 557.529 246.077 557.438C245.992 557.043 245.908 556.653 245.804 556.268L245.832 556.282Z" fill="url(#paint29_linear_2034_3457)"/>
<path d="M216.858 504.997C225.422 509.973 229.679 517.229 229.629 526.786C229.58 536.215 225.198 545.234 216.485 553.845C207.765 562.466 197.348 568.024 185.227 570.537C172.945 573.081 162.478 571.881 153.834 566.927C145.187 561.974 140.889 554.719 140.936 545.166C140.986 535.608 145.367 526.564 154.084 518.006C162.798 509.457 173.3 503.906 185.581 501.363C197.863 498.819 208.29 500.027 216.858 504.997ZM197.276 542.939C200.642 539.632 202.341 536.13 202.362 532.435C202.383 528.74 200.758 525.928 197.496 523.994C194.228 522.065 190.227 521.589 185.477 522.57C180.727 523.551 176.667 525.703 173.296 529.007C169.922 532.316 168.227 535.817 168.21 539.512C168.193 543.206 169.897 545.842 173.323 547.804C176.748 549.766 180.752 550.274 185.338 549.324C189.924 548.375 193.901 546.244 197.276 542.939Z" fill="url(#paint30_linear_2034_3457)"/>
</mask>
<g mask="url(#mask0_2034_3457)">
<g style="mix-blend-mode:overlay">
<rect x="24" y="382.159" width="287" height="282" fill="#8875FF" fill-opacity="0.2"/>
</g>
</g>
<defs>
<filter id="filter0_d_2034_3457" x="169.367" y="0" width="395.928" height="446.205" filterUnits="userSpaceOnUse" color-interpolation-filters="sRGB">
<feFlood flood-opacity="0" result="BackgroundImageFix"/>
<feColorMatrix in="SourceAlpha" type="matrix" values="0 0 0 0 0 0 0 0 0 0 0 0 0 0 0 0 0 0 127 0" result="hardAlpha"/>
<feOffset dy="4"/>
<feGaussianBlur stdDeviation="25"/>
<feColorMatrix type="matrix" values="0 0 0 0 0.175381 0 0 0 0 0.165976 0 0 0 0 0.283537 0 0 0 0.2 0"/>
<feBlend mode="normal" in2="BackgroundImageFix" result="effect1_dropShadow_2034_3457"/>
<feBlend mode="normal" in="SourceGraphic" in2="effect1_dropShadow_2034_3457" result="shape"/>
</filter>
<filter id="filter1_d_2034_3457" x="373" y="1.15918" width="396.376" height="355.854" filterUnits="userSpaceOnUse" color-interpolation-filters="sRGB">
<feFlood flood-opacity="0" result="BackgroundImageFix"/>
<feColorMatrix in="SourceAlpha" type="matrix" values="0 0 0 0 0 0 0 0 0 0 0 0 0 0 0 0 0 0 127 0" result="hardAlpha"/>
<feOffset dy="4"/>
<feGaussianBlur stdDeviation="25"/>
<feColorMatrix type="matrix" values="0 0 0 0 0.175381 0 0 0 0 0.165976 0 0 0 0 0.283537 0 0 0 0.2 0"/>
<feBlend mode="normal" in2="BackgroundImageFix" result="effect1_dropShadow_2034_3457"/>
<feBlend mode="normal" in="SourceGraphic" in2="effect1_dropShadow_2034_3457" result="shape"/>
</filter>
<filter id="filter2_d_2034_3457" x="519.358" y="81.52" width="397.688" height="377.535" filterUnits="userSpaceOnUse" color-interpolation-filters="sRGB">
<feFlood flood-opacity="0" result="BackgroundImageFix"/>
<feColorMatrix in="SourceAlpha" type="matrix" values="0 0 0 0 0 0 0 0 0 0 0 0 0 0 0 0 0 0 127 0" result="hardAlpha"/>
<feOffset dy="4"/>
<feGaussianBlur stdDeviation="25"/>
<feColorMatrix type="matrix" values="0 0 0 0 0.175381 0 0 0 0 0.165976 0 0 0 0 0.283537 0 0 0 0.2 0"/>
<feBlend mode="normal" in2="BackgroundImageFix" result="effect1_dropShadow_2034_3457"/>
<feBlend mode="normal" in="SourceGraphic" in2="effect1_dropShadow_2034_3457" result="shape"/>
</filter>
<linearGradient id="paint0_linear_2034_3457" x1="172.786" y1="215.502" x2="322.229" y2="490.852" gradientUnits="userSpaceOnUse">
<stop stop-color="#C4AFFF"/>
<stop offset="0.619797" stop-color="#A180FF"/>
</linearGradient>
<linearGradient id="paint1_linear_2034_3457" x1="324.612" y1="459.338" x2="-2.65579" y2="245.458" gradientUnits="userSpaceOnUse">
<stop stop-color="#6CE5FF" stop-opacity="0"/>
<stop offset="0.592264" stop-color="white" stop-opacity="0.5"/>
<stop offset="1" stop-color="#DAFFE4" stop-opacity="0"/>
</linearGradient>
<linearGradient id="paint2_linear_2034_3457" x1="324.612" y1="459.338" x2="-2.65579" y2="245.458" gradientUnits="userSpaceOnUse">
<stop stop-color="#6CE5FF" stop-opacity="0"/>
<stop offset="0.592264" stop-color="white" stop-opacity="0.5"/>
<stop offset="1" stop-color="#DAFFE4" stop-opacity="0"/>
</linearGradient>
<linearGradient id="paint3_linear_2034_3457" x1="276.541" y1="456.949" x2="393.259" y2="578.538" gradientUnits="userSpaceOnUse">
<stop stop-color="#6934FF"/>
<stop offset="1" stop-color="#9F7DFF"/>
</linearGradient>
<linearGradient id="paint4_linear_2034_3457" x1="464.498" y1="506.856" x2="428.71" y2="447.81" gradientUnits="userSpaceOnUse">
<stop offset="0.190469" stop-color="#A788FF"/>
<stop offset="1" stop-color="#F1AAD5"/>
</linearGradient>
<linearGradient id="paint5_linear_2034_3457" x1="82.8421" y1="465.947" x2="94.2495" y2="509.404" gradientUnits="userSpaceOnUse">
<stop stop-color="#B50B52"/>
<stop offset="1" stop-color="#5F1433"/>
</linearGradient>
<linearGradient id="paint6_linear_2034_3457" x1="68.5605" y1="482.245" x2="80.8842" y2="513.614" gradientUnits="userSpaceOnUse">
<stop stop-color="#B50B52"/>
<stop offset="1" stop-color="#5F1433"/>
</linearGradient>
<linearGradient id="paint7_linear_2034_3457" x1="68.5179" y1="482.633" x2="81.2871" y2="514.857" gradientUnits="userSpaceOnUse">
<stop stop-color="#B50B52"/>
<stop offset="1" stop-color="#5F1433"/>
</linearGradient>
<linearGradient id="paint8_linear_2034_3457" x1="68.7864" y1="484.134" x2="81.5052" y2="516.142" gradientUnits="userSpaceOnUse">
<stop stop-color="#B50B52"/>
<stop offset="1" stop-color="#5F1433"/>
</linearGradient>
<linearGradient id="paint9_linear_2034_3457" x1="69.1501" y1="485.346" x2="81.6539" y2="517.109" gradientUnits="userSpaceOnUse">
<stop stop-color="#B50B52"/>
<stop offset="1" stop-color="#5F1433"/>
</linearGradient>
<linearGradient id="paint10_linear_2034_3457" x1="154.391" y1="468.284" x2="103.707" y2="552.47" gradientUnits="userSpaceOnUse">
<stop stop-color="#A6114F"/>
<stop offset="0.442584" stop-color="#FF68A7"/>
<stop offset="0.984965" stop-color="#A6114F"/>
</linearGradient>
<linearGradient id="paint11_linear_2034_3457" x1="115.255" y1="453.615" x2="93.2842" y2="514.292" gradientUnits="userSpaceOnUse">
<stop stop-color="#FF70AB"/>
<stop offset="0.548095" stop-color="#FFCAE0"/>
<stop offset="1" stop-color="#FF70AB"/>
</linearGradient>
<linearGradient id="paint12_linear_2034_3457" x1="186.852" y1="522.269" x2="199.267" y2="569.008" gradientUnits="userSpaceOnUse">
<stop stop-color="#B50B52"/>
<stop offset="1" stop-color="#5F1433"/>
</linearGradient>
<linearGradient id="paint13_linear_2034_3457" x1="99.0732" y1="585.374" x2="113.194" y2="651.319" gradientUnits="userSpaceOnUse">
<stop stop-color="#B50B52"/>
<stop offset="1" stop-color="#B50B52" stop-opacity="0"/>
</linearGradient>
<linearGradient id="paint14_linear_2034_3457" x1="149.001" y1="433.928" x2="138.504" y2="570.358" gradientUnits="userSpaceOnUse">
<stop stop-color="#FF559C"/>
<stop offset="0.548095" stop-color="#FFCAE0"/>
<stop offset="1" stop-color="#FF559C"/>
</linearGradient>
<linearGradient id="paint15_linear_2034_3457" x1="163.063" y1="431.113" x2="128.539" y2="594.819" gradientUnits="userSpaceOnUse">
<stop stop-color="#DD1266" stop-opacity="0.95"/>
<stop offset="0.567703" stop-color="#FF8ABB"/>
<stop offset="1" stop-color="#DD1266" stop-opacity="0.95"/>
</linearGradient>
<linearGradient id="paint16_linear_2034_3457" x1="258.668" y1="524.583" x2="207.868" y2="608.952" gradientUnits="userSpaceOnUse">
<stop stop-color="#A6114F"/>
<stop offset="0.442584" stop-color="#FF68A7"/>
<stop offset="0.984965" stop-color="#A6114F"/>
</linearGradient>
<linearGradient id="paint17_linear_2034_3457" x1="219.509" y1="509.941" x2="197.483" y2="570.789" gradientUnits="userSpaceOnUse">
<stop stop-color="#FF70AB"/>
<stop offset="0.548095" stop-color="#FFCAE0"/>
<stop offset="1" stop-color="#FF70AB"/>
</linearGradient>
<linearGradient id="paint18_linear_2034_3457" x1="82.8421" y1="465.947" x2="94.2495" y2="509.404" gradientUnits="userSpaceOnUse">
<stop stop-color="#B50B52"/>
<stop offset="1" stop-color="#5F1433"/>
</linearGradient>
<linearGradient id="paint19_linear_2034_3457" x1="68.5605" y1="482.245" x2="80.8842" y2="513.614" gradientUnits="userSpaceOnUse">
<stop stop-color="#B50B52"/>
<stop offset="1" stop-color="#5F1433"/>
</linearGradient>
<linearGradient id="paint20_linear_2034_3457" x1="68.5179" y1="482.633" x2="81.2871" y2="514.857" gradientUnits="userSpaceOnUse">
<stop stop-color="#B50B52"/>
<stop offset="1" stop-color="#5F1433"/>
</linearGradient>
<linearGradient id="paint21_linear_2034_3457" x1="68.7864" y1="484.134" x2="81.5052" y2="516.142" gradientUnits="userSpaceOnUse">
<stop stop-color="#B50B52"/>
<stop offset="1" stop-color="#5F1433"/>
</linearGradient>
<linearGradient id="paint22_linear_2034_3457" x1="69.1501" y1="485.346" x2="81.6539" y2="517.109" gradientUnits="userSpaceOnUse">
<stop stop-color="#B50B52"/>
<stop offset="1" stop-color="#5F1433"/>
</linearGradient>
<linearGradient id="paint23_linear_2034_3457" x1="154.391" y1="468.284" x2="103.707" y2="552.47" gradientUnits="userSpaceOnUse">
<stop stop-color="#A6114F"/>
<stop offset="0.442584" stop-color="#FF68A7"/>
<stop offset="0.984965" stop-color="#A6114F"/>
</linearGradient>
<linearGradient id="paint24_linear_2034_3457" x1="115.255" y1="453.615" x2="93.2842" y2="514.292" gradientUnits="userSpaceOnUse">
<stop stop-color="#FF70AB"/>
<stop offset="0.548095" stop-color="#FFCAE0"/>
<stop offset="1" stop-color="#FF70AB"/>
</linearGradient>
<linearGradient id="paint25_linear_2034_3457" x1="186.852" y1="522.269" x2="199.267" y2="569.008" gradientUnits="userSpaceOnUse">
<stop stop-color="#B50B52"/>
<stop offset="1" stop-color="#5F1433"/>
</linearGradient>
<linearGradient id="paint26_linear_2034_3457" x1="99.0732" y1="585.374" x2="113.194" y2="651.319" gradientUnits="userSpaceOnUse">
<stop stop-color="#B50B52"/>
<stop offset="1" stop-color="#B50B52" stop-opacity="0"/>
</linearGradient>
<linearGradient id="paint27_linear_2034_3457" x1="149.001" y1="433.928" x2="138.504" y2="570.358" gradientUnits="userSpaceOnUse">
<stop stop-color="#FF559C"/>
<stop offset="0.548095" stop-color="#FFCAE0"/>
<stop offset="1" stop-color="#FF559C"/>
</linearGradient>
<linearGradient id="paint28_linear_2034_3457" x1="163.063" y1="431.113" x2="128.539" y2="594.819" gradientUnits="userSpaceOnUse">
<stop stop-color="#DD1266" stop-opacity="0.95"/>
<stop offset="0.567703" stop-color="#FF8ABB"/>
<stop offset="1" stop-color="#DD1266" stop-opacity="0.95"/>
</linearGradient>
<linearGradient id="paint29_linear_2034_3457" x1="258.668" y1="524.583" x2="207.868" y2="608.952" gradientUnits="userSpaceOnUse">
<stop stop-color="#A6114F"/>
<stop offset="0.442584" stop-color="#FF68A7"/>
<stop offset="0.984965" stop-color="#A6114F"/>
</linearGradient>
<linearGradient id="paint30_linear_2034_3457" x1="219.509" y1="509.941" x2="197.483" y2="570.789" gradientUnits="userSpaceOnUse">
<stop stop-color="#FF70AB"/>
<stop offset="0.548095" stop-color="#FFCAE0"/>
<stop offset="1" stop-color="#FF70AB"/>
</linearGradient>
</defs>
</svg>
