<svg width="698" height="566" viewBox="0 0 698 566" fill="none" xmlns="http://www.w3.org/2000/svg">
<path d="M134.129 467.437C134.093 467.434 134.056 467.432 134.019 467.431C133.453 467.42 132.927 467.729 132.661 468.232L132.657 468.239C132.411 468.704 132.424 469.263 132.692 469.713L136.494 477.753L136.495 477.754C137.717 480.332 140.3 481.994 143.157 481.997C143.157 481.997 143.158 481.997 143.158 481.997L390.586 482.578L390.587 482.578C394.231 482.584 397.807 481.552 400.891 479.589L669.348 308.958L669.349 308.957C672.114 307.198 673.407 303.823 672.54 300.658L672.54 300.658L670.954 294.87C670.829 294.414 670.497 294.045 670.058 293.873C669.619 293.702 669.124 293.748 668.723 293.998C622.641 322.679 576.559 351.36 530.477 380.04L530.435 380.066C484.459 408.68 438.482 437.295 392.507 465.91L134.129 467.437Z" fill="#7148E5" stroke="#7F57F4" stroke-width="3" stroke-linecap="round" stroke-linejoin="round"/>
<path d="M418.833 315.146C419.515 314.773 419.803 313.942 419.497 313.229L319.479 80.3166C319.167 79.5896 318.344 79.2332 317.6 79.5025L4.32036 192.801C3.92239 192.945 3.60291 193.251 3.44065 193.642C3.27838 194.034 3.28844 194.476 3.46832 194.858L132.641 469.617C132.817 469.99 133.138 470.274 133.529 470.401C133.92 470.529 134.347 470.489 134.709 470.291L418.833 315.146Z" fill="url(#paint0_linear_2212_265)" stroke="#967DDE" stroke-width="3" stroke-linecap="round" stroke-linejoin="round"/>
<path d="M19.3582 200.771L314.171 92.9649L405.01 305.658L137.215 450.368L19.3582 200.771Z" fill="url(#paint1_linear_2212_265)"/>
<path d="M19.3582 200.771L314.171 92.9649L405.01 305.658L137.215 450.368L19.3582 200.771Z" fill="url(#paint2_linear_2212_265)"/>
<path d="M670.303 296.546C670.889 296.18 671.152 295.462 670.94 294.805C670.729 294.149 670.097 293.723 669.41 293.774L418.009 312.332C417.796 312.347 417.589 312.409 417.401 312.511L133.271 467.615C132.668 467.944 132.363 468.64 132.53 469.306C132.698 469.972 133.296 470.437 133.981 470.435L387.471 469.791L387.471 469.791C391.038 469.781 394.528 468.775 397.558 466.883L670.303 296.546Z" fill="url(#paint3_linear_2212_265)" stroke="#7F57F4" stroke-width="3" stroke-linecap="round" stroke-linejoin="round"/>
<path opacity="0.8" d="M473.227 414.618L358.621 418.429L467.063 355.226L582.513 346.443L473.227 414.618Z" fill="url(#paint4_linear_2212_265)" fill-opacity="0.7"/>
<path d="M97.2609 381.702C96.457 379.98 95.0715 378.575 93.1093 377.489C92.7929 377.316 92.4711 377.156 92.143 377.006C92.0827 376.977 92.0272 376.951 91.9669 376.923C91.6494 376.783 91.3304 376.656 91.0013 376.539C90.9378 376.515 90.8752 376.495 90.8118 376.472C90.4747 376.357 90.1304 376.248 89.7777 376.157C89.7649 376.155 89.7512 376.15 89.7424 376.148C89.3985 376.059 89.0492 375.985 88.6936 375.92C88.6287 375.909 88.5679 375.897 88.503 375.886C88.1523 375.824 87.7922 375.776 87.4307 375.742C87.3587 375.736 87.2859 375.727 87.2139 375.722C86.8405 375.689 86.4639 375.662 86.0788 375.654C86.0541 375.655 86.0285 375.652 85.9998 375.654C85.6275 375.647 85.2498 375.653 84.8659 375.669C84.7996 375.671 84.7333 375.672 84.6679 375.678C84.2809 375.699 83.8876 375.729 83.4889 375.774C83.453 375.781 83.4186 375.776 83.3828 375.784C83.3222 375.793 83.2617 375.802 83.2051 375.81C82.9739 375.839 82.7435 375.872 82.5092 375.905C82.4088 375.923 82.3116 375.935 82.2112 375.953C81.8814 376.007 81.5524 376.066 81.218 376.138C81.0746 376.168 80.9313 376.199 80.788 376.23C80.7283 376.243 80.6655 376.261 80.6058 376.273C80.3789 376.322 80.1585 376.382 79.9333 376.439C79.8227 376.467 79.7161 376.494 79.6063 376.526C79.3311 376.602 79.0567 376.682 78.7872 376.765C78.7434 376.774 78.7044 376.787 78.6615 376.8L78.6416 376.805C78.3809 376.89 78.1202 376.975 77.8651 377.068C77.8413 377.073 77.8142 377.083 77.7912 377.092C77.5083 377.19 77.2311 377.296 76.9588 377.404L76.9428 377.408C76.7245 377.496 76.507 377.589 76.2944 377.685C76.2563 377.701 76.2182 377.718 76.1801 377.734C75.9254 377.847 75.6715 377.965 75.4225 378.085L75.4105 378.087C75.3472 378.122 75.2877 378.155 75.2235 378.186C75.0356 378.281 74.8508 378.37 74.6678 378.468C74.5782 378.516 74.4855 378.57 74.396 378.618C74.2581 378.694 74.1203 378.769 73.9824 378.845C73.9673 378.852 73.9531 378.863 73.9381 378.871C73.8161 378.943 73.6942 379.015 73.5731 379.091C73.4512 379.163 73.3292 379.235 73.2081 379.311C73.087 379.387 72.9708 379.466 72.8537 379.542C72.7477 379.61 72.6416 379.679 72.5396 379.747C72.5245 379.754 72.5143 379.765 72.5001 379.776C72.2494 379.947 72.0004 380.125 71.7563 380.307C71.727 380.326 71.7026 380.348 71.6782 380.37C71.4593 380.533 71.2453 380.7 71.0322 380.871C71.018 380.882 70.9998 380.895 70.9824 380.911C70.9438 380.944 70.9051 380.977 70.8665 381.011C70.6329 381.203 70.4081 381.397 70.1811 381.6C70.1078 381.666 70.0305 381.732 69.958 381.802C69.69 382.047 69.4238 382.3 69.1632 382.56C69.1388 382.582 69.1192 382.607 69.0947 382.629C69.0601 382.662 69.0342 382.696 68.9996 382.729C68.7839 382.946 68.5771 383.166 68.379 383.387C68.3114 383.46 68.2447 383.537 68.181 383.609C67.9799 383.836 67.7867 384.06 67.6023 384.288C67.5725 384.323 67.5395 384.364 67.5097 384.399C67.2995 384.661 67.1061 384.923 66.9166 385.185C66.8649 385.254 66.818 385.327 66.7703 385.396C66.6272 385.601 66.4889 385.81 66.3554 386.022C66.3273 386.066 66.2952 386.11 66.2679 386.158C66.2492 386.187 66.2344 386.215 66.2197 386.243C66.1152 386.415 66.0186 386.586 65.9221 386.757C65.8863 386.823 65.8466 386.89 65.8099 386.952C65.6816 387.188 65.5621 387.426 65.4474 387.667C65.4443 387.672 65.442 387.681 65.4389 387.686C65.4281 387.713 65.4173 387.74 65.4057 387.764C65.2981 387.999 65.1985 388.233 65.1037 388.47C65.0714 388.552 65.0422 388.629 65.0098 388.711C64.9329 388.915 64.8609 389.122 64.7968 389.328C64.7747 389.399 64.7517 389.466 64.7296 389.538C64.6497 389.805 64.5745 390.075 64.5162 390.346C64.5066 390.398 64.4961 390.446 64.4865 390.498C64.4395 390.725 64.3965 390.951 64.3614 391.175C64.3532 391.214 64.345 391.253 64.3408 391.292C64.3343 391.339 64.3317 391.385 64.3252 391.433C64.2984 391.617 64.2795 391.801 64.2615 391.988C64.2539 392.069 64.2471 392.153 64.2395 392.234C64.221 392.496 64.2073 392.762 64.2064 393.028L81.2571 429.533C81.258 429.266 81.2717 429 81.2902 428.738C81.2978 428.657 81.3046 428.573 81.3122 428.492C81.3302 428.305 81.3491 428.122 81.3759 427.937C81.3866 427.851 81.4005 427.761 81.4152 427.674C81.4494 427.446 81.4924 427.22 81.5403 426.997C81.5499 426.945 81.5604 426.897 81.57 426.845C81.6323 426.574 81.7035 426.304 81.7834 426.037C81.8055 425.966 81.8285 425.898 81.8506 425.827C81.9147 425.621 81.9867 425.414 82.0636 425.21C82.092 425.129 82.1243 425.047 82.1575 424.969C82.2523 424.732 82.3519 424.498 82.4595 424.263C82.4734 424.231 82.4873 424.199 82.5012 424.166C82.6119 423.926 82.7354 423.687 82.8637 423.451C82.8995 423.385 82.9393 423.318 82.9759 423.256C83.0724 423.085 83.169 422.915 83.2735 422.742C83.3163 422.671 83.3672 422.597 83.4101 422.525C83.5444 422.317 83.6827 422.109 83.825 421.899C83.8727 421.83 83.9235 421.757 83.9713 421.688C84.1607 421.427 84.3581 421.163 84.5644 420.902C84.5933 420.863 84.6271 420.826 84.657 420.791C84.8413 420.564 85.0345 420.339 85.2317 420.113C85.2985 420.036 85.3661 419.963 85.4337 419.891C85.6326 419.673 85.8394 419.453 86.0542 419.232C86.1085 419.175 86.1596 419.122 86.2139 419.064C86.4745 418.804 86.7416 418.555 87.0087 418.306C87.082 418.24 87.1584 418.17 87.2317 418.104C87.4557 417.906 87.6836 417.707 87.918 417.519C87.9749 417.473 88.0269 417.425 88.0837 417.379C88.2969 417.208 88.5109 417.041 88.7257 416.878C88.755 416.86 88.7794 416.838 88.8079 416.815C89.052 416.633 89.3018 416.459 89.5516 416.284C89.6679 416.205 89.789 416.129 89.9052 416.05C90.0215 415.971 90.1426 415.895 90.2597 415.819C90.3807 415.743 90.5027 415.671 90.6246 415.599C90.7466 415.527 90.8677 415.451 90.9896 415.379C91.1417 415.292 91.2906 415.21 91.4436 415.127C91.5331 415.079 91.6258 415.025 91.7153 414.977C91.8984 414.879 92.0863 414.785 92.2711 414.695C92.3353 414.664 92.3947 414.631 92.459 414.6C92.712 414.479 92.969 414.357 93.2277 414.243C93.2657 414.227 93.3038 414.21 93.3419 414.194C93.5625 414.096 93.784 414.003 94.0063 413.913C94.2827 413.804 94.5599 413.698 94.8388 413.601C94.8627 413.596 94.8857 413.586 94.9127 413.576C95.1686 413.488 95.4284 413.399 95.69 413.318C95.7369 413.303 95.7878 413.288 95.8387 413.273C96.1082 413.19 96.3826 413.11 96.6579 413.034C96.7645 413.007 96.8751 412.979 96.9848 412.947C97.206 412.891 97.4313 412.834 97.6573 412.782C97.8603 412.738 98.0616 412.686 98.2695 412.646C98.6039 412.574 98.9369 412.514 99.2627 412.461C99.3631 412.444 99.4644 412.43 99.5608 412.414C99.7951 412.38 100.025 412.347 100.257 412.318C100.354 412.305 100.447 412.294 100.545 412.285C100.944 412.241 101.337 412.21 101.724 412.189C101.791 412.188 101.857 412.186 101.922 412.18C102.306 412.164 102.684 412.158 103.056 412.165C103.081 412.164 103.106 412.167 103.135 412.165C103.52 412.173 103.896 412.197 104.27 412.233C104.342 412.238 104.414 412.243 104.487 412.253C104.849 412.291 105.206 412.34 105.559 412.397C105.624 412.408 105.685 412.42 105.75 412.431C106.106 412.496 106.455 412.571 106.799 412.659C106.812 412.66 106.825 412.666 106.838 412.667C107.187 412.759 107.531 412.868 107.872 412.982C107.936 413.006 107.998 413.026 108.062 413.049C108.387 413.167 108.71 413.293 109.027 413.433C109.087 413.458 109.147 413.486 109.203 413.516C109.531 413.666 109.853 413.826 110.17 413.999C112.133 415.089 113.517 416.49 114.321 418.212L97.2706 381.708L97.2609 381.702Z" fill="url(#paint5_linear_2212_265)"/>
<path d="M64.2035 393.024L81.2542 429.528C81.252 429.653 81.2547 429.782 81.2605 429.905L64.2098 393.401C64.208 393.277 64.2053 393.148 64.2035 393.024Z" fill="url(#paint6_linear_2212_265)"/>
<path d="M64.2067 393.401L81.2573 429.906C81.2706 430.432 81.3251 430.936 81.4138 431.426L64.3631 394.921C64.2745 394.432 64.22 393.928 64.2067 393.401Z" fill="url(#paint7_linear_2212_265)"/>
<path d="M64.3695 394.925L81.4202 431.43C81.4982 431.85 81.6033 432.261 81.7385 432.656L64.6878 396.152C64.5526 395.757 64.4484 395.35 64.3695 394.925Z" fill="url(#paint8_linear_2212_265)"/>
<path d="M64.6836 396.148L81.7343 432.652C81.8327 432.935 81.943 433.215 82.0675 433.484L65.0168 396.98C64.8923 396.711 64.778 396.432 64.6836 396.148Z" fill="url(#paint9_linear_2212_265)"/>
<path d="M141.575 409.851C141.564 409.803 141.546 409.757 141.536 409.709C141.439 409.355 141.335 409.007 141.227 408.663C141.202 408.585 141.178 408.512 141.153 408.434C141.138 408.383 141.122 408.328 141.103 408.278C141.024 408.049 140.939 407.826 140.853 407.603C140.804 407.472 140.758 407.336 140.705 407.205C140.549 406.81 140.383 406.425 140.205 406.043L123.154 369.539C123.332 369.921 123.5 370.31 123.655 370.701C123.708 370.832 123.753 370.963 123.803 371.098C123.907 371.372 124.009 371.65 124.102 371.93C124.127 372.007 124.152 372.081 124.177 372.159C124.288 372.502 124.392 372.85 124.484 373.201C124.495 373.249 124.513 373.295 124.523 373.343C124.622 373.725 124.715 374.118 124.795 374.509C124.814 374.596 124.833 374.688 124.853 374.779C124.924 375.127 124.983 375.48 125.04 375.839C125.051 375.911 125.066 375.979 125.073 376.052C125.133 376.465 125.182 376.887 125.223 377.311C125.235 377.425 125.243 377.536 125.251 377.651C125.279 377.978 125.3 378.307 125.318 378.641C125.325 378.772 125.332 378.9 125.335 379.032C125.35 379.467 125.361 379.906 125.36 380.348C125.356 380.677 125.348 381.008 125.337 381.34C125.334 381.445 125.327 381.546 125.32 381.652C125.311 381.879 125.297 382.106 125.28 382.335C125.272 382.453 125.26 382.573 125.252 382.691C125.233 382.912 125.213 383.128 125.193 383.345C125.181 383.46 125.168 383.575 125.155 383.691C125.124 383.935 125.095 384.183 125.06 384.428C125.048 384.509 125.037 384.591 125.025 384.672C124.975 385.021 124.916 385.367 124.853 385.709C124.838 385.796 124.819 385.883 124.801 385.974C124.75 386.24 124.694 386.502 124.639 386.767C124.616 386.876 124.589 386.982 124.567 387.091C124.501 387.368 124.435 387.64 124.362 387.918C124.344 387.989 124.326 388.064 124.304 388.135C124.211 388.476 124.114 388.817 124.009 389.161C123.981 389.246 123.953 389.331 123.93 389.415C123.849 389.678 123.764 389.938 123.675 390.203C123.64 390.311 123.6 390.419 123.564 390.523C123.469 390.793 123.368 391.061 123.268 391.332C123.238 391.405 123.213 391.481 123.183 391.555C123.051 391.891 122.911 392.229 122.768 392.569C122.731 392.651 122.694 392.73 122.658 392.813C122.543 393.075 122.424 393.334 122.306 393.597C122.252 393.713 122.197 393.828 122.142 393.94C122.056 394.117 121.969 394.294 121.882 394.471C121.821 394.593 121.76 394.718 121.695 394.84C121.601 395.023 121.503 395.207 121.405 395.39C121.343 395.508 121.284 395.62 121.218 395.739C121.106 395.938 120.996 396.141 120.88 396.34C120.826 396.435 120.772 396.534 120.714 396.63C120.54 396.926 120.366 397.222 120.184 397.515C119.972 397.865 119.746 398.209 119.521 398.557C119.458 398.654 119.392 398.752 119.329 398.848C119.143 399.126 118.957 399.399 118.762 399.675C118.708 399.753 118.657 399.826 118.599 399.905C118.355 400.245 118.108 400.586 117.853 400.928C117.794 401.003 117.735 401.079 117.681 401.157C117.474 401.431 117.258 401.706 117.041 401.978C116.966 402.073 116.891 402.168 116.816 402.264C116.543 402.602 116.266 402.94 115.98 403.277L115.972 403.278C115.684 403.624 115.39 403.962 115.087 404.298C115.003 404.391 114.916 404.489 114.832 404.582C114.59 404.85 114.34 405.121 114.09 405.391C114.018 405.465 113.952 405.542 113.881 405.62C113.565 405.954 113.241 406.286 112.913 406.619C112.681 406.857 112.444 407.091 112.203 407.326C111.718 407.801 111.226 408.265 110.733 408.721C110.608 408.836 110.482 408.95 110.357 409.065C109.869 409.507 109.38 409.946 108.88 410.37C108.87 410.38 108.86 410.391 108.845 410.398C108.327 410.839 107.803 411.268 107.274 411.69C107.174 411.77 107.075 411.85 106.975 411.929C106.466 412.331 105.955 412.724 105.433 413.107C105.347 413.171 105.264 413.231 105.178 413.295C104.653 413.679 104.121 414.056 103.588 414.421C103.562 414.439 103.537 414.456 103.512 414.474C103.305 414.615 103.092 414.748 102.884 414.885C102.468 415.161 102.049 415.439 101.627 415.705C101.374 415.863 101.118 416.01 100.864 416.165C100.481 416.397 100.099 416.634 99.7058 416.86C99.317 417.085 98.9176 417.3 98.5222 417.514C98.2797 417.646 98.0429 417.784 97.7996 417.912C97.3138 418.17 96.8206 418.414 96.3273 418.658C96.1696 418.737 96.0166 418.82 95.854 418.897C95.1974 419.213 94.531 419.523 93.8612 419.817C93.7319 419.874 93.5968 419.924 93.4675 419.981C92.9262 420.214 92.3809 420.448 91.8322 420.667C91.1223 420.948 90.4099 421.218 89.686 421.474C89.5231 421.53 89.3593 421.582 89.2004 421.637C88.6346 421.834 88.072 422.026 87.4988 422.207C86.8747 422.404 86.2441 422.59 85.6126 422.772C85.475 422.81 85.3373 422.848 85.2037 422.885C84.5625 423.06 83.9165 423.233 83.2671 423.389C83.1795 423.408 83.0919 423.427 83.0052 423.45C82.32 423.614 81.633 423.77 80.9395 423.915C80.2658 424.056 79.5967 424.179 78.9348 424.297C78.7826 424.325 78.6296 424.35 78.4767 424.374C77.8258 424.485 77.1763 424.584 76.537 424.671C76.4557 424.68 76.3792 424.693 76.3018 424.701C75.763 424.771 75.2264 424.833 74.6929 424.889C74.4401 424.914 74.1872 424.94 73.9384 424.964C73.5053 425.003 73.0793 425.036 72.6516 425.062C72.4178 425.079 72.1801 425.097 71.9446 425.106C71.4586 425.131 70.9788 425.147 70.4982 425.159C70.3321 425.161 70.1677 425.172 70.0016 425.174C69.362 425.183 68.7286 425.182 68.1006 425.167C67.9584 425.164 67.8145 425.153 67.6723 425.151C67.1897 425.134 66.7101 425.112 66.2329 425.082C66.013 425.066 65.8003 425.046 65.5844 425.029C65.1814 424.995 64.7823 424.961 64.3895 424.916C64.1591 424.891 63.9327 424.864 63.7054 424.834C63.3198 424.784 62.9332 424.73 62.5498 424.671C62.3344 424.638 62.1151 424.606 61.8981 424.565C61.4825 424.492 61.0692 424.41 60.6559 424.328C60.4861 424.294 60.3123 424.261 60.1424 424.227C59.5656 424.101 58.9941 423.961 58.4328 423.812C58.3486 423.788 58.2635 423.76 58.1802 423.741C57.7023 423.611 57.2257 423.467 56.7563 423.318C56.5686 423.259 56.3839 423.195 56.1953 423.131C55.8309 423.005 55.4664 422.88 55.1043 422.745C54.9003 422.668 54.6963 422.591 54.4954 422.51C54.15 422.376 53.8069 422.233 53.4669 422.086C53.2692 421.999 53.0723 421.916 52.8785 421.829C52.5192 421.669 52.1652 421.495 51.8113 421.321C51.644 421.241 51.4767 421.16 51.3125 421.075C50.7983 420.815 50.2895 420.541 49.7902 420.253C44.712 417.347 41.1327 413.665 39.0542 409.214L56.1048 445.718C58.1834 450.169 61.7618 453.847 66.8408 456.757C67.3442 457.044 67.8521 457.314 68.3632 457.579C68.5273 457.664 68.6978 457.74 68.8619 457.826C69.2159 457.999 69.569 458.169 69.9292 458.333C70.123 458.421 70.3207 458.507 70.5176 458.59C70.8576 458.737 71.1999 458.876 71.5461 459.014C71.747 459.096 71.951 459.172 72.155 459.249C72.5171 459.384 72.8776 459.51 73.246 459.635C73.4346 459.699 73.6193 459.763 73.807 459.823C74.2764 459.971 74.7529 460.115 75.2309 460.245C75.3151 460.269 75.3961 460.297 75.4835 460.316C76.0496 460.469 76.6202 460.604 77.1931 460.731C77.3638 460.769 77.5367 460.798 77.7066 460.833C78.1168 460.919 78.5292 460.997 78.9488 461.069C79.165 461.106 79.3843 461.138 79.6004 461.175C79.9839 461.234 80.3664 461.289 80.7521 461.339C80.9794 461.369 81.2058 461.396 81.4362 461.421C81.833 461.465 82.2281 461.5 82.6311 461.534C82.847 461.551 83.0637 461.57 83.2836 461.586C83.7608 461.616 84.2404 461.638 84.723 461.655C84.8661 461.662 85.0091 461.668 85.1522 461.675C85.7802 461.69 86.4144 461.695 87.0531 461.682C87.2192 461.68 87.3845 461.673 87.5497 461.667C88.0303 461.655 88.5101 461.639 88.9961 461.614C89.2307 461.601 89.4685 461.583 89.7031 461.57C90.13 461.541 90.5568 461.511 90.9899 461.472C91.2436 461.451 91.4964 461.426 91.7484 461.396C91.9278 461.379 92.1041 461.366 92.2827 461.344C92.6368 461.305 92.9971 461.257 93.3534 461.209C93.4307 461.201 93.5121 461.192 93.5886 461.179C94.2278 461.092 94.8764 460.99 95.5282 460.883C95.6812 460.858 95.8333 460.829 95.9863 460.805C96.6483 460.687 97.3174 460.564 97.991 460.423C98.3532 460.345 98.7115 460.268 99.0738 460.19C99.4042 460.119 99.7281 460.037 100.057 459.958C100.144 459.939 100.232 459.92 100.319 459.897C100.968 459.741 101.614 459.568 102.255 459.393C102.393 459.355 102.53 459.317 102.668 459.279C103.277 459.106 103.884 458.93 104.481 458.743C104.505 458.738 104.527 458.725 104.555 458.719C105.132 458.536 105.703 458.343 106.273 458.145C106.428 458.091 106.587 458.04 106.746 457.985C107.47 457.729 108.187 457.458 108.892 457.173C108.904 457.17 108.912 457.169 108.923 457.162C109.452 456.952 109.975 456.727 110.497 456.503C110.638 456.443 110.78 456.387 110.921 456.324C111.587 456.031 112.246 455.726 112.894 455.412L112.91 455.408C113.071 455.324 113.232 455.239 113.398 455.157C113.887 454.915 114.372 454.673 114.855 454.419C115.098 454.292 115.335 454.153 115.578 454.022C115.95 453.817 116.324 453.619 116.691 453.407C116.713 453.394 116.739 453.38 116.76 453.363C117.149 453.138 117.532 452.901 117.919 452.668C118.173 452.513 118.429 452.367 118.682 452.208C119.104 451.942 119.519 451.666 119.938 451.388C120.139 451.257 120.341 451.13 120.537 450.996C120.548 450.99 120.555 450.984 120.566 450.978C120.592 450.96 120.617 450.942 120.642 450.924C121.176 450.559 121.707 450.182 122.233 449.798C122.319 449.734 122.406 449.674 122.492 449.609C123.01 449.227 123.524 448.833 124.034 448.432C124.133 448.352 124.233 448.272 124.336 448.192C124.471 448.084 124.607 447.979 124.742 447.871C125.132 447.554 125.52 447.229 125.907 446.9C125.918 446.889 125.928 446.879 125.943 446.871C126.439 446.448 126.932 446.009 127.42 445.566C127.545 445.452 127.67 445.337 127.796 445.223C128.289 444.767 128.781 444.303 129.266 443.828C129.482 443.614 129.698 443.397 129.914 443.184C129.935 443.163 129.955 443.142 129.976 443.121C130.304 442.788 130.628 442.456 130.943 442.121C131.015 442.047 131.086 441.97 131.153 441.893C131.403 441.622 131.653 441.356 131.895 441.083C131.979 440.99 132.066 440.892 132.15 440.799C132.452 440.459 132.746 440.125 133.035 439.784L133.043 439.782C133.327 439.438 133.605 439.103 133.877 438.761C133.953 438.666 134.032 438.57 134.107 438.474C134.324 438.203 134.535 437.928 134.743 437.654C134.802 437.579 134.86 437.5 134.918 437.425C135.175 437.087 135.422 436.746 135.665 436.402C135.719 436.324 135.773 436.246 135.827 436.171C136.018 435.897 136.209 435.623 136.391 435.346C136.458 435.248 136.52 435.152 136.583 435.055C136.808 434.711 137.033 434.362 137.246 434.017C137.428 433.719 137.602 433.424 137.776 433.128C137.834 433.032 137.884 432.934 137.942 432.838C138.058 432.638 138.169 432.439 138.279 432.236C138.341 432.119 138.404 432.005 138.467 431.888C138.565 431.704 138.663 431.521 138.757 431.338C138.818 431.217 138.879 431.095 138.94 430.97C139.03 430.792 139.117 430.615 139.203 430.434C139.232 430.373 139.265 430.312 139.293 430.252C139.319 430.197 139.341 430.146 139.367 430.09C139.49 429.831 139.604 429.569 139.719 429.307C139.755 429.224 139.792 429.145 139.829 429.062C139.973 428.727 140.113 428.389 140.243 428.048C140.274 427.975 140.299 427.899 140.329 427.826C140.434 427.557 140.529 427.287 140.626 427.02C140.665 426.912 140.7 426.804 140.736 426.697C140.825 426.436 140.91 426.172 140.992 425.913C141.019 425.828 141.047 425.743 141.074 425.657C141.179 425.314 141.278 424.976 141.37 424.632C141.388 424.561 141.405 424.487 141.427 424.411C141.497 424.138 141.567 423.864 141.629 423.589C141.655 423.479 141.677 423.37 141.701 423.265C141.761 423.002 141.812 422.737 141.864 422.476C141.883 422.389 141.901 422.301 141.915 422.211C141.978 421.864 142.037 421.518 142.088 421.174C142.088 421.157 142.094 421.144 142.094 421.127C142.104 421.058 142.111 420.99 142.121 420.921C142.155 420.676 142.186 420.432 142.213 420.189C142.226 420.074 142.238 419.959 142.25 419.839C142.274 419.622 142.294 419.405 142.31 419.189C142.322 419.07 142.33 418.952 142.337 418.829C142.354 418.601 142.365 418.378 142.378 418.15C142.385 418.045 142.391 417.939 142.393 417.834C142.405 417.503 142.414 417.176 142.417 416.842C142.42 416.487 142.415 416.134 142.407 415.786C142.405 415.699 142.398 415.613 142.396 415.526C142.393 415.394 142.386 415.266 142.379 415.134C142.361 414.801 142.34 414.472 142.312 414.149C142.304 414.034 142.292 413.92 142.285 413.809C142.244 413.385 142.195 412.966 142.135 412.55C142.123 412.478 142.113 412.409 142.101 412.336C142.064 412.086 142.023 411.837 141.979 411.592C141.956 411.485 141.933 411.381 141.911 411.278C141.891 411.186 141.872 411.099 141.853 411.007C141.768 410.613 141.684 410.223 141.58 409.837L141.575 409.851Z" fill="url(#paint10_linear_2212_265)"/>
<path d="M112.218 407.318C103.5 415.872 93.0856 421.4 80.9672 423.909C68.8418 426.423 58.4619 425.204 49.8179 420.246C41.1678 415.298 36.8703 408.105 36.9192 398.677C36.9703 389.123 41.313 380.078 49.9473 371.543C58.5784 363.012 69.0359 357.47 81.3206 354.922C93.6053 352.373 104.027 353.591 112.59 358.562C121.154 363.533 125.415 370.792 125.364 380.346C125.315 389.774 120.932 398.765 112.217 407.314L112.218 407.318ZM64.1937 393.026C64.1748 396.596 65.8354 399.337 69.1804 401.254C72.5214 403.171 76.4858 403.651 81.0755 402.7C85.6652 401.75 89.6386 399.62 93.0094 396.316C96.3794 393.008 98.0748 389.507 98.0919 385.813C98.1089 382.119 96.4503 379.347 93.1062 377.493C89.7622 375.639 85.7958 375.189 81.2101 376.138C76.6244 377.088 72.44 379.263 69.1536 382.553C65.8593 385.845 64.2116 389.336 64.1906 393.031" fill="url(#paint11_linear_2212_265)"/>
<path d="M201.494 438.043C200.704 436.347 199.369 434.947 197.492 433.831C197.182 433.648 196.867 433.482 196.546 433.326C196.49 433.297 196.43 433.268 196.37 433.243C196.06 433.098 195.739 432.963 195.417 432.84C195.354 432.817 195.291 432.797 195.228 432.773C194.89 432.654 194.549 432.54 194.199 432.445C194.186 432.443 194.176 432.437 194.164 432.436C193.819 432.343 193.469 432.264 193.112 432.195C193.047 432.184 192.986 432.168 192.921 432.157C192.566 432.096 192.205 432.045 191.839 432.007C191.766 431.998 191.694 431.992 191.622 431.987C191.244 431.952 190.859 431.926 190.47 431.918C190.445 431.92 190.421 431.921 190.399 431.917C190.018 431.908 189.632 431.916 189.24 431.933C189.17 431.936 189.104 431.938 189.038 431.939C188.642 431.958 188.237 431.995 187.83 432.037C187.794 432.045 187.756 432.04 187.719 432.044C187.658 432.053 187.594 432.063 187.533 432.072C187.294 432.102 187.055 432.133 186.814 432.172C186.712 432.186 186.608 432.204 186.507 432.218C186.165 432.275 185.824 432.335 185.477 432.406C185.333 432.437 185.19 432.468 185.047 432.499C184.987 432.511 184.928 432.528 184.865 432.542C184.638 432.591 184.409 432.652 184.184 432.709C184.078 432.736 183.967 432.764 183.86 432.791C183.577 432.869 183.295 432.951 183.013 433.036C182.977 433.044 182.942 433.056 182.908 433.067L182.892 433.071C182.603 433.162 182.316 433.261 182.033 433.36C181.987 433.378 181.941 433.396 181.898 433.41C181.662 433.494 181.427 433.582 181.193 433.674C181.185 433.676 181.173 433.678 181.166 433.684C181.02 433.74 180.879 433.804 180.734 433.864C180.623 433.909 180.512 433.954 180.401 434.003C180.238 434.075 180.079 434.151 179.92 434.223C179.821 434.269 179.722 434.311 179.625 434.361L179.613 434.364C179.376 434.482 179.139 434.603 178.903 434.725C178.891 434.727 178.881 434.738 178.866 434.745C178.62 434.878 178.377 435.009 178.136 435.148L178.124 435.151C177.922 435.274 177.722 435.392 177.524 435.517C177.477 435.548 177.429 435.576 177.38 435.603C177.134 435.756 176.894 435.916 176.654 436.08L176.646 436.081C176.629 436.098 176.611 436.11 176.588 436.123C176.349 436.287 176.114 436.454 175.884 436.624C175.802 436.688 175.716 436.752 175.634 436.816C175.465 436.944 175.297 437.071 175.134 437.202C175.098 437.231 175.062 437.255 175.026 437.284C174.977 437.324 174.928 437.368 174.879 437.411C174.685 437.574 174.487 437.737 174.298 437.907C174.221 437.974 174.141 438.045 174.064 438.116C173.806 438.35 173.55 438.589 173.298 438.835C173.216 438.915 173.134 438.999 173.051 439.079C173.01 439.122 172.973 439.163 172.932 439.205C172.735 439.41 172.541 439.614 172.356 439.816C172.298 439.879 172.241 439.941 172.188 440.003C171.96 440.26 171.737 440.52 171.531 440.781C171.484 440.837 171.443 440.896 171.4 440.951C171.233 441.162 171.075 441.375 170.921 441.587C170.866 441.662 170.812 441.74 170.757 441.814C170.589 442.059 170.425 442.302 170.274 442.547C170.261 442.567 170.245 442.587 170.236 442.605C170.236 442.605 170.23 442.615 170.227 442.62C170.085 442.85 169.951 443.079 169.827 443.314C169.794 443.375 169.762 443.44 169.73 443.506C169.642 443.675 169.553 443.844 169.473 444.015C169.465 444.033 169.453 444.057 169.445 444.075C169.421 444.122 169.403 444.172 169.384 444.218C169.29 444.421 169.204 444.623 169.123 444.824C169.09 444.905 169.058 444.987 169.026 445.069C168.946 445.282 168.872 445.498 168.802 445.713C168.784 445.767 168.763 445.822 168.75 445.878C168.67 446.146 168.599 446.415 168.536 446.683C168.521 446.748 168.506 446.818 168.492 446.888C168.449 447.093 168.41 447.301 168.377 447.512C168.369 447.556 168.358 447.6 168.352 447.647C168.344 447.69 168.342 447.737 168.338 447.779C168.315 447.959 168.295 448.138 168.279 448.317C168.272 448.397 168.264 448.478 168.257 448.563C168.238 448.821 168.227 449.082 168.226 449.344C168.223 449.47 168.224 449.59 168.23 449.714C168.234 449.734 168.235 449.755 168.235 449.776C168.242 450.003 168.257 450.225 168.279 450.445C168.284 450.486 168.287 450.522 168.292 450.563C168.312 450.75 168.338 450.932 168.373 451.112C168.38 451.144 168.383 451.177 168.385 451.209C168.391 451.237 168.397 451.261 168.402 451.285C168.433 451.432 168.465 451.58 168.497 451.727C168.505 451.767 168.514 451.806 168.523 451.85C168.572 452.036 168.627 452.215 168.686 452.394C168.689 452.406 168.691 452.414 168.693 452.426C168.724 452.511 168.755 452.596 168.79 452.684C168.809 452.734 168.824 452.781 168.843 452.831C168.899 452.977 168.963 453.118 169.027 453.262L186.078 489.766C186.01 489.627 185.95 489.481 185.893 489.335C185.875 489.289 185.856 489.239 185.842 489.192C185.805 489.096 185.771 488.999 185.738 488.902C185.678 488.723 185.623 488.544 185.575 488.358C185.566 488.319 185.558 488.279 185.548 488.235C185.513 488.089 185.481 487.941 185.453 487.793C185.441 487.737 185.428 487.678 185.424 487.62C185.394 487.439 185.366 487.254 185.343 487.067C185.335 487.031 185.33 486.991 185.331 486.953C185.308 486.733 185.294 486.511 185.287 486.284C185.281 486.143 185.275 485.999 185.278 485.856C185.28 485.594 185.291 485.337 185.31 485.075C185.317 484.994 185.325 484.913 185.332 484.829C185.347 484.65 185.367 484.471 185.391 484.291C185.401 484.201 185.415 484.115 185.43 484.028C185.465 483.821 185.503 483.613 185.546 483.404C185.56 483.334 185.571 483.269 185.589 483.199C185.652 482.931 185.723 482.662 185.803 482.395C185.821 482.341 185.838 482.287 185.855 482.229C185.925 482.014 185.996 481.799 186.079 481.585C186.111 481.503 186.143 481.422 186.176 481.34C186.257 481.135 186.342 480.933 186.437 480.734C186.468 480.664 186.495 480.596 186.531 480.53C186.61 480.359 186.699 480.19 186.788 480.021C186.82 479.96 186.852 479.894 186.884 479.829C187.009 479.598 187.142 479.366 187.284 479.135C187.3 479.111 187.315 479.087 187.331 479.062C187.482 478.817 187.646 478.574 187.815 478.329C187.869 478.251 187.923 478.177 187.978 478.103C188.132 477.89 188.291 477.677 188.458 477.466C188.504 477.41 188.545 477.351 188.588 477.297C188.798 477.035 189.017 476.775 189.245 476.518C189.298 476.456 189.356 476.394 189.413 476.332C189.598 476.125 189.791 475.921 189.99 475.72C190.112 475.594 190.232 475.472 190.355 475.346C190.606 475.1 190.863 474.862 191.12 474.627C191.197 474.556 191.278 474.489 191.355 474.418C191.547 474.248 191.741 474.085 191.935 473.923C192.02 473.854 192.105 473.782 192.19 473.714C192.354 473.583 192.522 473.455 192.69 473.327C192.776 473.263 192.858 473.199 192.944 473.135C193.178 472.964 193.412 472.793 193.652 472.628C193.67 472.616 193.691 472.599 193.71 472.587C193.949 472.423 194.194 472.266 194.44 472.109C194.491 472.077 194.543 472.049 194.591 472.018C194.786 471.897 194.984 471.775 195.185 471.661C195.429 471.521 195.675 471.385 195.925 471.252C195.933 471.25 195.945 471.244 195.952 471.238C196.191 471.111 196.435 470.988 196.684 470.868C196.783 470.822 196.881 470.775 196.979 470.729C197.138 470.653 197.297 470.578 197.461 470.509C197.567 470.461 197.678 470.416 197.789 470.372C197.942 470.305 198.098 470.238 198.255 470.175C198.486 470.084 198.721 469.996 198.957 469.912C199.003 469.894 199.049 469.876 199.096 469.861C199.378 469.759 199.666 469.664 199.954 469.572C199.998 469.563 200.036 469.546 200.08 469.537C200.357 469.452 200.64 469.371 200.927 469.292C201.034 469.265 201.144 469.237 201.251 469.21C201.476 469.153 201.701 469.096 201.927 469.044C202.13 469 202.332 468.948 202.539 468.908C202.886 468.833 203.232 468.775 203.569 468.719C203.674 468.701 203.775 468.687 203.88 468.673C204.122 468.638 204.361 468.603 204.6 468.572C204.697 468.56 204.798 468.546 204.896 468.538C205.303 468.492 205.708 468.459 206.104 468.44C206.174 468.438 206.241 468.436 206.307 468.434C206.699 468.416 207.085 468.412 207.466 468.418C207.49 468.417 207.515 468.416 207.541 468.418C207.931 468.43 208.314 468.452 208.693 468.487C208.765 468.492 208.837 468.502 208.909 468.507C209.276 468.545 209.637 468.596 209.991 468.657C210.056 468.668 210.118 468.684 210.183 468.695C210.539 468.764 210.889 468.843 211.234 468.935C211.247 468.937 211.257 468.943 211.269 468.944C211.619 469.04 211.96 469.154 212.298 469.273C212.362 469.297 212.424 469.316 212.488 469.34C212.81 469.463 213.13 469.594 213.441 469.743C213.501 469.772 213.557 469.801 213.617 469.826C213.938 469.982 214.257 470.147 214.563 470.331C216.439 471.443 217.77 472.847 218.564 474.543L201.514 438.039L201.494 438.043Z" fill="url(#paint12_linear_2212_265)"/>
<path d="M108.834 493.343L125.88 529.848L97.6297 535.704L80.5781 499.196L108.834 493.343Z" fill="url(#paint13_linear_2212_265)"/>
<path d="M156.488 342.212L184.987 336.306L108.838 493.344L80.583 499.197L156.488 342.212Z" fill="url(#paint14_linear_2212_265)"/>
<path d="M184.984 336.305L202.034 372.809L125.882 529.848L108.835 493.343L184.984 336.305Z" fill="url(#paint15_linear_2212_265)"/>
<path d="M245.832 466.123C245.822 466.075 245.804 466.029 245.794 465.982C245.697 465.628 245.592 465.279 245.485 464.936C245.46 464.858 245.436 464.784 245.411 464.706C245.391 464.652 245.38 464.6 245.36 464.546C245.281 464.317 245.192 464.095 245.11 463.871C245.061 463.74 245.016 463.608 244.963 463.478C244.807 463.082 244.64 462.693 244.462 462.311L227.411 425.807C227.589 426.189 227.756 426.578 227.912 426.974C227.965 427.104 228.01 427.236 228.06 427.367C228.165 427.644 228.266 427.918 228.36 428.202C228.385 428.28 228.409 428.354 228.434 428.432C228.547 428.778 228.651 429.127 228.743 429.477C228.753 429.525 228.771 429.571 228.782 429.619C228.881 430.002 228.974 430.394 229.054 430.789C229.074 430.881 229.093 430.968 229.113 431.06C229.184 431.411 229.244 431.765 229.299 432.119C229.311 432.192 229.325 432.259 229.333 432.333C229.393 432.749 229.441 433.167 229.483 433.592C229.495 433.706 229.503 433.821 229.51 433.932C229.539 434.259 229.56 434.587 229.577 434.921C229.585 435.053 229.591 435.18 229.595 435.313C229.609 435.747 229.621 436.186 229.62 436.628C229.616 436.958 229.608 437.289 229.596 437.62C229.594 437.725 229.587 437.83 229.58 437.932C229.57 438.159 229.557 438.387 229.539 438.615C229.532 438.734 229.52 438.853 229.512 438.971C229.493 439.192 229.473 439.409 229.45 439.63C229.437 439.745 229.428 439.86 229.411 439.972C229.381 440.22 229.347 440.469 229.313 440.718C229.301 440.795 229.293 440.876 229.281 440.954C229.231 441.302 229.172 441.648 229.105 441.995C229.087 442.087 229.068 442.174 229.054 442.26C229.002 442.526 228.947 442.792 228.887 443.054C228.864 443.159 228.842 443.268 228.814 443.374C228.747 443.659 228.679 443.945 228.602 444.228C228.587 444.294 228.572 444.355 228.553 444.422C228.46 444.767 228.363 445.108 228.258 445.452C228.231 445.541 228.2 445.631 228.174 445.72C228.093 445.983 228.007 446.243 227.918 446.504C227.883 446.611 227.847 446.715 227.807 446.823C227.706 447.107 227.604 447.388 227.494 447.67C227.47 447.733 227.446 447.796 227.422 447.856C227.287 448.197 227.147 448.536 227.004 448.875C226.964 448.962 226.925 449.05 226.889 449.137C226.774 449.395 226.659 449.653 226.54 449.912C226.488 450.023 226.433 450.135 226.382 450.246C226.293 450.431 226.203 450.613 226.11 450.8C226.052 450.917 225.991 451.038 225.932 451.155C225.833 451.351 225.729 451.544 225.625 451.741C225.57 451.849 225.513 451.953 225.457 452.061C225.325 452.302 225.186 452.544 225.051 452.786C225.017 452.843 224.984 452.904 224.951 452.961C224.778 453.261 224.596 453.558 224.415 453.86C224.384 453.908 224.354 453.96 224.322 454.009C224.134 454.316 223.938 454.621 223.737 454.926C223.674 455.023 223.608 455.121 223.541 455.218C223.337 455.525 223.128 455.832 222.911 456.141C222.879 456.185 222.851 456.229 222.819 456.273C222.573 456.622 222.318 456.964 222.059 457.312C221.991 457.401 221.92 457.496 221.852 457.585C221.64 457.86 221.429 458.139 221.21 458.415C221.144 458.496 221.079 458.581 221.014 458.666C220.738 459.008 220.458 459.352 220.169 459.693C220.112 459.759 220.052 459.83 219.992 459.898C219.748 460.179 219.506 460.465 219.254 460.744C219.169 460.837 219.086 460.934 218.998 461.028C218.696 461.364 218.392 461.696 218.077 462.03C218.067 462.041 218.06 462.05 218.049 462.057C217.727 462.397 217.396 462.739 217.065 463.077C216.867 463.278 216.668 463.479 216.466 463.681C215.982 464.16 215.487 464.629 214.995 465.089C214.863 465.213 214.727 465.334 214.595 465.458C214.167 465.85 213.734 466.235 213.295 466.617C213.218 466.683 213.141 466.754 213.064 466.821C212.551 467.26 212.034 467.688 211.509 468.109C211.413 468.188 211.317 468.263 211.217 468.339C210.697 468.75 210.176 469.154 209.644 469.548C209.597 469.583 209.551 469.618 209.5 469.654C208.983 470.036 208.463 470.406 207.937 470.769C207.864 470.818 207.792 470.871 207.719 470.92C207.425 471.121 207.124 471.311 206.829 471.507C206.49 471.73 206.156 471.956 205.814 472.171C205.521 472.355 205.222 472.532 204.927 472.712C204.584 472.919 204.246 473.13 203.902 473.329C203.542 473.535 203.177 473.735 202.816 473.933C202.548 474.083 202.281 474.236 202.007 474.378C201.622 474.582 201.227 474.779 200.837 474.976C200.581 475.106 200.327 475.24 200.067 475.366C199.656 475.567 199.238 475.753 198.821 475.947C198.575 476.058 198.33 476.178 198.083 476.289C197.569 476.516 197.049 476.732 196.525 476.945C196.367 477.008 196.216 477.078 196.059 477.141C195.924 477.195 195.789 477.241 195.654 477.295C195.078 477.519 194.505 477.742 193.92 477.947C193.661 478.041 193.396 478.123 193.136 478.212C192.67 478.371 192.209 478.532 191.737 478.68C191.121 478.875 190.498 479.059 189.871 479.24C189.737 479.277 189.6 479.315 189.466 479.352C188.825 479.527 188.179 479.7 187.525 479.857C187.446 479.874 187.366 479.891 187.287 479.913C186.598 480.078 185.907 480.235 185.21 480.381C184.528 480.523 183.851 480.648 183.181 480.767C183.021 480.798 182.864 480.823 182.703 480.849C182.04 480.963 181.383 481.063 180.732 481.153C180.667 481.163 180.606 481.168 180.541 481.177C179.974 481.253 179.413 481.316 178.855 481.374C178.667 481.393 178.484 481.412 178.3 481.427C177.863 481.466 177.429 481.506 176.999 481.536C176.809 481.547 176.621 481.563 176.432 481.574C176.012 481.598 175.593 481.622 175.175 481.637C174.985 481.644 174.79 481.649 174.6 481.656C174.194 481.665 173.787 481.673 173.387 481.672C173.192 481.672 172.996 481.673 172.803 481.668C172.411 481.665 172.017 481.654 171.627 481.642C171.43 481.635 171.233 481.627 171.039 481.619C170.66 481.601 170.281 481.578 169.903 481.547C169.704 481.532 169.505 481.516 169.306 481.501C168.937 481.468 168.574 481.429 168.211 481.386C168.01 481.363 167.809 481.34 167.608 481.316C167.253 481.272 166.9 481.219 166.551 481.165C166.349 481.133 166.146 481.102 165.948 481.07C165.602 481.011 165.263 480.946 164.923 480.878C164.719 480.839 164.515 480.799 164.314 480.755C163.982 480.685 163.653 480.606 163.323 480.527C163.121 480.479 162.915 480.431 162.716 480.378C162.394 480.293 162.075 480.204 161.755 480.11C161.555 480.053 161.352 479.997 161.151 479.936C160.834 479.838 160.524 479.734 160.21 479.631C160.013 479.565 159.812 479.5 159.617 479.429C159.306 479.317 159.001 479.199 158.693 479.083C158.502 479.007 158.308 478.94 158.116 478.861C157.806 478.736 157.497 478.598 157.194 478.464C157.014 478.386 156.831 478.309 156.651 478.227C156.318 478.073 155.991 477.91 155.669 477.747C155.519 477.671 155.367 477.603 155.217 477.527C154.744 477.283 154.277 477.03 153.817 476.767C151.607 475.501 149.683 474.087 148.042 472.52C147.57 472.072 147.126 471.613 146.704 471.142C145.223 469.49 144.028 467.69 143.116 465.737L160.167 502.241C161.859 505.867 164.532 508.974 168.184 511.562C168.464 511.76 168.752 511.956 169.044 512.151C169.627 512.538 170.236 512.911 170.867 513.271C178.108 517.419 186.624 518.938 196.415 517.826C196.806 517.784 197.199 517.733 197.595 517.677C197.655 517.668 197.721 517.662 197.781 517.653C198.433 517.563 199.093 517.458 199.753 517.35C199.91 517.324 200.07 517.294 200.227 517.268C200.897 517.149 201.574 517.024 202.255 516.882C202.614 516.805 202.972 516.727 203.326 516.651C203.665 516.578 204.001 516.494 204.337 516.413C204.417 516.396 204.496 516.378 204.571 516.358C205.224 516.197 205.871 516.028 206.512 515.853C206.645 515.816 206.779 515.779 206.913 515.742C207.505 515.572 208.097 515.399 208.682 515.215C208.718 515.207 208.748 515.192 208.783 515.181C209.251 515.034 209.712 514.872 210.178 514.714C210.442 514.624 210.707 514.542 210.966 514.448C211.546 514.24 212.116 514.022 212.684 513.8C212.818 513.746 212.958 513.699 213.093 513.645L213.108 513.642C213.258 513.58 213.402 513.516 213.547 513.455C214.075 513.238 214.607 513.019 215.129 512.79C215.376 512.683 215.617 512.564 215.86 512.454C216.254 512.273 216.65 512.096 217.038 511.908C217.064 511.894 217.086 511.881 217.113 511.871C217.374 511.745 217.628 511.611 217.883 511.481C218.274 511.284 218.666 511.092 219.05 510.884C219.323 510.738 219.59 510.584 219.861 510.434C220.178 510.262 220.496 510.094 220.807 509.914C220.856 509.887 220.899 509.857 220.948 509.83C221.296 509.63 221.634 509.42 221.981 509.212C222.275 509.032 222.572 508.86 222.865 508.676C223.21 508.46 223.545 508.234 223.884 508.011C224.136 507.844 224.393 507.684 224.64 507.515C224.683 507.485 224.727 507.454 224.77 507.424C224.843 507.375 224.915 507.322 224.987 507.273C225.513 506.91 226.033 506.54 226.547 506.159C226.594 506.124 226.64 506.089 226.691 506.053C227.219 505.66 227.744 505.255 228.263 504.844C228.36 504.769 228.459 504.689 228.555 504.614C228.648 504.54 228.737 504.471 228.829 504.397C229.258 504.046 229.685 503.688 230.111 503.326C230.188 503.259 230.264 503.188 230.342 503.122C230.781 502.744 231.21 502.356 231.642 501.963C231.774 501.843 231.91 501.718 232.041 501.594C232.538 501.133 233.029 500.669 233.514 500.19C233.675 500.03 233.836 499.87 233.997 499.707C234.038 499.664 234.076 499.627 234.113 499.586C234.448 499.247 234.778 498.905 235.101 498.565C235.107 498.555 235.114 498.55 235.12 498.54C235.436 498.206 235.742 497.869 236.046 497.537C236.13 497.444 236.217 497.346 236.301 497.253C236.553 496.97 236.8 496.687 237.039 496.407C237.096 496.34 237.156 496.269 237.212 496.203C237.501 495.862 237.781 495.518 238.057 495.175C238.123 495.095 238.188 495.01 238.253 494.925C238.473 494.649 238.689 494.373 238.895 494.095C238.964 494.006 239.035 493.911 239.103 493.821C239.361 493.474 239.617 493.132 239.863 492.783C239.895 492.739 239.923 492.695 239.955 492.651C240.172 492.342 240.38 492.035 240.585 491.728C240.652 491.63 240.714 491.534 240.78 491.436C240.981 491.13 241.178 490.826 241.366 490.519C241.391 490.48 241.416 490.441 241.437 490.403C241.443 490.394 241.449 490.38 241.459 490.369C241.641 490.072 241.822 489.771 241.994 489.471C242.028 489.414 242.061 489.357 242.094 489.296C242.234 489.053 242.369 488.812 242.5 488.571C242.557 488.467 242.613 488.359 242.669 488.251C242.772 488.054 242.877 487.861 242.976 487.665C243.038 487.547 243.095 487.426 243.157 487.305C243.247 487.123 243.34 486.936 243.426 486.755C243.451 486.7 243.481 486.644 243.507 486.588C243.532 486.533 243.557 486.473 243.582 486.418C243.702 486.159 243.818 485.905 243.929 485.647C243.968 485.56 244.007 485.468 244.046 485.381C244.19 485.041 244.33 484.703 244.464 484.362C244.488 484.298 244.512 484.235 244.536 484.171C244.642 483.89 244.748 483.609 244.846 483.33C244.881 483.222 244.921 483.118 244.956 483.01C245.046 482.75 245.132 482.489 245.213 482.23C245.24 482.141 245.271 482.051 245.297 481.962C245.403 481.619 245.5 481.277 245.592 480.933C245.611 480.866 245.626 480.8 245.641 480.735C245.714 480.452 245.786 480.17 245.85 479.886C245.876 479.776 245.9 479.671 245.922 479.562C245.982 479.299 246.033 479.034 246.084 478.769C246.102 478.678 246.121 478.59 246.139 478.499C246.202 478.152 246.26 477.806 246.314 477.457C246.316 477.444 246.32 477.427 246.322 477.414C246.333 477.349 246.339 477.281 246.346 477.217C246.38 476.968 246.415 476.723 246.441 476.476C246.453 476.361 246.466 476.246 246.479 476.131C246.503 475.913 246.522 475.692 246.541 475.472C246.553 475.352 246.561 475.234 246.568 475.112C246.585 474.883 246.595 474.656 246.608 474.428C246.614 474.323 246.621 474.217 246.623 474.113C246.635 473.781 246.643 473.45 246.647 473.12C246.65 472.766 246.645 472.413 246.637 472.065C246.634 471.978 246.628 471.891 246.622 471.805C246.619 471.673 246.612 471.545 246.605 471.413C246.587 471.08 246.566 470.751 246.537 470.424C246.529 470.309 246.521 470.194 246.51 470.084C246.469 469.66 246.42 469.241 246.36 468.825C246.348 468.753 246.338 468.684 246.326 468.612C246.289 468.362 246.248 468.112 246.203 467.864C246.181 467.76 246.158 467.657 246.135 467.549C246.115 467.458 246.097 467.37 246.077 467.278C245.992 466.884 245.908 466.494 245.804 466.108L245.832 466.123Z" fill="url(#paint16_linear_2212_265)"/>
<path d="M216.858 414.838C225.422 419.813 229.679 427.069 229.629 436.627C229.58 446.055 225.198 455.075 216.485 463.686C207.765 472.307 197.348 477.865 185.227 480.378C172.945 482.922 162.478 481.722 153.834 476.768C145.187 471.815 140.889 464.56 140.936 455.007C140.986 445.449 145.367 436.405 154.084 427.847C162.798 419.298 173.3 413.747 185.581 411.203C197.863 408.66 208.29 409.868 216.858 414.838ZM197.276 452.78C200.642 449.473 202.341 445.971 202.362 442.276C202.383 438.581 200.758 435.769 197.496 433.835C194.228 431.906 190.227 431.43 185.477 432.411C180.727 433.391 176.667 435.544 173.296 438.848C169.922 442.157 168.227 445.658 168.21 449.352C168.193 453.047 169.897 455.683 173.323 457.645C176.748 459.606 180.752 460.115 185.338 459.165C189.924 458.216 193.901 456.085 197.276 452.78Z" fill="url(#paint17_linear_2212_265)"/>
<mask id="mask0_2212_265" style="mask-type:alpha" maskUnits="userSpaceOnUse" x="36" y="336" width="211" height="200">
<path d="M97.2609 381.702C96.457 379.98 95.0715 378.575 93.1093 377.489C92.7929 377.316 92.4711 377.156 92.143 377.006C92.0827 376.977 92.0272 376.951 91.9669 376.923C91.6494 376.783 91.3304 376.656 91.0013 376.539C90.9378 376.515 90.8752 376.495 90.8118 376.472C90.4747 376.357 90.1304 376.248 89.7777 376.157C89.7649 376.155 89.7512 376.15 89.7424 376.148C89.3985 376.059 89.0492 375.985 88.6936 375.92C88.6287 375.909 88.5679 375.897 88.503 375.886C88.1523 375.824 87.7922 375.776 87.4307 375.742C87.3587 375.736 87.2859 375.727 87.2139 375.722C86.8405 375.689 86.4639 375.662 86.0788 375.654C86.0541 375.655 86.0285 375.652 85.9998 375.654C85.6275 375.647 85.2498 375.653 84.8659 375.669C84.7996 375.671 84.7333 375.672 84.6679 375.678C84.2809 375.699 83.8876 375.729 83.4889 375.774C83.453 375.781 83.4186 375.776 83.3828 375.784C83.3222 375.793 83.2617 375.802 83.2051 375.81C82.9739 375.839 82.7435 375.872 82.5092 375.905C82.4088 375.923 82.3116 375.935 82.2112 375.953C81.8814 376.007 81.5524 376.066 81.218 376.138C81.0746 376.168 80.9313 376.199 80.788 376.23C80.7283 376.243 80.6655 376.261 80.6058 376.273C80.3789 376.322 80.1585 376.382 79.9333 376.439C79.8227 376.467 79.7161 376.494 79.6063 376.526C79.3311 376.602 79.0567 376.682 78.7872 376.765C78.7434 376.774 78.7044 376.787 78.6615 376.8L78.6416 376.805C78.3809 376.89 78.1202 376.975 77.8651 377.068C77.8413 377.073 77.8142 377.083 77.7912 377.092C77.5083 377.19 77.2311 377.296 76.9588 377.404L76.9428 377.408C76.7245 377.496 76.507 377.589 76.2944 377.685C76.2563 377.701 76.2182 377.718 76.1801 377.734C75.9254 377.847 75.6715 377.965 75.4225 378.085L75.4105 378.087C75.3472 378.122 75.2877 378.155 75.2235 378.186C75.0356 378.281 74.8508 378.37 74.6678 378.468C74.5782 378.516 74.4855 378.57 74.396 378.618C74.2581 378.694 74.1203 378.769 73.9824 378.845C73.9673 378.852 73.9531 378.863 73.9381 378.871C73.8161 378.943 73.6942 379.015 73.5731 379.091C73.4512 379.163 73.3292 379.235 73.2081 379.311C73.087 379.387 72.9708 379.466 72.8537 379.542C72.7477 379.61 72.6416 379.679 72.5396 379.747C72.5245 379.754 72.5143 379.765 72.5001 379.776C72.2494 379.947 72.0004 380.125 71.7563 380.307C71.727 380.326 71.7026 380.348 71.6782 380.37C71.4593 380.533 71.2453 380.7 71.0322 380.871C71.018 380.882 70.9998 380.895 70.9824 380.911C70.9438 380.944 70.9051 380.977 70.8665 381.011C70.6329 381.203 70.4081 381.397 70.1811 381.6C70.1078 381.666 70.0305 381.732 69.958 381.802C69.69 382.047 69.4238 382.3 69.1632 382.56C69.1388 382.582 69.1192 382.607 69.0947 382.629C69.0601 382.662 69.0342 382.696 68.9996 382.729C68.7839 382.946 68.5771 383.166 68.379 383.387C68.3114 383.46 68.2447 383.537 68.181 383.609C67.9799 383.836 67.7867 384.06 67.6023 384.288C67.5725 384.323 67.5395 384.364 67.5097 384.399C67.2995 384.661 67.1061 384.923 66.9166 385.185C66.8649 385.254 66.818 385.327 66.7703 385.396C66.6272 385.601 66.4889 385.81 66.3554 386.022C66.3273 386.066 66.2952 386.11 66.2679 386.158C66.2492 386.187 66.2344 386.215 66.2197 386.243C66.1152 386.415 66.0186 386.586 65.9221 386.757C65.8863 386.823 65.8466 386.89 65.8099 386.952C65.6816 387.188 65.5621 387.426 65.4474 387.667C65.4443 387.672 65.442 387.681 65.4389 387.686C65.4281 387.713 65.4173 387.74 65.4057 387.764C65.2981 387.999 65.1985 388.233 65.1037 388.47C65.0714 388.552 65.0422 388.629 65.0098 388.711C64.9329 388.915 64.8609 389.122 64.7968 389.328C64.7747 389.399 64.7517 389.466 64.7296 389.538C64.6497 389.805 64.5745 390.075 64.5162 390.346C64.5066 390.398 64.4961 390.446 64.4865 390.498C64.4395 390.725 64.3965 390.951 64.3614 391.175C64.3532 391.214 64.345 391.253 64.3408 391.292C64.3343 391.339 64.3317 391.385 64.3252 391.433C64.2984 391.617 64.2795 391.801 64.2615 391.988C64.2539 392.069 64.2471 392.153 64.2395 392.234C64.221 392.496 64.2073 392.762 64.2064 393.028L81.2571 429.533C81.258 429.266 81.2717 429 81.2902 428.738C81.2978 428.657 81.3046 428.573 81.3122 428.492C81.3302 428.305 81.3491 428.122 81.3759 427.937C81.3866 427.851 81.4005 427.761 81.4152 427.674C81.4494 427.446 81.4924 427.22 81.5403 426.997C81.5499 426.945 81.5604 426.897 81.57 426.845C81.6323 426.574 81.7035 426.304 81.7834 426.037C81.8055 425.966 81.8285 425.898 81.8506 425.827C81.9147 425.621 81.9867 425.414 82.0636 425.21C82.092 425.129 82.1243 425.047 82.1575 424.969C82.2523 424.732 82.3519 424.498 82.4595 424.263C82.4734 424.231 82.4873 424.199 82.5012 424.166C82.6119 423.926 82.7354 423.687 82.8637 423.451C82.8995 423.385 82.9393 423.318 82.9759 423.256C83.0724 423.085 83.169 422.915 83.2735 422.742C83.3163 422.671 83.3672 422.597 83.4101 422.525C83.5444 422.317 83.6827 422.109 83.825 421.899C83.8727 421.83 83.9235 421.757 83.9713 421.688C84.1607 421.427 84.3581 421.163 84.5644 420.902C84.5933 420.863 84.6271 420.826 84.657 420.791C84.8413 420.564 85.0345 420.339 85.2317 420.113C85.2985 420.036 85.3661 419.963 85.4337 419.891C85.6326 419.673 85.8394 419.453 86.0542 419.232C86.1085 419.175 86.1596 419.122 86.2139 419.064C86.4745 418.804 86.7416 418.555 87.0087 418.306C87.082 418.24 87.1584 418.17 87.2317 418.104C87.4557 417.906 87.6836 417.707 87.918 417.519C87.9749 417.473 88.0269 417.425 88.0837 417.379C88.2969 417.208 88.5109 417.041 88.7257 416.878C88.755 416.86 88.7794 416.838 88.8079 416.815C89.052 416.633 89.3018 416.459 89.5516 416.284C89.6679 416.205 89.789 416.129 89.9052 416.05C90.0215 415.971 90.1426 415.895 90.2597 415.819C90.3807 415.743 90.5027 415.671 90.6246 415.599C90.7466 415.527 90.8677 415.451 90.9896 415.379C91.1417 415.292 91.2906 415.21 91.4436 415.127C91.5331 415.079 91.6258 415.025 91.7153 414.977C91.8984 414.879 92.0863 414.785 92.2711 414.695C92.3353 414.664 92.3947 414.631 92.459 414.6C92.712 414.479 92.969 414.357 93.2277 414.243C93.2657 414.227 93.3038 414.21 93.3419 414.194C93.5625 414.096 93.784 414.003 94.0063 413.913C94.2827 413.804 94.5599 413.698 94.8388 413.601C94.8627 413.596 94.8857 413.586 94.9127 413.576C95.1686 413.488 95.4284 413.399 95.69 413.318C95.7369 413.303 95.7878 413.288 95.8387 413.273C96.1082 413.19 96.3826 413.11 96.6579 413.034C96.7645 413.007 96.8751 412.979 96.9848 412.947C97.206 412.891 97.4313 412.834 97.6573 412.782C97.8603 412.738 98.0616 412.686 98.2695 412.646C98.6039 412.574 98.9369 412.514 99.2627 412.461C99.3631 412.444 99.4644 412.43 99.5608 412.414C99.7951 412.38 100.025 412.347 100.257 412.318C100.354 412.305 100.447 412.294 100.545 412.285C100.944 412.241 101.337 412.21 101.724 412.189C101.791 412.188 101.857 412.186 101.922 412.18C102.306 412.164 102.684 412.158 103.056 412.165C103.081 412.164 103.106 412.167 103.135 412.165C103.52 412.173 103.896 412.197 104.27 412.233C104.342 412.238 104.414 412.243 104.487 412.253C104.849 412.291 105.206 412.34 105.559 412.397C105.624 412.408 105.685 412.42 105.75 412.431C106.106 412.496 106.455 412.571 106.799 412.659C106.812 412.66 106.825 412.666 106.838 412.667C107.187 412.759 107.531 412.868 107.872 412.982C107.936 413.006 107.998 413.026 108.062 413.049C108.387 413.167 108.71 413.293 109.027 413.433C109.087 413.458 109.147 413.486 109.203 413.516C109.531 413.666 109.853 413.826 110.17 413.999C112.133 415.089 113.517 416.49 114.321 418.212L97.2706 381.708L97.2609 381.702Z" fill="url(#paint18_linear_2212_265)"/>
<path d="M64.2035 393.024L81.2542 429.528C81.252 429.653 81.2547 429.782 81.2605 429.905L64.2098 393.401C64.208 393.277 64.2053 393.148 64.2035 393.024Z" fill="url(#paint19_linear_2212_265)"/>
<path d="M64.2067 393.401L81.2573 429.906C81.2706 430.432 81.3251 430.936 81.4138 431.426L64.3631 394.921C64.2745 394.432 64.22 393.928 64.2067 393.401Z" fill="url(#paint20_linear_2212_265)"/>
<path d="M64.3695 394.925L81.4202 431.43C81.4982 431.85 81.6033 432.261 81.7385 432.656L64.6878 396.152C64.5526 395.757 64.4484 395.35 64.3695 394.925Z" fill="url(#paint21_linear_2212_265)"/>
<path d="M64.6836 396.148L81.7343 432.652C81.8327 432.935 81.943 433.215 82.0675 433.484L65.0168 396.98C64.8923 396.711 64.778 396.432 64.6836 396.148Z" fill="url(#paint22_linear_2212_265)"/>
<path d="M141.575 409.851C141.564 409.803 141.546 409.757 141.536 409.709C141.439 409.355 141.335 409.007 141.227 408.663C141.202 408.585 141.178 408.512 141.153 408.434C141.138 408.383 141.122 408.328 141.103 408.278C141.024 408.049 140.939 407.826 140.853 407.603C140.804 407.472 140.758 407.336 140.705 407.205C140.549 406.81 140.383 406.425 140.205 406.043L123.154 369.539C123.332 369.921 123.5 370.31 123.655 370.701C123.708 370.832 123.753 370.963 123.803 371.098C123.907 371.372 124.009 371.65 124.102 371.93C124.127 372.007 124.152 372.081 124.177 372.159C124.288 372.502 124.392 372.85 124.484 373.201C124.495 373.249 124.513 373.295 124.523 373.343C124.622 373.725 124.715 374.118 124.795 374.509C124.814 374.596 124.833 374.688 124.853 374.779C124.924 375.127 124.983 375.48 125.04 375.839C125.051 375.911 125.066 375.979 125.073 376.052C125.133 376.465 125.182 376.887 125.223 377.311C125.235 377.425 125.243 377.536 125.251 377.651C125.279 377.978 125.3 378.307 125.318 378.641C125.325 378.772 125.332 378.9 125.335 379.032C125.35 379.467 125.361 379.906 125.36 380.348C125.356 380.677 125.348 381.008 125.337 381.34C125.334 381.445 125.327 381.546 125.32 381.652C125.311 381.879 125.297 382.106 125.28 382.335C125.272 382.453 125.26 382.573 125.252 382.691C125.233 382.912 125.213 383.128 125.193 383.345C125.181 383.46 125.168 383.575 125.155 383.691C125.124 383.935 125.095 384.183 125.06 384.428C125.048 384.509 125.037 384.591 125.025 384.672C124.975 385.021 124.916 385.367 124.853 385.709C124.838 385.796 124.819 385.883 124.801 385.974C124.75 386.24 124.694 386.502 124.639 386.767C124.616 386.876 124.589 386.982 124.567 387.091C124.501 387.368 124.435 387.64 124.362 387.918C124.344 387.989 124.326 388.064 124.304 388.135C124.211 388.476 124.114 388.817 124.009 389.161C123.981 389.246 123.953 389.331 123.93 389.415C123.849 389.678 123.764 389.938 123.675 390.203C123.64 390.311 123.6 390.419 123.564 390.523C123.469 390.793 123.368 391.061 123.268 391.332C123.238 391.405 123.213 391.481 123.183 391.555C123.051 391.891 122.911 392.229 122.768 392.569C122.731 392.651 122.694 392.73 122.658 392.813C122.543 393.075 122.424 393.334 122.306 393.597C122.252 393.713 122.197 393.828 122.142 393.94C122.056 394.117 121.969 394.294 121.882 394.471C121.821 394.593 121.76 394.718 121.695 394.84C121.601 395.023 121.503 395.207 121.405 395.39C121.343 395.508 121.284 395.62 121.218 395.739C121.106 395.938 120.996 396.141 120.88 396.34C120.826 396.435 120.772 396.534 120.714 396.63C120.54 396.926 120.366 397.222 120.184 397.515C119.972 397.865 119.746 398.209 119.521 398.557C119.458 398.654 119.392 398.752 119.329 398.848C119.143 399.126 118.957 399.399 118.762 399.675C118.708 399.753 118.657 399.826 118.599 399.905C118.355 400.245 118.108 400.586 117.853 400.928C117.794 401.003 117.735 401.079 117.681 401.157C117.474 401.431 117.258 401.706 117.041 401.978C116.966 402.073 116.891 402.168 116.816 402.264C116.543 402.602 116.266 402.94 115.98 403.277L115.972 403.278C115.684 403.624 115.39 403.962 115.087 404.298C115.003 404.391 114.916 404.489 114.832 404.582C114.59 404.85 114.34 405.121 114.09 405.391C114.018 405.465 113.952 405.542 113.881 405.62C113.565 405.954 113.241 406.286 112.913 406.619C112.681 406.857 112.444 407.091 112.203 407.326C111.718 407.801 111.226 408.265 110.733 408.721C110.608 408.836 110.482 408.95 110.357 409.065C109.869 409.507 109.38 409.946 108.88 410.37C108.87 410.38 108.86 410.391 108.845 410.398C108.327 410.839 107.803 411.268 107.274 411.69C107.174 411.77 107.075 411.85 106.975 411.929C106.466 412.331 105.955 412.724 105.433 413.107C105.347 413.171 105.264 413.231 105.178 413.295C104.653 413.679 104.121 414.056 103.588 414.421C103.562 414.439 103.537 414.456 103.512 414.474C103.305 414.615 103.092 414.748 102.884 414.885C102.468 415.161 102.049 415.439 101.627 415.705C101.374 415.863 101.118 416.01 100.864 416.165C100.481 416.397 100.099 416.634 99.7058 416.86C99.317 417.085 98.9176 417.3 98.5222 417.514C98.2797 417.646 98.0429 417.784 97.7996 417.912C97.3138 418.17 96.8206 418.414 96.3273 418.658C96.1696 418.737 96.0166 418.82 95.854 418.897C95.1974 419.213 94.531 419.523 93.8612 419.817C93.7319 419.874 93.5968 419.924 93.4675 419.981C92.9262 420.214 92.3809 420.448 91.8322 420.667C91.1223 420.948 90.4099 421.218 89.686 421.474C89.5231 421.53 89.3593 421.582 89.2004 421.637C88.6346 421.834 88.072 422.026 87.4988 422.207C86.8747 422.404 86.2441 422.59 85.6126 422.772C85.475 422.81 85.3373 422.848 85.2037 422.885C84.5625 423.06 83.9165 423.233 83.2671 423.389C83.1795 423.408 83.0919 423.427 83.0052 423.45C82.32 423.614 81.633 423.77 80.9395 423.915C80.2658 424.056 79.5967 424.179 78.9348 424.297C78.7826 424.325 78.6296 424.35 78.4767 424.374C77.8258 424.485 77.1763 424.584 76.537 424.671C76.4557 424.68 76.3792 424.693 76.3018 424.701C75.763 424.771 75.2264 424.833 74.6929 424.889C74.4401 424.914 74.1872 424.94 73.9384 424.964C73.5053 425.003 73.0793 425.036 72.6516 425.062C72.4178 425.079 72.1801 425.097 71.9446 425.106C71.4586 425.131 70.9788 425.147 70.4982 425.159C70.3321 425.161 70.1677 425.172 70.0016 425.174C69.362 425.183 68.7286 425.182 68.1006 425.167C67.9584 425.164 67.8145 425.153 67.6723 425.151C67.1897 425.134 66.7101 425.112 66.2329 425.082C66.013 425.066 65.8003 425.046 65.5844 425.029C65.1814 424.995 64.7823 424.961 64.3895 424.916C64.1591 424.891 63.9327 424.864 63.7054 424.834C63.3198 424.784 62.9332 424.73 62.5498 424.671C62.3344 424.638 62.1151 424.606 61.8981 424.565C61.4825 424.492 61.0692 424.41 60.6559 424.328C60.4861 424.294 60.3123 424.261 60.1424 424.227C59.5656 424.101 58.9941 423.961 58.4328 423.812C58.3486 423.788 58.2635 423.76 58.1802 423.741C57.7023 423.611 57.2257 423.467 56.7563 423.318C56.5686 423.259 56.3839 423.195 56.1953 423.131C55.8309 423.005 55.4664 422.88 55.1043 422.745C54.9003 422.668 54.6963 422.591 54.4954 422.51C54.15 422.376 53.8069 422.233 53.4669 422.086C53.2692 421.999 53.0723 421.916 52.8785 421.829C52.5192 421.669 52.1652 421.495 51.8113 421.321C51.644 421.241 51.4767 421.16 51.3125 421.075C50.7983 420.815 50.2895 420.541 49.7902 420.253C44.712 417.347 41.1327 413.665 39.0542 409.214L56.1048 445.718C58.1834 450.169 61.7618 453.847 66.8408 456.757C67.3442 457.044 67.8521 457.314 68.3632 457.579C68.5273 457.664 68.6978 457.74 68.8619 457.826C69.2159 457.999 69.569 458.169 69.9292 458.333C70.123 458.421 70.3207 458.507 70.5176 458.59C70.8576 458.737 71.1999 458.876 71.5461 459.014C71.747 459.096 71.951 459.172 72.155 459.249C72.5171 459.384 72.8776 459.51 73.246 459.635C73.4346 459.699 73.6193 459.763 73.807 459.823C74.2764 459.971 74.7529 460.115 75.2309 460.245C75.3151 460.269 75.3961 460.297 75.4835 460.316C76.0496 460.469 76.6202 460.604 77.1931 460.731C77.3638 460.769 77.5367 460.798 77.7066 460.833C78.1168 460.919 78.5292 460.997 78.9488 461.069C79.165 461.106 79.3843 461.138 79.6004 461.175C79.9839 461.234 80.3664 461.289 80.7521 461.339C80.9794 461.369 81.2058 461.396 81.4362 461.421C81.833 461.465 82.2281 461.5 82.6311 461.534C82.847 461.551 83.0637 461.57 83.2836 461.586C83.7608 461.616 84.2404 461.638 84.723 461.655C84.8661 461.662 85.0091 461.668 85.1522 461.675C85.7802 461.69 86.4144 461.695 87.0531 461.682C87.2192 461.68 87.3845 461.673 87.5497 461.667C88.0303 461.655 88.5101 461.639 88.9961 461.614C89.2307 461.601 89.4685 461.583 89.7031 461.57C90.13 461.541 90.5568 461.511 90.9899 461.472C91.2436 461.451 91.4964 461.426 91.7484 461.396C91.9278 461.379 92.1041 461.366 92.2827 461.344C92.6368 461.305 92.9971 461.257 93.3534 461.209C93.4307 461.201 93.5121 461.192 93.5886 461.179C94.2278 461.092 94.8764 460.99 95.5282 460.883C95.6812 460.858 95.8333 460.829 95.9863 460.805C96.6483 460.687 97.3174 460.564 97.991 460.423C98.3532 460.345 98.7115 460.268 99.0738 460.19C99.4042 460.119 99.7281 460.037 100.057 459.958C100.144 459.939 100.232 459.92 100.319 459.897C100.968 459.741 101.614 459.568 102.255 459.393C102.393 459.355 102.53 459.317 102.668 459.279C103.277 459.106 103.884 458.93 104.481 458.743C104.505 458.738 104.527 458.725 104.555 458.719C105.132 458.536 105.703 458.343 106.273 458.145C106.428 458.091 106.587 458.04 106.746 457.985C107.47 457.729 108.187 457.458 108.892 457.173C108.904 457.17 108.912 457.169 108.923 457.162C109.452 456.952 109.975 456.727 110.497 456.503C110.638 456.443 110.78 456.387 110.921 456.324C111.587 456.031 112.246 455.726 112.894 455.412L112.91 455.408C113.071 455.324 113.232 455.239 113.398 455.157C113.887 454.915 114.372 454.673 114.855 454.419C115.098 454.292 115.335 454.153 115.578 454.022C115.95 453.817 116.324 453.619 116.691 453.407C116.713 453.394 116.739 453.38 116.76 453.363C117.149 453.138 117.532 452.901 117.919 452.668C118.173 452.513 118.429 452.367 118.682 452.208C119.104 451.942 119.519 451.666 119.938 451.388C120.139 451.257 120.341 451.13 120.537 450.996C120.548 450.99 120.555 450.984 120.566 450.978C120.592 450.96 120.617 450.942 120.642 450.924C121.176 450.559 121.707 450.182 122.233 449.798C122.319 449.734 122.406 449.674 122.492 449.609C123.01 449.227 123.524 448.833 124.034 448.432C124.133 448.352 124.233 448.272 124.336 448.192C124.471 448.084 124.607 447.979 124.742 447.871C125.132 447.554 125.52 447.229 125.907 446.9C125.918 446.889 125.928 446.879 125.943 446.871C126.439 446.448 126.932 446.009 127.42 445.566C127.545 445.452 127.67 445.337 127.796 445.223C128.289 444.767 128.781 444.303 129.266 443.828C129.482 443.614 129.698 443.397 129.914 443.184C129.935 443.163 129.955 443.142 129.976 443.121C130.304 442.788 130.628 442.456 130.943 442.121C131.015 442.047 131.086 441.97 131.153 441.893C131.403 441.622 131.653 441.356 131.895 441.083C131.979 440.99 132.066 440.892 132.15 440.799C132.452 440.459 132.746 440.125 133.035 439.784L133.043 439.782C133.327 439.438 133.605 439.103 133.877 438.761C133.953 438.666 134.032 438.57 134.107 438.474C134.324 438.203 134.535 437.928 134.743 437.654C134.802 437.579 134.86 437.5 134.918 437.425C135.175 437.087 135.422 436.746 135.665 436.402C135.719 436.324 135.773 436.246 135.827 436.171C136.018 435.897 136.209 435.623 136.391 435.346C136.458 435.248 136.52 435.152 136.583 435.055C136.808 434.711 137.033 434.362 137.246 434.017C137.428 433.719 137.602 433.424 137.776 433.128C137.834 433.032 137.884 432.934 137.942 432.838C138.058 432.638 138.169 432.439 138.279 432.236C138.341 432.119 138.404 432.005 138.467 431.888C138.565 431.704 138.663 431.521 138.757 431.338C138.818 431.217 138.879 431.095 138.94 430.97C139.03 430.792 139.117 430.615 139.203 430.434C139.232 430.373 139.265 430.312 139.293 430.252C139.319 430.197 139.341 430.146 139.367 430.09C139.49 429.831 139.604 429.569 139.719 429.307C139.755 429.224 139.792 429.145 139.829 429.062C139.973 428.727 140.113 428.389 140.243 428.048C140.274 427.975 140.299 427.899 140.329 427.826C140.434 427.557 140.529 427.287 140.626 427.02C140.665 426.912 140.7 426.804 140.736 426.697C140.825 426.436 140.91 426.172 140.992 425.913C141.019 425.828 141.047 425.743 141.074 425.657C141.179 425.314 141.278 424.976 141.37 424.632C141.388 424.561 141.405 424.487 141.427 424.411C141.497 424.138 141.567 423.864 141.629 423.589C141.655 423.479 141.677 423.37 141.701 423.265C141.761 423.002 141.812 422.737 141.864 422.476C141.883 422.389 141.901 422.301 141.915 422.211C141.978 421.864 142.037 421.518 142.088 421.174C142.088 421.157 142.094 421.144 142.094 421.127C142.104 421.058 142.111 420.99 142.121 420.921C142.155 420.676 142.186 420.432 142.213 420.189C142.226 420.074 142.238 419.959 142.25 419.839C142.274 419.622 142.294 419.405 142.31 419.189C142.322 419.07 142.33 418.952 142.337 418.829C142.354 418.601 142.365 418.378 142.378 418.15C142.385 418.045 142.391 417.939 142.393 417.834C142.405 417.503 142.414 417.176 142.417 416.842C142.42 416.487 142.415 416.134 142.407 415.786C142.405 415.699 142.398 415.613 142.396 415.526C142.393 415.394 142.386 415.266 142.379 415.134C142.361 414.801 142.34 414.472 142.312 414.149C142.304 414.034 142.292 413.92 142.285 413.809C142.244 413.385 142.195 412.966 142.135 412.55C142.123 412.478 142.113 412.409 142.101 412.336C142.064 412.086 142.023 411.837 141.979 411.592C141.956 411.485 141.933 411.381 141.911 411.278C141.891 411.186 141.872 411.099 141.853 411.007C141.768 410.613 141.684 410.223 141.58 409.837L141.575 409.851Z" fill="url(#paint23_linear_2212_265)"/>
<path d="M112.218 407.318C103.5 415.872 93.0856 421.4 80.9672 423.909C68.8418 426.423 58.4619 425.204 49.8179 420.246C41.1678 415.298 36.8703 408.105 36.9192 398.677C36.9703 389.123 41.313 380.078 49.9473 371.543C58.5784 363.012 69.0359 357.47 81.3206 354.922C93.6053 352.373 104.027 353.591 112.59 358.562C121.154 363.533 125.415 370.792 125.364 380.346C125.315 389.774 120.932 398.765 112.217 407.314L112.218 407.318ZM64.1937 393.026C64.1748 396.596 65.8354 399.337 69.1804 401.254C72.5214 403.171 76.4858 403.651 81.0755 402.7C85.6652 401.75 89.6386 399.62 93.0094 396.316C96.3794 393.008 98.0748 389.507 98.0919 385.813C98.1089 382.119 96.4503 379.347 93.1062 377.493C89.7622 375.639 85.7958 375.189 81.2101 376.138C76.6244 377.088 72.44 379.263 69.1536 382.553C65.8593 385.845 64.2116 389.336 64.1906 393.031" fill="url(#paint24_linear_2212_265)"/>
<path d="M201.494 438.043C200.704 436.347 199.369 434.947 197.492 433.831C197.182 433.648 196.867 433.482 196.546 433.326C196.49 433.297 196.43 433.268 196.37 433.243C196.06 433.098 195.739 432.963 195.417 432.84C195.354 432.817 195.291 432.797 195.228 432.773C194.89 432.654 194.549 432.54 194.199 432.445C194.186 432.443 194.176 432.437 194.164 432.436C193.819 432.343 193.469 432.264 193.112 432.195C193.047 432.184 192.986 432.168 192.921 432.157C192.566 432.096 192.205 432.045 191.839 432.007C191.766 431.998 191.694 431.992 191.622 431.987C191.244 431.952 190.859 431.926 190.47 431.918C190.445 431.92 190.421 431.921 190.399 431.917C190.018 431.908 189.632 431.916 189.24 431.933C189.17 431.936 189.104 431.938 189.038 431.939C188.642 431.958 188.237 431.995 187.83 432.037C187.794 432.045 187.756 432.04 187.719 432.044C187.658 432.053 187.594 432.063 187.533 432.072C187.294 432.102 187.055 432.133 186.814 432.172C186.712 432.186 186.608 432.204 186.507 432.218C186.165 432.275 185.824 432.335 185.477 432.406C185.333 432.437 185.19 432.468 185.047 432.499C184.987 432.511 184.928 432.528 184.865 432.542C184.638 432.591 184.409 432.652 184.184 432.709C184.078 432.736 183.967 432.764 183.86 432.791C183.577 432.869 183.295 432.951 183.013 433.036C182.977 433.044 182.942 433.056 182.908 433.067L182.892 433.071C182.603 433.162 182.316 433.261 182.033 433.36C181.987 433.378 181.941 433.396 181.898 433.41C181.662 433.494 181.427 433.582 181.193 433.674C181.185 433.676 181.173 433.678 181.166 433.684C181.02 433.74 180.879 433.804 180.734 433.864C180.623 433.909 180.512 433.954 180.401 434.003C180.238 434.075 180.079 434.151 179.92 434.223C179.821 434.269 179.722 434.311 179.625 434.361L179.613 434.364C179.376 434.482 179.139 434.603 178.903 434.725C178.891 434.727 178.881 434.738 178.866 434.745C178.62 434.878 178.377 435.009 178.136 435.148L178.124 435.151C177.922 435.274 177.722 435.392 177.524 435.517C177.477 435.548 177.429 435.576 177.38 435.603C177.134 435.756 176.894 435.916 176.654 436.08L176.646 436.081C176.629 436.098 176.611 436.11 176.588 436.123C176.349 436.287 176.114 436.454 175.884 436.624C175.802 436.688 175.716 436.752 175.634 436.816C175.465 436.944 175.297 437.071 175.134 437.202C175.098 437.231 175.062 437.255 175.026 437.284C174.977 437.324 174.928 437.368 174.879 437.411C174.685 437.574 174.487 437.737 174.298 437.907C174.221 437.974 174.141 438.045 174.064 438.116C173.806 438.35 173.55 438.589 173.298 438.835C173.216 438.915 173.134 438.999 173.051 439.079C173.01 439.122 172.973 439.163 172.932 439.205C172.735 439.41 172.541 439.614 172.356 439.816C172.298 439.879 172.241 439.941 172.188 440.003C171.96 440.26 171.737 440.52 171.531 440.781C171.484 440.837 171.443 440.896 171.4 440.951C171.233 441.162 171.075 441.375 170.921 441.587C170.866 441.662 170.812 441.74 170.757 441.814C170.589 442.059 170.425 442.302 170.274 442.547C170.261 442.567 170.245 442.587 170.236 442.605C170.236 442.605 170.23 442.615 170.227 442.62C170.085 442.85 169.951 443.079 169.827 443.314C169.794 443.375 169.762 443.44 169.73 443.506C169.642 443.675 169.553 443.844 169.473 444.015C169.465 444.033 169.453 444.057 169.445 444.075C169.421 444.122 169.403 444.172 169.384 444.218C169.29 444.421 169.204 444.623 169.123 444.824C169.09 444.905 169.058 444.987 169.026 445.069C168.946 445.282 168.872 445.498 168.802 445.713C168.784 445.767 168.763 445.822 168.75 445.878C168.67 446.146 168.599 446.415 168.536 446.683C168.521 446.748 168.506 446.818 168.492 446.888C168.449 447.093 168.41 447.301 168.377 447.512C168.369 447.556 168.358 447.6 168.352 447.647C168.344 447.69 168.342 447.737 168.338 447.779C168.315 447.959 168.295 448.138 168.279 448.317C168.272 448.397 168.264 448.478 168.257 448.563C168.238 448.821 168.227 449.082 168.226 449.344C168.223 449.47 168.224 449.59 168.23 449.714C168.234 449.734 168.235 449.755 168.235 449.776C168.242 450.003 168.257 450.225 168.279 450.445C168.284 450.486 168.287 450.522 168.292 450.563C168.312 450.75 168.338 450.932 168.373 451.112C168.38 451.144 168.383 451.177 168.385 451.209C168.391 451.237 168.397 451.261 168.402 451.285C168.433 451.432 168.465 451.58 168.497 451.727C168.505 451.767 168.514 451.806 168.523 451.85C168.572 452.036 168.627 452.215 168.686 452.394C168.689 452.406 168.691 452.414 168.693 452.426C168.724 452.511 168.755 452.596 168.79 452.684C168.809 452.734 168.824 452.781 168.843 452.831C168.899 452.977 168.963 453.118 169.027 453.262L186.078 489.766C186.01 489.627 185.95 489.481 185.893 489.335C185.875 489.289 185.856 489.239 185.842 489.192C185.805 489.096 185.771 488.999 185.738 488.902C185.678 488.723 185.623 488.544 185.575 488.358C185.566 488.319 185.558 488.279 185.548 488.235C185.513 488.089 185.481 487.941 185.453 487.793C185.441 487.737 185.428 487.678 185.424 487.62C185.394 487.439 185.366 487.254 185.343 487.067C185.335 487.031 185.33 486.991 185.331 486.953C185.308 486.733 185.294 486.511 185.287 486.284C185.281 486.143 185.275 485.999 185.278 485.856C185.28 485.594 185.291 485.337 185.31 485.075C185.317 484.994 185.325 484.913 185.332 484.829C185.347 484.65 185.367 484.471 185.391 484.291C185.401 484.201 185.415 484.115 185.43 484.028C185.465 483.821 185.503 483.613 185.546 483.404C185.56 483.334 185.571 483.269 185.589 483.199C185.652 482.931 185.723 482.662 185.803 482.395C185.821 482.341 185.838 482.287 185.855 482.229C185.925 482.014 185.996 481.799 186.079 481.585C186.111 481.503 186.143 481.422 186.176 481.34C186.257 481.135 186.342 480.933 186.437 480.734C186.468 480.664 186.495 480.596 186.531 480.53C186.61 480.359 186.699 480.19 186.788 480.021C186.82 479.96 186.852 479.894 186.884 479.829C187.009 479.598 187.142 479.366 187.284 479.135C187.3 479.111 187.315 479.087 187.331 479.062C187.482 478.817 187.646 478.574 187.815 478.329C187.869 478.251 187.923 478.177 187.978 478.103C188.132 477.89 188.291 477.677 188.458 477.466C188.504 477.41 188.545 477.351 188.588 477.297C188.798 477.035 189.017 476.775 189.245 476.518C189.298 476.456 189.356 476.394 189.413 476.332C189.598 476.125 189.791 475.921 189.99 475.72C190.112 475.594 190.232 475.472 190.355 475.346C190.606 475.1 190.863 474.862 191.12 474.627C191.197 474.556 191.278 474.489 191.355 474.418C191.547 474.248 191.741 474.085 191.935 473.923C192.02 473.854 192.105 473.782 192.19 473.714C192.354 473.583 192.522 473.455 192.69 473.327C192.776 473.263 192.858 473.199 192.944 473.135C193.178 472.964 193.412 472.793 193.652 472.628C193.67 472.616 193.691 472.599 193.71 472.587C193.949 472.423 194.194 472.266 194.44 472.109C194.491 472.077 194.543 472.049 194.591 472.018C194.786 471.897 194.984 471.775 195.185 471.661C195.429 471.521 195.675 471.385 195.925 471.252C195.933 471.25 195.945 471.244 195.952 471.238C196.191 471.111 196.435 470.988 196.684 470.868C196.783 470.822 196.881 470.775 196.979 470.729C197.138 470.653 197.297 470.578 197.461 470.509C197.567 470.461 197.678 470.416 197.789 470.372C197.942 470.305 198.098 470.238 198.255 470.175C198.486 470.084 198.721 469.996 198.957 469.912C199.003 469.894 199.049 469.876 199.096 469.861C199.378 469.759 199.666 469.664 199.954 469.572C199.998 469.563 200.036 469.546 200.08 469.537C200.357 469.452 200.64 469.371 200.927 469.292C201.034 469.265 201.144 469.237 201.251 469.21C201.476 469.153 201.701 469.096 201.927 469.044C202.13 469 202.332 468.948 202.539 468.908C202.886 468.833 203.232 468.775 203.569 468.719C203.674 468.701 203.775 468.687 203.88 468.673C204.122 468.638 204.361 468.603 204.6 468.572C204.697 468.56 204.798 468.546 204.896 468.538C205.303 468.492 205.708 468.459 206.104 468.44C206.174 468.438 206.241 468.436 206.307 468.434C206.699 468.416 207.085 468.412 207.466 468.418C207.49 468.417 207.515 468.416 207.541 468.418C207.931 468.43 208.314 468.452 208.693 468.487C208.765 468.492 208.837 468.502 208.909 468.507C209.276 468.545 209.637 468.596 209.991 468.657C210.056 468.668 210.118 468.684 210.183 468.695C210.539 468.764 210.889 468.843 211.234 468.935C211.247 468.937 211.257 468.943 211.269 468.944C211.619 469.04 211.96 469.154 212.298 469.273C212.362 469.297 212.424 469.316 212.488 469.34C212.81 469.463 213.13 469.594 213.441 469.743C213.501 469.772 213.557 469.801 213.617 469.826C213.938 469.982 214.257 470.147 214.563 470.331C216.439 471.443 217.77 472.847 218.564 474.543L201.514 438.039L201.494 438.043Z" fill="url(#paint25_linear_2212_265)"/>
<path d="M108.834 493.343L125.88 529.848L97.6297 535.704L80.5781 499.196L108.834 493.343Z" fill="url(#paint26_linear_2212_265)"/>
<path d="M156.488 342.212L184.987 336.306L108.838 493.344L80.583 499.197L156.488 342.212Z" fill="url(#paint27_linear_2212_265)"/>
<path d="M184.984 336.305L202.034 372.809L125.882 529.848L108.835 493.343L184.984 336.305Z" fill="url(#paint28_linear_2212_265)"/>
<path d="M245.832 466.123C245.822 466.075 245.804 466.029 245.794 465.982C245.697 465.628 245.592 465.279 245.485 464.936C245.46 464.858 245.436 464.784 245.411 464.706C245.391 464.652 245.38 464.6 245.36 464.546C245.281 464.317 245.192 464.095 245.11 463.871C245.061 463.74 245.016 463.608 244.963 463.478C244.807 463.082 244.64 462.693 244.462 462.311L227.411 425.807C227.589 426.189 227.756 426.578 227.912 426.974C227.965 427.104 228.01 427.236 228.06 427.367C228.165 427.644 228.266 427.918 228.36 428.202C228.385 428.28 228.409 428.354 228.434 428.432C228.547 428.778 228.651 429.127 228.743 429.477C228.753 429.525 228.771 429.571 228.782 429.619C228.881 430.002 228.974 430.394 229.054 430.789C229.074 430.881 229.093 430.968 229.113 431.06C229.184 431.411 229.244 431.765 229.299 432.119C229.311 432.192 229.325 432.259 229.333 432.333C229.393 432.749 229.441 433.167 229.483 433.592C229.495 433.706 229.503 433.821 229.51 433.932C229.539 434.259 229.56 434.587 229.577 434.921C229.585 435.053 229.591 435.18 229.595 435.313C229.609 435.747 229.621 436.186 229.62 436.628C229.616 436.958 229.608 437.289 229.596 437.62C229.594 437.725 229.587 437.83 229.58 437.932C229.57 438.159 229.557 438.387 229.539 438.615C229.532 438.734 229.52 438.853 229.512 438.971C229.493 439.192 229.473 439.409 229.45 439.63C229.437 439.745 229.428 439.86 229.411 439.972C229.381 440.22 229.347 440.469 229.313 440.718C229.301 440.795 229.293 440.876 229.281 440.954C229.231 441.302 229.172 441.648 229.105 441.995C229.087 442.087 229.068 442.174 229.054 442.26C229.002 442.526 228.947 442.792 228.887 443.054C228.864 443.159 228.842 443.268 228.814 443.374C228.747 443.659 228.679 443.945 228.602 444.228C228.587 444.294 228.572 444.355 228.553 444.422C228.46 444.767 228.363 445.108 228.258 445.452C228.231 445.541 228.2 445.631 228.174 445.72C228.093 445.983 228.007 446.243 227.918 446.504C227.883 446.611 227.847 446.715 227.807 446.823C227.706 447.107 227.604 447.388 227.494 447.67C227.47 447.733 227.446 447.796 227.422 447.856C227.287 448.197 227.147 448.536 227.004 448.875C226.964 448.962 226.925 449.05 226.889 449.137C226.774 449.395 226.659 449.653 226.54 449.912C226.488 450.023 226.433 450.135 226.382 450.246C226.293 450.431 226.203 450.613 226.11 450.8C226.052 450.917 225.991 451.038 225.932 451.155C225.833 451.351 225.729 451.544 225.625 451.741C225.57 451.849 225.513 451.953 225.457 452.061C225.325 452.302 225.186 452.544 225.051 452.786C225.017 452.843 224.984 452.904 224.951 452.961C224.778 453.261 224.596 453.558 224.415 453.86C224.384 453.908 224.354 453.96 224.322 454.009C224.134 454.316 223.938 454.621 223.737 454.926C223.674 455.023 223.608 455.121 223.541 455.218C223.337 455.525 223.128 455.832 222.911 456.141C222.879 456.185 222.851 456.229 222.819 456.273C222.573 456.622 222.318 456.964 222.059 457.312C221.991 457.401 221.92 457.496 221.852 457.585C221.64 457.86 221.429 458.139 221.21 458.415C221.144 458.496 221.079 458.581 221.014 458.666C220.738 459.008 220.458 459.352 220.169 459.693C220.112 459.759 220.052 459.83 219.992 459.898C219.748 460.179 219.506 460.465 219.254 460.744C219.169 460.837 219.086 460.934 218.998 461.028C218.696 461.364 218.392 461.696 218.077 462.03C218.067 462.041 218.06 462.05 218.049 462.057C217.727 462.397 217.396 462.739 217.065 463.077C216.867 463.278 216.668 463.479 216.466 463.681C215.982 464.16 215.487 464.629 214.995 465.089C214.863 465.213 214.727 465.334 214.595 465.458C214.167 465.85 213.734 466.235 213.295 466.617C213.218 466.683 213.141 466.754 213.064 466.821C212.551 467.26 212.034 467.688 211.509 468.109C211.413 468.188 211.317 468.263 211.217 468.339C210.697 468.75 210.176 469.154 209.644 469.548C209.597 469.583 209.551 469.618 209.5 469.654C208.983 470.036 208.463 470.406 207.937 470.769C207.864 470.818 207.792 470.871 207.719 470.92C207.425 471.121 207.124 471.311 206.829 471.507C206.49 471.73 206.156 471.956 205.814 472.171C205.521 472.355 205.222 472.532 204.927 472.712C204.584 472.919 204.246 473.13 203.902 473.329C203.542 473.535 203.177 473.735 202.816 473.933C202.548 474.083 202.281 474.236 202.007 474.378C201.622 474.582 201.227 474.779 200.837 474.976C200.581 475.106 200.327 475.24 200.067 475.366C199.656 475.567 199.238 475.753 198.821 475.947C198.575 476.058 198.33 476.178 198.083 476.289C197.569 476.516 197.049 476.732 196.525 476.945C196.367 477.008 196.216 477.078 196.059 477.141C195.924 477.195 195.789 477.241 195.654 477.295C195.078 477.519 194.505 477.742 193.92 477.947C193.661 478.041 193.396 478.123 193.136 478.212C192.67 478.371 192.209 478.532 191.737 478.68C191.121 478.875 190.498 479.059 189.871 479.24C189.737 479.277 189.6 479.315 189.466 479.352C188.825 479.527 188.179 479.7 187.525 479.857C187.446 479.874 187.366 479.891 187.287 479.913C186.598 480.078 185.907 480.235 185.21 480.381C184.528 480.523 183.851 480.648 183.181 480.767C183.021 480.798 182.864 480.823 182.703 480.849C182.04 480.963 181.383 481.063 180.732 481.153C180.667 481.163 180.606 481.168 180.541 481.177C179.974 481.253 179.413 481.316 178.855 481.374C178.667 481.393 178.484 481.412 178.3 481.427C177.863 481.466 177.429 481.506 176.999 481.536C176.809 481.547 176.621 481.563 176.432 481.574C176.012 481.598 175.593 481.622 175.175 481.637C174.985 481.644 174.79 481.649 174.6 481.656C174.194 481.665 173.787 481.673 173.387 481.672C173.192 481.672 172.996 481.673 172.803 481.668C172.411 481.665 172.017 481.654 171.627 481.642C171.43 481.635 171.233 481.627 171.039 481.619C170.66 481.601 170.281 481.578 169.903 481.547C169.704 481.532 169.505 481.516 169.306 481.501C168.937 481.468 168.574 481.429 168.211 481.386C168.01 481.363 167.809 481.34 167.608 481.316C167.253 481.272 166.9 481.219 166.551 481.165C166.349 481.133 166.146 481.102 165.948 481.07C165.602 481.011 165.263 480.946 164.923 480.878C164.719 480.839 164.515 480.799 164.314 480.755C163.982 480.685 163.653 480.606 163.323 480.527C163.121 480.479 162.915 480.431 162.716 480.378C162.394 480.293 162.075 480.204 161.755 480.11C161.555 480.053 161.352 479.997 161.151 479.936C160.834 479.838 160.524 479.734 160.21 479.631C160.013 479.565 159.812 479.5 159.617 479.429C159.306 479.317 159.001 479.199 158.693 479.083C158.502 479.007 158.308 478.94 158.116 478.861C157.806 478.736 157.497 478.598 157.194 478.464C157.014 478.386 156.831 478.309 156.651 478.227C156.318 478.073 155.991 477.91 155.669 477.747C155.519 477.671 155.367 477.603 155.217 477.527C154.744 477.283 154.277 477.03 153.817 476.767C151.607 475.501 149.683 474.087 148.042 472.52C147.57 472.072 147.126 471.613 146.704 471.142C145.223 469.49 144.028 467.69 143.116 465.737L160.167 502.241C161.859 505.867 164.532 508.974 168.184 511.562C168.464 511.76 168.752 511.956 169.044 512.151C169.627 512.538 170.236 512.911 170.867 513.271C178.108 517.419 186.624 518.938 196.415 517.826C196.806 517.784 197.199 517.733 197.595 517.677C197.655 517.668 197.721 517.662 197.781 517.653C198.433 517.563 199.093 517.458 199.753 517.35C199.91 517.324 200.07 517.294 200.227 517.268C200.897 517.149 201.574 517.024 202.255 516.882C202.614 516.805 202.972 516.727 203.326 516.651C203.665 516.578 204.001 516.494 204.337 516.413C204.417 516.396 204.496 516.378 204.571 516.358C205.224 516.197 205.871 516.028 206.512 515.853C206.645 515.816 206.779 515.779 206.913 515.742C207.505 515.572 208.097 515.399 208.682 515.215C208.718 515.207 208.748 515.192 208.783 515.181C209.251 515.034 209.712 514.872 210.178 514.714C210.442 514.624 210.707 514.542 210.966 514.448C211.546 514.24 212.116 514.022 212.684 513.8C212.818 513.746 212.958 513.699 213.093 513.645L213.108 513.642C213.258 513.58 213.402 513.516 213.547 513.455C214.075 513.238 214.607 513.019 215.129 512.79C215.376 512.683 215.617 512.564 215.86 512.454C216.254 512.273 216.65 512.096 217.038 511.908C217.064 511.894 217.086 511.881 217.113 511.871C217.374 511.745 217.628 511.611 217.883 511.481C218.274 511.284 218.666 511.092 219.05 510.884C219.323 510.738 219.59 510.584 219.861 510.434C220.178 510.262 220.496 510.094 220.807 509.914C220.856 509.887 220.899 509.857 220.948 509.83C221.296 509.63 221.634 509.42 221.981 509.212C222.275 509.032 222.572 508.86 222.865 508.676C223.21 508.46 223.545 508.234 223.884 508.011C224.136 507.844 224.393 507.684 224.64 507.515C224.683 507.485 224.727 507.454 224.77 507.424C224.843 507.375 224.915 507.322 224.987 507.273C225.513 506.91 226.033 506.54 226.547 506.159C226.594 506.124 226.64 506.089 226.691 506.053C227.219 505.66 227.744 505.255 228.263 504.844C228.36 504.769 228.459 504.689 228.555 504.614C228.648 504.54 228.737 504.471 228.829 504.397C229.258 504.046 229.685 503.688 230.111 503.326C230.188 503.259 230.264 503.188 230.342 503.122C230.781 502.744 231.21 502.356 231.642 501.963C231.774 501.843 231.91 501.718 232.041 501.594C232.538 501.133 233.029 500.669 233.514 500.19C233.675 500.03 233.836 499.87 233.997 499.707C234.038 499.664 234.076 499.627 234.113 499.586C234.448 499.247 234.778 498.905 235.101 498.565C235.107 498.555 235.114 498.55 235.12 498.54C235.436 498.206 235.742 497.869 236.046 497.537C236.13 497.444 236.217 497.346 236.301 497.253C236.553 496.97 236.8 496.687 237.039 496.407C237.096 496.34 237.156 496.269 237.212 496.203C237.501 495.862 237.781 495.518 238.057 495.175C238.123 495.095 238.188 495.01 238.253 494.925C238.473 494.649 238.689 494.373 238.895 494.095C238.964 494.006 239.035 493.911 239.103 493.821C239.361 493.474 239.617 493.132 239.863 492.783C239.895 492.739 239.923 492.695 239.955 492.651C240.172 492.342 240.38 492.035 240.585 491.728C240.652 491.63 240.714 491.534 240.78 491.436C240.981 491.13 241.178 490.826 241.366 490.519C241.391 490.48 241.416 490.441 241.437 490.403C241.443 490.394 241.449 490.38 241.459 490.369C241.641 490.072 241.822 489.771 241.994 489.471C242.028 489.414 242.061 489.357 242.094 489.296C242.234 489.053 242.369 488.812 242.5 488.571C242.557 488.467 242.613 488.359 242.669 488.251C242.772 488.054 242.877 487.861 242.976 487.665C243.038 487.547 243.095 487.426 243.157 487.305C243.247 487.123 243.34 486.936 243.426 486.755C243.451 486.7 243.481 486.644 243.507 486.588C243.532 486.533 243.557 486.473 243.582 486.418C243.702 486.159 243.818 485.905 243.929 485.647C243.968 485.56 244.007 485.468 244.046 485.381C244.19 485.041 244.33 484.703 244.464 484.362C244.488 484.298 244.512 484.235 244.536 484.171C244.642 483.89 244.748 483.609 244.846 483.33C244.881 483.222 244.921 483.118 244.956 483.01C245.046 482.75 245.132 482.489 245.213 482.23C245.24 482.141 245.271 482.051 245.297 481.962C245.403 481.619 245.5 481.277 245.592 480.933C245.611 480.866 245.626 480.8 245.641 480.735C245.714 480.452 245.786 480.17 245.85 479.886C245.876 479.776 245.9 479.671 245.922 479.562C245.982 479.299 246.033 479.034 246.084 478.769C246.102 478.678 246.121 478.59 246.139 478.499C246.202 478.152 246.26 477.806 246.314 477.457C246.316 477.444 246.32 477.427 246.322 477.414C246.333 477.349 246.339 477.281 246.346 477.217C246.38 476.968 246.415 476.723 246.441 476.476C246.453 476.361 246.466 476.246 246.479 476.131C246.503 475.913 246.522 475.692 246.541 475.472C246.553 475.352 246.561 475.234 246.568 475.112C246.585 474.883 246.595 474.656 246.608 474.428C246.614 474.323 246.621 474.217 246.623 474.113C246.635 473.781 246.643 473.45 246.647 473.12C246.65 472.766 246.645 472.413 246.637 472.065C246.634 471.978 246.628 471.891 246.622 471.805C246.619 471.673 246.612 471.545 246.605 471.413C246.587 471.08 246.566 470.751 246.537 470.424C246.529 470.309 246.521 470.194 246.51 470.084C246.469 469.66 246.42 469.241 246.36 468.825C246.348 468.753 246.338 468.684 246.326 468.612C246.289 468.362 246.248 468.112 246.203 467.864C246.181 467.76 246.158 467.657 246.135 467.549C246.115 467.458 246.097 467.37 246.077 467.278C245.992 466.884 245.908 466.494 245.804 466.108L245.832 466.123Z" fill="url(#paint29_linear_2212_265)"/>
<path d="M216.858 414.838C225.422 419.813 229.679 427.069 229.629 436.627C229.58 446.055 225.198 455.075 216.485 463.686C207.765 472.307 197.348 477.865 185.227 480.378C172.945 482.922 162.478 481.722 153.834 476.768C145.187 471.815 140.889 464.56 140.936 455.007C140.986 445.449 145.367 436.405 154.084 427.847C162.798 419.298 173.3 413.747 185.581 411.203C197.863 408.66 208.29 409.868 216.858 414.838ZM197.276 452.78C200.642 449.473 202.341 445.971 202.362 442.276C202.383 438.581 200.758 435.769 197.496 433.835C194.228 431.906 190.227 431.43 185.477 432.411C180.727 433.391 176.667 435.544 173.296 438.848C169.922 442.157 168.227 445.658 168.21 449.352C168.193 453.047 169.897 455.683 173.323 457.645C176.748 459.606 180.752 460.115 185.338 459.165C189.924 458.216 193.901 456.085 197.276 452.78Z" fill="url(#paint30_linear_2212_265)"/>
</mask>
<g mask="url(#mask0_2212_265)">
<g style="mix-blend-mode:overlay">
<rect x="24" y="292" width="287" height="282" fill="#8875FF" fill-opacity="0.2"/>
</g>
</g>
<defs>
<linearGradient id="paint0_linear_2212_265" x1="172.786" y1="125.343" x2="322.229" y2="400.693" gradientUnits="userSpaceOnUse">
<stop stop-color="#C4AFFF"/>
<stop offset="0.619797" stop-color="#A180FF"/>
</linearGradient>
<linearGradient id="paint1_linear_2212_265" x1="324.612" y1="369.179" x2="-2.65579" y2="155.298" gradientUnits="userSpaceOnUse">
<stop stop-color="#6CE5FF" stop-opacity="0"/>
<stop offset="0.592264" stop-color="white" stop-opacity="0.5"/>
<stop offset="1" stop-color="#DAFFE4" stop-opacity="0"/>
</linearGradient>
<linearGradient id="paint2_linear_2212_265" x1="324.612" y1="369.179" x2="-2.65579" y2="155.298" gradientUnits="userSpaceOnUse">
<stop stop-color="#6CE5FF" stop-opacity="0"/>
<stop offset="0.592264" stop-color="white" stop-opacity="0.5"/>
<stop offset="1" stop-color="#DAFFE4" stop-opacity="0"/>
</linearGradient>
<linearGradient id="paint3_linear_2212_265" x1="276.541" y1="366.789" x2="393.259" y2="488.379" gradientUnits="userSpaceOnUse">
<stop stop-color="#6934FF"/>
<stop offset="1" stop-color="#9F7DFF"/>
</linearGradient>
<linearGradient id="paint4_linear_2212_265" x1="464.498" y1="416.697" x2="428.71" y2="357.651" gradientUnits="userSpaceOnUse">
<stop offset="0.190469" stop-color="#A788FF"/>
<stop offset="1" stop-color="#F1AAD5"/>
</linearGradient>
<linearGradient id="paint5_linear_2212_265" x1="82.8421" y1="375.788" x2="94.2495" y2="419.245" gradientUnits="userSpaceOnUse">
<stop stop-color="#B50B52"/>
<stop offset="1" stop-color="#5F1433"/>
</linearGradient>
<linearGradient id="paint6_linear_2212_265" x1="68.5605" y1="392.086" x2="80.8842" y2="423.455" gradientUnits="userSpaceOnUse">
<stop stop-color="#B50B52"/>
<stop offset="1" stop-color="#5F1433"/>
</linearGradient>
<linearGradient id="paint7_linear_2212_265" x1="68.5179" y1="392.473" x2="81.2871" y2="424.698" gradientUnits="userSpaceOnUse">
<stop stop-color="#B50B52"/>
<stop offset="1" stop-color="#5F1433"/>
</linearGradient>
<linearGradient id="paint8_linear_2212_265" x1="68.7864" y1="393.975" x2="81.5052" y2="425.983" gradientUnits="userSpaceOnUse">
<stop stop-color="#B50B52"/>
<stop offset="1" stop-color="#5F1433"/>
</linearGradient>
<linearGradient id="paint9_linear_2212_265" x1="69.1501" y1="395.186" x2="81.6539" y2="426.95" gradientUnits="userSpaceOnUse">
<stop stop-color="#B50B52"/>
<stop offset="1" stop-color="#5F1433"/>
</linearGradient>
<linearGradient id="paint10_linear_2212_265" x1="154.391" y1="378.125" x2="103.707" y2="462.311" gradientUnits="userSpaceOnUse">
<stop stop-color="#A6114F"/>
<stop offset="0.442584" stop-color="#FF68A7"/>
<stop offset="0.984965" stop-color="#A6114F"/>
</linearGradient>
<linearGradient id="paint11_linear_2212_265" x1="115.255" y1="363.455" x2="93.2842" y2="424.133" gradientUnits="userSpaceOnUse">
<stop stop-color="#FF70AB"/>
<stop offset="0.548095" stop-color="#FFCAE0"/>
<stop offset="1" stop-color="#FF70AB"/>
</linearGradient>
<linearGradient id="paint12_linear_2212_265" x1="186.852" y1="432.11" x2="199.267" y2="478.849" gradientUnits="userSpaceOnUse">
<stop stop-color="#B50B52"/>
<stop offset="1" stop-color="#5F1433"/>
</linearGradient>
<linearGradient id="paint13_linear_2212_265" x1="99.0732" y1="495.215" x2="113.194" y2="561.159" gradientUnits="userSpaceOnUse">
<stop stop-color="#B50B52"/>
<stop offset="1" stop-color="#B50B52" stop-opacity="0"/>
</linearGradient>
<linearGradient id="paint14_linear_2212_265" x1="149.001" y1="343.769" x2="138.504" y2="480.199" gradientUnits="userSpaceOnUse">
<stop stop-color="#FF559C"/>
<stop offset="0.548095" stop-color="#FFCAE0"/>
<stop offset="1" stop-color="#FF559C"/>
</linearGradient>
<linearGradient id="paint15_linear_2212_265" x1="163.063" y1="340.954" x2="128.539" y2="504.66" gradientUnits="userSpaceOnUse">
<stop stop-color="#DD1266" stop-opacity="0.95"/>
<stop offset="0.567703" stop-color="#FF8ABB"/>
<stop offset="1" stop-color="#DD1266" stop-opacity="0.95"/>
</linearGradient>
<linearGradient id="paint16_linear_2212_265" x1="258.668" y1="434.423" x2="207.868" y2="518.793" gradientUnits="userSpaceOnUse">
<stop stop-color="#A6114F"/>
<stop offset="0.442584" stop-color="#FF68A7"/>
<stop offset="0.984965" stop-color="#A6114F"/>
</linearGradient>
<linearGradient id="paint17_linear_2212_265" x1="219.509" y1="419.782" x2="197.483" y2="480.63" gradientUnits="userSpaceOnUse">
<stop stop-color="#FF70AB"/>
<stop offset="0.548095" stop-color="#FFCAE0"/>
<stop offset="1" stop-color="#FF70AB"/>
</linearGradient>
<linearGradient id="paint18_linear_2212_265" x1="82.8421" y1="375.788" x2="94.2495" y2="419.245" gradientUnits="userSpaceOnUse">
<stop stop-color="#B50B52"/>
<stop offset="1" stop-color="#5F1433"/>
</linearGradient>
<linearGradient id="paint19_linear_2212_265" x1="68.5605" y1="392.086" x2="80.8842" y2="423.455" gradientUnits="userSpaceOnUse">
<stop stop-color="#B50B52"/>
<stop offset="1" stop-color="#5F1433"/>
</linearGradient>
<linearGradient id="paint20_linear_2212_265" x1="68.5179" y1="392.473" x2="81.2871" y2="424.698" gradientUnits="userSpaceOnUse">
<stop stop-color="#B50B52"/>
<stop offset="1" stop-color="#5F1433"/>
</linearGradient>
<linearGradient id="paint21_linear_2212_265" x1="68.7864" y1="393.975" x2="81.5052" y2="425.983" gradientUnits="userSpaceOnUse">
<stop stop-color="#B50B52"/>
<stop offset="1" stop-color="#5F1433"/>
</linearGradient>
<linearGradient id="paint22_linear_2212_265" x1="69.1501" y1="395.186" x2="81.6539" y2="426.95" gradientUnits="userSpaceOnUse">
<stop stop-color="#B50B52"/>
<stop offset="1" stop-color="#5F1433"/>
</linearGradient>
<linearGradient id="paint23_linear_2212_265" x1="154.391" y1="378.125" x2="103.707" y2="462.311" gradientUnits="userSpaceOnUse">
<stop stop-color="#A6114F"/>
<stop offset="0.442584" stop-color="#FF68A7"/>
<stop offset="0.984965" stop-color="#A6114F"/>
</linearGradient>
<linearGradient id="paint24_linear_2212_265" x1="115.255" y1="363.455" x2="93.2842" y2="424.133" gradientUnits="userSpaceOnUse">
<stop stop-color="#FF70AB"/>
<stop offset="0.548095" stop-color="#FFCAE0"/>
<stop offset="1" stop-color="#FF70AB"/>
</linearGradient>
<linearGradient id="paint25_linear_2212_265" x1="186.852" y1="432.11" x2="199.267" y2="478.849" gradientUnits="userSpaceOnUse">
<stop stop-color="#B50B52"/>
<stop offset="1" stop-color="#5F1433"/>
</linearGradient>
<linearGradient id="paint26_linear_2212_265" x1="99.0732" y1="495.215" x2="113.194" y2="561.159" gradientUnits="userSpaceOnUse">
<stop stop-color="#B50B52"/>
<stop offset="1" stop-color="#B50B52" stop-opacity="0"/>
</linearGradient>
<linearGradient id="paint27_linear_2212_265" x1="149.001" y1="343.769" x2="138.504" y2="480.199" gradientUnits="userSpaceOnUse">
<stop stop-color="#FF559C"/>
<stop offset="0.548095" stop-color="#FFCAE0"/>
<stop offset="1" stop-color="#FF559C"/>
</linearGradient>
<linearGradient id="paint28_linear_2212_265" x1="163.063" y1="340.954" x2="128.539" y2="504.66" gradientUnits="userSpaceOnUse">
<stop stop-color="#DD1266" stop-opacity="0.95"/>
<stop offset="0.567703" stop-color="#FF8ABB"/>
<stop offset="1" stop-color="#DD1266" stop-opacity="0.95"/>
</linearGradient>
<linearGradient id="paint29_linear_2212_265" x1="258.668" y1="434.423" x2="207.868" y2="518.793" gradientUnits="userSpaceOnUse">
<stop stop-color="#A6114F"/>
<stop offset="0.442584" stop-color="#FF68A7"/>
<stop offset="0.984965" stop-color="#A6114F"/>
</linearGradient>
<linearGradient id="paint30_linear_2212_265" x1="219.509" y1="419.782" x2="197.483" y2="480.63" gradientUnits="userSpaceOnUse">
<stop stop-color="#FF70AB"/>
<stop offset="0.548095" stop-color="#FFCAE0"/>
<stop offset="1" stop-color="#FF70AB"/>
</linearGradient>
</defs>
</svg>
