<svg width="545" height="442" viewBox="0 0 545 442" fill="none" xmlns="http://www.w3.org/2000/svg">
<path d="M38.9301 245.083L118.611 155.88L217.314 315.594L137.634 404.797L38.9301 245.083Z" fill="#FF559C"/>
<path d="M177 114.963L299.8 104.521L323.239 293.799L200.439 304.241L177 114.963Z" fill="url(#paint0_linear_7498_841)"/>
<g style="mix-blend-mode:hard-light" filter="url(#filter0_f_7498_841)">
<path d="M247.017 92.644L298.776 87.66L322.215 276.938L203.585 176.854L247.017 92.644Z" fill="url(#paint1_linear_7498_841)"/>
</g>
<path d="M340.977 72.7034L464.127 65.3295L484.025 254.864L360.874 262.238L340.977 72.7034Z" fill="url(#paint2_linear_7498_841)"/>
<g style="mix-blend-mode:hard-light" filter="url(#filter1_f_7498_841)">
<path d="M340.977 86.7412L411.154 84.9466L512.654 196.676L361.833 262.066L340.977 86.7412Z" fill="url(#paint3_linear_7498_841)"/>
</g>
<path d="M234.469 91.1523L342.563 29.9999L423.717 201.382L315.623 262.534L234.469 91.1523Z" fill="url(#paint4_linear_7498_841)"/>
<path d="M40.2192 245.199L160.395 181.862L258.541 340.737L138.923 404.913L40.2192 245.199Z" fill="white"/>
<path d="M38.9268 245.083L159.102 181.745L257.806 341.459L137.63 404.797L38.9268 245.083Z" fill="url(#paint5_linear_7498_841)"/>
<defs>
<filter id="filter0_f_7498_841" x="195.584" y="79.6602" width="134.63" height="205.278" filterUnits="userSpaceOnUse" color-interpolation-filters="sRGB">
<feFlood flood-opacity="0" result="BackgroundImageFix"/>
<feBlend mode="normal" in="SourceGraphic" in2="BackgroundImageFix" result="shape"/>
<feGaussianBlur stdDeviation="4" result="effect1_foregroundBlur_7498_841"/>
</filter>
<filter id="filter1_f_7498_841" x="332.977" y="76.9465" width="187.678" height="193.119" filterUnits="userSpaceOnUse" color-interpolation-filters="sRGB">
<feFlood flood-opacity="0" result="BackgroundImageFix"/>
<feBlend mode="normal" in="SourceGraphic" in2="BackgroundImageFix" result="shape"/>
<feGaussianBlur stdDeviation="4" result="effect1_foregroundBlur_7498_841"/>
</filter>
<linearGradient id="paint0_linear_7498_841" x1="180.438" y1="144.24" x2="323.004" y2="212.961" gradientUnits="userSpaceOnUse">
<stop stop-color="#EFEFEF"/>
<stop offset="1" stop-color="white"/>
</linearGradient>
<linearGradient id="paint1_linear_7498_841" x1="376.782" y1="297.658" x2="301.193" y2="122.596" gradientUnits="userSpaceOnUse">
<stop stop-color="#3E3E3E"/>
<stop offset="1" stop-color="#4B4B4B" stop-opacity="0"/>
</linearGradient>
<linearGradient id="paint2_linear_7498_841" x1="418.511" y1="-132.378" x2="596.234" y2="176.492" gradientUnits="userSpaceOnUse">
<stop stop-color="#EFEFEF"/>
<stop offset="1" stop-color="white"/>
</linearGradient>
<linearGradient id="paint3_linear_7498_841" x1="336.345" y1="224.186" x2="441.346" y2="207.913" gradientUnits="userSpaceOnUse">
<stop stop-color="#4B4B4B"/>
<stop offset="1" stop-color="#4B4B4B" stop-opacity="0"/>
</linearGradient>
<linearGradient id="paint4_linear_7498_841" x1="246.852" y1="117.738" x2="396.955" y2="133.406" gradientUnits="userSpaceOnUse">
<stop stop-color="#EFEFEF"/>
<stop offset="1" stop-color="white"/>
</linearGradient>
<linearGradient id="paint5_linear_7498_841" x1="178.234" y1="118.895" x2="76.9098" y2="399.5" gradientUnits="userSpaceOnUse">
<stop/>
<stop offset="0.578125" stop-color="#2A6484"/>
<stop offset="1" stop-color="#FF008A"/>
</linearGradient>
</defs>
</svg>
