<svg width="235" height="152" viewBox="0 0 235 152" fill="none" xmlns="http://www.w3.org/2000/svg">
<mask id="path-1-inside-1_7498_1413" fill="white">
<path fill-rule="evenodd" clip-rule="evenodd" d="M24 0C10.7452 0 0 10.7452 0 24V92C0 105.255 10.7452 116 24 116H125.005C129.948 129.034 140.903 140.197 157.223 146.965C162.373 149.101 167.785 150.685 173.35 151.746C159.698 142.895 151.951 130.023 150.846 116H211C224.255 116 235 105.255 235 92V24C235 10.7452 224.255 0 211 0H24Z"/>
</mask>
<path fill-rule="evenodd" clip-rule="evenodd" d="M24 0C10.7452 0 0 10.7452 0 24V92C0 105.255 10.7452 116 24 116H125.005C129.948 129.034 140.903 140.197 157.223 146.965C162.373 149.101 167.785 150.685 173.35 151.746C159.698 142.895 151.951 130.023 150.846 116H211C224.255 116 235 105.255 235 92V24C235 10.7452 224.255 0 211 0H24Z" fill="white"/>
<path d="M125.005 116L126.875 115.291L126.386 114H125.005V116ZM157.223 146.965L157.989 145.117L157.223 146.965ZM173.35 151.746L172.976 153.71L174.438 150.067L173.35 151.746ZM150.846 116V114H148.682L148.852 116.157L150.846 116ZM2 24C2 11.8497 11.8497 2 24 2V-2C9.6406 -2 -2 9.6406 -2 24H2ZM2 92V24H-2V92H2ZM24 114C11.8497 114 2 104.15 2 92H-2C-2 106.359 9.6406 118 24 118V114ZM125.005 114H24V118H125.005V114ZM123.135 116.709C128.301 130.331 139.704 141.865 156.457 148.812L157.989 145.117C142.102 138.529 131.596 127.737 126.875 115.291L123.135 116.709ZM156.457 148.812C161.742 151.004 167.285 152.626 172.976 153.71L173.725 149.781C168.284 148.745 163.005 147.198 157.989 145.117L156.457 148.812ZM174.438 150.067C161.258 141.523 153.892 129.189 152.84 115.843L148.852 116.157C150.011 130.857 158.137 144.267 172.263 153.424L174.438 150.067ZM211 114H150.846V118H211V114ZM233 92C233 104.15 223.15 114 211 114V118C225.359 118 237 106.359 237 92H233ZM233 24V92H237V24H233ZM211 2C223.15 2 233 11.8497 233 24H237C237 9.6406 225.359 -2 211 -2V2ZM24 2H211V-2H24V2Z" fill="black" mask="url(#path-1-inside-1_7498_1413)"/>
<path d="M34.8219 27.4H33.1899V32.328H27.0939V27.4H25.4619V39H27.0939V33.736H33.1899V39H34.8219V27.4ZM36.8353 36.728C36.8353 38.312 38.1793 39.208 39.7953 39.208C41.3153 39.208 42.2113 38.696 42.7393 37.816C42.7553 38.328 42.8033 38.68 42.8513 39H44.3233C44.1633 38.184 44.0833 37.192 44.0993 35.752L44.1153 33.768C44.1313 31.352 43.0593 30.216 40.6913 30.216C39.0113 30.216 37.3793 31.256 37.2353 33.112H38.7393C38.8033 32.056 39.5073 31.4 40.7073 31.4C41.7793 31.4 42.6593 31.928 42.6593 33.496V33.704C39.1233 34.104 36.8353 34.696 36.8353 36.728ZM42.7713 34.856V35.4C42.7713 37.432 41.4753 38.056 40.1153 38.056C39.0753 38.056 38.4513 37.512 38.4513 36.696C38.4513 35.512 40.1313 35.128 42.7713 34.856ZM49.0067 36.984L46.6707 30.392H45.0547L48.3027 39H49.5987L52.8467 30.392H51.3427L49.0067 36.984ZM54.8233 35.176H61.4473C61.6393 32.456 60.0553 30.248 57.4313 30.248C55.0793 30.248 53.2553 31.992 53.2553 34.712C53.2553 37.256 54.7593 39.208 57.4793 39.208C59.5753 39.208 60.9353 37.992 61.3353 36.504H59.8313C59.4633 37.352 58.7593 37.928 57.4793 37.928C56.1993 37.928 54.8873 37.032 54.8233 35.176ZM54.8393 33.928C54.9673 32.2 56.1353 31.496 57.4313 31.496C58.9673 31.496 59.8793 32.712 59.9113 33.928H54.8393ZM73.2451 30.392H71.7251L69.5971 37.032L67.4051 30.392H65.7891L68.8931 39L68.8291 39.176C68.4451 40.52 67.9811 40.584 67.0211 40.584H66.4291V41.8H67.1811C69.1011 41.8 69.5491 41.24 70.1731 39.368L73.2451 30.392ZM81.9339 34.728C81.9339 31.608 79.8059 30.248 77.8059 30.248C75.8059 30.248 73.6779 31.608 73.6779 34.728C73.6779 37.848 75.8059 39.208 77.8059 39.208C79.8059 39.208 81.9339 37.848 81.9339 34.728ZM77.8059 37.928C76.4939 37.928 75.2299 37.016 75.2299 34.728C75.2299 32.376 76.4939 31.528 77.8059 31.528C79.1179 31.528 80.3819 32.44 80.3819 34.728C80.3819 36.936 79.1179 37.928 77.8059 37.928ZM89.0034 37.768V39H90.4594V30.392H89.0034V35.128C89.0034 36.968 88.1874 37.944 86.8114 37.944C85.2274 37.944 85.0034 36.792 85.0034 35.464V30.392H83.5474V35.896C83.5474 37.864 84.2994 39.208 86.2994 39.208C87.7234 39.208 88.5074 38.584 89.0034 37.768ZM98.0221 31.688V27.4H96.5661V39H98.0221V34.328C98.0221 32.488 98.8861 31.512 100.294 31.512C101.958 31.512 102.182 32.664 102.182 33.992V39H103.638V33.56C103.638 31.592 102.886 30.248 100.806 30.248C99.3501 30.248 98.5181 30.872 98.0221 31.688ZM106.792 35.176H113.416C113.608 32.456 112.024 30.248 109.4 30.248C107.048 30.248 105.224 31.992 105.224 34.712C105.224 37.256 106.728 39.208 109.448 39.208C111.544 39.208 112.904 37.992 113.304 36.504H111.8C111.432 37.352 110.728 37.928 109.448 37.928C108.168 37.928 106.856 37.032 106.792 35.176ZM106.808 33.928C106.936 32.2 108.104 31.496 109.4 31.496C110.936 31.496 111.848 32.712 111.88 33.928H106.808ZM114.523 36.728C114.523 38.312 115.867 39.208 117.483 39.208C119.003 39.208 119.899 38.696 120.427 37.816C120.443 38.328 120.491 38.68 120.539 39H122.011C121.851 38.184 121.771 37.192 121.787 35.752L121.803 33.768C121.819 31.352 120.747 30.216 118.379 30.216C116.699 30.216 115.067 31.256 114.923 33.112H116.427C116.491 32.056 117.195 31.4 118.395 31.4C119.467 31.4 120.347 31.928 120.347 33.496V33.704C116.811 34.104 114.523 34.696 114.523 36.728ZM120.459 34.856V35.4C120.459 37.432 119.163 38.056 117.803 38.056C116.763 38.056 116.139 37.512 116.139 36.696C116.139 35.512 117.819 35.128 120.459 34.856ZM128.26 31.912V30.36C128.1 30.344 127.972 30.344 127.828 30.344C126.708 30.376 125.828 30.92 125.396 31.896V30.392H123.972V39H125.428V34.488C125.428 32.6 126.1 31.848 127.444 31.848C127.684 31.848 127.956 31.88 128.26 31.912ZM135.408 27.4V31.752C134.88 30.84 133.968 30.248 132.592 30.248C130.624 30.248 128.912 31.896 128.912 34.728C128.912 37.576 130.624 39.208 132.592 39.208C133.968 39.208 134.88 38.616 135.408 37.704V39H136.864V27.4H135.408ZM132.96 31.496C134.256 31.496 135.472 32.456 135.472 34.728C135.472 37 134.256 37.96 132.96 37.96C131.472 37.96 130.496 36.776 130.496 34.728C130.496 32.68 131.472 31.496 132.96 31.496ZM142.445 36.728C142.445 38.312 143.789 39.208 145.405 39.208C146.925 39.208 147.821 38.696 148.349 37.816C148.365 38.328 148.413 38.68 148.461 39H149.933C149.773 38.184 149.693 37.192 149.709 35.752L149.725 33.768C149.741 31.352 148.669 30.216 146.301 30.216C144.621 30.216 142.989 31.256 142.845 33.112H144.349C144.413 32.056 145.117 31.4 146.317 31.4C147.389 31.4 148.269 31.928 148.269 33.496V33.704C144.733 34.104 142.445 34.696 142.445 36.728ZM148.381 34.856V35.4C148.381 37.432 147.085 38.056 145.725 38.056C144.685 38.056 144.061 37.512 144.061 36.696C144.061 35.512 145.741 35.128 148.381 34.856ZM153.35 27.4H151.894V39H153.35V37.704C153.878 38.616 154.79 39.208 156.166 39.208C158.134 39.208 159.846 37.576 159.846 34.728C159.846 31.896 158.134 30.248 156.166 30.248C154.79 30.248 153.878 30.84 153.35 31.752V27.4ZM155.798 37.96C154.502 37.96 153.286 37 153.286 34.728C153.286 32.456 154.502 31.496 155.798 31.496C157.286 31.496 158.262 32.68 158.262 34.728C158.262 36.776 157.286 37.96 155.798 37.96ZM169.325 34.728C169.325 31.608 167.197 30.248 165.197 30.248C163.197 30.248 161.069 31.608 161.069 34.728C161.069 37.848 163.197 39.208 165.197 39.208C167.197 39.208 169.325 37.848 169.325 34.728ZM165.197 37.928C163.885 37.928 162.621 37.016 162.621 34.728C162.621 32.376 163.885 31.528 165.197 31.528C166.509 31.528 167.773 32.44 167.773 34.728C167.773 36.936 166.509 37.928 165.197 37.928ZM176.394 37.768V39H177.85V30.392H176.394V35.128C176.394 36.968 175.578 37.944 174.202 37.944C172.618 37.944 172.394 36.792 172.394 35.464V30.392H170.938V35.896C170.938 37.864 171.69 39.208 173.69 39.208C175.114 39.208 175.898 38.584 176.394 37.768ZM180.576 28.232V30.392H179.216V31.56H180.576V36.84C180.576 38.632 180.96 39 182.608 39H183.664V37.784H182.928C182.096 37.784 182.032 37.56 182.032 36.664V31.56H183.664V30.392H182.032V28.232H180.576ZM189.576 28.232V30.392H188.216V31.56H189.576V36.84C189.576 38.632 189.96 39 191.608 39H192.664V37.784H191.928C191.096 37.784 191.032 37.56 191.032 36.664V31.56H192.664V30.392H191.032V28.232H189.576ZM195.975 31.688V27.4H194.519V39H195.975V34.328C195.975 32.488 196.839 31.512 198.247 31.512C199.911 31.512 200.135 32.664 200.135 33.992V39H201.591V33.56C201.591 31.592 200.839 30.248 198.759 30.248C197.303 30.248 196.471 30.872 195.975 31.688ZM204.745 35.176H211.369C211.561 32.456 209.977 30.248 207.353 30.248C205.001 30.248 203.177 31.992 203.177 34.712C203.177 37.256 204.681 39.208 207.401 39.208C209.497 39.208 210.857 37.992 211.257 36.504H209.753C209.385 37.352 208.681 37.928 207.401 37.928C206.121 37.928 204.809 37.032 204.745 35.176ZM204.761 33.928C204.889 32.2 206.057 31.496 207.353 31.496C208.889 31.496 209.801 32.712 209.833 33.928H204.761ZM35.1244 60.728C35.1244 62.312 36.4684 63.208 38.0844 63.208C39.6044 63.208 40.5004 62.696 41.0284 61.816C41.0444 62.328 41.0924 62.68 41.1404 63H42.6124C42.4524 62.184 42.3724 61.192 42.3884 59.752L42.4044 57.768C42.4204 55.352 41.3484 54.216 38.9804 54.216C37.3004 54.216 35.6684 55.256 35.5244 57.112H37.0284C37.0924 56.056 37.7964 55.4 38.9964 55.4C40.0684 55.4 40.9484 55.928 40.9484 57.496V57.704C37.4124 58.104 35.1244 58.696 35.1244 60.728ZM41.0604 58.856V59.4C41.0604 61.432 39.7644 62.056 38.4044 62.056C37.3644 62.056 36.7404 61.512 36.7404 60.696C36.7404 59.512 38.4204 59.128 41.0604 58.856ZM51.7419 57.272C51.5499 55.816 50.2219 54.248 48.1419 54.248C45.5979 54.248 43.9819 56.152 43.9819 58.712C43.9819 61.336 45.5339 63.208 47.9979 63.208C49.9979 63.208 51.5499 61.816 51.8379 60.2H50.3339C50.1259 61.112 49.2619 61.928 48.0459 61.928C46.7659 61.928 45.5659 60.888 45.5659 58.696C45.5659 56.536 46.7499 55.528 48.0459 55.528C49.1659 55.528 50.0619 56.248 50.2699 57.272H51.7419ZM60.7263 57.272C60.5343 55.816 59.2063 54.248 57.1263 54.248C54.5823 54.248 52.9663 56.152 52.9663 58.712C52.9663 61.336 54.5182 63.208 56.9823 63.208C58.9823 63.208 60.5343 61.816 60.8223 60.2H59.3183C59.1103 61.112 58.2463 61.928 57.0303 61.928C55.7503 61.928 54.5503 60.888 54.5503 58.696C54.5503 56.536 55.7343 55.528 57.0303 55.528C58.1503 55.528 59.0463 56.248 59.2543 57.272H60.7263ZM70.2386 58.728C70.2386 55.608 68.1106 54.248 66.1106 54.248C64.1106 54.248 61.9826 55.608 61.9826 58.728C61.9826 61.848 64.1106 63.208 66.1106 63.208C68.1106 63.208 70.2386 61.848 70.2386 58.728ZM66.1106 61.928C64.7986 61.928 63.5346 61.016 63.5346 58.728C63.5346 56.376 64.7986 55.528 66.1106 55.528C67.4226 55.528 68.6866 56.44 68.6866 58.728C68.6866 60.936 67.4226 61.928 66.1106 61.928ZM77.3081 61.768V63H78.7641V54.392H77.3081V59.128C77.3081 60.968 76.4921 61.944 75.1161 61.944C73.5321 61.944 73.3081 60.792 73.3081 59.464V54.392H71.8521V59.896C71.8521 61.864 72.6041 63.208 74.6041 63.208C76.0281 63.208 76.8121 62.584 77.3081 61.768ZM82.5299 55.688V54.392H81.0739V63H82.5299V58.328C82.5299 56.488 83.3939 55.512 84.8019 55.512C86.4659 55.512 86.6899 56.664 86.6899 57.992V63H88.1459V57.56C88.1459 55.592 87.3939 54.248 85.3139 54.248C83.8579 54.248 83.0259 54.872 82.5299 55.688ZM90.7399 52.232V54.392H89.3799V55.56H90.7399V60.84C90.7399 62.632 91.1239 63 92.7719 63H93.8279V61.784H93.0919C92.2599 61.784 92.1959 61.56 92.1959 60.664V55.56H93.8279V54.392H92.1959V52.232H90.7399ZM95.015 60.728C95.015 62.312 96.359 63.208 97.975 63.208C99.495 63.208 100.391 62.696 100.919 61.816C100.935 62.328 100.983 62.68 101.031 63H102.503C102.343 62.184 102.263 61.192 102.279 59.752L102.295 57.768C102.311 55.352 101.239 54.216 98.871 54.216C97.191 54.216 95.559 55.256 95.415 57.112H96.919C96.983 56.056 97.687 55.4 98.887 55.4C99.959 55.4 100.839 55.928 100.839 57.496V57.704C97.303 58.104 95.015 58.696 95.015 60.728ZM100.951 58.856V59.4C100.951 61.432 99.655 62.056 98.295 62.056C97.255 62.056 96.631 61.512 96.631 60.696C96.631 59.512 98.311 59.128 100.951 58.856ZM105.921 55.688V54.392H104.465V63H105.921V58.328C105.921 56.488 106.785 55.512 108.193 55.512C109.857 55.512 110.081 56.664 110.081 57.992V63H111.536V57.56C111.536 55.592 110.785 54.248 108.705 54.248C107.249 54.248 106.417 54.872 105.921 55.688ZM114.131 52.232V54.392H112.771V55.56H114.131V60.84C114.131 62.632 114.515 63 116.163 63H117.219V61.784H116.483C115.651 61.784 115.587 61.56 115.587 60.664V55.56H117.219V54.392H115.587V52.232H114.131ZM126.571 54.392L124.859 60.76L123.211 54.392H121.643L124.123 63H125.451L127.291 56.072L129.195 63H130.523L133.003 54.392H131.435L129.786 60.76L128.075 54.392H126.571ZM135.686 55.688V51.4H134.23V63H135.686V58.328C135.686 56.488 136.55 55.512 137.958 55.512C139.622 55.512 139.846 56.664 139.846 57.992V63H141.302V57.56C141.302 55.592 140.55 54.248 138.47 54.248C137.014 54.248 136.182 54.872 135.686 55.688ZM151.176 58.728C151.176 55.608 149.048 54.248 147.048 54.248C145.048 54.248 142.92 55.608 142.92 58.728C142.92 61.848 145.048 63.208 147.048 63.208C149.048 63.208 151.176 61.848 151.176 58.728ZM147.048 61.928C145.736 61.928 144.472 61.016 144.472 58.728C144.472 56.376 145.736 55.528 147.048 55.528C148.36 55.528 149.624 56.44 149.624 58.728C149.624 60.936 148.36 61.928 147.048 61.928ZM152.087 51.4V53.24H152.871L152.023 55.464H152.951L153.927 53.368V51.4H152.087ZM160.252 56.904H161.772C161.5 55.272 160.236 54.232 158.38 54.232C156.476 54.232 154.94 55.112 154.94 56.632C154.94 58.232 156.22 58.776 157.388 59.016L158.668 59.272C159.596 59.464 160.412 59.832 160.412 60.696C160.412 61.496 159.516 61.976 158.412 61.976C157.132 61.976 156.444 61.32 156.22 60.216H154.684C154.844 61.72 156.124 63.208 158.38 63.208C160.348 63.208 161.884 62.232 161.884 60.536C161.884 58.872 160.508 58.28 158.94 57.976L157.724 57.736C156.892 57.576 156.412 57.256 156.412 56.568C156.412 55.784 157.372 55.48 158.22 55.48C159.228 55.48 160.028 55.88 160.252 56.904ZM167.895 53.768V54.392H166.695V55.56H167.895V63H169.351V55.56H170.967V54.392H169.351V53.688C169.351 52.792 169.479 52.616 170.247 52.616H170.967V51.4H170.215C168.263 51.4 167.895 51.976 167.895 53.768ZM177.871 61.768V63H179.327V54.392H177.871V59.128C177.871 60.968 177.055 61.944 175.679 61.944C174.095 61.944 173.871 60.792 173.871 59.464V54.392H172.415V59.896C172.415 61.864 173.167 63.208 175.167 63.208C176.591 63.208 177.375 62.584 177.871 61.768ZM183.092 55.688V54.392H181.636V63H183.092V58.328C183.092 56.488 183.956 55.512 185.364 55.512C187.028 55.512 187.252 56.664 187.252 57.992V63H188.708V57.56C188.708 55.592 187.956 54.248 185.876 54.248C184.42 54.248 183.588 54.872 183.092 55.688ZM197.478 54.008C197.478 52.072 195.67 51.192 193.862 51.192C191.59 51.192 189.958 52.552 189.942 54.632H191.398C191.462 53.656 192.038 52.408 193.83 52.408C195.062 52.408 195.958 53.064 195.958 54.072C195.958 55.112 195.302 55.752 194.47 56.28C193.142 57.128 192.486 57.72 192.486 59.064V59.608H193.974V59.112C193.974 58.232 194.326 57.944 195.318 57.304C196.406 56.6 197.478 55.528 197.478 54.008ZM192.342 63H194.182V61.16H192.342V63ZM84.6377 87H86.3657L89.5657 76.888V87H91.1977V75.4H88.4617L85.5017 85.064L82.5417 75.4H79.8057V87H81.4377V76.888L84.6377 87ZM94.6983 83.176H101.322C101.514 80.456 99.9303 78.248 97.3063 78.248C94.9543 78.248 93.1303 79.992 93.1303 82.712C93.1303 85.256 94.6343 87.208 97.3543 87.208C99.4503 87.208 100.81 85.992 101.21 84.504H99.7063C99.3383 85.352 98.6343 85.928 97.3543 85.928C96.0743 85.928 94.7623 85.032 94.6983 83.176ZM94.7143 81.928C94.8423 80.2 96.0103 79.496 97.3063 79.496C98.8423 79.496 99.7543 80.712 99.7863 81.928H94.7143ZM108.272 79.688V78.392H106.816V87H108.272V82.328C108.272 80.488 109.136 79.512 110.544 79.512C112.208 79.512 112.432 80.664 112.432 81.992V87H113.888V81.56C113.888 79.592 113.136 78.248 111.056 78.248C109.6 78.248 108.768 78.872 108.272 79.688ZM117.042 83.176H123.666C123.858 80.456 122.274 78.248 119.65 78.248C117.298 78.248 115.474 79.992 115.474 82.712C115.474 85.256 116.978 87.208 119.698 87.208C121.794 87.208 123.154 85.992 123.554 84.504H122.05C121.682 85.352 120.978 85.928 119.698 85.928C118.418 85.928 117.106 85.032 117.042 83.176ZM117.058 81.928C117.186 80.2 118.354 79.496 119.65 79.496C121.186 79.496 122.098 80.712 122.13 81.928H117.058ZM126.819 75.4H125.363V77.16H126.819V75.4ZM126.819 78.392H125.363V87H126.819V78.392ZM129.545 76.232V78.392H128.185V79.56H129.545V84.84C129.545 86.632 129.929 87 131.577 87H132.633V85.784H131.897C131.065 85.784 131.001 85.56 131.001 84.664V79.56H132.633V78.392H131.001V76.232H129.545ZM135.944 79.688V75.4H134.488V87H135.944V82.328C135.944 80.488 136.808 79.512 138.216 79.512C139.88 79.512 140.104 80.664 140.104 81.992V87H141.56V81.56C141.56 79.592 140.808 78.248 138.728 78.248C137.272 78.248 136.44 78.872 135.944 79.688ZM144.714 83.176H151.338C151.53 80.456 149.946 78.248 147.322 78.248C144.97 78.248 143.146 79.992 143.146 82.712C143.146 85.256 144.65 87.208 147.37 87.208C149.466 87.208 150.826 85.992 151.226 84.504H149.722C149.354 85.352 148.65 85.928 147.37 85.928C146.09 85.928 144.778 85.032 144.714 83.176ZM144.73 81.928C144.858 80.2 146.026 79.496 147.322 79.496C148.858 79.496 149.77 80.712 149.802 81.928H144.73ZM157.323 79.912V78.36C157.163 78.344 157.035 78.344 156.891 78.344C155.771 78.376 154.891 78.92 154.459 79.896V78.392H153.035V87H154.491V82.488C154.491 80.6 155.163 79.848 156.507 79.848C156.747 79.848 157.019 79.88 157.323 79.912Z" fill="black"/>
</svg>
