<svg width="456" height="180" viewBox="0 0 456 180" fill="none" xmlns="http://www.w3.org/2000/svg">
<path fill-rule="evenodd" clip-rule="evenodd" d="M154.265 28.3587C153.717 20.9739 153.394 16.6204 165 11.5L203 9L214 23.5L219 21.5L223 22.5L225 26V32.5L220 44.5L224.5 54L229 61L233.5 64.5L240 66L251.5 62.5L265 50.5L280.5 46L295 48L307 55L339.5 92.5L358 108L379 121L399 134L407 146.5V160.5L399 172.5L390.5 178H354L349.5 175L342.5 173.5L328.5 172.5L322 171.5L319 167L302 175L299.5 172.5L310 162.5L294.5 170.5L292.5 178H72L65 168.5H75.5L72 152L74 139.5L85 126L110.5 110L132 96L150.5 77L160 70.5L170 68L159 55.5L154 41C154.823 35.8774 154.52 31.7907 154.265 28.3587ZM169 122.5V144L139 142L155.5 133.5L169 122.5ZM288.5 95.5L294.5 127.5L296.5 129L302 124L288.5 95.5Z" fill="#F8F8F8"/>
<path fill-rule="evenodd" clip-rule="evenodd" d="M219.419 41.6019C219.936 41.406 220.513 41.6659 220.709 42.1822C220.792 42.4002 220.882 42.6423 220.981 42.906C222.018 45.6695 223.945 50.8058 226.742 55.4613C228.273 58.0095 230.037 60.3653 232.018 62.095C233.994 63.8216 236.133 64.8793 238.438 64.9548C246.746 65.2272 252.064 60.8833 258.302 55.2538C262.726 51.2604 267.115 48.7138 271.956 47.2866C276.786 45.8624 282.008 45.5706 288.071 46.0028C300.507 46.8894 309.275 54.6531 318.777 66.6568C319.906 68.0826 321.039 69.5323 322.185 70.9986C330.694 81.8847 339.916 93.6846 353.358 103.388C359.798 108.036 367.448 112.788 374.871 117.397C377.307 118.911 379.719 120.408 382.055 121.882C386.768 124.856 391.172 127.732 394.816 130.423C398.442 133.101 401.39 135.65 403.129 137.981C407.337 143.622 409.045 152.004 407.233 159.912C405.412 167.864 400.025 175.368 390.034 179.169C389.518 179.366 388.94 179.107 388.744 178.59C388.547 178.074 388.807 177.497 389.323 177.3C398.647 173.752 403.601 166.812 405.284 159.466C406.977 152.076 405.351 144.305 401.526 139.177C399.973 137.095 397.227 134.69 393.628 132.031C390.046 129.386 385.693 126.542 380.988 123.574C378.681 122.118 376.289 120.633 373.864 119.127C366.428 114.508 358.689 109.702 352.188 105.009C338.5 95.1287 329.099 83.0967 320.601 72.2208C319.457 70.7563 318.329 69.3127 317.209 67.8982C307.768 55.9718 299.468 48.8204 287.928 47.9977C282.003 47.5753 277.042 47.8721 272.521 49.2049C268.011 50.5347 263.88 52.9133 259.642 56.7385C253.421 62.3526 247.561 67.255 238.373 66.9538C235.465 66.8584 232.902 65.5231 230.702 63.6014C228.505 61.6828 226.616 59.135 225.028 56.4913C222.13 51.6687 220.142 46.3657 219.109 43.6104C219.01 43.3465 218.92 43.106 218.839 42.8915C218.643 42.3752 218.903 41.7978 219.419 41.6019Z" fill="#1D1D1B"/>
<path d="M207.091 51.9516C204.411 63.1304 196.931 71.3693 187.947 72.9145C180.234 74.2477 173.917 70.1796 170.854 68.2447C158.622 60.4092 155.737 46.4955 154.786 41.9214C153.562 35.9234 153.386 29.7584 154.267 23.7003C154.294 23.5154 154.342 23.3341 154.41 23.1602" stroke="#1D1D1B" stroke-width="2" stroke-miterlimit="10" stroke-linecap="round" stroke-linejoin="round"/>
<path d="M154.417 23.1465C154.369 23.3313 154.321 23.5161 154.273 23.6873" stroke="#1D1D1B" stroke-width="2" stroke-miterlimit="10" stroke-linecap="round" stroke-linejoin="round"/>
<path fill-rule="evenodd" clip-rule="evenodd" d="M221.975 91.5427C222.373 91.4348 222.797 91.5825 223.042 91.9146C224.381 93.7316 226.382 96.5366 228.63 100.074L228.63 100.074C231.445 104.508 238.504 116.519 247.556 143.02C250.16 150.631 253.556 161.304 256.471 173.646C256.541 173.943 256.472 174.256 256.283 174.495C256.094 174.735 255.805 174.875 255.5 174.876L225.16 174.961C224.675 174.963 224.259 174.616 224.173 174.139C220.355 152.96 218.982 133.244 219.828 111.74L219.828 111.74C220.093 105.04 220.585 98.5966 221.242 92.4024C221.286 91.9921 221.577 91.6506 221.975 91.5427ZM222.966 95.224C222.445 100.572 222.053 106.101 221.827 111.819L220.828 111.779L221.827 111.819C220.997 132.898 222.313 152.236 225.994 172.959L254.232 172.879C251.404 161.14 248.168 150.987 245.664 143.667L245.663 143.667C236.658 117.301 229.664 105.434 226.942 101.147M222.966 95.224C224.103 96.8299 225.468 98.8287 226.941 101.146L222.966 95.224Z" fill="#1D1D1B"/>
<path fill-rule="evenodd" clip-rule="evenodd" d="M250.739 174.978C242.391 174.87 234.376 174.766 223.979 174.982L223.976 174.982C223.721 174.986 223.53 174.99 223.385 174.992L223.128 177.119H283.975L283.27 175.724C273.187 175.443 262.399 175.183 251.059 174.982C251.058 174.982 251.057 174.982 251.057 174.982L250.739 174.978ZM250.757 172.978L251.092 172.982C262.665 173.187 273.662 173.454 283.921 173.741C284.288 173.752 284.619 173.962 284.785 174.289L286.494 177.667C286.651 177.977 286.636 178.346 286.454 178.642C286.272 178.938 285.95 179.119 285.602 179.119H222C221.714 179.119 221.441 178.996 221.251 178.782C221.062 178.568 220.973 178.283 221.007 177.999L221.507 173.862C221.568 173.36 221.994 172.982 222.5 172.982C222.717 172.982 222.836 172.984 222.913 172.987C222.957 172.988 222.988 172.99 223.015 172.992C223.026 172.993 223.031 172.993 223.033 172.994C223.041 172.994 223.077 172.995 223.199 172.994C223.335 172.992 223.558 172.989 223.939 172.982C234.369 172.766 242.412 172.87 250.757 172.978Z" fill="#1D1D1B"/>
<path fill-rule="evenodd" clip-rule="evenodd" d="M286.161 86.5936L285.239 86.9785L284.295 87.3098C284.116 86.7992 284.375 86.2387 284.88 86.0449C285.385 85.851 285.953 86.0942 286.161 86.5936ZM287.739 90.8797C287.416 89.9322 287.13 89.133 286.893 88.4911C286.666 87.875 286.484 87.4036 286.359 87.0848C286.296 86.9254 286.247 86.8041 286.214 86.7219C286.197 86.6808 286.185 86.6495 286.176 86.628L286.166 86.6033L286.162 86.5946C286.162 86.594 286.161 86.5936 285.239 86.9785C284.295 87.3098 284.295 87.3093 284.295 87.3098L284.307 87.3445L284.342 87.4441C284.374 87.5317 284.42 87.6612 284.48 87.8296C284.601 88.1665 284.779 88.6594 285.009 89.2852C285.241 89.9153 285.525 90.6802 285.857 91.5565C286.146 92.4056 286.467 93.3763 286.809 94.4622C288.254 99.0519 290.086 105.696 291.627 113.893C294.709 130.293 296.619 152.886 291.948 177.687C291.845 178.23 292.203 178.753 292.745 178.855C293.288 178.957 293.811 178.6 293.913 178.057C298.643 152.947 296.707 130.093 293.593 113.524C293.168 111.265 292.722 109.123 292.267 107.107C292.696 108.058 293.136 109.014 293.585 109.968C296.21 115.545 299.165 121.095 302.099 125.104C303.563 127.105 305.06 128.775 306.551 129.869C308.033 130.955 309.664 131.581 311.303 131.15C311.838 131.009 312.157 130.462 312.016 129.928C311.875 129.394 311.329 129.075 310.794 129.216C309.998 129.425 308.996 129.182 307.734 128.256C306.482 127.337 305.125 125.853 303.713 123.923C300.894 120.072 298.005 114.661 295.395 109.116C292.791 103.583 290.487 97.9649 288.833 93.7262C288.427 92.6866 288.061 91.7305 287.739 90.8797Z" fill="#1D1D1B"/>
<path fill-rule="evenodd" clip-rule="evenodd" d="M122.885 166.692C123.209 166.688 123.515 166.841 123.706 167.103L128.247 173.343L148.441 172.238C148.987 172.208 149.456 172.622 149.494 173.167L149.835 178.097C149.855 178.374 149.758 178.646 149.569 178.848C149.38 179.051 149.115 179.166 148.838 179.166H71.3724C71.0503 179.166 70.7478 179.011 70.56 178.749L63.5861 169.034C63.3687 168.731 63.3378 168.332 63.5058 168C63.6738 167.667 64.0128 167.455 64.3855 167.451L122.885 166.692ZM66.3293 169.426L71.8855 177.166H147.766L147.567 174.289L127.813 175.37C127.475 175.389 127.15 175.234 126.95 174.96L122.393 168.698L66.3293 169.426Z" fill="#1D1D1B"/>
<path fill-rule="evenodd" clip-rule="evenodd" d="M118.364 168.364C118.715 168.012 119.285 168.012 119.636 168.364C119.753 168.48 119.887 168.606 120.042 168.751L120.051 168.759C120.2 168.898 120.365 169.051 120.526 169.211C120.849 169.529 121.212 169.92 121.467 170.357C121.466 170.357 121.467 170.357 121.467 170.357C121.468 170.359 121.481 170.38 121.524 170.426C121.564 170.471 121.609 170.515 121.673 170.579C121.682 170.588 121.691 170.597 121.701 170.606C121.771 170.676 121.866 170.771 121.954 170.875C122.041 170.979 122.15 171.124 122.231 171.306C122.264 171.381 122.348 171.496 122.537 171.678C122.613 171.752 122.691 171.823 122.781 171.904C122.797 171.919 122.814 171.935 122.832 171.951C122.936 172.045 123.057 172.156 123.169 172.272C123.43 172.543 123.618 172.849 123.754 173.07L123.755 173.071C123.907 173.318 124.001 173.47 124.111 173.593C124.372 173.885 124.68 174.276 124.889 174.693C124.91 174.735 124.966 174.812 125.12 174.971C125.14 174.992 125.164 175.016 125.19 175.042C125.313 175.168 125.492 175.349 125.628 175.53C125.628 175.53 125.63 175.533 125.635 175.538C125.64 175.544 125.648 175.553 125.658 175.563C125.68 175.585 125.708 175.612 125.747 175.645C125.801 175.692 125.846 175.729 125.899 175.773C125.94 175.806 125.985 175.843 126.042 175.891C126.152 175.984 126.291 176.105 126.416 176.245C126.538 176.382 126.69 176.582 126.777 176.843C126.935 177.315 126.68 177.824 126.208 177.981C125.753 178.133 125.261 177.901 125.087 177.459C125.084 177.456 125.08 177.451 125.075 177.446C125.038 177.404 124.978 177.349 124.883 177.269C124.859 177.248 124.826 177.221 124.79 177.192C124.718 177.132 124.631 177.06 124.564 177.002C124.454 176.906 124.309 176.772 124.188 176.61C124.131 176.535 124.063 176.465 123.952 176.352C123.915 176.314 123.873 176.271 123.825 176.221C123.67 176.061 123.435 175.811 123.279 175.498C123.173 175.286 122.983 175.032 122.769 174.793C122.548 174.546 122.377 174.266 122.251 174.062C122.241 174.046 122.232 174.03 122.222 174.015C122.078 173.781 121.981 173.634 121.872 173.521C121.806 173.453 121.726 173.378 121.621 173.283C121.607 173.27 121.592 173.256 121.576 173.242C121.487 173.161 121.384 173.068 121.285 172.972C121.063 172.757 120.775 172.451 120.595 172.057C120.591 172.053 120.586 172.045 120.577 172.036C120.546 171.998 120.503 171.954 120.431 171.883C120.424 171.875 120.416 171.867 120.407 171.858C120.347 171.798 120.266 171.719 120.192 171.638C120.106 171.543 120.001 171.417 119.912 171.264C119.781 171.04 119.559 170.785 119.262 170.492C119.118 170.35 118.969 170.211 118.815 170.067L118.813 170.065C118.663 169.925 118.506 169.778 118.364 169.636C118.012 169.285 118.012 168.715 118.364 168.364ZM125.097 177.473C125.097 177.473 125.097 177.472 125.096 177.471L125.097 177.473Z" fill="#1D1D1B"/>
<path fill-rule="evenodd" clip-rule="evenodd" d="M173.204 39.7236C173.719 39.9228 173.975 40.5018 173.776 41.0169C172.984 43.0667 171.151 48.0111 170.867 52.7225C170.866 52.7548 170.862 52.787 170.857 52.8189C170.857 52.8191 170.857 52.8194 170.857 52.8196L170.857 52.82L170.856 52.8233L170.853 52.8477C170.849 52.8707 170.844 52.9069 170.838 52.9551C170.826 53.0516 170.81 53.195 170.796 53.3746C170.766 53.7353 170.743 54.233 170.766 54.7824C170.814 55.9346 171.06 57.0887 171.651 57.7871C172.345 58.6068 173.485 58.9904 174.573 58.8134C175.005 58.7432 175.854 58.3397 176.906 57.3582C177.929 56.4039 179.065 54.9747 180.086 53.0141C180.341 52.5243 180.945 52.334 181.435 52.5891C181.925 52.8442 182.115 53.4481 181.86 53.938C180.744 56.0797 179.476 57.6964 178.271 58.8206C177.095 59.9175 175.893 60.6251 174.895 60.7875C173.176 61.067 171.311 60.4813 170.124 59.0789C169.083 57.8487 168.82 56.1175 168.767 54.8666C168.74 54.2144 168.768 53.6311 168.802 53.2111C168.82 53.0003 168.839 52.8286 168.854 52.7074C168.861 52.6467 168.868 52.5986 168.873 52.5644L168.874 52.5581C169.187 47.5199 171.119 42.3422 171.911 40.2956C172.11 39.7805 172.689 39.5244 173.204 39.7236Z" fill="#1D1D1B"/>
<path fill-rule="evenodd" clip-rule="evenodd" d="M8.74245e-08 178.001C3.91413e-08 177.448 0.557809 177 1.2459 177L454.754 177C455.442 177 456 177.448 456 178C456 178.553 455.442 179 454.754 179L1.2459 179.001C0.557809 179.001 1.35708e-07 178.553 8.74245e-08 178.001Z" fill="#1D1D1B"/>
<path d="M263.008 163.944C262.102 163.168 262.061 161.788 262.933 160.975C273.98 150.685 321.933 106.036 331.828 95.4841C333.526 94.8174 335.398 94.7356 337.148 95.2516C338.344 95.6265 339.436 96.2776 340.334 97.1523L267.404 165.368" fill="#F8F8F8"/>
<path fill-rule="evenodd" clip-rule="evenodd" d="M332.398 96.3384C322.269 107.072 275.891 150.272 264.092 161.263L263.615 161.707C263.188 162.105 263.197 162.789 263.659 163.185L265.387 164.666C265.774 164.998 266.348 164.985 266.721 164.637L338.828 97.1921C338.229 96.7635 337.564 96.4308 336.857 96.2084C335.393 95.7784 333.831 95.825 332.398 96.3384ZM331.463 94.5532C333.368 93.8053 335.468 93.7135 337.431 94.2924L337.447 94.2973C338.793 94.7192 340.021 95.4517 341.032 96.4359C341.228 96.6266 341.337 96.8891 341.334 97.1624C341.331 97.4357 341.217 97.696 341.017 97.8827L268.087 166.098C266.97 167.142 265.246 167.18 264.085 166.185L262.357 164.703C261.007 163.547 260.934 161.471 262.252 160.244L262.687 159.838C274.521 148.815 321.358 105.187 331.099 94.8C331.201 94.6918 331.325 94.6075 331.463 94.5532Z" fill="#1D1D1B"/>
<path fill-rule="evenodd" clip-rule="evenodd" d="M262.808 163.811C263.266 164.119 263.387 164.741 263.078 165.199C262.783 165.636 262.463 166.121 262.152 166.608C262.629 166.174 263.1 165.73 263.512 165.334C263.91 164.951 264.543 164.964 264.926 165.362C265.308 165.76 265.296 166.393 264.898 166.776C264.093 167.55 263.035 168.535 262.118 169.29C261.665 169.663 261.215 170.006 260.832 170.239C260.647 170.351 260.426 170.47 260.198 170.54C260.051 170.585 259.497 170.742 259.019 170.345C258.555 169.96 258.59 169.409 258.608 169.239C258.633 169.001 258.708 168.765 258.783 168.568C258.937 168.162 259.187 167.675 259.465 167.183C260.028 166.186 260.794 165.009 261.42 164.081C261.729 163.623 262.35 163.502 262.808 163.811Z" fill="#1D1D1B"/>
<path fill-rule="evenodd" clip-rule="evenodd" d="M337.978 98.0768C338.166 97.5575 338.739 97.289 339.259 97.477C339.692 97.6341 340.247 97.8703 340.749 98.2263C341.251 98.5818 341.77 99.1075 342.001 99.8608C342.235 100.624 342.101 101.381 341.811 102.059C341.524 102.73 341.058 103.389 340.515 104.024C339.432 105.291 337.872 106.653 336.285 108.027C335.212 108.959 334.277 109.703 333.466 110.336C333.265 110.493 333.074 110.641 332.89 110.783C332.324 111.223 331.837 111.601 331.398 111.968C330.274 112.909 329.571 113.697 329.029 114.958C328.577 116.033 328.333 117.183 328.308 118.348C328.297 118.9 327.84 119.339 327.288 119.327C326.735 119.315 326.297 118.858 326.309 118.306C326.339 116.887 326.637 115.487 327.187 114.179L327.19 114.172L327.19 114.172C327.898 112.523 328.847 111.496 330.114 110.434C330.584 110.041 331.113 109.631 331.687 109.185C331.866 109.047 332.049 108.905 332.235 108.759C333.034 108.137 333.938 107.417 334.974 106.517L334.975 106.515C336.594 105.114 338.029 103.854 338.995 102.724C339.476 102.161 339.799 101.679 339.972 101.273C340.142 100.875 340.142 100.621 340.088 100.447C340.032 100.264 339.884 100.065 339.593 99.8578C339.302 99.6513 338.937 99.4876 338.578 99.3575C338.058 99.1695 337.79 98.5961 337.978 98.0768Z" fill="#1D1D1B"/>
<path d="M335.972 94.6706L339.959 90.8691C340.436 90.6839 340.965 90.6839 341.442 90.8691C341.866 91.0444 342.216 91.3608 342.434 91.7647L338.735 95.9696" fill="#F8F8F8"/>
<path fill-rule="evenodd" clip-rule="evenodd" d="M340.48 91.7536L337.719 94.3868L338.48 94.7449L341.072 91.7983C341.071 91.798 341.071 91.7977 341.07 91.7974C340.881 91.7262 340.676 91.7116 340.48 91.7536ZM339.597 89.9368C340.307 89.6614 341.094 89.6614 341.804 89.9368L341.825 89.945C342.461 90.2085 342.988 90.684 343.314 91.2909C343.512 91.659 343.46 92.1114 343.184 92.4252L339.485 96.6301C339.191 96.9644 338.712 97.064 338.309 96.8745L335.547 95.5755C335.248 95.4351 335.038 95.1565 334.985 94.8309C334.932 94.5053 335.044 94.1746 335.282 93.9469L339.268 90.1454C339.363 90.055 339.475 89.9841 339.597 89.9368Z" fill="#1D1D1B"/>
<path fill-rule="evenodd" clip-rule="evenodd" d="M169.1 3.76635C178.886 -1.18666 194.292 -2.27754 205.482 6.8425C212.559 12.5619 215.163 20.0713 216.185 23.9953C216.27 24.3238 216.183 24.6733 215.954 24.9233C215.529 25.3859 215.237 25.7663 215.133 25.9024C214.528 26.713 213.99 27.9357 213.583 29.2892C213.178 30.6327 212.928 32.023 212.858 33.1141C212.841 33.3792 212.719 33.6266 212.519 33.8018C212.32 33.9769 212.058 34.0655 211.793 34.0478L209.229 33.8769C208.693 33.8411 208.281 33.3881 208.296 32.851C208.323 31.9083 208.367 28.9263 207.632 25.5086C206.894 22.0776 205.396 18.3266 202.428 15.7205L202.427 15.7199C200.977 14.4437 198.565 12.3631 195.426 12.3932C193.943 12.4074 192.939 12.861 191.393 14.0724C190.694 14.6206 189.912 15.3019 188.936 16.1518L188.524 16.5109C187.361 17.523 185.958 18.7327 184.194 20.1514L184.194 20.1516C176.675 26.1956 172.62 28.1787 170.155 29.1863C164.183 31.6271 160.947 31.2817 158.75 30.4863L158.747 30.4854L158.684 30.4624C157.646 30.085 154.501 28.9414 153.363 25.7824C153.359 25.7715 153.356 25.7606 153.352 25.7496C152.854 24.2007 152.885 22.5304 153.439 21.0007L153.446 20.9819C154.385 18.5438 155.617 16.2288 157.115 14.0881L157.129 14.0687C160.286 9.77875 164.374 6.25923 169.085 3.7741L169.1 3.76635Z" fill="#1D1D1B"/>
<path fill-rule="evenodd" clip-rule="evenodd" d="M181.94 60.8202C181.921 61.3722 182.354 61.8347 182.906 61.8532C182.918 61.8536 182.929 61.854 182.941 61.8544C183.12 61.8606 183.317 61.8675 183.548 61.8288C183.743 61.7961 183.958 61.731 184.211 61.6539C184.23 61.6483 184.249 61.6426 184.268 61.6368C184.855 61.4589 185.171 61.2563 185.384 61.12C185.443 61.082 185.495 61.0491 185.542 61.0234C186.026 60.7577 186.203 60.1499 185.937 59.6657C185.672 59.1815 185.064 59.0043 184.58 59.2699C184.376 59.3819 184.267 59.4527 184.187 59.5048C184.05 59.5945 183.997 59.6289 183.688 59.7228C183.528 59.7711 183.424 59.8026 183.343 59.8252C183.264 59.8474 183.232 59.8539 183.217 59.8563C183.217 59.8564 183.216 59.8566 183.215 59.8567C183.203 59.8589 183.189 59.8616 182.973 59.8543C182.421 59.8358 181.958 60.2682 181.94 60.8202Z" fill="#1D1D1B"/>
<path fill-rule="evenodd" clip-rule="evenodd" d="M166.875 67.3313C168.701 67.0151 170.262 67.0405 171.364 67.3958C171.89 67.5654 172.178 68.1289 172.009 68.6545C171.839 69.1802 171.276 69.4688 170.75 69.2993C170.085 69.0848 168.89 69.0121 167.217 69.3019C165.568 69.5874 163.534 70.2115 161.236 71.3015C156.643 73.4797 151.03 77.5036 145.388 84.3244C138.169 93.0519 129.436 99.4859 120.64 104.966C116.572 107.501 112.479 109.839 108.517 112.102C108.197 112.284 107.879 112.466 107.561 112.648C103.295 115.086 99.1988 117.447 95.4235 119.907L95.3758 119.938C89.767 123.593 82.5149 128.32 77.8715 135.731C73.2603 143.091 71.1549 153.224 76.1964 167.845C76.3764 168.367 76.0991 168.936 75.577 169.116C75.0549 169.296 74.4857 169.019 74.3057 168.497C69.0914 153.375 71.2069 142.602 76.1767 134.669C81.0548 126.883 88.6184 121.954 94.1738 118.334L94.3315 118.232C98.1625 115.735 102.307 113.347 106.568 110.912C106.885 110.731 107.202 110.55 107.52 110.368C111.488 108.102 115.549 105.782 119.583 103.269C128.294 97.8409 136.824 91.5406 143.847 83.0496C149.658 76.025 155.498 71.8094 160.379 69.4944C162.818 68.3377 165.025 67.6517 166.875 67.3313Z" fill="#1D1D1B"/>
<path fill-rule="evenodd" clip-rule="evenodd" d="M169.612 120.029C170.038 120.145 170.337 120.527 170.349 120.968C170.577 129.773 170.349 137.042 169.847 143.083C169.802 143.633 169.319 144.042 168.768 143.997C168.218 143.951 167.809 143.468 167.854 142.917C168.292 137.642 168.521 131.399 168.41 123.97C166.024 126.854 162.464 130.044 158.125 133.058C152.496 136.968 145.481 140.633 137.849 142.974C137.321 143.136 136.762 142.839 136.6 142.311C136.438 141.783 136.735 141.224 137.263 141.062C144.673 138.788 151.503 135.223 156.984 131.415C162.483 127.596 166.55 123.585 168.501 120.464C168.735 120.09 169.186 119.913 169.612 120.029Z" fill="#1D1D1B"/>
<path fill-rule="evenodd" clip-rule="evenodd" d="M113.518 137.471C113.669 136.94 114.222 136.632 114.753 136.783C135.612 142.719 168.97 142.523 174.451 142.386C177.479 142.31 179.915 143.512 181.581 145.031C182.412 145.789 183.062 146.635 183.506 147.46C183.94 148.269 184.214 149.13 184.193 149.907C184.179 150.459 183.719 150.895 183.167 150.881C182.615 150.866 182.179 150.407 182.194 149.855C182.202 149.549 182.084 149.04 181.744 148.407C181.413 147.79 180.906 147.122 180.234 146.509C178.894 145.287 176.943 144.324 174.501 144.385C169.043 144.522 135.396 144.736 114.206 138.707C113.675 138.556 113.367 138.002 113.518 137.471Z" fill="#1D1D1B"/>
<path fill-rule="evenodd" clip-rule="evenodd" d="M172.674 144.587C174.332 143.651 176.138 143.24 178.407 143.24C178.959 143.24 179.407 143.688 179.407 144.24C179.407 144.792 178.959 145.24 178.407 145.24C176.402 145.24 174.952 145.598 173.657 146.329C172.336 147.074 171.103 148.248 169.596 150.016C167.767 152.163 165.937 156.018 164.652 160.883C163.374 165.725 162.661 171.474 162.996 177.343C163.028 177.895 162.606 178.367 162.055 178.399C161.503 178.43 161.031 178.009 160.999 177.457C160.651 171.362 161.391 165.402 162.719 160.373C164.041 155.367 165.971 151.188 168.074 148.719C169.625 146.898 171.041 145.508 172.674 144.587Z" fill="#1D1D1B"/>
<path fill-rule="evenodd" clip-rule="evenodd" d="M171.312 145.961C171.494 145.44 172.064 145.165 172.586 145.347C176.012 146.546 183.902 149 188.411 149.397C189.724 149.513 191.024 149.483 192.373 149.452C192.449 149.451 192.524 149.449 192.6 149.447C194.01 149.415 195.478 149.391 196.949 149.572C199.966 149.943 202.94 151.173 205.847 154.716C211.229 161.275 217.293 165.657 219.999 167.517C221.674 168.669 222.742 170.956 223.129 173.076C223.327 174.16 223.364 175.278 223.18 176.285C222.998 177.283 222.58 178.262 221.787 178.933C221.366 179.29 220.735 179.237 220.378 178.816C220.021 178.394 220.074 177.763 220.495 177.406C220.814 177.137 221.08 176.653 221.213 175.926C221.344 175.207 221.327 174.338 221.162 173.435C220.823 171.581 219.925 169.894 218.866 169.165C216.102 167.265 209.859 162.758 204.301 155.985C201.738 152.862 199.242 151.869 196.704 151.557C195.397 151.396 194.066 151.415 192.645 151.447C192.561 151.449 192.477 151.451 192.392 151.453C191.066 151.483 189.663 151.516 188.235 151.39C183.445 150.967 175.336 148.429 171.925 147.235C171.404 147.053 171.129 146.482 171.312 145.961Z" fill="#1D1D1B"/>
<path fill-rule="evenodd" clip-rule="evenodd" d="M195.53 160.748C195.947 160.387 196.579 160.432 196.941 160.849C198.371 162.499 201.795 165.901 206.285 168.688C211.527 171.942 212.945 175.905 213.554 177.973C213.71 178.503 213.406 179.059 212.877 179.215C212.347 179.371 211.791 179.067 211.635 178.537C211.104 176.731 209.901 173.287 205.23 170.388C200.535 167.473 196.962 163.927 195.429 162.159C195.068 161.742 195.113 161.11 195.53 160.748Z" fill="#1D1D1B"/>
<path fill-rule="evenodd" clip-rule="evenodd" d="M190.571 168.664C191.054 168.395 191.663 168.569 191.931 169.052C192.256 169.636 192.952 170.335 193.954 171.119C194.935 171.887 196.107 172.66 197.283 173.42C197.465 173.537 197.647 173.654 197.829 173.771C198.804 174.398 199.763 175.015 200.539 175.58C201.001 175.916 201.427 176.254 201.769 176.585C202.092 176.898 202.43 177.289 202.595 177.743C202.783 178.262 202.516 178.835 201.996 179.024C201.477 179.213 200.904 178.945 200.715 178.426C200.716 178.43 200.703 178.393 200.643 178.314C200.585 178.236 200.498 178.139 200.377 178.021C200.133 177.785 199.792 177.51 199.362 177.197C198.637 176.669 197.737 176.09 196.76 175.462C196.575 175.343 196.388 175.222 196.198 175.1C195.024 174.342 193.782 173.524 192.722 172.694C191.683 171.882 190.713 170.978 190.183 170.023C189.915 169.541 190.089 168.932 190.571 168.664Z" fill="#1D1D1B"/>
<path fill-rule="evenodd" clip-rule="evenodd" d="M313.159 130.35C312.78 130.482 312.431 130.614 312.111 130.745C311.627 130.942 311.072 130.733 310.839 130.264C310.606 129.796 310.773 129.227 311.223 128.959C311.648 128.706 312.129 128.517 312.655 128.408C317.38 126.791 325.942 125.349 337.934 128.031C343.991 129.386 349.633 131.302 355.012 133.128C357.224 133.879 359.39 134.615 361.523 135.29C368.894 137.624 375.946 139.274 383.436 138.609C383.986 138.56 384.472 138.966 384.521 139.516C384.57 140.066 384.163 140.552 383.613 140.601C375.72 141.302 368.361 139.553 360.919 137.197C358.708 136.497 356.497 135.746 354.261 134.986C348.923 133.174 343.445 131.313 337.497 129.983C328.663 128.007 321.817 128.352 317.119 129.287C317.323 129.402 317.528 129.529 317.734 129.667C320.26 131.355 323.008 134.773 325.643 140.874C328.939 148.507 330.306 155.938 329.975 161.754C329.81 164.66 329.217 167.214 328.183 169.196C327.721 170.083 327.163 170.865 326.511 171.51C327.682 171.574 328.916 171.616 330.21 171.657C330.322 171.66 330.434 171.664 330.546 171.668C332.909 171.742 335.453 171.823 338.101 172.052C343.658 172.534 349.727 173.676 355.784 176.836C356.273 177.091 356.463 177.695 356.208 178.185C355.952 178.674 355.348 178.864 354.859 178.609C349.121 175.615 343.339 174.514 337.928 174.045C335.336 173.82 332.842 173.741 330.469 173.666C330.362 173.663 330.254 173.659 330.147 173.656C327.692 173.578 325.355 173.497 323.239 173.245C323.137 173.233 323.037 173.205 322.943 173.163C321.471 172.494 318.654 170.167 319.472 166.237C319.585 165.696 320.115 165.349 320.655 165.462C321.196 165.574 321.543 166.104 321.43 166.645C320.936 169.02 322.396 170.549 323.446 171.171C324.624 170.726 325.631 169.765 326.41 168.271C327.272 166.618 327.823 164.365 327.978 161.64C328.288 156.196 327.006 149.076 323.807 141.667C321.245 135.736 318.695 132.715 316.622 131.329C315.193 130.374 314.014 130.202 313.159 130.35Z" fill="#1D1D1B"/>
<path fill-rule="evenodd" clip-rule="evenodd" d="M232.465 62.7774C233.005 62.8958 233.346 63.4291 233.228 63.9685C232.436 67.5757 230.972 71.3647 228.248 74.5717C227.971 74.8988 227.68 75.2193 227.377 75.5325L241.412 78.7271L241.002 72.5666C241 72.5445 241 72.5223 241 72.5001V66.5001C241 65.9478 241.447 65.5001 242 65.5001C242.552 65.5001 243 65.9478 243 66.5001V72.4668L243.408 78.5941C243.497 79.9299 242.274 80.9744 240.969 80.6772L226.975 77.4922C226.736 82.3238 225.37 88.0424 222.905 92.0079C222.656 92.4086 222.161 92.5807 221.717 92.421C217.756 90.9953 212.282 88.1676 208.666 82.4243L195.783 91.2499C194.514 92.1192 192.78 91.2906 192.659 89.7573L191.257 71.9945C191.213 71.444 191.624 70.9624 192.175 70.9189C192.725 70.8755 193.207 71.2866 193.25 71.8371L194.653 89.5999L206.976 81.1575C201.755 79.6326 196.78 76.0822 193.49 71.4712C193.17 71.0216 193.274 70.3971 193.724 70.0764C194.173 69.7556 194.798 69.8601 195.118 70.3097C199.951 77.084 208.536 81.1705 215.457 79.6566C220.725 78.5042 224.288 76.1457 226.724 73.2772C229.171 70.3948 230.528 66.9407 231.274 63.5397C231.392 63.0003 231.926 62.659 232.465 62.7774ZM210.703 81.8869C212.458 82.0582 214.204 81.978 215.884 81.6104C219.601 80.7974 222.581 79.4105 224.964 77.6447C224.721 81.8745 223.571 86.7375 221.62 90.2485C218.111 88.877 213.756 86.4115 210.703 81.8869Z" fill="#1D1D1B"/>
<path fill-rule="evenodd" clip-rule="evenodd" d="M218.697 23.2001C217.716 23.6591 216.858 24.3545 216.353 24.9163C215.983 25.3267 215.351 25.3598 214.94 24.9902C214.53 24.6206 214.497 23.9883 214.866 23.5779C215.537 22.8338 216.607 21.97 217.849 21.3886C219.085 20.8103 220.621 20.4541 222.134 20.9477C224.571 21.7421 225.675 23.8126 226.126 25.7843C226.576 27.7508 226.433 29.8142 226.229 31.0366C225.507 35.3683 223.622 39.5942 218.237 46.191C217.888 46.6189 217.258 46.6826 216.83 46.3333C216.402 45.984 216.338 45.3541 216.688 44.9263C221.941 38.4914 223.611 34.5807 224.257 30.7078C224.435 29.64 224.548 27.8575 224.176 26.2302C223.805 24.6079 223.01 23.3367 221.514 22.8491C220.667 22.5729 219.684 22.7382 218.697 23.2001ZM220.884 33.1108C221.075 33.6291 220.809 34.2039 220.291 34.3949C219.264 34.7733 218.11 35.8054 217.217 37.1388C216.321 38.4771 215.835 39.8974 215.901 40.9131C215.936 41.4642 215.518 41.9398 214.967 41.9754C214.416 42.0109 213.941 41.593 213.905 41.0418C213.8 39.4081 214.537 37.5465 215.555 36.026C216.576 34.5006 218.029 33.097 219.6 32.5182C220.118 32.3273 220.693 32.5926 220.884 33.1108Z" fill="#1D1D1B"/>
<path fill-rule="evenodd" clip-rule="evenodd" d="M272.884 135.742C272.571 135.725 272.395 135.759 272.312 135.79C271.682 136.033 270.78 136.801 270.889 138.368C270.925 138.888 271.281 139.598 271.872 140.36C272.437 141.089 273.105 141.724 273.533 142.072C273.962 142.421 274.026 143.051 273.677 143.479C273.328 143.907 272.698 143.972 272.27 143.623C271.742 143.193 270.963 142.452 270.291 141.585C269.645 140.752 268.973 139.645 268.894 138.506C268.714 135.924 270.283 134.429 271.593 133.924C272.045 133.75 272.54 133.72 272.998 133.746C273.465 133.772 273.965 133.862 274.465 133.984C275.462 134.226 276.571 134.621 277.608 135.011C277.922 135.128 278.227 135.245 278.523 135.358C279.232 135.629 279.887 135.88 280.465 136.073C280.872 136.209 281.204 136.305 281.461 136.357C281.688 136.402 281.776 136.396 281.776 136.398C281.776 136.399 281.775 136.399 281.774 136.399C282.301 136.269 282.838 136.584 282.979 137.11C283.123 137.643 282.807 138.192 282.274 138.336C281.859 138.447 281.408 138.386 281.067 138.318C280.69 138.242 280.266 138.116 279.83 137.97C279.21 137.762 278.493 137.488 277.765 137.21C277.478 137.1 277.19 136.99 276.905 136.883C275.871 136.494 274.862 136.138 273.993 135.927C273.56 135.822 273.188 135.76 272.884 135.742Z" fill="#1D1D1B"/>
<path d="M315.458 133.062C320.79 137.086 322.626 138.615 324.811 141.72C324.811 141.72 326.75 146.197 327.546 149.199C328.606 153.196 328.956 159.583 328.956 159.583C324.854 164.796 307.653 174.672 304.865 175.257C302.078 175.841 300.198 175.158 300.112 172.423C299.998 168.758 312.678 161.419 312.445 161.201C312.212 160.983 312.427 160.939 303.707 166.48C300.908 168.263 293.018 172.594 289.173 172.423C287.108 172.331 284.967 170.566 285.839 167.893C287.207 163.705 307.078 151.938 307.065 151.914C307.051 151.89 294.758 158.929 286.748 163.395C281.849 166.126 276.816 168.032 273.96 167.979C270.117 167.907 268.724 164.893 270.322 161.88C272.936 156.954 298.694 143.379 298.432 142.967C298.278 142.717 272.987 156.66 272.987 156.66C272.987 156.66 265.375 160.954 262.373 159.268C260.071 157.975 259.244 155.681 260.183 153.645C261.705 150.342 263.683 148.78 271.83 143.701C282.787 136.878 287.55 134.081 289.405 132.996C294.037 130.294 295.935 129.067 300.063 127.645C302.329 126.864 305.259 127.156 307.195 127.872C308.814 128.476 312.172 130.583 315.458 133.062Z" fill="#F8F8F8"/>
<path fill-rule="evenodd" clip-rule="evenodd" d="M299.737 126.699C302.272 125.826 305.446 126.159 307.542 126.934L307.544 126.935C308.456 127.275 309.773 128 311.233 128.917C312.713 129.846 314.397 131.009 316.06 132.264C321.393 136.288 323.344 137.899 325.629 141.145C325.668 141.201 325.702 141.26 325.729 141.323L324.811 141.72C325.729 141.323 325.729 141.323 325.729 141.323L325.735 141.337L325.752 141.377C325.767 141.411 325.789 141.462 325.816 141.527C325.872 141.658 325.952 141.847 326.05 142.082C326.246 142.554 326.516 143.214 326.812 143.97C327.398 145.47 328.1 147.384 328.513 148.942C329.063 151.019 329.422 153.679 329.643 155.785C329.755 156.846 329.832 157.779 329.882 158.448C329.907 158.782 329.925 159.051 329.937 159.237C329.94 159.283 329.943 159.324 329.945 159.36C329.947 159.396 329.949 159.426 329.95 159.451L329.954 159.507L329.955 159.522L329.955 159.526L329.955 159.527C329.955 159.527 329.955 159.528 329.691 159.542L329.955 159.527C329.968 159.77 329.893 160.01 329.742 160.201C328.63 161.614 326.695 163.274 324.452 164.95C322.189 166.641 319.541 168.399 316.944 170.006C314.346 171.613 311.786 173.077 309.694 174.179C308.649 174.729 307.713 175.193 306.944 175.541C306.2 175.876 305.537 176.137 305.07 176.235C303.601 176.544 302.148 176.573 301.007 175.968C299.769 175.312 299.163 174.063 299.112 172.454C299.089 171.717 299.384 171.003 299.764 170.378C299.926 170.111 300.115 169.842 300.325 169.574C299.358 170.084 298.313 170.606 297.249 171.093C295.824 171.746 294.347 172.345 292.968 172.772C291.607 173.194 290.262 173.472 289.128 173.422C287.848 173.365 286.53 172.794 285.65 171.782C284.735 170.73 284.343 169.254 284.889 167.583C285.131 166.839 285.723 166.063 286.413 165.323C286.832 164.874 287.323 164.402 287.867 163.916C287.653 164.035 287.443 164.152 287.235 164.268C284.748 165.655 282.216 166.838 279.93 167.671C277.669 168.494 275.557 169.009 273.941 168.979C271.757 168.938 270.068 168.043 269.225 166.516C268.394 165.01 268.524 163.137 269.439 161.412C269.855 160.627 270.662 159.776 271.629 158.921C272.035 158.562 272.486 158.188 272.972 157.804C272.766 157.913 272.503 158.048 272.194 158.201C271.415 158.586 270.339 159.085 269.16 159.532C267.988 159.975 266.679 160.381 265.442 160.561C264.238 160.737 262.926 160.726 261.883 160.14C259.209 158.638 258.08 155.817 259.274 153.227C260.942 149.607 263.204 147.901 271.3 142.852C282.265 136.026 287.036 133.223 288.899 132.133L288.901 132.132C289.381 131.852 289.833 131.588 290.261 131.336C293.95 129.174 295.939 128.008 299.737 126.699ZM297.586 143.5C297.587 143.502 297.588 143.503 297.589 143.505L297.581 143.493C297.583 143.495 297.584 143.498 297.586 143.5ZM272.496 155.789L272.505 155.784L272.987 156.659C272.505 155.784 272.504 155.784 272.505 155.784L273.592 155.185C274.284 154.804 275.273 154.26 276.46 153.609C278.834 152.305 282.001 150.57 285.173 148.842C288.345 147.114 291.524 145.393 293.922 144.118C295.119 143.482 296.127 142.954 296.843 142.592C297.199 142.412 297.493 142.267 297.706 142.17C297.808 142.123 297.913 142.078 298.003 142.045C298.042 142.031 298.119 142.004 298.209 141.985C298.247 141.978 298.349 141.958 298.478 141.965L298.479 141.965C298.544 141.969 299.001 141.994 299.278 142.434C299.461 142.724 299.45 143.021 299.408 143.203C299.37 143.37 299.298 143.49 299.26 143.546C299.184 143.662 299.098 143.743 299.06 143.779C298.969 143.863 298.86 143.943 298.764 144.011C298.562 144.153 298.275 144.336 297.93 144.548C297.234 144.976 296.229 145.565 295.021 146.268C294.641 146.489 294.241 146.721 293.822 146.964C291.571 148.272 288.804 149.879 285.972 151.587C282.612 153.614 279.18 155.77 276.433 157.72C275.058 158.696 273.87 159.609 272.954 160.419C272.013 161.251 271.443 161.902 271.206 162.349C270.522 163.637 270.55 164.777 270.976 165.549C271.391 166.301 272.32 166.948 273.978 166.979C275.219 167.002 277.051 166.59 279.245 165.791C281.414 165.001 283.849 163.866 286.261 162.521C290.262 160.291 295.335 157.416 299.411 155.101C300.425 154.525 301.379 153.984 302.238 153.495C303.104 153.003 303.875 152.565 304.517 152.2C305.157 151.837 305.671 151.546 306.025 151.346C306.202 151.246 306.342 151.168 306.438 151.115C306.485 151.089 306.526 151.067 306.557 151.05C306.571 151.043 306.591 151.032 306.611 151.022C306.619 151.018 306.644 151.006 306.674 150.993C306.686 150.988 306.731 150.969 306.79 150.952C306.827 150.943 306.935 150.922 307.006 150.916C307.169 150.92 307.684 151.129 307.941 151.432C308.064 151.913 307.877 152.497 307.8 152.592C307.767 152.626 307.715 152.674 307.696 152.69C307.665 152.715 307.64 152.732 307.634 152.736C307.616 152.749 307.6 152.76 307.593 152.764C307.575 152.775 307.555 152.788 307.536 152.8C307.495 152.825 307.436 152.861 307.364 152.905C307.264 152.966 306.959 153.152 306.733 153.29C306.19 153.621 305.412 154.097 304.474 154.681C302.598 155.849 300.084 157.446 297.529 159.171C294.971 160.899 292.389 162.742 290.37 164.405C289.36 165.237 288.508 166.009 287.876 166.687C287.218 167.392 286.889 167.9 286.79 168.204C286.463 169.205 286.705 169.948 287.159 170.47C287.647 171.031 288.432 171.389 289.217 171.424C290.006 171.459 291.09 171.26 292.377 170.862C293.646 170.469 295.038 169.906 296.416 169.275C299.174 168.012 301.806 166.506 303.17 165.637C304.927 164.52 306.325 163.628 307.437 162.919C309.076 161.872 310.095 161.222 310.735 160.829C311.237 160.521 311.606 160.305 311.879 160.21C312.029 160.158 312.332 160.073 312.679 160.19C312.974 160.29 313.192 160.531 313.128 160.471C313.564 160.879 313.447 161.396 313.383 161.568C313.32 161.736 313.225 161.85 313.195 161.886C313.118 161.977 313.032 162.051 312.983 162.091C312.87 162.186 312.718 162.297 312.554 162.413C312.244 162.631 311.806 162.926 311.292 163.271L311.158 163.361C310.004 164.137 308.461 165.178 306.919 166.323C305.37 167.472 303.854 168.702 302.742 169.85C302.185 170.425 301.755 170.953 301.473 171.417C301.182 171.895 301.106 172.213 301.111 172.392C301.147 173.518 301.523 173.978 301.944 174.201C302.461 174.475 303.342 174.554 304.66 174.278C304.89 174.23 305.374 174.054 306.121 173.718C306.842 173.392 307.739 172.948 308.762 172.409C310.808 171.332 313.328 169.891 315.891 168.305C318.456 166.718 321.052 164.993 323.255 163.348C325.303 161.818 326.953 160.399 327.934 159.252C327.923 159.082 327.908 158.861 327.888 158.597C327.839 157.943 327.763 157.03 327.654 155.994C327.435 153.908 327.089 151.375 326.58 149.455C326.197 148.012 325.531 146.186 324.949 144.698C324.66 143.959 324.396 143.313 324.203 142.851C324.107 142.62 324.03 142.436 323.976 142.31C323.962 142.278 323.95 142.249 323.94 142.225C323.938 142.22 323.936 142.216 323.934 142.212C321.874 139.303 320.136 137.845 314.856 133.86C313.233 132.636 311.596 131.506 310.17 130.611C308.726 129.704 307.555 129.074 306.847 128.81C305.07 128.153 302.384 127.903 300.389 128.59C296.785 129.832 294.958 130.902 291.263 133.067C290.838 133.316 290.388 133.58 289.908 133.86C288.062 134.94 283.307 137.733 272.358 144.55C264.162 149.66 262.467 151.078 261.091 154.064C260.408 155.545 260.933 157.312 262.862 158.396C263.32 158.653 264.086 158.738 265.154 158.582C266.189 158.432 267.346 158.08 268.452 157.661C269.551 157.245 270.566 156.775 271.308 156.408C271.678 156.225 271.978 156.069 272.184 155.959C272.287 155.904 272.366 155.86 272.419 155.831L272.479 155.799L272.493 155.791L272.496 155.789ZM311.713 160.547C311.714 160.546 311.715 160.545 311.716 160.544C311.718 160.542 311.717 160.543 311.713 160.547Z" fill="#1D1D1B"/>
<path fill-rule="evenodd" clip-rule="evenodd" d="M179.988 144.519C178.467 144.084 176.906 144.271 175.597 144.658C174.287 145.045 173.187 145.645 172.56 146.093L171.73 146.686L183.264 150.146L183.346 149.571C183.441 148.904 183.384 147.877 182.914 146.896C182.436 145.896 181.534 144.961 179.988 144.519Z" fill="#1D1D1B"/>
<path fill-rule="evenodd" clip-rule="evenodd" d="M312.668 129.129C312.819 129.077 312.951 129.075 313.003 129.075C313.583 129.075 314.093 129.355 314.424 129.565C314.577 129.663 314.722 129.766 314.849 129.859C315.433 130.055 316.046 130.265 316.637 130.519C317.118 130.724 317.487 130.987 317.803 131.244C317.933 131.35 318.06 131.46 318.177 131.561C318.198 131.579 318.219 131.597 318.239 131.615C318.378 131.734 318.507 131.844 318.644 131.95C318.812 132.081 319.036 132.277 319.242 132.496C319.423 132.69 319.689 133.005 319.811 133.371C319.855 133.504 319.867 133.64 319.85 133.771C320.033 133.918 320.21 134.065 320.38 134.206C320.507 134.311 320.629 134.412 320.747 134.508C320.823 134.569 320.899 134.639 320.966 134.712C320.999 134.747 321.042 134.797 321.083 134.858L321.085 134.861C321.109 134.896 321.211 135.047 321.243 135.262C321.262 135.387 321.27 135.633 321.113 135.882C320.945 136.15 320.692 136.256 320.519 136.29C320.26 136.342 320.048 136.264 320.008 136.249C320.007 136.249 320.006 136.248 320.005 136.248C319.872 136.2 319.749 136.126 319.666 136.072C319.45 135.934 319.229 135.813 318.976 135.675C318.911 135.64 318.845 135.604 318.776 135.566C318.453 135.388 318.089 135.179 317.744 134.914C317.316 134.586 316.897 134.211 316.499 133.839C315.467 133.381 314.432 132.903 313.409 132.356C312.971 132.122 312.805 131.576 313.04 131.138C313.045 131.128 313.05 131.119 313.056 131.109C312.981 131.074 312.906 131.037 312.838 131.002C312.733 130.948 312.555 130.854 312.421 130.747C312.385 130.718 312.314 130.659 312.246 130.571L312.245 130.571C312.206 130.521 311.999 130.257 312.054 129.869C312.124 129.369 312.524 129.178 312.668 129.129Z" fill="#1D1D1B"/>
<path fill-rule="evenodd" clip-rule="evenodd" d="M325.527 163.233C325.079 163.569 324.641 163.903 324.206 164.235C323.68 164.638 323.159 165.036 322.632 165.427C322.468 165.254 322.236 165.146 321.979 165.146C321.482 165.146 321.079 165.549 321.079 166.046C321.079 166.213 321.079 166.376 321.081 166.536C321.056 166.553 321.031 166.57 321.006 166.587C320.673 166.813 320.372 167.091 320.169 167.479C319.968 167.865 319.911 168.272 319.911 168.675C319.911 168.836 319.944 169.196 320.259 169.467C320.585 169.748 320.956 169.715 321.115 169.684C321.314 169.645 321.493 169.551 321.62 169.471C321.633 169.509 321.647 169.552 321.664 169.599L321.668 169.613C321.715 169.748 321.77 169.909 321.832 170.07C321.893 170.23 321.966 170.406 322.052 170.572C322.133 170.728 322.251 170.928 322.42 171.096C322.685 171.362 323.047 171.52 323.366 171.587C323.668 171.651 324.165 171.68 324.598 171.383C325.983 170.431 327.254 168.594 327.878 167.175C328.236 166.361 328.308 165.505 328.338 164.769C328.346 164.574 328.351 164.389 328.356 164.213C328.366 163.855 328.375 163.531 328.404 163.222C328.457 163.155 328.605 162.953 328.733 162.753C328.797 162.653 328.878 162.519 328.939 162.388C328.965 162.329 329.014 162.217 329.039 162.082C329.051 162.015 329.068 161.89 329.043 161.739C329.016 161.576 328.929 161.337 328.697 161.156C328.426 160.945 328.131 160.943 327.964 160.969C327.805 160.993 327.682 161.052 327.616 161.087C327.478 161.161 327.359 161.257 327.279 161.327C327.106 161.476 326.919 161.673 326.761 161.848C326.597 162.029 326.439 162.214 326.322 162.354C326.176 162.529 326.14 162.573 326.151 162.562C325.941 162.787 325.733 163.01 325.527 163.233Z" fill="#1D1D1B"/>
<path fill-rule="evenodd" clip-rule="evenodd" d="M159.883 147.801C159.866 147.804 159.849 147.806 159.831 147.807C159.268 147.855 158.899 148.16 158.632 148.691C158.347 149.258 158.224 150.02 158.224 150.737C158.224 150.812 158.218 150.893 158.214 150.954C158.211 150.992 158.207 151.038 158.204 151.083C158.201 151.111 158.199 151.139 158.197 151.163C158.194 151.206 158.191 151.249 158.188 151.29C158.319 151.294 158.45 151.299 158.578 151.304C158.751 151.31 158.918 151.317 159.076 151.321C159.554 151.334 159.993 151.332 160.399 151.285C160.415 151.279 160.438 151.269 160.468 151.256C160.55 151.22 160.653 151.168 160.758 151.108C160.865 151.047 160.955 150.989 161.017 150.943C161.018 150.942 161.019 150.941 161.02 150.941C161.289 150.424 161.488 149.764 161.488 149.291C161.488 149.169 161.499 149.03 161.507 148.928C161.508 148.911 161.509 148.895 161.51 148.88C161.518 148.776 161.522 148.693 161.522 148.621C161.495 148.613 161.467 148.605 161.432 148.595C161.42 148.591 161.407 148.587 161.393 148.583C161.332 148.565 161.254 148.542 161.174 148.514C160.894 148.416 160.66 148.278 160.487 148.172C160.44 148.142 160.397 148.116 160.359 148.092C160.239 148.017 160.156 147.965 160.061 147.918C159.996 147.885 159.937 147.846 159.883 147.801ZM160.335 146.222C160.51 146.197 160.695 146.222 160.866 146.308C161.045 146.398 161.222 146.508 161.352 146.589C161.381 146.608 161.407 146.624 161.431 146.639C161.584 146.733 161.681 146.784 161.768 146.815C161.829 146.836 161.859 146.845 161.901 146.856C161.942 146.868 161.995 146.883 162.098 146.915C162.244 146.962 162.451 147.036 162.656 147.17C163.253 147.561 163.312 148.23 163.321 148.527C163.326 148.708 163.315 148.883 163.305 149.011C163.304 149.035 163.302 149.056 163.301 149.076C163.293 149.184 163.288 149.243 163.288 149.291C163.288 150.189 162.934 151.204 162.545 151.906C162.465 152.049 162.363 152.153 162.303 152.211C162.233 152.277 162.159 152.337 162.091 152.387C161.954 152.489 161.798 152.587 161.65 152.672C161.5 152.757 161.342 152.838 161.195 152.903C161.08 152.954 160.875 153.039 160.671 153.065C160.112 153.135 159.549 153.134 159.027 153.12C158.828 153.115 158.64 153.108 158.46 153.101C158.141 153.089 157.844 153.078 157.537 153.078C157.253 153.078 156.993 152.969 156.796 152.785C156.62 152.62 156.531 152.429 156.484 152.296C156.394 152.039 156.38 151.765 156.379 151.582C156.377 151.38 156.391 151.177 156.403 151.024C156.405 150.988 156.408 150.956 156.41 150.928C156.413 150.89 156.416 150.857 156.418 150.823C156.42 150.796 156.422 150.775 156.423 150.759C156.423 150.743 156.424 150.737 156.424 150.737C156.424 150.737 156.424 150.737 156.424 150.737C156.424 149.862 156.567 148.792 157.023 147.883C157.497 146.94 158.343 146.127 159.678 146.014C159.926 145.992 160.158 146.074 160.335 146.222ZM160.375 151.293C160.375 151.293 160.377 151.293 160.38 151.292C160.376 151.293 160.375 151.293 160.375 151.293Z" fill="#1D1D1B"/>
<path fill-rule="evenodd" clip-rule="evenodd" d="M329.983 132.889C329.942 132.905 329.899 132.919 329.854 132.929C329.239 133.069 329.019 133.144 328.893 133.227C328.834 133.266 328.74 133.336 328.603 133.721C328.544 133.885 328.523 134.119 328.55 134.443C328.573 134.719 328.624 134.994 328.679 135.292C328.688 135.345 328.698 135.398 328.708 135.452C328.761 135.741 328.954 135.943 329.41 136.022C329.898 136.106 330.482 135.986 330.856 135.757C331.187 135.555 331.763 135.17 332.131 134.77C332.241 134.65 332.304 134.559 332.339 134.498C332.244 134.427 332.118 134.358 331.903 134.24L331.888 134.232C331.647 134.1 331.302 133.908 330.993 133.599C330.951 133.557 330.893 133.496 330.841 133.442C330.81 133.411 330.782 133.382 330.762 133.36C330.687 133.284 330.621 133.22 330.56 133.168C330.52 133.133 330.49 133.111 330.47 133.098C330.285 133.079 330.117 133.003 329.983 132.889ZM330.237 131.365C330.339 131.325 330.45 131.303 330.566 131.303C331.108 131.303 331.524 131.624 331.728 131.798C331.898 131.943 332.082 132.135 332.192 132.25C332.224 132.283 332.249 132.309 332.266 132.327C332.375 132.435 332.514 132.522 332.753 132.653C332.773 132.664 332.793 132.675 332.815 132.687C333.024 132.8 333.33 132.966 333.595 133.202C333.82 133.402 334 133.65 334.097 133.947C334.195 134.245 334.192 134.538 334.135 134.799C334.028 135.289 333.724 135.696 333.457 135.987C332.908 136.584 332.147 137.078 331.795 137.293C331.043 137.753 330.016 137.952 329.105 137.796C328.162 137.634 327.167 137.035 326.937 135.774C326.929 135.731 326.921 135.684 326.912 135.635C326.857 135.341 326.787 134.966 326.756 134.592C326.72 134.155 326.725 133.627 326.908 133.116C327.111 132.546 327.386 132.065 327.901 131.725C328.349 131.429 328.908 131.298 329.455 131.174C329.742 131.108 330.029 131.188 330.237 131.365Z" fill="#1D1D1B"/>
<path fill-rule="evenodd" clip-rule="evenodd" d="M198.735 68.0366C199.232 68.0366 199.635 68.4396 199.635 68.9366V75.422C199.635 75.9191 199.232 76.322 198.735 76.322C198.238 76.322 197.835 75.9191 197.835 75.422V68.9366C197.835 68.4396 198.238 68.0366 198.735 68.0366Z" fill="#1D1D1B"/>
<path fill-rule="evenodd" clip-rule="evenodd" d="M165.943 119.988C166.013 119.496 166.468 119.153 166.96 119.222C167.813 119.342 168.673 119.366 169.584 119.366C170.081 119.366 170.484 119.769 170.484 120.266C170.484 120.763 170.081 121.166 169.584 121.166C168.648 121.166 167.689 121.142 166.71 121.004C166.217 120.935 165.874 120.48 165.943 119.988Z" fill="#1D1D1B"/>
<path d="M283.826 86.8405C284.68 86.6483 285.177 86.3106 285.862 85.9678" stroke="#1D1D1B" stroke-width="1.8" stroke-linecap="round"/>
<path fill-rule="evenodd" clip-rule="evenodd" d="M167.487 39.035C167.487 39.035 167.487 39.0351 167.487 39.0351C165.362 39.7434 163.201 40.3391 161.012 40.8197C159.123 41.2403 157.216 41.576 155.297 41.8261C155.293 41.8265 155.292 41.8271 155.291 41.8274C155.29 41.8278 155.289 41.8282 155.288 41.8288C155.286 41.83 155.284 41.8322 155.281 41.8353C155.281 41.8364 155.28 41.8373 155.28 41.838C155.28 41.8381 155.28 41.8382 155.28 41.8383C155.923 44.133 156.572 46.4304 157.227 48.7307C159.111 48.7029 160.992 48.5738 162.862 48.3439L162.866 48.3435C164.69 48.1255 166.501 47.8136 168.292 47.4091C168.385 44.5944 168.115 41.7798 167.487 39.035ZM166.855 37.1377C167.937 36.777 169.161 37.3869 169.431 38.5642C170.103 41.4934 170.392 44.4977 170.29 47.502C170.259 48.4024 169.623 49.1585 168.754 49.3551C166.889 49.777 165.004 50.1021 163.105 50.3291C161.159 50.5682 159.203 50.7022 157.243 50.7307C156.336 50.7439 155.549 50.1408 155.305 49.2839C154.649 46.9792 153.999 44.6774 153.354 42.3783C153.02 41.1854 153.836 39.9995 155.038 39.8428C156.899 39.6004 158.747 39.2749 160.579 38.8672L160.582 38.8665L160.582 38.8666C162.702 38.401 164.796 37.8239 166.855 37.1377Z" fill="#1D1D1B"/>
<path fill-rule="evenodd" clip-rule="evenodd" d="M180.688 35.7827C183.83 34.9205 186.915 33.8634 189.925 32.6177L180.688 35.7827ZM189.925 32.6177C191.092 35.0601 191.838 37.6817 192.131 40.3723C189.726 41.4981 187.254 42.4758 184.728 43.2995C182.983 43.8649 181.315 44.3247 179.728 44.6994C179.728 44.6993 179.728 44.6991 179.728 44.6989C179.727 44.6977 179.725 44.6957 179.724 44.6919C178.721 42.016 177.525 39.426 176.165 36.9205C176.163 36.9164 176.162 36.9141 176.162 36.9133C176.162 36.9124 176.162 36.9114 176.162 36.9101C176.162 36.907 176.162 36.9011 176.166 36.8939C176.169 36.8867 176.173 36.8826 176.175 36.8809C176.176 36.8801 176.177 36.8797 176.177 36.8794C176.178 36.8791 176.18 36.8782 176.184 36.8773C177.635 36.571 179.138 36.2081 180.687 35.7828M189.166 30.7675C190.109 30.3769 191.247 30.7492 191.716 31.7265C192.992 34.3892 193.806 37.2494 194.123 40.1851C194.214 41.0306 193.749 41.8228 192.997 42.1751C190.512 43.3394 187.957 44.35 185.347 45.2012L185.346 45.2018C183.544 45.7855 181.821 46.2605 180.18 46.6478C179.182 46.8834 178.198 46.3199 177.851 45.3939C176.883 42.81 175.726 40.3042 174.408 37.8747C173.762 36.6851 174.444 35.2005 175.771 34.9204C177.183 34.6224 178.647 34.2689 180.158 33.8541L180.158 33.8541C183.223 33.0133 186.231 31.9824 189.166 30.7675Z" fill="#1D1D1B"/>
<path fill-rule="evenodd" clip-rule="evenodd" d="M171.589 38.9713C173.441 38.3805 175.449 38.5291 177.193 39.3858L176.312 41.1809C175.035 40.5538 173.565 40.4435 172.209 40.873C171.263 41.2027 170.43 41.7945 169.809 42.5789L168.241 41.3375C169.102 40.2506 170.255 39.4323 171.566 38.9789L171.578 38.975L171.589 38.9713Z" fill="#1D1D1B"/>
<path fill-rule="evenodd" clip-rule="evenodd" d="M200.61 32.9192C203.261 31.6493 205.754 30.0732 208.037 28.2231L209.296 29.777C206.892 31.7256 204.266 33.3857 201.473 34.7231L201.473 34.7234C198.674 36.0612 195.729 37.0673 192.696 37.7213L192.274 35.7662C195.155 35.1451 197.952 34.1897 200.61 32.9193" fill="#1D1D1B"/>
<path fill-rule="evenodd" clip-rule="evenodd" d="M187.13 41.0229C186.878 40.3388 186.427 39.7617 185.859 39.399C185.29 39.0357 184.547 38.8617 183.812 39.1309C183.078 39.4002 182.624 40.0132 182.425 40.6589C182.227 41.3036 182.258 42.0352 182.51 42.7192C182.762 43.4033 183.212 43.9804 183.781 44.3432C184.35 44.7064 185.093 44.8805 185.827 44.6113C186.562 44.3419 187.016 43.7289 187.214 43.0832C187.413 42.4386 187.382 41.7069 187.13 41.0229Z" fill="#1D1D1B"/>
<path fill-rule="evenodd" clip-rule="evenodd" d="M161.683 44.7294C160.266 45.1663 159.725 46.7254 160.123 48.0098C160.521 49.2942 161.849 50.2772 163.266 49.8403C164.684 49.4033 165.224 47.8442 164.826 46.5598C164.429 45.2755 163.101 44.2924 161.683 44.7294Z" fill="#1D1D1B"/>
</svg>
