<svg width="82" height="108" viewBox="0 0 82 108" fill="none" xmlns="http://www.w3.org/2000/svg">
<path d="M31.1697 11.7999L30.8428 12.1672C30.8482 12.549 30.7307 12.9224 30.5072 13.2333C30.2838 13.5442 29.9661 13.7764 29.6004 13.8959C29.592 14.8781 29.4378 15.8538 29.1426 16.7914C29.9709 18.4985 29.317 19.7085 28.6631 19.9462C28.0092 20.1839 27.2027 19.9462 26.4834 19.9462C25.7641 19.9462 24.914 20.2703 24.3037 19.9462C23.6934 19.6221 23.0177 18.4985 23.8242 16.7914C23.5365 15.8527 23.3896 14.877 23.3883 13.8959C23.0127 13.7897 22.684 13.5616 22.4548 13.2482C22.2255 12.9348 22.1091 12.5541 22.124 12.1672L21.8189 11.7999C21.2925 11.6759 20.8075 11.4191 20.4107 11.0544C20.014 10.6898 19.7191 10.2297 19.5546 9.71871C19.3901 9.20777 19.3616 8.66335 19.4719 8.13828C19.5822 7.61321 19.8276 7.12533 20.1841 6.72195C20.0533 8.23453 19.9444 10.3738 23.0613 10.6331C23.0613 12.4265 23.8024 12.9019 24.5871 12.9019C25.007 12.911 25.4215 12.8064 25.7859 12.5994C26.3526 12.2969 25.9821 11.8215 25.7859 11.6919C25.5872 11.5205 25.4366 11.3012 25.3487 11.055C25.2609 10.8089 25.2388 10.5444 25.2846 10.2873L25.4154 10.1361H27.5951L27.7476 10.2873C27.7934 10.5444 27.7714 10.8089 27.6835 11.055C27.5956 11.3012 27.445 11.5205 27.2463 11.6919C27.0937 11.8215 26.6796 12.2969 27.2463 12.5994C27.6081 12.8129 28.0244 12.918 28.4451 12.9019C29.208 12.9019 29.9927 12.4265 29.9491 10.6331C33.0879 10.3738 32.9353 8.23453 32.8045 6.72195C33.1611 7.12242 33.4078 7.60716 33.5207 8.12952C33.6336 8.65188 33.6089 9.19425 33.449 9.70441C33.2892 10.2146 32.9995 10.6753 32.6079 11.0423C32.2164 11.4094 31.7361 11.6702 31.2133 11.7999H31.1697ZM20.6637 21.5236V21.6965C20.2874 22.3448 20.0471 23.0618 19.9572 23.8044C19.8673 24.547 19.9297 25.3 20.1405 26.0181C19.597 25.8333 19.1349 25.4675 18.8329 24.9829C18.5308 24.4983 18.4075 23.9249 18.484 23.3603C15.9337 20.9834 15.3234 18.5417 17.1326 16.5105L18.048 15.4301L18.2224 15.0628V14.6738L18.7237 16.4889V16.8562L18.5494 17.2236L18.266 17.5693C17.3069 18.6713 17.5685 20.1407 19.0507 21.4804C19.2033 21.1131 19.334 20.9186 19.4866 20.5945L19.8354 19.9462V19.5789L19.7264 19.1899L20.6201 20.8106L20.7508 21.1779L20.6637 21.5236ZM22.2112 6.39782H24.9576L25.5461 6.89482V7.80237L25.0448 7.47824H24.3909L24.6525 8.1481C24.6525 8.28331 24.6253 8.41716 24.5725 8.54181C24.5196 8.66645 24.4422 8.77938 24.3448 8.87398C24.2473 8.96857 24.1318 9.04292 24.005 9.09267C23.8781 9.14242 23.7426 9.16657 23.6062 9.16369C23.4709 9.16664 23.3363 9.14238 23.2107 9.09239C23.0851 9.0424 22.9709 8.9677 22.8752 8.8728C22.7795 8.7779 22.7041 8.66476 22.6537 8.54021C22.6033 8.41566 22.5788 8.28228 22.5818 8.1481L22.7997 7.47824H22.2112C21.5573 7.47824 20.9906 6.61391 20.9906 5.83601C21.1349 6.01849 21.3207 6.16453 21.5329 6.26217C21.745 6.35982 21.9775 6.4063 22.2112 6.39782ZM22.6472 2.07617L23.4755 2.50833L24.6307 3.95609L25.2628 4.51791H24.3037C24.092 4.54838 23.8759 4.52688 23.6745 4.4553C23.4731 4.38372 23.2925 4.26425 23.1485 4.10735L22.0804 2.59477L21.5137 2.09778L22.6472 2.07617ZM25.5244 1.51435C25.7545 1.52595 25.9787 1.59057 26.1793 1.7031C26.3798 1.81563 26.5511 1.97296 26.6796 2.1626L28.0528 4.10735L28.7939 4.7556H27.5079C27.2995 4.76114 27.0936 4.7096 26.9129 4.60667C26.7322 4.50374 26.5835 4.3534 26.4834 4.17217L25.3282 2.59477C25.2297 2.36697 25.0836 2.16249 24.8995 1.99486C24.7154 1.82723 24.4975 1.70028 24.2601 1.62239L25.5244 1.51435ZM29.0554 2.07617L29.9273 2.50833L31.0172 3.95609L31.6929 4.51791H30.712C30.5035 4.51361 30.2984 4.4651 30.1104 4.37565C29.9224 4.2862 29.7559 4.15788 29.6222 3.99931L28.5323 2.57316L27.9656 2.07617H29.0554ZM30.4504 8.10488C30.4504 8.37423 30.3425 8.63255 30.1504 8.82301C29.9583 9.01347 29.6977 9.12047 29.426 9.12047C29.2886 9.12334 29.152 9.09934 29.0239 9.04985C28.8959 9.00036 28.7789 8.92634 28.6797 8.83203C28.5805 8.73772 28.5011 8.62496 28.4459 8.50019C28.3907 8.37543 28.3608 8.2411 28.3579 8.10488L28.5977 7.43503H27.9656L27.4861 7.75915L27.5079 6.91643L28.1182 6.41944H30.8646C31.1015 6.4279 31.3371 6.38153 31.5527 6.28401C31.7684 6.1865 31.9582 6.0405 32.107 5.85762C32.107 6.63552 31.5403 7.49985 30.8646 7.49985H30.2761L30.4504 8.10488ZM79.9729 24.3327H77.7932H77.4009L77.1393 24.2031L76.0931 22.6689L76.3982 22.9282H76.7906H79.5587H79.9293L80.2345 23.1875L78.9702 21.3508L78.6433 21.0915H78.2727H75.4609L75.0686 20.9834L74.7416 20.7241L73.5864 18.9955L73.8698 19.2548H74.2839H77.0085H77.4009L77.706 19.5141L76.4418 17.6774L76.2238 17.7206L75.8315 17.6125H73.6518H73.2595L72.9325 17.3316L71.4939 15.1708C72.7647 15.1437 73.9977 14.7374 75.032 14.005C76.0663 13.2726 76.8539 12.2481 77.2919 11.0652C77.9022 8.21292 75.1122 5.46867 70.949 4.84203C70.6388 4.79747 70.3523 4.6522 70.1343 4.42896C69.9163 4.20573 69.7791 3.91713 69.7442 3.60834C69.7093 3.29956 69.7787 2.98802 69.9415 2.7225C70.1043 2.45698 70.3513 2.25248 70.6438 2.141C70.1986 1.94167 69.7156 1.83855 69.227 1.83848C68.4026 1.79062 67.592 2.06455 66.9688 2.60166C66.3455 3.13877 65.9591 3.89638 65.8921 4.71238L66.0447 5.5551C63.9848 6.50278 62.1669 7.89872 60.7263 9.63907C62.2773 9.23291 63.8738 9.02237 65.478 9.01243V8.79635C65.478 8.22326 65.7076 7.67364 66.1164 7.26841C66.5252 6.86317 67.0796 6.63552 67.6577 6.63552C67.3174 6.77779 67.0233 7.01045 66.808 7.30785C66.5926 7.60525 66.4642 7.95585 66.437 8.32097C66.4342 8.47034 66.4613 8.61877 66.517 8.7576C66.5727 8.89643 66.6557 9.02286 66.7612 9.1295C66.8668 9.23614 66.9927 9.32084 67.1316 9.37866C67.2706 9.43647 67.4198 9.46623 67.5705 9.46621L68.2462 9.25013V8.79635C68.2462 8.37799 68.4138 7.97678 68.7122 7.68096C69.0106 7.38514 69.4154 7.21894 69.8374 7.21894H70.0553C69.7485 7.36458 69.4906 7.59502 69.3127 7.88253C69.1348 8.17004 69.0445 8.50238 69.0527 8.83956C69.0584 9.30574 69.2492 9.7509 69.5838 10.0785C69.9184 10.4062 70.3697 10.5899 70.84 10.5898H71.1016V10.2657C71.1016 9.92759 71.2371 9.60332 71.4782 9.36423C71.7194 9.12515 72.0465 8.99082 72.3876 8.99082C72.7287 8.99082 73.0558 9.12515 73.2969 9.36423C73.5381 9.60332 73.6736 9.92759 73.6736 10.2657C73.6736 11.7783 71.9299 11.9296 70.7092 11.5838C67.4516 10.5252 64.0043 10.1643 60.5955 10.525C56.4541 11.13 49.6971 13.8959 42.4823 13.6582C40.7432 13.5799 39.0181 13.3117 37.3383 12.8587L37.796 13.3989C38.1736 13.92 38.4014 14.5328 38.4551 15.1722C38.5088 15.8115 38.3865 16.4533 38.1011 17.0291C38.0188 16.2708 37.7592 15.542 37.343 14.9006C36.9267 14.2592 36.3654 13.7228 35.7035 13.3341C35.2675 13.01 35.0714 12.7075 35.1368 12.2969L35.4855 10.4602V10.8491L35.6817 11.1949L36.3574 11.8647C36.6492 10.0413 36.2027 8.17737 35.115 6.67873C35.616 5.39588 35.6923 3.9883 35.3329 2.65959C35.3088 3.01439 35.1967 3.35779 35.0066 3.65934C34.8165 3.96089 34.5542 4.21127 34.2431 4.38826C34.0452 4.47525 33.8696 4.60539 33.7295 4.76899C33.5894 4.93259 33.4884 5.12543 33.4339 5.33314C33.3794 5.54084 33.3729 5.75806 33.4149 5.96859C33.4569 6.17913 33.5463 6.37756 33.6764 6.54909C32.9353 6.18175 31.9108 4.79881 32.4993 4.02092C33.0879 3.24302 34.8752 3.56714 35.115 2.09778C34.2444 1.86259 33.3263 1.86259 32.4558 2.09778C32.1221 1.72949 31.7111 1.43806 31.2517 1.24395C30.7923 1.04984 30.2956 0.957748 29.7965 0.974147C28.7866 0.3379 27.6147 0 26.418 0C25.2214 0 24.0495 0.3379 23.0395 0.974147C22.5404 0.957748 22.0437 1.04984 21.5843 1.24395C21.125 1.43806 20.714 1.72949 20.3803 2.09778C19.5245 1.86304 18.6205 1.86304 17.7647 2.09778C17.939 3.56714 19.7046 3.15658 20.3149 4.02092C20.9252 4.88525 19.9008 6.18175 19.1597 6.54909C19.294 6.37902 19.387 6.18052 19.4313 5.96904C19.4757 5.75755 19.4702 5.53878 19.4154 5.32972C19.3606 5.12067 19.2578 4.92697 19.1152 4.76368C18.9725 4.6004 18.7938 4.47193 18.593 4.38826C18.2818 4.21127 18.0196 3.96089 17.8295 3.65934C17.6394 3.35779 17.5273 3.01439 17.5031 2.65959C17.1438 3.9883 17.2201 5.39588 17.7211 6.67873C16.6365 8.17914 16.1831 10.0389 16.4569 11.8647L17.1326 11.1949L17.3505 10.8491V10.4602L17.6775 12.2969C17.6775 12.7075 17.6775 13.01 17.1108 13.3341C16.4606 13.7362 15.9084 14.2761 15.4939 14.915C15.0793 15.5539 14.8127 16.2759 14.7131 17.0291C14.44 16.4492 14.3263 15.8079 14.3837 15.1704C14.4412 14.5329 14.6676 13.9217 15.0401 13.3989C13.52 12.5268 12.1632 11.401 11.0294 10.0712C10.737 9.72211 10.5769 9.28258 10.5769 8.82876C10.5769 8.37494 10.737 7.93541 11.0294 7.58629C12.1629 6.00888 12.4026 4.30182 11.0294 3.15658V2.89728C11.0397 2.39177 10.8709 1.89868 10.5523 1.50386C10.2336 1.10904 9.78544 0.837476 9.2857 0.736454C9.49612 1.01668 9.60377 1.35972 9.59085 1.70883C9.58512 2.11196 9.4559 2.50383 9.22031 2.83246C9.42146 3.10093 9.52862 3.42721 9.52546 3.76162C9.51892 3.98568 9.46735 4.2062 9.37378 4.41027C9.28021 4.61434 9.14653 4.79785 8.98054 4.95007V4.43147C8.97719 3.95142 8.82178 3.48456 8.53626 3.09682C8.25074 2.70908 7.84956 2.42008 7.38937 2.27064C7.31007 1.88522 7.10055 1.53814 6.79541 1.28671C6.49026 1.03528 6.10774 0.894527 5.71101 0.887712C5.4815 0.89255 5.25529 0.942835 5.04567 1.03561C4.83605 1.12838 4.64725 1.26176 4.49039 1.42792C4.79904 1.45115 5.08986 1.58041 5.31268 1.79342C5.53551 2.00643 5.67638 2.28983 5.71101 2.59477C5.39064 2.82899 5.14783 3.15244 5.01351 3.52393C5.54738 3.5239 6.05971 3.73265 6.43924 4.10485C6.81878 4.47706 7.03488 4.98267 7.04062 5.51188V5.87923C6.96434 5.43689 6.75104 5.02907 6.43031 4.71238C6.12139 4.41616 5.73102 4.21709 5.30829 4.1402C4.88556 4.0633 4.44934 4.11202 4.05446 4.28021C3.88825 4.06527 3.67162 3.8938 3.42339 3.78068C3.17516 3.66757 2.90284 3.61624 2.63006 3.63114C2.35727 3.64605 2.09229 3.72674 1.85811 3.86621C1.62392 4.00569 1.42762 4.19972 1.28625 4.43147C1.57434 4.44865 1.85493 4.52934 2.10757 4.66765C2.36021 4.80597 2.57854 4.99842 2.74664 5.23098C2.32983 5.72479 2.10145 6.34817 2.10145 6.99206C2.10145 7.63594 2.32983 8.25932 2.74664 8.75313C3.03743 9.01239 3.39324 9.18932 3.77674 9.26536C4.16024 9.3414 4.55731 9.31374 4.92632 9.1853H5.1225L5.64562 9.7255L5.1225 10.2441L4.75195 10.1145L4.01086 9.87676C3.85447 9.87389 3.69906 9.90195 3.55373 9.95931C3.4084 10.0167 3.27606 10.1021 3.16444 10.2108C3.05283 10.3194 2.96417 10.449 2.90366 10.592C2.84315 10.735 2.812 10.8885 2.81203 11.0436V11.1733H2.44148L1.6132 10.8275V11.2381C1.61729 11.6312 1.76931 12.0086 2.03945 12.2964C2.30959 12.5842 2.67839 12.7616 3.0736 12.7939C3.26294 13.2471 3.58338 13.6347 3.99454 13.9077C4.4057 14.1807 4.88918 14.327 5.38406 14.3281C5.89858 14.3229 6.3997 14.1648 6.82265 13.8743L7.41116 13.6798C7.55611 13.677 7.70018 13.7028 7.83493 13.7558C7.96968 13.8088 8.09241 13.8879 8.19594 13.9885C8.29946 14.0891 8.38169 14.2092 8.43781 14.3417C8.49394 14.4742 8.52284 14.6165 8.52281 14.7602C8.5164 15.0043 8.42996 15.2397 8.27658 15.4307C8.1232 15.6218 7.91123 15.7581 7.67273 15.819L6.82265 15.9919H6.43031L6.05976 15.7974L7.99968 17.5909L8.34843 17.807H8.76258L10.3537 17.4613H10.7461L11.0948 17.6558L12.4244 18.909L12.2501 18.6065H11.8359L10.2666 18.9739H9.87421L9.50367 18.7578L11.2692 20.4432L11.6398 20.6377H12.0321L13.6451 20.292H14.0156L14.3644 20.4648L15.6722 21.7181L15.3452 21.5236H14.9529L13.3835 21.8694H12.9694L12.5988 21.6749L14.3862 23.3387L14.7349 23.5332H15.1491L17.0454 23.1226C15.1926 24.1815 13.2091 25.2835 11.1166 26.6664C10.5055 27.0615 9.80409 27.2982 9.07673 27.3548C8.34936 27.4114 7.6193 27.2862 6.95343 26.9905C6.21131 26.7075 5.41006 26.611 4.62117 26.7096C4.26414 26.7791 3.92605 26.9229 3.62922 27.1315C3.33239 27.3401 3.08357 27.6087 2.89922 27.9197L3.83648 27.7468C4.18622 27.7409 4.53339 27.807 4.85605 27.9409C5.17871 28.0748 5.46983 28.2736 5.71101 28.5247C4.90554 28.2104 4.00985 28.2104 3.20437 28.5247C2.48735 28.7091 1.86596 29.1529 1.46254 29.7688C1.05912 30.3847 0.902912 31.128 1.02469 31.8524C0.726374 31.9603 0.46945 32.1577 0.28972 32.4173C0.10999 32.6768 0.0164124 32.9854 0.0220323 33.3001C0.0300282 33.7114 0.19337 34.1046 0.479764 34.4022C0.557011 34.0605 0.746734 33.754 1.01903 33.531C1.29133 33.3081 1.63073 33.1812 1.98375 33.1705C2.30106 33.3605 2.64688 33.499 3.0082 33.5811L3.46594 33.0625V32.6735C3.46593 32.3368 3.53316 32.0035 3.66378 31.6927C3.7944 31.382 3.98581 31.0999 4.22695 30.8629C4.4681 30.6258 4.75422 30.4384 5.06879 30.3116C5.38336 30.1847 5.72017 30.1209 6.05976 30.1237H6.40851C5.84183 30.2597 5.33789 30.581 4.97802 31.0358C4.61814 31.4906 4.42333 32.0523 4.425 32.6303V33.0841C4.17706 33.1668 3.95391 33.3097 3.77587 33.4997C3.59782 33.6898 3.47052 33.9209 3.40554 34.1721C3.34056 34.4233 3.33997 34.6867 3.40381 34.9382C3.46765 35.1897 3.59391 35.4214 3.77109 35.6122C3.99239 35.1825 4.32082 34.816 4.7252 34.5475C5.12957 34.279 5.59647 34.1174 6.08155 34.078C6.45606 34.1913 6.84527 34.2495 7.23679 34.2509H7.99968C7.7787 33.9258 7.66451 33.5409 7.67273 33.1489C7.66985 32.8878 7.71888 32.6288 7.817 32.3865C7.91513 32.1442 8.06044 31.9234 8.24463 31.7368C8.42882 31.5502 8.64827 31.4014 8.89048 31.2989C9.13269 31.1964 9.3929 31.1421 9.65625 31.1393H10.0704C9.02413 31.5931 8.34843 32.5006 8.5882 33.3001C8.70309 33.6029 8.90039 33.8682 9.15819 34.0666C9.41598 34.2649 9.7242 34.3886 10.0486 34.4238C10.0335 34.8561 9.9139 35.2785 9.69984 35.6555C10.1579 35.6301 10.601 35.4847 10.9839 35.2342C11.3669 34.9836 11.6759 34.6369 11.8795 34.2293C12.3429 34.0906 12.7465 33.8029 13.0267 33.4117C13.3069 33.0204 13.4478 32.5479 13.4271 32.0685L12.904 31.3338C12.904 31.053 13.0165 30.7837 13.2168 30.5851C13.4171 30.3865 13.6888 30.275 13.972 30.275C14.1113 30.275 14.2491 30.3025 14.3775 30.356C14.5059 30.4094 14.6222 30.4878 14.7196 30.5864C14.8171 30.685 14.8937 30.8019 14.945 30.9302C14.9963 31.0586 15.0212 31.1958 15.0183 31.3338L14.7349 32.0469H16.9146L17.3287 31.9388L17.6339 31.6579L19.0507 29.4971L19.2687 29.3242H19.5084H21.274H21.0124L20.8162 29.4971L19.3776 31.6579L19.0725 31.9388L18.6583 32.0469H21.3176L21.7099 31.9388L22.0151 31.6579L23.6498 29.3242C23.1113 29.0131 22.676 28.553 22.3972 28.0004C22.1185 27.4477 22.0084 26.8264 22.0804 26.2126C22.2088 25.3416 22.4055 24.4819 22.669 23.6412V23.3603V22.9714L22.451 22.6473L23.8242 24.0302L24.0858 24.3543V25.0674C23.8476 25.5324 23.7719 26.0627 23.8706 26.575C23.9692 27.0873 24.2365 27.5526 24.6307 27.8981L25.0012 28.179L25.9167 28.7624V25.1106H27.2245V28.8705V29.2594L27.5079 29.5619L28.7503 30.3614L29.1644 30.4695H29.535L31.8672 29.4107H31.4531L31.0825 29.3026L28.4015 27.5956C29.6876 26.5151 28.9901 25.4347 28.9247 24.7649V24.4408V24.0518L29.1644 23.7277L30.5376 22.3447L30.3197 22.6689V23.0578V23.3387C30.3197 24.2679 31.3877 25.9965 30.603 26.9473L33.0443 28.4815L33.4148 28.6112H33.829L36.2266 27.5307H35.8125L35.4419 27.4011L32.7827 25.7372C32.9854 25.0571 33.0493 24.3437 32.9707 23.6388C32.8921 22.9339 32.6726 22.2515 32.325 21.6317V21.4588V21.0483V20.6809L33.2186 19.0603L33.1097 19.4492V19.8166L33.4584 20.4648C33.6137 20.7519 33.7519 21.0477 33.8725 21.3508C35.3765 20.0111 35.7035 18.7362 34.7444 17.6341L34.4611 17.31L34.2867 16.9643V16.5537L34.7662 14.7602V15.1276L34.9624 15.4949L35.8997 16.5753C37.7088 18.6065 36.6189 21.2427 34.4611 23.2307C34.58 23.7183 34.6241 24.221 34.5918 24.7217L37.4472 26.5368H37.8614H38.2537L40.4334 25.6292H40.0411C39.7847 25.6293 39.5384 25.5298 39.3551 25.3521C39.1718 25.1744 39.0659 24.9326 39.0602 24.6784C39.0639 24.4707 39.1332 24.2694 39.2583 24.1027C39.3834 23.9361 39.5581 23.8125 39.7577 23.7493C47.6918 21.3508 55.0155 15.106 59.8326 15.106C62.1431 15.106 64.0612 16.4889 64.0612 18.2392L63.9086 19.0603C62.8624 21.9126 64.3663 24.6136 68.268 25.6724C68.5827 25.758 68.8601 25.9442 69.0571 26.2021C69.2542 26.46 69.3599 26.7751 69.3578 27.0986V27.4659H69.6194C70.1119 27.4974 70.605 27.4142 71.0592 27.2228C71.5134 27.0314 71.9161 26.7373 72.235 26.3639C72.9635 26.362 73.6912 26.3187 74.4147 26.2342L74.6327 26.8393C74.7852 27.682 74.5019 28.4167 74.0006 28.5679C73.0383 28.7104 72.0591 28.6958 71.1016 28.5247C70.323 28.5361 69.5801 28.8507 69.0336 29.4006C68.487 29.9505 68.1807 30.6915 68.1808 31.4634V31.8308C67.9204 31.9898 67.7055 32.2123 67.5567 32.4771C67.4079 32.742 67.33 33.0402 67.3307 33.3434L67.5487 34.2077C68.0488 33.6259 68.6956 33.1859 69.4232 32.9328C69.4568 32.2506 69.7541 31.6074 70.2532 31.1367C70.7524 30.666 71.4153 30.4038 72.1042 30.4046H72.7581C72.0394 30.4843 71.3755 30.8235 70.893 31.3576C70.4106 31.8917 70.1434 32.5832 70.1425 33.3001V33.6243L69.8592 34.4022C69.8596 34.5875 69.9008 34.7705 69.9798 34.9384C70.0589 35.1064 70.1739 35.2552 70.3169 35.3745C70.4979 35.024 70.7501 34.7144 71.0577 34.4652C71.3653 34.216 71.7216 34.0327 72.1042 33.9268C72.6193 33.7361 73.1778 33.6912 73.7172 33.7971L73.5864 33.0841C73.5864 32.4709 73.8321 31.8828 74.2695 31.4492C74.7069 31.0156 75.3001 30.772 75.9187 30.772H76.2674C75.8301 30.8338 75.4294 31.0485 75.1376 31.3773C74.8459 31.7062 74.6822 32.1276 74.6763 32.5655C74.6742 32.8586 74.7446 33.1479 74.8814 33.4078C75.0182 33.6677 75.2172 33.8904 75.4609 34.0564C75.4627 34.2929 75.514 34.5263 75.6116 34.7421C75.7091 34.9578 75.8508 35.1511 76.0277 35.3097C76.1083 34.8977 76.3305 34.5261 76.6563 34.2582C76.9822 33.9903 77.3917 33.8427 77.815 33.8404C78.4565 33.8466 79.0955 33.7592 79.7113 33.5811C80.1042 33.4501 80.4458 33.2005 80.6882 32.8671C80.9306 32.5338 81.0616 32.1336 81.0627 31.7228C81.0687 31.4327 81.0069 31.1452 80.8821 30.8828C80.7573 30.6204 80.5729 30.3902 80.3434 30.2102C80.57 28.9103 80.518 27.5777 80.1909 26.2991H80.387C80.652 26.2971 80.9134 26.3591 81.1488 26.4795C81.3842 26.6 81.5866 26.7753 81.7384 26.9905L81.891 26.2126C81.892 25.6613 81.6804 25.1305 81.2995 24.7288C80.9186 24.3271 80.3972 24.0849 79.8421 24.0518L79.9729 24.3327ZM26.3744 16.705C25.3936 16.705 24.3691 17.0291 24.4563 17.9367C24.5435 18.8442 25.5897 18.4985 26.3744 18.4985C27.1591 18.4985 28.2054 19.0171 28.3143 17.9367C28.4233 16.8562 27.3553 16.705 26.3744 16.705ZM26.3744 15.6246C26.9163 15.6105 27.4578 15.6612 27.9874 15.7758C28.1189 15.0123 28.1772 14.2382 28.1618 13.4637L27.5079 14.6954L27.1809 13.9823L26.9412 13.7446H26.745H26.1565H25.9603L25.6987 13.9823L25.3282 14.6954L24.6089 13.8527C24.6043 14.6268 24.6626 15.4 24.7833 16.1648C25.3131 16.0522 25.8545 16.0015 26.3962 16.0135L26.3744 15.6246ZM44.6184 45.5953C42.8964 45.5953 41.5668 44.947 41.3489 43.8666V43.2184C41.3857 43.0067 41.4988 42.8155 41.6672 42.6803C41.8356 42.5452 42.0478 42.4753 42.2643 42.4837C42.3864 42.4836 42.5073 42.5078 42.6198 42.5548C42.7323 42.6017 42.8342 42.6705 42.9195 42.7571C43.0048 42.8437 43.0718 42.9463 43.1165 43.0589C43.1612 43.1715 43.1827 43.2918 43.1798 43.4128L42.94 44.0611H43.4632C43.9195 44.0652 44.3742 44.0071 44.8146 43.8882C45.1489 43.8027 45.4454 43.6102 45.6582 43.3407C45.871 43.0711 45.9882 42.7395 45.9916 42.3972C45.9806 41.9938 45.814 41.6099 45.5261 41.3245C45.2383 41.0391 44.851 40.874 44.444 40.863H44.2914L45.0107 40.7334C45.4868 40.7334 45.9437 40.9194 46.2823 41.251C46.621 41.5827 46.8141 42.0334 46.8199 42.5053V42.6565C49.2806 42.3563 51.5449 41.1725 53.1846 39.3289C52.2982 39.5314 51.3914 39.6329 50.4818 39.6314C49.4596 39.6479 48.44 39.5243 47.452 39.264C46.2655 38.934 45.0435 38.7454 43.8119 38.7022C42.3858 38.5737 40.9652 39.0002 39.8506 39.8914C38.736 40.7827 38.0148 42.0687 37.8396 43.4777C37.9207 44.6229 38.3992 45.7049 39.1939 46.54C39.9886 47.3751 41.0504 47.9117 42.1989 48.0586C47.8879 49.2255 54.6014 45.8978 60.2903 44.7093C61.7044 43.3169 63.339 42.1636 65.1292 41.2952V40.6686C57.6093 41.9003 50.8523 45.7465 44.7274 45.6817L44.6184 45.5953ZM42.1772 11.7783C47.8661 12.9451 54.5796 9.61746 60.2685 8.4074C61.6843 7.02854 63.3191 5.88974 65.1074 5.03651V4.38826C57.5875 5.61993 50.8305 9.4446 44.7056 9.40138C42.9836 9.40138 41.654 8.75313 41.4361 7.69433V6.91643C41.4771 6.70676 41.5913 6.51813 41.7588 6.38375C41.9262 6.24937 42.1361 6.17784 42.3515 6.18174C42.5963 6.18739 42.8291 6.28777 43.0002 6.46141C43.1713 6.63505 43.2671 6.86817 43.267 7.1109L43.0272 7.75915H43.5504C44.0051 7.75898 44.4584 7.70824 44.9018 7.60789C45.1708 7.44999 45.3862 7.216 45.5202 6.93594C45.6542 6.65587 45.7008 6.3425 45.654 6.03602C45.6071 5.72953 45.469 5.44391 45.2573 5.21577C45.0456 4.98764 44.77 4.8274 44.4658 4.7556H44.2914L44.9454 4.53952C45.4252 4.53952 45.8853 4.72847 46.2246 5.06481C46.5639 5.40116 46.7545 5.85734 46.7545 6.333V6.48426C49.2212 6.14223 51.4809 4.9301 53.1192 3.07015C51.2314 3.48688 49.2743 3.48688 47.3866 3.07015C46.2001 2.74007 44.9781 2.55146 43.7465 2.50833C42.3193 2.37423 40.8957 2.79863 39.7798 3.69089C38.6639 4.58315 37.9441 5.87256 37.7742 7.28376C37.8561 8.42653 38.3354 9.50572 39.1304 10.3372C39.9254 11.1687 40.9869 11.7009 42.1336 11.8431L42.1772 11.7783ZM26.4616 52.2938C27.003 52.2906 27.5434 52.3413 28.0746 52.4451C28.2074 51.6817 28.2658 50.9075 28.249 50.133L27.5297 50.9541L27.2027 50.133L26.9629 49.8737H26.7668H26.1783H25.9821L25.7205 50.133L25.3936 50.8245L24.6743 50.133C24.6766 50.8566 24.7349 51.579 24.8486 52.2938C25.3801 52.192 25.9203 52.1413 26.4616 52.1426V52.2938ZM31.1697 84.1445L30.8428 84.4902C30.8517 84.8727 30.7355 85.2478 30.5116 85.5594C30.2876 85.8709 29.968 86.1023 29.6004 86.2188C29.5919 87.2081 29.4377 88.1909 29.1426 89.136C29.9709 90.8214 29.317 92.0315 28.6631 92.2908C28.0092 92.5501 27.2027 92.2908 26.4834 92.2908C25.7641 92.2908 24.914 92.6149 24.3037 92.2908C23.6934 91.9667 23.0177 90.8214 23.8242 89.136C23.5362 88.1899 23.3893 87.2071 23.3883 86.2188C23.0107 86.1161 22.6797 85.8889 22.4499 85.5746C22.2201 85.2604 22.1051 84.8779 22.124 84.4902L21.8189 84.1445C21.2923 84.0169 20.8077 83.7572 20.4116 83.3904C20.0155 83.0236 19.7212 82.5619 19.557 82.0498C19.3928 81.5376 19.3643 80.9922 19.4741 80.466C19.5839 79.9398 19.8284 79.4504 20.1841 79.0449C20.0533 80.5791 19.9444 82.7183 23.0613 82.9776C23.0613 84.7495 23.8024 85.1384 24.5871 85.1384C25.0047 85.1509 25.4182 85.054 25.7859 84.8575C26.3526 84.5766 25.9821 84.0796 25.7859 83.9284C25.589 83.7604 25.4393 83.5448 25.3515 83.3024C25.2636 83.06 25.2406 82.7992 25.2846 82.5454H25.3282H27.5079L27.6604 82.6967C27.7045 82.9505 27.6814 83.2113 27.5936 83.4536C27.5057 83.696 27.356 83.9117 27.1591 84.0796C27.0065 84.2309 26.5924 84.7279 27.1591 85.0088C27.5232 85.2148 27.9394 85.3123 28.3579 85.2897C29.1208 85.2897 29.9055 84.8143 29.8619 83.1289C33.0007 82.8696 32.8481 80.7303 32.7173 79.1962C33.0731 79.5988 33.319 80.085 33.4314 80.6086C33.5438 81.1321 33.5191 81.6755 33.3595 82.1868C33.2 82.6982 32.9109 83.1605 32.52 83.5297C32.129 83.8989 31.6491 84.1626 31.1261 84.2957L31.1697 84.1445ZM20.5765 93.9978V94.1707C20.2025 94.8199 19.9636 95.5368 19.8737 96.2791C19.7839 97.0213 19.845 97.7739 20.0533 98.4924C19.5074 98.3111 19.0428 97.946 18.7402 97.4605C18.4375 96.9749 18.316 96.3997 18.3968 95.8345C15.8465 93.4576 15.2362 91.0159 17.0454 88.9847L17.9608 87.9043L18.1352 87.5586V87.148L18.6365 88.9199V89.3521L18.4622 89.6978L18.1788 90.0435C17.2198 91.1455 17.4813 92.6149 18.9635 93.9546C19.1161 93.5873 19.2469 93.3928 19.3994 93.0687L19.7482 92.4204V92.0315L19.6392 91.6425L20.5329 93.2848L20.6637 93.6521L20.5765 93.9978ZM22.124 78.872H24.8704L25.459 79.3906V80.3846L24.9576 80.0389H24.3037L24.5653 80.6871C24.5683 80.8241 24.5432 80.9603 24.4917 81.0875C24.4402 81.2147 24.3632 81.3302 24.2655 81.4271C24.1677 81.524 24.0512 81.6003 23.9229 81.6514C23.7946 81.7025 23.6572 81.7273 23.519 81.7243C23.3827 81.7244 23.2476 81.6974 23.1219 81.645C22.9962 81.5926 22.8822 81.5159 22.7868 81.4193C22.6914 81.3227 22.6164 81.2082 22.5662 81.0824C22.516 80.9567 22.4917 80.8223 22.4946 80.6871L22.7126 80.0389H22.124C21.4701 80.0389 20.9034 79.1746 20.9034 78.375C21.0453 78.5602 21.2306 78.7083 21.4434 78.8062C21.6561 78.9041 21.8898 78.949 22.124 78.9369V78.872ZM22.56 74.6152L23.3883 75.0474L24.5435 76.4951L25.1756 77.0353H24.2165C24.0073 77.04 23.8002 76.993 23.6138 76.8987C23.4274 76.8045 23.2675 76.6658 23.1485 76.4951L22.0369 75.0906L21.4701 74.5936L22.56 74.6152ZM25.4372 74.0534C25.6673 74.065 25.8915 74.1296 26.0921 74.2421C26.2926 74.3547 26.4639 74.512 26.5924 74.7016L27.9656 76.6464L28.7067 77.2514H27.5079C27.3005 77.2668 27.0931 77.2219 26.9111 77.1221C26.7291 77.0223 26.5805 76.872 26.4834 76.6896L25.3282 74.9825C24.9358 74.3559 24.7615 74.2046 24.2601 74.0318L25.4372 74.0534ZM28.9683 74.6152L29.8401 75.0474L30.93 76.4951L31.6057 77.0353H30.6248C30.4156 77.0355 30.2089 76.9889 30.0203 76.8991C29.8316 76.8094 29.6658 76.6787 29.535 76.5167L28.4451 75.1122L27.8784 74.6152H28.9683ZM30.3633 80.6223C30.3662 80.7575 30.3418 80.8919 30.2916 81.0176C30.2414 81.1433 30.1664 81.2578 30.071 81.3544C29.9756 81.451 29.8617 81.5278 29.7359 81.5802C29.6102 81.6326 29.4752 81.6595 29.3388 81.6595C29.1996 81.6624 29.0612 81.6377 28.9317 81.5868C28.8023 81.536 28.6843 81.4601 28.5849 81.3635C28.4854 81.2669 28.4064 81.1515 28.3524 81.0243C28.2985 80.897 28.2707 80.7604 28.2708 80.6223L28.5105 79.9741H27.8784L27.5079 80.3846V79.4555L28.1182 78.9369H30.8646C31.1022 78.9507 31.3396 78.9067 31.5561 78.8088C31.7727 78.7109 31.9618 78.562 32.107 78.375C32.107 79.1746 31.5403 80.0389 30.8646 80.0389H30.2761L30.3633 80.6223ZM79.8857 96.8717H77.706H77.3137L77.0085 96.5908L75.9623 95.0783L76.2674 95.3376H76.6598H79.428H79.7985L80.1037 95.5969L78.8395 93.7602L78.5125 93.5009H78.142H75.4609H75.0686L74.7416 93.2415L73.5864 91.5129L73.8698 91.7722H74.2839H77.0085H77.4009L77.706 92.0315L76.4418 90.1948L76.1366 89.9355H75.7443H73.5646H73.1723L72.8453 89.6762L71.4067 87.5154C72.6775 87.4883 73.9105 87.082 74.9448 86.3496C75.9791 85.6172 76.7667 84.5927 77.2047 83.4098C77.815 80.5575 75.025 77.7916 70.8618 77.2082C70.5465 77.1628 70.2553 77.015 70.0338 76.7878C69.8124 76.5607 69.6733 76.2671 69.6384 75.9531C69.6035 75.6391 69.6747 75.3225 69.8409 75.053C70.0071 74.7835 70.2589 74.5763 70.5567 74.464C70.1099 74.2714 69.6269 74.1756 69.1399 74.183C68.3141 74.1295 67.5004 74.4014 66.8758 74.9396C66.2513 75.4779 65.8664 76.2388 65.8049 77.0569L65.9575 77.878C63.9003 78.8301 62.0833 80.2254 60.6391 81.962C62.193 81.5735 63.7882 81.3703 65.3908 81.357V81.1409C65.3908 80.5678 65.6204 80.0182 66.0292 79.613C66.438 79.2077 66.9924 78.9801 67.5705 78.9801C67.2378 79.1388 66.9513 79.3788 66.7378 79.6774C66.5243 79.976 66.3908 80.3234 66.3499 80.6871C66.347 80.8365 66.3741 80.9849 66.4298 81.1238C66.4855 81.2626 66.5685 81.389 66.674 81.4957C66.7796 81.6023 66.9055 81.687 67.0444 81.7448C67.1834 81.8026 67.3326 81.8324 67.4833 81.8324L68.159 81.6163V81.1625C68.1561 80.9546 68.1952 80.7481 68.2741 80.5554C68.3531 80.3628 68.4702 80.1877 68.6185 80.0406C68.7668 79.8936 68.9434 79.7775 69.1378 79.6993C69.3322 79.621 69.5404 79.5822 69.7502 79.5851H69.9681C69.663 79.727 69.4059 79.9536 69.228 80.2374C69.05 80.5212 68.9588 80.85 68.9655 81.1841C68.9626 81.4176 69.0068 81.6493 69.0956 81.8656C69.1844 82.0819 69.3159 82.2784 69.4825 82.4435C69.649 82.6086 69.8472 82.739 70.0654 82.827C70.2836 82.9151 70.5173 82.9589 70.7528 82.956H71.1016V82.5454C71.1016 82.2073 71.2371 81.8831 71.4782 81.644C71.7194 81.4049 72.0465 81.2706 72.3876 81.2706C72.7287 81.2706 73.0558 81.4049 73.2969 81.644C73.5381 81.8831 73.6736 82.2073 73.6736 82.5454C73.6736 84.058 71.9299 84.2093 70.7092 83.8419C67.4487 82.7966 64.0012 82.4504 60.5955 82.8263C56.4541 83.3882 49.6971 86.1756 42.4823 85.9379C40.7411 85.8808 39.0135 85.6123 37.3383 85.1384L37.796 85.6786C38.1736 86.1997 38.4014 86.8126 38.4551 87.4519C38.5088 88.0912 38.3865 88.733 38.1011 89.3088C38.0188 88.5505 37.7592 87.8218 37.343 87.1803C36.9267 86.5389 36.3654 86.0025 35.7035 85.6138C35.5122 85.5148 35.3556 85.3606 35.2544 85.1716C35.1533 84.9826 35.1122 84.7676 35.1368 84.555L35.4855 82.7183V83.1289L35.6817 83.4746L36.3574 84.1445C36.6492 82.321 36.2027 80.4571 35.115 78.9585C35.616 77.6756 35.6923 76.268 35.3329 74.9393C35.3053 75.2904 35.1916 75.6294 35.0016 75.9269C34.8117 76.2244 34.5513 76.4714 34.2431 76.6464C34.0452 76.7334 33.8696 76.8635 33.7295 77.0271C33.5894 77.1907 33.4884 77.3836 33.4339 77.5913C33.3794 77.799 33.3729 78.0162 33.4149 78.2267C33.4569 78.4373 33.5463 78.6357 33.6764 78.8072C32.9353 78.4399 31.9108 77.1002 32.4993 76.3007C33.0879 75.5011 34.8752 75.8469 35.115 74.3775C34.2444 74.1423 33.3263 74.1423 32.4558 74.3775C32.1221 74.0092 31.7111 73.7178 31.2517 73.5237C30.7923 73.3296 30.2956 73.2375 29.7965 73.2539C28.7866 72.6176 27.6147 72.2797 26.418 72.2797C25.2214 72.2797 24.0495 72.6176 23.0395 73.2539C22.5404 73.2375 22.0437 73.3296 21.5843 73.5237C21.125 73.7178 20.714 74.0092 20.3803 74.3775C19.5245 74.1428 18.6205 74.1428 17.7647 74.3775C17.939 75.8469 19.7046 75.4363 20.3149 76.3007C20.9252 77.165 19.9008 78.4615 19.1597 78.8072C19.2898 78.6357 19.3791 78.4373 19.4211 78.2267C19.4631 78.0162 19.4566 77.799 19.4022 77.5913C19.3477 77.3836 19.2466 77.1907 19.1065 77.0271C18.9664 76.8635 18.7909 76.7334 18.593 76.6464C18.2847 76.4714 18.0243 76.2244 17.8344 75.9269C17.6445 75.6294 17.5307 75.2904 17.5031 74.9393C17.1438 76.268 17.2201 77.6756 17.7211 78.9585C16.6365 80.4589 16.1831 82.3186 16.4569 84.1445L17.1326 83.4746L17.3505 83.1289V82.7183L17.6775 84.555C17.6775 84.9872 17.6775 85.2897 17.1108 85.6138C16.4606 86.0159 15.9084 86.5558 15.4939 87.1947C15.0793 87.8336 14.8127 88.5556 14.7131 89.3088C14.44 88.7289 14.3263 88.0876 14.3837 87.4501C14.4412 86.8126 14.6676 86.2014 15.0401 85.6786C13.5246 84.7999 12.1689 83.6751 11.0294 82.351C10.737 82.0019 10.5769 81.5623 10.5769 81.1085C10.5769 80.6547 10.737 80.2151 11.0294 79.866C12.1629 78.2886 12.4026 76.6032 11.0294 75.5444V75.2851C11.0397 74.7795 10.8709 74.2864 10.5523 73.8916C10.2336 73.4968 9.78544 73.2253 9.2857 73.1242C9.49325 73.4141 9.60032 73.7629 9.59085 74.1182C9.58512 74.5213 9.4559 74.9132 9.22031 75.2418C9.42439 75.5005 9.53218 75.8211 9.52546 76.1494C9.52668 76.3716 9.47848 76.5914 9.3843 76.7931C9.29012 76.9948 9.15226 77.1734 8.98054 77.3162V76.8409C8.97719 76.3608 8.82178 75.8939 8.53626 75.5062C8.25074 75.1185 7.84956 74.8295 7.38937 74.68C7.30942 74.2968 7.09905 73.9524 6.7935 73.7045C6.48796 73.4567 6.10579 73.3205 5.71101 73.3187C5.48286 73.3195 5.25722 73.3659 5.04751 73.455C4.83781 73.5441 4.64833 73.6741 4.49039 73.8373C4.79904 73.8605 5.08986 73.9898 5.31268 74.2028C5.53551 74.4158 5.67638 74.6992 5.71101 75.0042C5.39755 75.2452 5.15639 75.5664 5.01351 75.9333C5.54738 75.9333 6.05971 76.142 6.43924 76.5142C6.81878 76.8864 7.03488 77.3921 7.04062 77.9213V78.3102C6.96344 77.8556 6.7509 77.4342 6.43031 77.1002C6.12139 76.8039 5.73102 76.6049 5.30829 76.528C4.88556 76.4511 4.44934 76.4998 4.05446 76.668C3.89334 76.4726 3.69052 76.3151 3.46061 76.2067C3.2307 76.0983 2.97941 76.0419 2.72485 76.0413C2.43592 76.0406 2.15168 76.1138 1.89966 76.2538C1.64763 76.3939 1.43635 76.5961 1.28625 76.8409C1.57616 76.8499 1.85974 76.9271 2.11364 77.0661C2.36754 77.2051 2.5845 77.402 2.74664 77.6404C2.32983 78.1342 2.10145 78.7576 2.10145 79.4014C2.10145 80.0453 2.32983 80.6687 2.74664 81.1625C3.03523 81.4254 3.39001 81.6064 3.7736 81.6862C4.1572 81.7661 4.55542 81.7419 4.92632 81.6163H5.1225L5.64562 82.1565L5.1225 82.6751H4.75195L4.01086 82.4158C3.69665 82.4158 3.39498 82.538 3.17077 82.7562C2.94656 82.9744 2.81774 83.2712 2.81203 83.5827V83.7123H2.44148L1.6132 83.3666V83.7771C1.61729 84.1702 1.76931 84.5476 2.03945 84.8354C2.30959 85.1232 2.67839 85.3006 3.0736 85.3329C3.26531 85.7845 3.58632 86.1705 3.99696 86.4432C4.40759 86.7158 4.88983 86.8632 5.38406 86.8671C5.89858 86.8619 6.3997 86.7038 6.82265 86.4133L7.41116 86.2188C7.55611 86.216 7.70018 86.2418 7.83493 86.2948C7.96968 86.3478 8.09241 86.4269 8.19594 86.5276C8.29946 86.6282 8.38169 86.7482 8.43781 86.8808C8.49394 87.0133 8.52284 87.1555 8.52281 87.2993C8.52296 87.5427 8.43852 87.7787 8.28369 87.9676C8.12886 88.1565 7.9131 88.2868 7.67273 88.3365L6.82265 88.5525H6.43031L6.05976 88.3581L7.99968 90.1732L8.34843 90.346H8.76258L10.3537 89.9787H10.7461L11.0948 90.1732L12.4244 91.4265L12.2501 91.0159H11.8359L10.2666 91.34H9.87421L9.56906 91.1888L11.3346 92.831L11.7051 93.0471H12.0975L13.7105 92.7013H14.081L14.4298 92.8958L15.7376 94.1491L15.4106 93.933H15.0183L13.4489 94.2788H13.0348L12.6642 94.0843L14.4515 95.7265L14.8003 95.921H15.2144L17.1108 95.532C15.258 96.5476 13.2745 97.6929 11.182 99.0542C10.5728 99.4527 9.87232 99.6932 9.14493 99.7537C8.41753 99.8141 7.68647 99.6924 7.01882 99.3999C6.28198 99.0965 5.47526 98.9993 4.68656 99.119C4.33042 99.1753 3.99129 99.3092 3.69355 99.5109C3.39581 99.7127 3.14687 99.9773 2.96461 100.286L3.90187 100.113C4.57499 100.121 5.21748 100.393 5.68922 100.869C4.88374 100.555 3.98805 100.555 3.18258 100.869C2.46383 101.058 1.84208 101.506 1.43896 102.126C1.03583 102.745 0.880335 103.491 1.00289 104.219C0.704581 104.326 0.447657 104.524 0.267927 104.783C0.0881971 105.043 -0.00538079 105.352 0.000239086 105.666C0.0123457 106.077 0.175105 106.469 0.457971 106.768C0.535218 106.427 0.724933 106.12 0.99723 105.897C1.26953 105.674 1.60892 105.547 1.96195 105.537C2.27926 105.727 2.62508 105.865 2.98641 105.947L3.44414 105.429V105.04C3.44414 104.358 3.71742 103.704 4.20386 103.221C4.69029 102.739 5.35004 102.468 6.03797 102.468H6.38672C5.82003 102.604 5.3161 102.926 4.95622 103.38C4.59635 103.835 4.40153 104.397 4.4032 104.975V105.429C4.09447 105.542 3.82735 105.744 3.63678 106.011C3.44622 106.277 3.3411 106.593 3.33516 106.92C3.34727 107.309 3.4934 107.683 3.74929 107.978C3.96606 107.543 4.29282 107.171 4.69773 106.899C5.10264 106.626 5.57189 106.462 6.05976 106.423C6.43426 106.536 6.82347 106.594 7.21499 106.595H7.97789C7.76291 106.252 7.64962 105.855 7.65093 105.45C7.64805 105.19 7.69723 104.932 7.79562 104.691C7.89401 104.45 8.03966 104.231 8.22413 104.046C8.4086 103.861 8.62824 103.714 8.87032 103.614C9.1124 103.514 9.37212 103.462 9.63444 103.462H10.0704C9.60636 103.592 9.20336 103.88 8.93226 104.275C8.66115 104.67 8.53932 105.148 8.5882 105.623C8.70195 105.929 8.89844 106.197 9.15607 106.399C9.4137 106.601 9.72251 106.729 10.0486 106.768C10.0335 107.201 9.9139 107.623 9.69984 108C10.1568 107.97 10.5981 107.823 10.9802 107.573C11.3624 107.323 11.6724 106.979 11.8795 106.574C12.3429 106.435 12.7465 106.147 13.0267 105.756C13.3069 105.365 13.4478 104.892 13.4271 104.413L12.904 103.678C12.9039 103.54 12.9317 103.404 12.9856 103.276C13.0396 103.149 13.1186 103.034 13.2181 102.937C13.3176 102.841 13.4355 102.765 13.5649 102.714C13.6944 102.663 13.8328 102.638 13.972 102.641C14.1102 102.638 14.2476 102.663 14.3759 102.714C14.5042 102.765 14.6207 102.841 14.7185 102.938C14.8162 103.035 14.8932 103.151 14.9447 103.278C14.9962 103.405 15.0212 103.541 15.0183 103.678L14.7349 104.391H16.9146H17.3287L17.6339 104.132L19.0507 101.971L19.2687 101.798H19.5084H21.274H21.0124L20.8162 101.971L19.3776 104.132L19.0725 104.391H18.6583H21.3176H21.7099L22.0151 104.132L23.6498 101.777C23.1113 101.466 22.676 101.006 22.3972 100.453C22.1185 99.9003 22.0084 99.279 22.0804 98.6652C22.2113 97.7876 22.4081 96.9209 22.669 96.0722V95.5104V95.0999L22.451 94.7541L23.8242 96.1587L24.0858 96.4828V97.1959C23.8497 97.665 23.7751 98.1979 23.8735 98.713C23.9719 99.2281 24.2379 99.6971 24.6307 100.048L25.0012 100.307L25.9167 100.891V97.4984H27.2245V101.28V101.669L27.5079 101.993L28.7503 102.814H29.1644H29.535L31.8672 101.82H31.4531H31.0825L28.4015 100.135C28.7847 99.7769 29.0422 99.307 29.1363 98.7937C29.2305 98.2804 29.1563 97.7508 28.9247 97.2823V96.9582V96.5692L29.1644 96.2451L30.5376 94.8406L30.3197 95.1863V95.5969V95.8345C30.3197 96.7853 31.3877 98.4924 30.603 99.4647L33.0443 100.977L33.4148 101.107H33.829L36.2266 99.9401H35.8125H35.4419L32.7827 98.2331C32.9842 97.5527 33.0475 96.8395 32.9689 96.1348C32.8903 95.4301 32.6715 94.7478 32.325 94.1275V93.9546V93.5657V93.1983L33.2186 91.5561L33.1097 91.945V92.334L33.4584 92.9822C33.6137 93.2694 33.7519 93.5652 33.8725 93.8682C35.3765 92.5285 35.7035 91.2536 34.7444 90.1516L34.4611 89.8274L34.2867 89.4817V89.0279L34.7662 87.2128V87.6018L34.9624 87.9691L35.8997 89.0495C37.7088 91.0807 36.6189 93.7169 34.4611 95.7049C34.58 96.1925 34.6241 96.6952 34.5918 97.1959L37.4472 99.011H37.8614H38.2537L40.4334 98.1034H40.0411C39.7931 98.1332 39.5433 98.0659 39.3446 97.9159C39.1459 97.7658 39.0142 97.5449 38.9773 97.3001C38.9403 97.0552 39.0012 96.8057 39.147 96.6047C39.2927 96.4036 39.5118 96.2669 39.7577 96.2235C47.6918 93.825 55.0155 87.5802 59.8326 87.5802C60.8122 87.4616 61.8 87.724 62.5886 88.3123C63.3771 88.9006 63.9049 89.769 64.0612 90.735L63.9086 91.5345C62.8624 94.3652 64.3663 97.1094 68.268 98.1466C68.5827 98.2323 68.8601 98.4184 69.0571 98.6763C69.2542 98.9342 69.3599 99.2493 69.3578 99.5728V99.9401H69.6194C70.1379 99.9451 70.6497 99.8235 71.1097 99.5861C71.5696 99.3487 71.9636 99.0028 72.2568 98.5788C72.9853 98.5769 73.713 98.5336 74.4365 98.4491L74.6545 99.0542C74.807 99.8753 74.5237 100.632 74.0223 100.783C73.0767 100.935 72.1126 100.935 71.167 100.783C70.3883 100.794 69.6455 101.109 69.099 101.659C68.5524 102.209 68.2461 102.95 68.2462 103.722V104.067C67.9869 104.233 67.7734 104.46 67.6249 104.728C67.4765 104.995 67.3979 105.296 67.3961 105.601L67.6141 106.466C68.1142 105.884 68.761 105.444 69.4886 105.191C69.5222 104.509 69.8194 103.866 70.3186 103.395C70.8178 102.924 71.4807 102.662 72.1696 102.663H72.8235C72.1048 102.752 71.4433 103.097 70.9621 103.633C70.4809 104.17 70.2129 104.862 70.2079 105.58V105.882L69.9245 106.682C69.922 106.865 69.9619 107.045 70.0413 107.21C70.1207 107.375 70.2374 107.52 70.3823 107.633C70.5706 107.29 70.8255 106.987 71.1323 106.743C71.439 106.498 71.7916 106.316 72.1696 106.207C72.6893 106.037 73.2422 105.992 73.7826 106.077L73.6518 105.342C73.6575 104.733 73.9058 104.15 74.3426 103.721C74.7793 103.292 75.3693 103.052 75.9841 103.052H76.3328C75.8917 103.105 75.4857 103.317 75.1923 103.648C74.8988 103.978 74.7384 104.405 74.7416 104.845C74.7412 105.135 74.8125 105.421 74.9493 105.677C75.0862 105.933 75.2843 106.152 75.5263 106.315C75.5227 106.549 75.5716 106.781 75.6696 106.994C75.7677 107.207 75.9123 107.396 76.0931 107.546C76.1775 107.136 76.4007 106.767 76.7257 106.5C77.0508 106.232 77.4582 106.083 77.8804 106.077C78.5114 106.252 79.1653 106.332 79.8203 106.315C80.1537 106.202 80.4508 106.004 80.6812 105.74C80.9116 105.476 81.0669 105.156 81.1313 104.812C81.1956 104.469 81.1667 104.115 81.0474 103.787C80.9281 103.458 80.7227 103.167 80.4524 102.944C80.6796 101.644 80.6276 100.311 80.2999 99.0326H80.496C80.7625 99.0349 81.0245 99.1009 81.2598 99.2251C81.4951 99.3492 81.6966 99.5278 81.8474 99.7456L82 98.9677C81.974 98.4353 81.7505 97.9311 81.3723 97.5522C80.994 97.1733 80.4879 96.9463 79.9511 96.915L79.8857 96.8717ZM26.4834 88.4877C27.0248 88.4845 27.5652 88.5352 28.0964 88.639C28.2294 87.8756 28.2878 87.1014 28.2708 86.3269L27.5515 87.1696L27.2245 86.4565L26.9847 86.2188H26.7886H26.2001H26.0039L25.7423 86.4565L25.4154 87.1696L24.6961 86.3269C24.6899 87.101 24.7482 87.8744 24.8704 88.639C25.4019 88.5371 25.9421 88.4865 26.4834 88.4877ZM48.1495 62.6874C48.0004 63.1469 47.7456 63.5657 47.4051 63.9108C47.0647 64.2558 46.6479 64.5176 46.1878 64.6754C45.6211 64.9061 44.9949 64.9516 44.4004 64.805L41.9374 64.092L40.9783 63.9623C40.0976 63.9724 39.2508 64.3005 38.5967 64.8853C37.9427 65.4701 37.5262 66.2713 37.4254 67.1387C37.0076 67.2008 36.626 67.4093 36.35 67.7265C36.0741 68.0437 35.922 68.4485 35.9215 68.8674L36.1612 69.7533C36.7601 69.1479 37.5134 68.7147 38.3409 68.5001C38.5051 67.8796 38.8724 67.3308 39.3853 66.9397C39.8981 66.5486 40.5275 66.3374 41.1745 66.3392H41.5014C40.9529 66.4916 40.4463 66.7651 40.0198 67.1394C39.5932 67.5136 39.2577 67.9788 39.0384 68.5001C38.6931 68.6259 38.394 68.8519 38.1802 69.1487C37.9663 69.4455 37.8476 69.7993 37.8396 70.1639C37.855 70.5057 37.9522 70.839 38.1229 71.1363C38.7388 70.4401 39.5513 69.9433 40.4552 69.7101C40.6123 69.1024 40.9535 68.5571 41.4329 68.1475C41.9122 67.738 42.5067 67.4839 43.1362 67.4196C42.5432 67.6661 42.0367 68.0805 41.68 68.6109C41.3233 69.1412 41.1323 69.7641 41.1309 70.4016C41.1249 70.8614 41.2375 71.3151 41.4579 71.7197C41.5546 71.3582 41.7698 71.0389 42.0697 70.812C42.3697 70.5851 42.7372 70.4635 43.1144 70.4664H43.7247L44.5312 70.5961C45.1555 70.5961 45.7543 70.3502 46.1958 69.9125C46.6373 69.4749 46.8853 68.8813 46.8853 68.2624V67.5277C47.1918 67.6212 47.4595 67.8107 47.6482 68.0679C47.8368 68.325 47.9363 68.6359 47.9315 68.9538L47.6918 69.7749H48.2149C48.9487 69.7752 49.6572 69.5096 50.2072 69.028C50.7572 68.5465 51.1107 67.8822 51.2011 67.1603C51.9751 66.7353 52.6625 66.171 53.2282 65.4965L53.6423 67.4629V67.8734L53.4461 68.2192L55.1463 66.4905L55.3207 66.1448V65.7558L54.8193 63.3357V62.9251L55.0373 62.5794L56.3451 61.2397L56.1707 61.5854V61.996L56.6503 64.3945V64.805L56.4541 65.1292L57.9581 63.5734L58.1542 63.2492V62.8387L57.6529 60.4402V60.0296L57.8709 59.6839L59.2223 58.3442L59.0043 58.6899V59.0788L59.5275 61.499V61.9095L59.3313 62.2336L60.8571 60.6778L61.0314 60.3537V59.9432L60.6609 58.7763C60.6327 58.1035 60.8319 57.4406 61.2267 56.8927C61.6215 56.3447 62.1894 55.943 62.8406 55.7512L63.0367 54.9301C63.0367 53.5903 61.4238 52.5099 59.4185 52.5099C58.5253 52.4884 57.6457 52.729 56.89 53.2014C57.1516 53.9577 57.217 54.7572 54.7104 55.1029C52.8319 55.206 51.0232 55.8437 49.5009 56.9396C47.3212 58.6899 47.5828 61.0668 46.3621 61.9744C47.0097 62.1024 47.6763 62.1024 48.3239 61.9744C48.7584 61.8962 49.1777 61.7503 49.5663 61.5422C49.2415 62.0698 48.74 62.4675 48.1495 62.6658V62.6874ZM44.6402 81.854C42.9182 81.854 41.5886 81.1841 41.3707 80.1037V79.4771C41.3938 79.2364 41.5124 79.0146 41.7005 78.8607C41.8885 78.7067 42.1305 78.633 42.3733 78.6559C42.6161 78.6789 42.8398 78.7965 42.9951 78.9829C43.1505 79.1693 43.2247 79.4092 43.2016 79.6499L42.9618 80.3198H43.485C43.9431 80.3284 44.3996 80.2627 44.8364 80.1253C45.2381 80.0766 45.6039 79.8717 45.8533 79.5556C46.1026 79.2395 46.2151 78.8382 46.166 78.4399C46.1168 78.0416 45.9101 77.6789 45.5913 77.4317C45.2724 77.1845 44.8676 77.073 44.4658 77.1218H44.2914L45.0107 76.9705C45.4906 76.9705 45.9507 77.1595 46.29 77.4958C46.6293 77.8321 46.8199 78.2883 46.8199 78.764V78.9153C49.2898 78.5827 51.5526 77.3689 53.1846 75.5011C52.2973 75.6964 51.3905 75.7907 50.4818 75.7821C49.4596 75.7986 48.44 75.6749 47.452 75.4147C46.2642 75.097 45.0419 74.9229 43.8119 74.8961C42.3903 74.7556 40.9696 75.1721 39.8535 76.0564C38.7375 76.9407 38.0147 78.2227 37.8396 79.6283C37.9199 80.776 38.3976 81.861 39.192 82.6997C39.9864 83.5384 41.0486 84.0793 42.1989 84.2309C47.8879 85.3977 54.6014 82.0701 60.2903 80.8384C61.7052 79.4528 63.3399 78.3067 65.1292 77.4459V76.8192C57.6093 78.0509 50.8523 81.8756 44.7274 81.854H44.6402ZM26.5706 89.5465C25.5897 89.5465 24.5653 89.8707 24.6525 90.7566C24.7397 91.6425 25.7859 91.34 26.5706 91.34C27.3553 91.34 28.4015 91.8802 28.5105 90.7566C28.6195 89.633 27.5515 89.5465 26.5706 89.5465ZM26.5706 53.331C25.5897 53.331 24.5653 53.6552 24.6525 54.5843C24.7397 55.5135 25.7859 55.1461 26.5706 55.1461C27.3553 55.1461 28.4015 55.6647 28.5105 54.5843C28.6195 53.5039 27.5515 53.331 26.5706 53.331ZM59.4838 88.6822C58.5933 88.6808 57.7193 88.9199 56.9554 89.3737C57.217 90.1732 57.2824 90.9295 54.7757 91.3184C52.9014 91.4247 51.0955 92.0539 49.5663 93.1335C47.3866 94.9054 47.6482 97.2607 46.4275 98.1682C47.0749 98.2975 47.7418 98.2975 48.3893 98.1682C48.8222 98.0734 49.2401 97.9207 49.6317 97.7145C49.3128 98.2472 48.8091 98.6466 48.2149 98.8381C48.0703 99.3024 47.8173 99.7263 47.4765 100.075C47.1356 100.425 46.7165 100.689 46.2532 100.848C45.6845 101.073 45.0579 101.111 44.4658 100.956L42.0028 100.243L41.0437 100.113C40.1596 100.124 39.3101 100.455 38.6555 101.044C38.0009 101.633 37.5866 102.44 37.4908 103.311C37.0711 103.369 36.6869 103.576 36.4101 103.894C36.1333 104.212 35.9828 104.62 35.9868 105.04L36.2266 105.926C36.8129 105.304 37.5711 104.868 38.4063 104.672C38.5671 104.05 38.9335 103.499 39.4471 103.107C39.9607 102.716 40.5919 102.506 41.2399 102.512H41.5668C41.0197 102.667 40.5145 102.941 40.0883 103.315C39.6621 103.689 39.3257 104.153 39.1038 104.672C38.7568 104.789 38.455 105.01 38.2401 105.304C38.0253 105.598 37.9082 105.951 37.905 106.315C37.9204 106.656 38.0176 106.99 38.1883 107.287C38.8156 106.604 39.6237 106.11 40.5206 105.861C40.659 105.229 40.9909 104.656 41.4708 104.219C41.9508 103.782 42.5553 103.502 43.2016 103.419C42.6102 103.674 42.106 104.093 41.7501 104.626C41.3942 105.159 41.2018 105.783 41.1963 106.423C41.1958 106.882 41.308 107.334 41.5232 107.741C41.6192 107.377 41.8336 107.055 42.1332 106.824C42.4327 106.594 42.8006 106.468 43.1798 106.466H43.7901L44.5966 106.617C45.2209 106.617 45.8197 106.371 46.2612 105.934C46.7026 105.496 46.9507 104.902 46.9507 104.283V103.549C47.2555 103.638 47.5226 103.824 47.7114 104.077C47.9002 104.331 48.0005 104.638 47.9969 104.953L47.7571 105.774H48.2803C49.012 105.78 49.7204 105.519 50.2709 105.041C50.8214 104.563 51.1757 103.901 51.2664 103.181C52.046 102.755 52.7345 102.183 53.2935 101.496L53.7077 103.505V104.154L53.5115 104.499L55.2117 102.771L55.386 102.425V101.993L54.8847 99.5728V99.1838L55.1027 98.8381L56.4105 97.4984L56.2361 97.8441V98.2115L56.7157 100.653V101.042L56.5195 101.388L58.0235 99.8321L58.2196 99.4863V99.0974L57.7183 96.6773V96.2667L57.9363 95.921L59.2877 94.6029L59.0697 94.9486V95.316L59.4185 97.6712V98.1034L59.2223 98.4275L60.7481 96.8717L60.9224 96.526V96.1587L60.6827 94.9702C60.6518 94.2994 60.8502 93.6379 61.2458 93.0928C61.6414 92.5477 62.211 92.1509 62.8624 91.9667L63.0585 91.1671C63.0585 89.7842 61.4456 88.6822 59.4403 88.6822H59.4838ZM48.1277 26.3639C47.9831 26.8282 47.7301 27.2521 47.3893 27.6013C47.0484 27.9504 46.6293 28.215 46.166 28.3735C45.5855 28.5631 44.9591 28.5631 44.3786 28.3735L41.9156 27.6604L40.9565 27.5307C40.0738 27.546 39.2268 27.8788 38.5732 28.4671C37.9196 29.0555 37.5039 29.8592 37.4036 30.7288C36.9839 30.7865 36.5997 30.9938 36.3229 31.312C36.0461 31.6301 35.8956 32.0373 35.8997 32.4574L36.1394 33.3434C36.737 32.7317 37.4901 32.2913 38.3191 32.0685C38.4799 31.4462 38.8463 30.8952 39.3599 30.5035C39.8735 30.1118 40.5047 29.9021 41.1527 29.9076H41.4797C40.9297 30.0571 40.4217 30.3296 39.9947 30.7042C39.5677 31.0788 39.2331 31.5455 39.0166 32.0685C38.6696 32.1851 38.3678 32.4058 38.153 32.7C37.9382 32.9943 37.821 33.3475 37.8178 33.7107C37.8298 34.0599 37.927 34.4009 38.1011 34.7047C38.7271 34.0159 39.535 33.5144 40.4334 33.2569C40.5698 32.6267 40.9016 32.0546 41.3824 31.6206C41.8631 31.1867 42.4687 30.9126 43.1144 30.8368C42.518 31.0785 42.0082 31.4917 41.6508 32.0231C41.2934 32.5546 41.1047 33.18 41.1091 33.8187C41.1086 34.2779 41.2208 34.7303 41.4361 35.1368C41.5313 34.771 41.7448 34.4461 42.044 34.2119C42.3432 33.9778 42.7115 33.8473 43.0926 33.8404L43.7029 33.97L44.5094 34.0997C45.1338 34.0997 45.7325 33.8538 46.174 33.4161C46.6155 32.9785 46.8635 32.3849 46.8635 31.766V31.0313C47.1664 31.1237 47.4315 31.31 47.6199 31.5628C47.8082 31.8156 47.9098 32.1216 47.9097 32.4358L47.67 33.2569H48.1931C48.9282 33.2619 49.6393 32.9979 50.1903 32.5155C50.7413 32.0331 51.0934 31.3661 51.1793 30.6423C51.9617 30.2296 52.6514 29.6636 53.2064 28.9785L53.6205 30.9664V31.3554L53.4243 31.7228L55.1245 29.9725L55.2989 29.6267V29.2378L54.7975 26.8177V26.4287L55.0155 26.083L56.3233 24.7217L56.1489 25.0674V25.4779L56.6285 27.8981V28.5247L56.4323 28.8705L57.9363 27.3147L58.1325 26.9905V26.5584L57.5657 24.2031V23.7925L57.7837 23.4468L59.1351 22.1287L58.9171 22.4528V22.8633L59.4403 25.2835V25.6724L59.2441 26.0181L60.7699 24.484L60.9442 24.1166V23.7709L60.7045 22.5824C60.6685 21.908 60.8646 21.2415 61.2606 20.6919C61.6565 20.1423 62.229 19.7423 62.8842 19.5573L63.0803 18.7578C63.0803 17.3964 61.4674 16.2944 59.4621 16.2944C58.5702 16.2828 57.6933 16.5226 56.9336 16.9859C57.1952 17.7638 57.2606 18.5417 54.7539 18.8874C52.8795 19.0103 51.0762 19.6461 49.5445 20.7241C47.3648 22.496 47.6264 24.8513 46.4057 25.7589C47.052 25.8987 47.7212 25.8987 48.3675 25.7589C48.7993 25.6708 49.2172 25.5254 49.6099 25.3267C49.2827 25.8474 48.7811 26.2375 48.1931 26.4287L48.1277 26.3639ZM31.1697 47.9722L30.8428 48.3179C30.8734 48.7035 30.7775 49.0886 30.5693 49.4157C30.3611 49.7428 30.0518 49.9944 29.6876 50.133C29.6808 51.1154 29.5265 52.0912 29.2298 53.0285C30.0581 54.7572 29.4042 55.924 28.7503 56.2049C28.0964 56.4858 27.2899 56.0969 26.5706 56.0969C25.8513 56.0969 25.0012 56.421 24.3909 56.2049C23.7806 55.9888 23.1049 54.7572 23.9114 53.0285C23.6218 52.0902 23.4748 51.1143 23.4755 50.133C23.0999 50.0268 22.7712 49.7987 22.5419 49.4853C22.3127 49.1719 22.1963 48.7912 22.2112 48.4043L21.7753 47.9722C21.2487 47.8446 20.7641 47.585 20.368 47.2181C19.9719 46.8513 19.6776 46.3896 19.5134 45.8775C19.3492 45.3653 19.3207 44.82 19.4305 44.2937C19.5403 43.7675 19.7848 43.2781 20.1405 42.8726C20.0097 44.3852 19.9008 46.5244 23.0177 46.8053C23.0177 48.5772 23.7588 48.9662 24.5435 48.9662C24.9642 48.9822 25.3806 48.8771 25.7423 48.6636C26.309 48.3827 25.9385 47.9074 25.7423 47.7777C25.5435 47.6018 25.3931 47.3785 25.3054 47.129C25.2177 46.8795 25.1955 46.6119 25.241 46.3516L25.3718 46.2219H27.5515L27.704 46.3516C27.7495 46.6119 27.7273 46.8795 27.6396 47.129C27.5519 47.3785 27.4016 47.6018 27.2027 47.7777C27.0501 47.9074 26.636 48.3827 27.2027 48.6636C27.5596 48.8886 27.9796 48.9946 28.4015 48.9662C29.1644 48.9662 29.9491 48.4908 29.9055 46.8053C33.0443 46.5244 32.8917 44.3852 32.7609 42.8726C33.1167 43.2752 33.3626 43.7615 33.475 44.285C33.5874 44.8086 33.5627 45.3519 33.4031 45.8633C33.2436 46.3747 32.9545 46.837 32.5636 47.2062C32.1726 47.5753 31.6927 47.8391 31.1697 47.9722ZM20.6201 57.6743V57.8256C20.2473 58.4752 20.009 59.192 19.9192 59.9341C19.8293 60.6762 19.8898 61.4286 20.0969 62.1472C19.5551 61.9666 19.0936 61.6048 18.7914 61.1239C18.4891 60.6429 18.365 60.0727 18.4404 59.511C15.8901 57.1125 15.2798 54.6708 17.089 52.6396L18.0044 51.5592L18.1788 51.2134V50.8029L18.6801 52.618V53.0069L18.5058 53.3743L18.2224 53.6984C17.2633 54.8004 17.5249 56.2914 19.0071 57.6311C19.1597 57.2421 19.2904 57.0477 19.443 56.7235L19.7918 56.0753V55.708L19.6828 55.319L20.5765 56.9612L20.7073 57.3502L20.6201 57.6743ZM22.1676 42.5485H24.914L25.5026 43.0455V43.9746L25.0012 43.6505H24.3473L24.6089 44.2988C24.6089 44.5739 24.4987 44.8377 24.3024 45.0322C24.1062 45.2267 23.8401 45.336 23.5626 45.336C23.4262 45.336 23.2912 45.309 23.1655 45.2567C23.0398 45.2043 22.9258 45.1275 22.8304 45.0309C22.735 44.9343 22.66 44.8198 22.6098 44.6941C22.5596 44.5683 22.5353 44.434 22.5382 44.2988L22.7562 43.6505H22.1676C21.5137 43.6505 20.947 42.7646 20.947 42.0083C21.0958 42.1843 21.283 42.3244 21.4945 42.418C21.706 42.5116 21.9362 42.5562 22.1676 42.5485ZM22.6036 38.2268L23.4319 38.659L24.5871 40.1068L25.2192 40.6254H24.2601C24.0545 40.6368 23.8492 40.5973 23.6628 40.5106C23.4764 40.4238 23.3146 40.2925 23.1921 40.1284L22.0804 38.7022L21.5137 38.2268H22.6036ZM25.4808 37.665C25.7086 37.6758 25.9311 37.7378 26.1312 37.8463C26.3314 37.9549 26.504 38.1072 26.636 38.2917L28.0092 40.258L28.7503 40.863H27.5079C27.3013 40.8732 27.096 40.8259 26.915 40.7267C26.734 40.6274 26.5845 40.4801 26.4834 40.3012L25.3282 38.7887C24.9358 38.162 24.7615 38.0108 24.2601 37.8379L25.4808 37.665ZM29.0118 38.2268L29.8837 38.659L30.9736 40.1068L31.6493 40.6254H30.6684C30.4607 40.6297 30.2546 40.5872 30.0659 40.5011C29.8771 40.415 29.7105 40.2876 29.5786 40.1284L28.4887 38.7022L27.922 38.2268H29.0118ZM30.4069 44.2339C30.4069 44.5053 30.2997 44.7659 30.1082 44.9598C29.9166 45.1537 29.6561 45.2655 29.3824 45.2711C29.1029 45.2712 28.8345 45.1626 28.6348 44.9687C28.4351 44.7748 28.3201 44.511 28.3143 44.2339L28.5541 43.5857H27.922L27.5079 44.0827V43.1535L28.1182 42.6565H30.8646C31.0992 42.6644 31.3327 42.6199 31.5477 42.5264C31.7627 42.4329 31.9539 42.2928 32.107 42.1163C32.107 42.8726 31.5403 43.7586 30.8646 43.7586H30.2761L30.4069 44.2339ZM79.9293 60.4834H77.7496H77.3573L77.0521 60.2025L76.0931 58.7763L76.3982 59.0356H76.7906H79.5587H79.9293L80.2345 59.2949L78.9702 57.4582L78.6433 57.1989H78.2727H75.4609H75.0686L74.7416 56.9396L73.5864 55.211L73.8698 55.4703H74.2839H77.0085H77.4009L77.706 55.7295L76.4418 53.8928L76.1366 53.6336H75.7443H73.5646H73.1723L72.8453 53.3526L71.4067 51.1918C72.6816 51.169 73.9193 50.7619 74.955 50.0246C75.9907 49.2874 76.7755 48.2549 77.2047 47.0646C77.815 44.2339 75.025 41.4897 70.8618 40.8847C70.5229 40.8332 70.2137 40.6633 69.9899 40.4058C69.7661 40.1483 69.6424 39.82 69.6412 39.4801C69.6448 39.1925 69.7334 38.9122 69.8961 38.6741C70.0589 38.4359 70.2885 38.2504 70.5567 38.1404C70.1068 37.9581 69.6259 37.8628 69.1399 37.8595C68.3119 37.8119 67.4983 38.0888 66.8744 38.6304C66.2506 39.1721 65.8665 39.9351 65.8049 40.755L65.9575 41.5761C63.9178 42.5753 62.1358 44.0241 60.7481 45.8113C62.297 45.3947 63.8949 45.184 65.4998 45.1847V44.9686C65.4998 44.3955 65.7294 43.8459 66.1382 43.4407C66.547 43.0355 67.1014 42.8078 67.6795 42.8078C67.336 42.9517 67.0399 43.1877 66.8243 43.4892C66.6087 43.7908 66.4821 44.146 66.4589 44.5149C66.4589 44.8129 66.5782 45.0987 66.7908 45.3094C67.0034 45.5201 67.2917 45.6385 67.5923 45.6385L68.268 45.444V44.9902C68.265 44.7823 68.3042 44.5759 68.3831 44.3832C68.462 44.1905 68.5791 44.0154 68.7275 43.8684C68.8758 43.7213 69.0524 43.6052 69.2468 43.527C69.4412 43.4487 69.6494 43.4099 69.8592 43.4128H70.0771C69.7171 43.5939 69.4286 43.8892 69.2574 44.2517C69.0862 44.6141 69.0422 45.0229 69.1325 45.413C69.2227 45.8031 69.4419 46.1521 69.7553 46.4044C70.0687 46.6567 70.4582 46.7978 70.8618 46.8053H71.1016V46.4812C71.1016 46.1431 71.2371 45.8188 71.4782 45.5797C71.7194 45.3406 72.0465 45.2063 72.3876 45.2063C72.7287 45.2063 73.0558 45.3406 73.2969 45.5797C73.5381 45.8188 73.6736 46.1431 73.6736 46.4812C73.6736 47.9938 71.9299 48.145 70.7092 47.7993C67.4487 46.7539 64.0012 46.4077 60.5955 46.7837C56.4541 47.3455 49.6971 50.1114 42.4823 49.8953C40.7432 49.817 39.0181 49.5488 37.3383 49.0958L37.796 49.636C38.1736 50.1571 38.4014 50.7699 38.4551 51.4093C38.5088 52.0486 38.3865 52.6904 38.1011 53.2662C38.0188 52.5079 37.7592 51.7791 37.343 51.1377C36.9267 50.4963 36.3654 49.9599 35.7035 49.5712C35.2675 49.2255 35.0714 48.9446 35.1368 48.5124L35.4855 46.6757V47.0862L35.6817 47.4104L36.3574 48.1018C36.6492 46.2784 36.2027 44.4145 35.115 42.9158C35.616 41.633 35.6923 40.2254 35.3329 38.8967C35.3053 39.2477 35.1916 39.5868 35.0016 39.8843C34.8117 40.1818 34.5513 40.4288 34.2431 40.6037C34.0452 40.6907 33.8696 40.8209 33.7295 40.9845C33.5894 41.1481 33.4884 41.3409 33.4339 41.5486C33.3794 41.7563 33.3729 41.9736 33.4149 42.1841C33.4569 42.3946 33.5463 42.593 33.6764 42.7646C32.9353 42.3972 31.9108 41.0359 32.4993 40.2364C33.0879 39.4369 34.8752 39.7826 35.115 38.3133C34.2435 38.0852 33.3272 38.0852 32.4558 38.3133C32.127 37.9375 31.7175 37.6395 31.2573 37.4414C30.7971 37.2432 30.2979 37.1498 29.7965 37.168C29.3381 36.7738 28.7978 36.4843 28.214 36.32C27.6302 36.1557 27.017 36.1207 26.418 36.2173C25.819 36.1221 25.2063 36.158 24.6227 36.3222C24.0391 36.4864 23.4988 36.7751 23.0395 37.168C22.5381 37.1498 22.0389 37.2432 21.5787 37.4414C21.1185 37.6395 20.709 37.9375 20.3803 38.3133C19.5234 38.0869 18.6216 38.0869 17.7647 38.3133C17.939 39.7826 19.7046 39.3937 20.3149 40.2364C20.9252 41.0791 19.9008 42.3972 19.1597 42.7646C19.294 42.5945 19.387 42.396 19.4313 42.1845C19.4757 41.9731 19.4702 41.7543 19.4154 41.5452C19.3606 41.3362 19.2578 41.1425 19.1152 40.9792C18.9725 40.8159 18.7938 40.6874 18.593 40.6037C18.2847 40.4288 18.0243 40.1818 17.8344 39.8843C17.6445 39.5868 17.5307 39.2477 17.5031 38.8967C17.1438 40.2254 17.2201 41.633 17.7211 42.9158C16.7229 44.403 16.326 46.2081 16.6094 47.9722L17.2851 47.2807L17.5031 46.9566V46.546L17.8301 48.3827C17.8301 48.8149 17.8301 49.0958 17.2633 49.4415C16.6132 49.8437 16.061 50.3836 15.6465 51.0225C15.2319 51.6613 14.9653 52.3833 14.8657 53.1366C14.5925 52.5566 14.4789 51.9154 14.5363 51.2778C14.5937 50.6403 14.8202 50.0292 15.1926 49.5064C13.6745 48.6225 12.3185 47.4901 11.182 46.1571C10.8895 45.808 10.7295 45.3684 10.7295 44.9146C10.7295 44.4608 10.8895 44.0213 11.182 43.6721C12.3155 42.0947 12.5552 40.4093 11.182 39.3505V39.1344C11.1923 38.6289 11.0234 38.1358 10.7048 37.741C10.3862 37.3461 9.93802 37.0746 9.43827 36.9736C9.64877 37.262 9.75615 37.6118 9.74343 37.9675C9.73745 38.364 9.60803 38.7489 9.37288 39.0696L9.67804 39.9987C9.67778 40.2207 9.62892 40.44 9.53484 40.6415C9.44076 40.8429 9.3037 41.0217 9.13312 41.1656V40.647C9.15121 40.162 9.00407 39.6851 8.71542 39.2931C8.42677 38.9011 8.01342 38.6168 7.54195 38.4861C7.46265 38.1007 7.25313 37.7536 6.94799 37.5022C6.64284 37.2508 6.26032 37.11 5.86359 37.1032C5.63544 37.104 5.40979 37.1504 5.20009 37.2395C4.99039 37.3286 4.80091 37.4586 4.64296 37.6218C4.95497 37.6458 5.24844 37.7782 5.47171 37.9956C5.69498 38.2129 5.83375 38.5014 5.86359 38.8103C5.54322 39.0445 5.30041 39.3679 5.16609 39.7394C5.69996 39.7394 6.21228 39.9481 6.59182 40.3204C6.97136 40.6926 7.18746 41.1982 7.1932 41.7274V42.0947C7.13668 41.7755 7.00844 41.473 6.818 41.2096C6.62756 40.9461 6.37978 40.7285 6.09301 40.5729C5.80625 40.4173 5.48784 40.3276 5.16138 40.3105C4.83491 40.2934 4.50875 40.3493 4.20703 40.4741C4.04591 40.2787 3.8431 40.1212 3.61319 40.0128C3.38328 39.9045 3.13199 39.848 2.87742 39.8475C2.59018 39.8423 2.30652 39.9113 2.0543 40.0477C1.80209 40.1841 1.58999 40.3832 1.43883 40.6254C1.72912 40.6435 2.01145 40.7268 2.26446 40.8691C2.51747 41.0114 2.73453 41.2088 2.89922 41.4465C2.47999 41.935 2.24979 42.5554 2.24979 43.1967C2.24979 43.8381 2.47999 44.4585 2.89922 44.947C3.18781 45.2099 3.54259 45.3909 3.92618 45.4707C4.30978 45.5506 4.70799 45.5264 5.0789 45.4008H5.27507L5.7982 45.9194L5.27507 46.4596H4.90453L4.25063 45.8113C3.93642 45.8113 3.63474 45.9335 3.41054 46.1518C3.18633 46.37 3.05751 46.6668 3.05179 46.9782V47.1295H2.68125L1.85297 46.8053V47.1943C1.85706 47.5874 2.00907 47.9648 2.27921 48.2526C2.54935 48.5404 2.91815 48.7178 3.31336 48.7501C3.50174 49.2057 3.82133 49.5963 4.23223 49.8729C4.64313 50.1496 5.12713 50.3002 5.62382 50.3059C6.13834 50.3007 6.63947 50.1426 7.06242 49.8521L7.65093 49.6576C7.79406 49.6548 7.93636 49.6799 8.06969 49.7315C8.20303 49.7832 8.32478 49.8604 8.42801 49.9587C8.53124 50.057 8.61392 50.1746 8.67133 50.3046C8.72873 50.4346 8.75974 50.5745 8.76258 50.7164C8.76369 50.9625 8.68004 51.2016 8.52546 51.3941C8.37088 51.5866 8.15463 51.7211 7.91249 51.7752L7.06242 51.9697H6.67007L6.29953 51.7752L8.23945 53.6119L8.5882 53.8064H9.00233L10.5935 53.4607H10.9858L11.3346 53.6552L12.6642 54.9084L12.2501 54.8004H11.8359L10.2666 55.1245H9.87421L9.50367 54.9301L11.2692 56.5939L11.6398 56.81H12.0321L13.6451 56.4642H14.0156L14.4298 56.6155L15.7376 57.8904L15.4106 57.6743H15.0183L13.4489 58.02H13.0348L12.6642 57.804L14.4515 59.4894L14.8003 59.6623H15.2144L17.1108 59.2517C15.258 60.2889 13.2745 61.4125 11.182 62.7739C10.5709 63.1689 9.86949 63.4056 9.14212 63.4623C8.41476 63.5189 7.68468 63.3936 7.01882 63.098C6.27528 62.8205 5.47363 62.7314 4.68656 62.8387C4.32897 62.8989 3.98921 63.0366 3.69155 63.2421C3.39388 63.4475 3.14566 63.7156 2.96461 64.0271L3.90187 63.8543C4.57234 63.8546 5.21526 64.1188 5.68922 64.589C4.88374 64.2747 3.98805 64.2747 3.18258 64.589C2.46383 64.778 1.84208 65.226 1.43896 65.8455C1.03583 66.4649 0.880335 67.2111 1.00289 67.9382C0.706318 68.0421 0.450073 68.2356 0.270214 68.4915C0.0903543 68.7473 -0.00406389 69.0526 0.000239086 69.3644C0.00823499 69.7756 0.171577 70.1689 0.457971 70.4664C0.5386 70.1265 0.729266 69.822 1.00085 69.5996C1.27243 69.3772 1.60999 69.2491 1.96195 69.2347C2.2784 69.4313 2.62413 69.5771 2.98641 69.6669L3.44414 69.1267V68.7594C3.44414 68.0774 3.71742 67.4233 4.20386 66.9411C4.69029 66.4589 5.35004 66.188 6.03797 66.188H6.38672C5.8218 66.3196 5.31839 66.6368 4.95829 67.0879C4.59819 67.539 4.40256 68.0976 4.4032 68.6729V69.1267C4.15501 69.2125 3.93212 69.358 3.75447 69.5501C3.57683 69.7421 3.44995 69.9749 3.38518 70.2274C3.32041 70.48 3.31977 70.7445 3.38331 70.9974C3.44685 71.2502 3.57258 71.4836 3.74929 71.6765C3.96944 71.244 4.29709 70.8742 4.70132 70.602C5.10556 70.3298 5.57306 70.1641 6.05976 70.1207C6.43426 70.2339 6.82347 70.2921 7.21499 70.2935H7.97789C7.78076 69.9914 7.66816 69.6427 7.6516 69.2832C7.63503 68.9237 7.7151 68.5663 7.88362 68.2476C8.05214 67.9289 8.30306 67.6602 8.61069 67.4692C8.91832 67.2781 9.27162 67.1716 9.63444 67.1603H9.91781C8.87156 67.6141 8.19585 68.5001 8.43562 69.3212C8.54388 69.632 8.73829 69.9064 8.99658 70.1127C9.25487 70.3191 9.56659 70.4492 9.896 70.488C9.88087 70.9135 9.76115 71.3289 9.54725 71.6981C10.0037 71.677 10.4462 71.5358 10.8293 71.2889C11.2124 71.0421 11.5222 70.6985 11.7269 70.2935C12.1903 70.1548 12.5939 69.8672 12.8741 69.4759C13.1543 69.0847 13.2952 68.6121 13.2745 68.1327L12.7514 67.4196C12.7513 67.1368 12.8632 66.8652 13.0629 66.6632C13.2626 66.4612 13.5342 66.3449 13.8194 66.3392C13.9606 66.3391 14.1003 66.3673 14.2302 66.4221C14.36 66.4769 14.4774 66.5572 14.5751 66.6581C14.6728 66.7591 14.749 66.8786 14.7989 67.0094C14.8489 67.1403 14.8716 67.2798 14.8657 67.4196L14.5823 68.1327H16.762H17.1762L17.4813 67.8518L18.8981 65.691L19.1161 65.4965H19.3558H21.1214L20.9688 65.2588L20.7726 65.4533L19.334 67.6141L19.0289 67.895H18.6147H21.274H21.6663L21.9715 67.6141L23.5626 65.2588C23.0259 64.9513 22.5914 64.495 22.3126 63.9461C22.0338 63.3972 21.9228 62.7794 21.9933 62.1688C22.122 61.2908 22.3188 60.4239 22.5818 59.5758V59.3165V58.906L22.3638 58.5819L23.737 59.9864L23.9986 60.2889V60.9372C23.7625 61.4063 23.6879 61.9392 23.7863 62.4543C23.8847 62.9694 24.1507 63.4384 24.5435 63.7894L24.914 64.0488L25.8295 64.6322L25.8295 61.3045H27.1373L27.1373 65.0643V65.4533L27.4207 65.7558L28.6631 66.5553L29.0772 66.685H29.4478L31.8672 65.6046H31.4531L31.0825 65.4749L28.4015 63.7894C29.6876 62.6874 28.9901 61.499 28.9247 60.9372V60.6346V60.2241L29.1644 59.9216L30.5376 58.517L30.3197 58.8411V59.2517V59.511C30.3197 60.4618 31.3877 62.1688 30.603 63.098L33.0443 64.6754H33.4148H33.829L36.2266 63.7246H35.8125L35.4419 63.5734L32.7827 61.9095C32.9836 61.2255 33.0465 60.5089 32.968 59.8008C32.8895 59.0926 32.671 58.4068 32.325 57.7823V57.6311V57.2638V56.8748L33.2186 55.2326L33.1097 55.6215V55.9889L33.4584 56.6371C33.6176 56.9297 33.756 57.2329 33.8725 57.5447C35.3765 56.2049 35.7035 54.9084 34.7444 53.8064L34.4611 53.4823L34.2867 53.1366V52.726L34.7662 50.9541V51.3215L34.9624 51.6888L35.8997 52.7476C37.7088 54.7788 36.6189 57.415 34.4611 59.4246C34.581 59.9121 34.6251 60.4148 34.5918 60.9155L37.4472 62.709L37.8614 62.8603H38.2537L40.4334 61.9744H40.0411C39.7847 61.9744 39.5384 61.8749 39.3551 61.6972C39.1718 61.5195 39.0659 61.2777 39.0602 61.0236C39.0639 60.8159 39.1332 60.6145 39.2583 60.4479C39.3834 60.2812 39.5581 60.1576 39.7577 60.0944C47.6918 57.7175 55.0155 51.4511 59.8326 51.4511C62.1431 51.4511 64.0612 52.8557 64.0612 54.6059L63.9086 55.4054C62.8624 58.2577 64.3663 60.9804 68.268 62.0392C68.5828 62.1171 68.8618 62.2983 69.0596 62.5533C69.2575 62.8083 69.3626 63.1221 69.3578 63.4437V63.8111H69.6194C70.1379 63.8161 70.6497 63.6945 71.1097 63.4571C71.5696 63.2197 71.9636 62.8737 72.2568 62.4497C72.9325 62.4497 73.6518 62.4497 74.4365 62.4497L74.6545 63.0548C74.807 63.8975 74.5237 64.6106 74.0223 64.7618C73.0767 64.9135 72.1126 64.9135 71.167 64.7618C70.3903 64.7675 69.6475 65.0774 69.1003 65.6238C68.5532 66.1703 68.2462 66.909 68.2462 67.6789V68.0463C67.99 68.2097 67.7784 68.4332 67.6301 68.697C67.4818 68.9609 67.4014 69.2569 67.3961 69.5589L67.6141 70.4448C68.1115 69.855 68.7586 69.4075 69.4886 69.1483C69.5274 68.4679 69.8262 67.8278 70.3243 67.3581C70.8224 66.8884 71.4822 66.6245 72.1696 66.6201H72.8235C72.0915 66.7006 71.4159 67.0483 70.9284 67.5956C70.4408 68.1428 70.1762 68.8504 70.1861 69.5805V69.9262L69.9027 70.7041C69.9073 70.8887 69.9504 71.0704 70.0291 71.2377C70.1079 71.405 70.2207 71.5544 70.3605 71.6765C70.5402 71.3227 70.7917 71.0095 71.0993 70.7567C71.4069 70.5038 71.7639 70.3167 72.1478 70.2071C72.6675 70.0375 73.2204 69.9931 73.7608 70.0775L73.63 69.386C73.6271 69.0806 73.6853 68.7776 73.8013 68.4946C73.9172 68.2116 74.0885 67.9541 74.3054 67.7371C74.5222 67.5201 74.7803 67.3479 75.0647 67.2303C75.3491 67.1128 75.6542 67.0523 75.9623 67.0523H76.311C75.8718 67.1098 75.4685 67.3232 75.1759 67.653C74.8834 67.9828 74.7213 68.4066 74.7199 68.8458C74.7178 69.139 74.7882 69.4282 74.925 69.6881C75.0618 69.948 75.2608 70.1707 75.5045 70.3368C75.5036 70.5736 75.5536 70.8079 75.6514 71.0241C75.7491 71.2402 75.8923 71.4332 76.0713 71.59C76.1474 71.1741 76.3676 70.7975 76.6939 70.5253C77.0202 70.2531 77.4322 70.1023 77.8586 70.0991C78.4974 70.1067 79.1346 70.0341 79.7549 69.883C80.1495 69.7481 80.4918 69.4944 80.7341 69.1574C80.9763 68.8204 81.1065 68.4169 81.1063 68.0031C81.1089 67.7166 81.0455 67.4334 80.9208 67.175C80.7962 66.9166 80.6136 66.6899 80.387 66.5121C80.6142 65.2123 80.5622 63.8795 80.2345 62.601H80.4306C80.6978 62.5996 80.9612 62.664 81.1971 62.7885C81.433 62.9129 81.634 63.0935 81.782 63.3141L81.9346 62.5362C81.9087 62.0037 81.6851 61.4996 81.3069 61.1206C80.9287 60.7417 80.4225 60.5147 79.8857 60.4834" fill="white" fill-opacity="0.64"/>
</svg>
