<svg width="122" height="80" viewBox="0 0 122 80" fill="none" xmlns="http://www.w3.org/2000/svg">
<mask id="mask0_7498_1029" style="mask-type:alpha" maskUnits="userSpaceOnUse" x="0" y="0" width="122" height="80">
<rect x="0.642822" y="0.529541" width="120.625" height="79.4705" fill="#C4C4C4"/>
</mask>
<g mask="url(#mask0_7498_1029)">
<path d="M191.499 49.7333H193.624V29.8602H191.499V49.7333ZM172.026 41.3869C168.84 42.1436 166.74 43.2129 166.74 46.0034C166.74 48.3519 168.735 50.0975 171.403 50.0975C173.218 50.0975 174.695 49.524 175.834 48.116H176.173V49.7327H178.296C178.296 46.7335 178.321 44.2834 178.321 41.2569C178.321 37.9718 176.145 35.9119 172.596 35.9119C170.421 35.9119 168.891 36.6937 167.725 37.6581V39.5624H168.114C169.41 38.4137 170.524 37.7891 172.544 37.7891C174.383 37.7891 175.678 38.8573 176.069 40.4225L175.86 40.7628C174.928 40.8922 172.933 41.2042 172.026 41.3869ZM176.198 42.666L176.173 45.5343V45.481C176.173 47.3326 173.709 48.2203 172.284 48.2203C170.29 48.2203 168.917 47.4641 168.917 45.9779C168.917 44.4916 170.031 43.7354 172.7 43.2385C173.399 43.1091 175.058 42.8482 176.198 42.666ZM269.877 48.3274C267.079 48.3274 265.189 46.1866 265.189 42.9542C265.189 39.6157 267.054 37.5814 269.826 37.5814C271.898 37.5814 273.167 38.7535 273.944 39.8495H274.593V37.8407C273.816 36.8513 272.001 35.8065 269.826 35.8065C265.862 35.8065 262.985 38.7541 262.985 42.9542C262.985 47.1782 265.654 50.0981 269.826 50.0981C272.027 50.0981 273.893 49.3419 274.644 48.4036V46.2122H273.998C272.831 47.7256 271.588 48.3274 269.877 48.3274ZM271.546 18.9712C268.748 18.9712 266.857 16.8304 266.857 13.5979C266.857 10.2595 268.722 8.22522 271.494 8.22522C273.566 8.22522 274.836 9.39729 275.615 10.4933H276.261V8.48453C275.485 7.49512 273.671 6.45025 271.494 6.45025C267.53 6.45025 264.656 9.39784 264.656 13.5979C264.656 17.822 267.324 20.7418 271.494 20.7418C273.696 20.7418 275.562 19.9856 276.313 19.0473V16.8559H275.666C274.5 18.3694 273.256 18.9712 271.546 18.9712ZM192.52 20.7418C193.944 20.7418 196.017 20.3254 197.416 19.0984V17.4039H196.923C195.577 18.37 193.866 18.8652 192.493 18.8652C190.11 18.8652 188.607 17.8758 187.804 16.0747C187.545 15.4757 187.442 14.7711 187.442 13.9638V13.7279H198.063C197.933 9.68487 196.25 6.52908 191.69 6.52908C187.597 6.52908 185.316 9.68542 185.316 13.5452C185.317 18.3417 187.883 20.7418 192.52 20.7418ZM191.716 8.30241C194.126 8.30241 195.628 9.89472 195.758 12.1117H187.571C187.96 9.71151 189.229 8.30241 191.716 8.30241ZM228.602 36.1712V55.4702H230.752V47.8039H231.089C231.632 49.2375 233.523 49.9404 235 49.9404C238.679 49.9404 241.684 47.0988 241.684 42.6905C241.684 38.5964 239.093 35.8842 235.078 35.8842C233.29 35.8842 231.736 36.6676 231.037 37.7891H230.778V36.1707H228.602V36.1712ZM234.767 37.7108C237.385 37.7108 239.482 39.5624 239.482 42.7965C239.482 46.3682 237.202 48.116 234.637 48.116C232.694 48.116 230.829 47.0733 230.752 45.3532V41.3863C230.829 39.2504 232.798 37.7108 234.767 37.7108ZM289.612 6.81503L284.793 18.0574L284.534 16.987L280.311 6.81503H278.238V7.41412L283.808 20.3771L281.555 25.6199V26.1146H283.498L291.452 7.41466V6.81558H289.612V6.81503ZM215.799 0.712201H213.675V3.50267H215.799V0.712201ZM256.996 6.60737C255.208 6.60737 253.343 7.31246 252.515 9.18962H252.152V6.81558H250.158V20.3771H252.256V11.6398C252.36 9.71151 254.717 8.48399 256.272 8.48399C258.473 8.48399 260.08 9.65824 260.08 11.9007V20.3765H262.179V11.7186C262.179 8.11921 260.054 6.60737 256.996 6.60737ZM289.444 43.0835C289.315 39.0405 287.633 35.8848 283.071 35.8848C278.978 35.8848 276.697 39.0411 276.697 42.9009C276.697 47.6979 279.263 50.0975 283.9 50.0975C285.325 50.0975 287.398 49.6811 288.797 48.4541V46.7596H288.304C286.958 47.7256 285.247 48.2209 283.874 48.2209C281.49 48.2209 279.988 47.2315 279.184 45.4304C278.925 44.8313 278.822 44.1268 278.822 43.3195V43.0835H289.444ZM283.097 37.6586C285.506 37.6586 287.009 39.2509 287.138 41.4679H278.952C279.341 39.0677 280.611 37.6586 283.097 37.6586ZM225.31 20.6396C227.02 20.6396 228.341 20.0389 229.325 18.707H229.715V20.3765H231.89V0.529541H229.766V8.64219C229.274 7.28691 227.228 6.52854 225.594 6.52854C221.967 6.52854 218.832 9.34674 218.832 13.7529C218.832 17.8747 221.631 20.6396 225.31 20.6396ZM225.957 8.3546C227.979 8.3546 229.766 9.44839 229.766 11.3V14.9271C229.766 17.1441 227.875 18.813 225.879 18.813C223.367 18.813 221.062 16.9081 221.062 13.6741C221.062 10.1024 223.548 8.3546 225.957 8.3546ZM215.799 6.81503H213.675V20.3765H215.799V6.81503ZM202.69 36.1712H200.645L193.674 42.9542L200.489 49.7333H203.026V49.0831L196.37 42.7443L202.69 36.8258V36.1712ZM210.662 16.8554C210.662 12.0051 202.373 13.4153 202.373 10.1279C202.373 8.98196 203.409 8.17194 205.663 8.17194C207.607 8.17194 208.849 9.26573 209.341 9.8409H209.963V7.67724C209.185 7.23146 207.709 6.58127 205.663 6.58127C202.035 6.58127 200.299 8.11867 200.299 10.4144C200.299 15.031 208.59 14.1177 208.59 16.9614C208.59 18.3417 207.477 19.0979 205.3 19.0979C203.615 19.0979 201.672 18.134 200.946 17.1185H200.248V19.1783C201.518 20.0384 203.278 20.7413 205.274 20.7413C209.082 20.7418 210.662 19.255 210.662 16.8554ZM148.328 20.7418C149.752 20.7418 151.827 20.3254 153.224 19.0984V17.4039H152.731C151.385 18.37 149.675 18.8652 148.302 18.8652C145.917 18.8652 144.415 17.8758 143.613 16.0747C143.353 15.4757 143.25 14.7711 143.25 13.9638V13.7279H153.872C153.742 9.68487 152.059 6.52908 147.499 6.52908C143.405 6.52908 141.124 9.68542 141.124 13.5452C141.125 18.3417 143.691 20.7418 148.328 20.7418ZM147.524 8.30241C149.934 8.30241 151.436 9.89472 151.566 12.1117H143.379C143.768 9.71151 145.037 8.30241 147.524 8.30241ZM183.748 41.8582C183.903 39.588 185.354 37.9468 186.96 37.9468H188.825V36.0674H186.96C185.406 36.0674 184.395 36.9019 184.032 38.5458H183.669V36.1718H181.493V49.7333H183.748V41.8582ZM183.332 19.803L181.285 15.2142C180.534 13.5708 179.447 12.2943 178.54 11.7186C181.051 11.4321 183.36 8.82485 183.36 6.68565C183.36 3.08625 180.43 1.07807 176.907 1.07807L169.654 1.05197V20.3771H171.881V12.0584H174.938C176.727 12.1117 178.126 13.1794 179.006 15.2142L181.26 20.3771H183.332V19.803ZM177.167 10.179H171.881V3.0607H176.829C179.55 3.0607 181.027 4.54699 181.027 6.63237C181.027 8.7732 179.214 10.179 177.167 10.179ZM240.145 67.9021H239.782V65.528H237.606V79.0895H239.862V71.215C240.015 68.9447 241.467 67.3035 243.073 67.3035H244.938V65.4242H243.073C241.518 65.4236 240.509 66.2581 240.145 67.9021ZM198.46 65.3198C196.725 65.3198 194.522 66.2587 193.719 68.1614H193.356C192.864 66.5196 191.465 65.3198 188.77 65.3198C187.27 65.3198 185.43 66.0249 184.575 67.9021H184.133V65.528H182.113V79.0895H184.21L184.264 69.9369C184.677 68.2418 186.932 67.197 188.149 67.197C190.325 67.197 191.829 68.3435 191.829 70.431V79.0895H193.926V70.3528C194.03 68.4245 196.439 67.197 197.864 67.197C200.067 67.197 201.569 68.3435 201.569 70.431V79.0895H203.668V70.2484C203.668 66.8316 201.595 65.3198 198.46 65.3198ZM216.139 48.4541V46.7596H215.646C214.299 47.7256 212.59 48.2209 211.216 48.2209C208.833 48.2209 207.33 47.2315 206.527 45.4304C206.269 44.8313 206.164 44.1268 206.164 43.3195V43.0835H216.786C216.657 39.0405 214.974 35.8848 210.413 35.8848C206.319 35.8848 204.039 39.0411 204.039 42.9009C204.039 47.6979 206.604 50.0975 211.242 50.0975C212.667 50.0981 214.74 49.6816 216.139 48.4541ZM210.439 37.6586C212.849 37.6586 214.35 39.2509 214.48 41.4679H206.293C206.682 39.0677 207.951 37.6586 210.439 37.6586ZM235.085 72.4398C234.956 68.3968 233.272 65.241 228.712 65.241C224.618 65.241 222.337 68.3973 222.337 72.2571C222.337 77.0541 224.903 79.4537 229.541 79.4537C230.966 79.4537 233.038 79.0373 234.437 77.8103V76.1158H233.944C232.597 77.0819 230.887 77.5771 229.514 77.5771C227.13 77.5771 225.628 76.5877 224.824 74.7866C224.566 74.1876 224.461 73.483 224.461 72.6757V72.4398H235.085ZM228.737 67.0148C231.147 67.0148 232.649 68.6072 232.779 70.8241H224.592C224.981 68.424 226.25 67.0148 228.737 67.0148ZM254.943 35.9125C252.766 35.9125 251.238 36.6942 250.071 37.6586V39.563H250.46C251.755 38.4143 252.87 37.7896 254.891 37.7896C256.729 37.7896 258.026 38.8579 258.414 40.423L258.206 40.7633C257.274 40.8922 255.279 41.2048 254.373 41.3869C251.185 42.1436 249.087 43.2129 249.087 46.0034C249.087 48.3519 251.081 50.0975 253.751 50.0975C255.564 50.0975 257.04 49.524 258.181 48.116H258.518V49.7327H260.642C260.642 46.7335 260.667 44.2834 260.667 41.2569C260.668 37.9723 258.492 35.9125 254.943 35.9125ZM258.518 45.5343V45.481C258.518 47.3326 256.055 48.2203 254.631 48.2203C252.636 48.2203 251.264 47.4641 251.264 45.9779C251.264 44.4916 252.378 43.7354 255.045 43.2385C255.747 43.1091 257.404 42.8476 258.544 42.6655L258.518 45.5343ZM179.428 72.4398C179.299 68.3968 177.615 65.241 173.055 65.241C168.962 65.241 166.681 68.3973 166.681 72.2571C166.681 77.0541 169.247 79.4537 173.884 79.4537C175.309 79.4537 177.382 79.0373 178.78 77.8103V76.1158H178.288C176.942 77.0819 175.231 77.5771 173.858 77.5771C171.474 77.5771 169.972 76.5877 169.169 74.7866C168.909 74.1876 168.807 73.483 168.807 72.6757V72.4398H179.428ZM173.081 67.0148C175.49 67.0148 176.993 68.6072 177.122 70.8241H168.936C169.323 68.424 170.594 67.0148 173.081 67.0148ZM213.866 65.241C212.026 65.241 210.213 65.8672 209.227 67.0926V59.2164H207.103V79.0895H209.28V77.1607H209.591C210.16 78.5942 211.974 79.2972 213.528 79.2972C217.233 79.2972 220.161 76.4556 220.161 72.0473C220.162 67.9526 217.596 65.241 213.866 65.241ZM213.166 77.4727C211.12 77.4727 209.227 76.3246 209.227 74.5273V70.7431C209.306 68.6066 211.249 67.067 213.244 67.067C215.861 67.067 217.933 68.9187 217.933 72.1527C217.932 75.725 215.653 77.4727 213.166 77.4727ZM115.213 0.642074H7.86252C3.88194 0.642074 0.642822 3.90279 0.642822 7.91208V72.2876C0.642822 76.2958 3.88194 79.5565 7.86252 79.5565H115.213C119.195 79.5565 122.433 76.2958 122.433 72.2876V7.91208C122.433 3.90279 119.195 0.642074 115.213 0.642074ZM39.1758 13.3424C45.4418 8.02733 53.3825 5.09824 61.537 5.09824C70.1213 5.09824 78.379 8.30078 84.7821 14.1182C84.8135 14.1448 84.8248 14.1883 84.8086 14.2231C84.7945 14.2612 84.7584 14.2856 84.7206 14.2856H62.0035C61.9495 14.2856 61.9058 14.2422 61.9058 14.1889V13.8997C61.9058 13.8497 61.8885 13.7991 61.8502 13.7616L61.6552 13.5691C61.6217 13.5327 61.571 13.5126 61.5186 13.5126H39.2341C39.1952 13.5126 39.1596 13.4892 39.1429 13.4501C39.1304 13.4099 39.1434 13.3696 39.1758 13.3424ZM36.2909 16.0775C36.3071 16.059 36.3341 16.0481 36.3622 16.0481H36.5496C36.6031 16.0481 36.6468 16.0905 36.6468 16.1438V16.9842C36.6468 17.0375 36.6652 17.0848 36.7024 17.1223L36.8936 17.3175C36.9309 17.3512 36.9838 17.374 37.0303 17.374H61.5202C61.5726 17.374 61.6228 17.3507 61.6568 17.3142L61.8518 17.1218C61.8896 17.0843 61.9074 17.037 61.9074 16.9837V16.7005C61.9074 16.6477 61.9512 16.6048 62.0052 16.6048H86.0123C86.0642 16.6048 86.1117 16.5841 86.1446 16.5477L86.3428 16.3531C86.3801 16.3156 86.399 16.2666 86.399 16.215V16.1432C86.399 16.09 86.4427 16.0476 86.4935 16.0476H86.7122C86.7387 16.0476 86.7662 16.0584 86.7851 16.0769C89.6559 19.1343 91.9311 22.625 93.5447 26.4516C93.5582 26.469 93.5695 26.4891 93.5695 26.5141C93.5695 26.5669 93.5258 26.6098 93.4686 26.6098H86.4935C86.4427 26.6098 86.399 26.5669 86.399 26.5141V26.2271C86.399 26.1744 86.3801 26.1244 86.3407 26.089L86.1446 25.8955C86.1112 25.8602 86.0642 25.839 86.0123 25.839H61.5202C61.4716 25.839 61.4214 25.8618 61.3836 25.8982L61.1924 26.0896C61.1611 26.1276 61.1373 26.1749 61.1373 26.2276V27.0692C61.1373 27.1225 61.0968 27.1654 61.0439 27.1654H37.5438C37.4904 27.1654 37.4482 27.1225 37.4482 27.0692V27.0001C37.4482 26.9474 37.4293 26.9001 37.391 26.8621L37.1993 26.6674C37.1609 26.6337 37.1118 26.6109 37.0616 26.6109H29.6053C29.574 26.6109 29.5454 26.5962 29.5287 26.568C29.5092 26.5419 29.5038 26.5082 29.5173 26.4766C31.1271 22.6451 33.4082 19.1446 36.2909 16.0775ZM83.8976 66.8523C77.6299 72.1674 69.6893 75.0965 61.5375 75.0965C52.635 75.0965 44.1581 71.695 37.6707 65.5182C37.6448 65.4921 37.6362 65.4503 37.6497 65.4128C37.6648 65.3774 37.6983 65.353 37.7404 65.353H61.0428C61.0957 65.353 61.1362 65.3965 61.1362 65.4497V66.2913C61.1362 66.3418 61.16 66.3918 61.1913 66.4272L61.3825 66.624C61.4203 66.662 61.4705 66.6821 61.5191 66.6821H83.836C83.877 66.6821 83.9116 66.7066 83.9273 66.7447C83.9402 66.7849 83.9273 66.8251 83.8976 66.8523ZM87.2787 63.5606C87.2598 63.5807 87.2344 63.5932 87.2069 63.5932H86.4924C86.4417 63.5932 86.3979 63.5503 86.3979 63.4959V63.2105C86.3979 63.1599 86.379 63.1099 86.3417 63.073L86.1452 62.8778C86.1106 62.8425 86.0631 62.8207 86.0112 62.8207H61.5191C61.4705 62.8207 61.4203 62.8425 61.3825 62.8805L61.1913 63.0751C61.16 63.1099 61.1362 63.1599 61.1362 63.2105V64.0482C61.1362 64.1026 61.0957 64.1456 61.0428 64.1456H37.5427C37.4893 64.1456 37.4472 64.1026 37.4472 64.0482V63.983C37.4472 63.9286 37.4283 63.883 37.3899 63.8449L37.1982 63.6503C37.1599 63.6155 37.1107 63.5938 37.0605 63.5938H35.8632C35.8368 63.5938 35.8125 63.5818 35.7941 63.5611C33.0189 60.4804 30.8404 56.9832 29.3105 53.1625C29.297 53.131 29.2997 53.0973 29.3159 53.0717C29.3337 53.0446 29.3677 53.0299 29.3963 53.0299H36.5491C36.6025 53.0299 36.6463 53.0728 36.6463 53.1261V53.9666C36.6463 54.0198 36.6646 54.0671 36.7019 54.1052L36.8931 54.2993C36.9303 54.333 36.9833 54.3558 37.0297 54.3558H61.5197C61.572 54.3558 61.6223 54.333 61.6563 54.2976L61.8513 54.1052C61.8891 54.0671 61.9069 54.0198 61.9069 53.9666V53.6784C61.9069 53.6257 61.9506 53.5833 62.0046 53.5833H86.0118C86.0636 53.5833 86.1112 53.5621 86.1441 53.5257L86.3401 53.3338C86.3796 53.2968 86.3984 53.2479 86.3984 53.1951V53.1261C86.3984 53.0728 86.4422 53.0299 86.493 53.0299H93.6759C93.7073 53.0299 93.738 53.0446 93.7559 53.0717C93.7731 53.0973 93.7753 53.131 93.7607 53.1625C92.2314 56.9864 90.0502 60.4869 87.2787 63.5606ZM94.2846 51.7583C94.2689 51.7975 94.2316 51.8219 94.1938 51.8219H86.4919C86.4411 51.8219 86.3974 51.7784 86.3974 51.7257V51.6539C86.3974 51.6007 86.3785 51.5534 86.3412 51.5159L86.1484 51.3196C86.1101 51.2848 86.0599 51.2631 86.0107 51.2631H62.0035C61.9495 51.2631 61.9058 51.2179 61.9058 51.1652V50.8869C61.9058 50.8347 61.8885 50.7847 61.8502 50.7493L61.6552 50.5536C61.6217 50.5161 61.571 50.4944 61.5186 50.4944H37.0286C36.9784 50.4944 36.9293 50.5161 36.892 50.5536L36.7008 50.7493C36.6641 50.7847 36.6452 50.8347 36.6452 50.8869V51.7257C36.6452 51.7784 36.6015 51.8219 36.548 51.8219H28.8795C28.839 51.8219 28.8018 51.7975 28.785 51.7583C27.7039 48.6748 27.0564 45.4331 26.8711 42.1295C26.8711 42.1023 26.8771 42.0751 26.8949 42.0561C26.9127 42.0376 26.9408 42.0262 26.9667 42.0262H37.0599C37.1102 42.0262 37.1593 42.0066 37.195 41.9696L37.3894 41.7772C37.4277 41.7397 37.4466 41.6891 37.4466 41.6391V41.3526C37.4466 41.2993 37.4887 41.2559 37.5422 41.2559H61.5181C61.5704 41.2559 61.6207 41.233 61.6547 41.1982L61.8496 41.0047C61.8874 40.9672 61.9053 40.9204 61.9053 40.8666V40.7992C61.9053 40.7465 61.949 40.703 62.003 40.703H85.5322C85.5825 40.703 85.6262 40.7465 85.6262 40.7992V41.6397C85.6262 41.6929 85.6478 41.7402 85.6802 41.7777L85.8741 41.9702C85.9097 42.0039 85.9626 42.0267 86.0102 42.0267H96.1034C96.1288 42.0267 96.1568 42.0381 96.1752 42.0566C96.1941 42.0757 96.2022 42.1028 96.2022 42.13C96.0143 45.4331 95.3657 48.6748 94.2846 51.7583ZM96.1088 38.168H96.1039H86.0107C85.9632 38.168 85.9103 38.1908 85.8746 38.2256L85.6807 38.417C85.6483 38.4545 85.6267 38.5018 85.6267 38.5551V39.3955C85.6267 39.4488 85.583 39.4918 85.5328 39.4918H62.0035C61.9495 39.4918 61.9058 39.4488 61.9058 39.3955V39.3281C61.9058 39.2765 61.8885 39.2276 61.8502 39.1901L61.6552 38.9965C61.6217 38.9601 61.571 38.94 61.5186 38.94H37.5427C37.4893 38.94 37.4472 38.8965 37.4472 38.8438V38.5556C37.4472 38.5056 37.4283 38.4551 37.3899 38.4175L37.1982 38.2256C37.1599 38.1887 37.1107 38.1686 37.0605 38.1686H26.9673C26.9414 38.1686 26.9133 38.1566 26.8955 38.137C26.8776 38.1175 26.8717 38.0924 26.8717 38.0658C27.0461 34.947 27.6245 31.8945 28.5868 28.998C28.6003 28.9589 28.6354 28.9317 28.6786 28.9317H37.0605C37.1107 28.9317 37.1599 28.9116 37.1982 28.8741L37.3899 28.6778C37.4283 28.6414 37.4472 28.5925 37.4472 28.5408V28.4707C37.4472 28.4179 37.4893 28.3745 37.5427 28.3745H61.0428C61.0957 28.3745 61.1362 28.4179 61.1362 28.4707V29.3128C61.1362 29.3655 61.16 29.4128 61.1913 29.4509L61.3825 29.6438C61.4203 29.6775 61.4705 29.7004 61.5191 29.7004H86.0112C86.0631 29.7004 86.1106 29.6786 86.1436 29.6438L86.3396 29.4509C86.379 29.4161 86.3979 29.3655 86.3979 29.3128V29.0295C86.3979 28.9768 86.4417 28.9317 86.4924 28.9317H94.3936C94.4352 28.9317 94.4709 28.9589 94.4844 28.998C95.4424 31.8852 96.0197 34.9274 96.1979 38.0354C96.2033 38.0462 96.2065 38.0582 96.2065 38.0718C96.206 38.1245 96.166 38.168 96.1088 38.168ZM247.428 13.7273C247.299 9.68433 245.615 6.52854 241.055 6.52854C236.962 6.52854 234.682 9.68487 234.682 13.5447C234.682 18.3417 237.247 20.7413 241.885 20.7413C243.309 20.7413 245.383 20.3249 246.78 19.0979V17.4034H246.288C244.941 18.3694 243.232 18.8647 241.857 18.8647C239.474 18.8647 237.973 17.8753 237.169 16.0742C236.911 15.4751 236.806 14.7706 236.806 13.9633V13.7273H247.428ZM241.081 8.30241C243.491 8.30241 244.993 9.89472 245.123 12.1117H236.936C237.325 9.71151 238.594 8.30241 241.081 8.30241ZM225.574 49.7333V48.091H224.227C223.216 48.091 222.517 47.7512 222.517 45.9779L222.568 37.8935H225.806V36.1712H222.568L222.621 31.5036H220.548L220.523 36.1712H218.397V37.8935H220.523L220.497 45.7952C220.47 48.8722 221.534 49.7327 223.84 49.7327H225.574V49.7333ZM158.526 65.3198C156.79 65.3198 154.587 66.2587 153.785 68.1614H153.422C152.929 66.5196 151.53 65.3198 148.835 65.3198C147.334 65.3198 145.494 66.0249 144.639 67.9021H144.199V65.528H142.178V79.0895H144.276L144.329 69.9369C144.743 68.2418 146.998 67.197 148.214 67.197C150.391 67.197 151.895 68.3435 151.895 70.431V79.0895H153.992V70.3528C154.095 68.4245 156.506 67.197 157.93 67.197C160.132 67.197 161.633 68.3435 161.633 70.431V79.0895H163.733V70.2484C163.733 66.8316 161.661 65.3198 158.526 65.3198ZM244.311 49.7333H246.435V29.8602H244.311V49.7333ZM157.052 14.1465H166.223V12.2938H157.052V14.1465ZM158.526 36.1066C156.79 36.1066 154.587 37.0454 153.785 38.9481H153.422C152.929 37.3064 151.53 36.1066 148.835 36.1066C147.334 36.1066 145.494 36.8116 144.639 38.6888H144.199V36.3148H142.178V49.8757H144.276L144.329 40.7231C144.743 39.0286 146.998 37.9837 148.214 37.9837C150.391 37.9837 151.895 39.1308 151.895 41.2178V49.8757H153.992V41.1395C154.095 39.2113 156.506 37.9837 157.93 37.9837C160.132 37.9837 161.633 39.1308 161.633 41.2178V49.8757H163.733V41.0357C163.733 37.6184 161.661 36.1066 158.526 36.1066Z" fill="white" fill-opacity="0.64"/>
</g>
</svg>
