<svg width="203" height="62" viewBox="0 0 203 62" fill="none" xmlns="http://www.w3.org/2000/svg">
<path d="M32.8619 40.96C32.8619 48.32 28.4619 52.72 22.3819 52.72C15.2619 52.72 11.8219 47.76 11.1819 41.76H0.781875C1.42188 51.76 8.62188 61.04 22.2219 61.04C34.1419 61.04 44.0619 53.68 44.0619 40.88C44.0619 27.52 34.8619 20.48 24.9419 20.48C19.5819 20.48 15.8219 21.92 13.4219 23.68L15.0219 11.28H41.7419V2H5.98188L2.14188 33.92L12.2219 34.4C13.3419 31.68 17.0219 29.12 22.1419 29.12C27.5019 29.12 32.8619 33.04 32.8619 40.96ZM50.4656 30.88C50.4656 48.56 58.3056 61.04 73.8256 61.04C89.2656 61.04 97.1056 48.56 97.1056 30.88C97.1056 13.28 89.2656 0.959997 73.8256 0.959997C58.3056 0.959997 50.4656 13.28 50.4656 30.88ZM85.8256 30.88C85.8256 44.8 81.6656 52.72 73.8256 52.72C65.9856 52.72 61.7456 44.8 61.7456 30.88C61.7456 17.04 65.9856 9.28 73.8256 9.28C81.6656 9.28 85.8256 17.04 85.8256 30.88ZM103.513 30.88C103.513 48.56 111.353 61.04 126.873 61.04C142.313 61.04 150.153 48.56 150.153 30.88C150.153 13.28 142.313 0.959997 126.873 0.959997C111.353 0.959997 103.513 13.28 103.513 30.88ZM138.873 30.88C138.873 44.8 134.713 52.72 126.873 52.72C119.033 52.72 114.793 44.8 114.793 30.88C114.793 17.04 119.033 9.28 126.873 9.28C134.713 9.28 138.873 17.04 138.873 30.88ZM175.519 60H185.519V43.44H202.719V33.84H185.519V16.96H175.519V33.84H158.239V43.44H175.519V60Z" fill="white" fill-opacity="0.64"/>
</svg>
