<svg width="204" height="62" viewBox="0 0 204 62" fill="none" xmlns="http://www.w3.org/2000/svg">
<path d="M42.5588 15.84C42.5588 7.28 34.6388 0.959997 22.3188 0.959997C10.0788 0.959997 2.15875 7.28 2.15875 15.92C2.15875 21.04 4.47875 26.24 9.27875 28.96C2.79875 32.56 0.39875 37.84 0.39875 43.44C0.39875 54.8 10.0788 61.04 22.3188 61.04C34.6388 61.04 44.3188 54.8 44.3188 43.44C44.3188 37.84 41.9988 32.64 35.5188 28.96C40.4788 25.92 42.5588 21.04 42.5588 15.84ZM22.3188 9.28C28.0788 9.28 31.8388 12.4 31.8388 17.2C31.8388 22 28.0788 25.52 22.3188 25.52C16.5588 25.52 12.8788 22 12.8788 17.2C12.8788 12.4 16.5588 9.28 22.3188 9.28ZM11.6788 42.96C11.6788 37.2 15.8388 33.44 22.3188 33.44C28.8788 33.44 33.0388 37.2 33.0388 42.96C33.0388 48.72 28.8788 52.72 22.3188 52.72C15.8388 52.72 11.6788 48.72 11.6788 42.96ZM51.1688 30.88C51.1688 48.56 59.0088 61.04 74.5288 61.04C89.9688 61.04 97.8088 48.56 97.8088 30.88C97.8088 13.28 89.9688 0.959997 74.5288 0.959997C59.0088 0.959997 51.1688 13.28 51.1688 30.88ZM86.5288 30.88C86.5288 44.8 82.3688 52.72 74.5288 52.72C66.6888 52.72 62.4488 44.8 62.4488 30.88C62.4488 17.04 66.6888 9.28 74.5288 9.28C82.3688 9.28 86.5288 17.04 86.5288 30.88ZM104.216 30.88C104.216 48.56 112.056 61.04 127.576 61.04C143.016 61.04 150.856 48.56 150.856 30.88C150.856 13.28 143.016 0.959997 127.576 0.959997C112.056 0.959997 104.216 13.28 104.216 30.88ZM139.576 30.88C139.576 44.8 135.416 52.72 127.576 52.72C119.736 52.72 115.496 44.8 115.496 30.88C115.496 17.04 119.736 9.28 127.576 9.28C135.416 9.28 139.576 17.04 139.576 30.88ZM176.223 60H186.223V43.44H203.423V33.84H186.223V16.96H176.223V33.84H158.943V43.44H176.223V60Z" fill="white" fill-opacity="0.64"/>
</svg>
